<svg viewBox="0 0 256 296" xmlns="http://www.w3.org/2000/svg" preserveAspectRatio="xMinYMin meet">
  <defs>
    <linearGradient x1="50%" y1="45.23%" x2="50%" y2="100%" id="a">
      <stop stop-color="#F7F6F3" offset="0%"/>
      <stop stop-color="#FEF6D5" offset="100%"/>
    </linearGradient>
  </defs>
  <path d="M11.07 215.71L128 283.22l116.93-67.5V80.7L128 13.19 11.07 80.69v135.02zM128 296L0 222.1V74.3L128 .4l128 73.9v147.8L128 296z" fill="#A1070C"/>
  <path d="M9.58 79.83L128 11.46l118.42 68.37v136.74L128 284.94 9.58 216.57V79.83" fill="url(#a)"/>
  <path d="M182.33 98.17a42.8 42.8 0 0 1-3.18 16.01 59.13 59.13 0 0 1-8.53 14.74 62.44 62.44 0 0 1-12.35 11.87 47.66 47.66 0 0 1-14.53 7.32l-2.22-3.71a34.05 34.05 0 0 0 8.16-5.73 37.14 37.14 0 0 0 6.36-7.9 39.17 39.17 0 0 0 4.08-9.33 35.76 35.76 0 0 0 1.43-10.02c0-3.88-.56-7.56-1.7-11.02a26.55 26.55 0 0 0-4.97-9.07 23.28 23.28 0 0 0-8.11-6.09 26.16 26.16 0 0 0-11.08-2.23c-5.1 0-9.76 1-14 2.97a40.6 40.6 0 0 0-11.45 8 54.46 54.46 0 0 0-8.85 11.56 79.72 79.72 0 0 0-6.25 13.68 91.78 91.78 0 0 0-3.77 14.47 80.63 80.63 0 0 0-1.27 13.78c0 4.38.46 8.9 1.38 13.57a80.66 80.66 0 0 0 4.03 13.78 70.82 70.82 0 0 0 6.57 12.83 51.65 51.65 0 0 0 9.06 10.6 42.22 42.22 0 0 0 11.45 7.26 34.5 34.5 0 0 0 13.73 2.7c3.4 0 6.7-.45 9.91-1.37a48.88 48.88 0 0 0 9.28-3.71 52.35 52.35 0 0 0 8.43-5.51 64.89 64.89 0 0 0 7.37-6.9l3.5 3.4a81.93 81.93 0 0 1-11.08 11.82A90.51 90.51 0 0 1 149.89 216a75.56 75.56 0 0 1-15.53 7 52.42 52.42 0 0 1-16.06 2.6c-5.16 0-10.02-.9-14.58-2.71a48.1 48.1 0 0 1-12.56-7.32 56.23 56.23 0 0 1-10.23-10.8 73.25 73.25 0 0 1-7.63-13.2 74.96 74.96 0 0 1-4.77-14.43 67.1 67.1 0 0 1-1.65-14.52c0-6.86 1.15-13.9 3.45-21.15 2.3-7.24 5.46-14.28 9.49-21.1a120.08 120.08 0 0 1 14.25-19.34 109.83 109.83 0 0 1 17.71-15.9 88.83 88.83 0 0 1 19.82-10.77 57.09 57.09 0 0 1 20.62-3.97 37 37 0 0 1 11.88 1.85 27.97 27.97 0 0 1 9.54 5.36 24.76 24.76 0 0 1 6.36 8.7 28.7 28.7 0 0 1 2.33 11.87z" fill="#A1070C"/>
</svg>
