<svg data-name="Layer 1" xmlns="http://www.w3.org/2000/svg" viewBox="0 0 256 295.6">
  <defs>
    <linearGradient id="c711adea-9ccc-4794-9626-14af8f9cd105" x1="-175.75" y1="543.24" x2="-175.75" y2="542.7" gradientTransform="matrix(236.84 0 0 -273.48 41753.26 148701.27)" gradientUnits="userSpaceOnUse">
      <stop offset="0" stop-color="#f7f6f3"/>
      <stop offset="1" stop-color="#fef6d5"/>
    </linearGradient>
  </defs>
  <path d="M11.07 215.31L128 282.82l116.93-67.5V80.3L128 12.79 11.07 80.29zM128 295.6L0 221.7V73.9L128 0l128 73.9v147.8z" fill="#a1070c"/>
  <path d="M9.58 79.43L128 11.06l118.42 68.37v136.74L128 284.54 9.58 216.17V79.43" fill="url(#c711adea-9ccc-4794-9626-14af8f9cd105)"/>
  <path d="M182.33 97.77a42.8 42.8 0 0 1-3.18 16 59.13 59.13 0 0 1-8.53 14.74 62.44 62.44 0 0 1-12.35 11.87 47.66 47.66 0 0 1-14.53 7.32l-2.22-3.7a34 34 0 0 0 8.16-5.73 37.14 37.14 0 0 0 6.36-7.9 39.17 39.17 0 0 0 4.08-9.33 35.76 35.76 0 0 0 1.43-10 35 35 0 0 0-1.7-11 26.55 26.55 0 0 0-5-9.07 23.28 23.28 0 0 0-8.11-6.09 26.16 26.16 0 0 0-11.08-2.23 32.8 32.8 0 0 0-14 3 40.6 40.6 0 0 0-11.45 8 54.46 54.46 0 0 0-8.85 11.56 79.72 79.72 0 0 0-6.25 13.68 91.78 91.78 0 0 0-3.77 14.47 80.63 80.63 0 0 0-1.27 13.78 70.14 70.14 0 0 0 1.38 13.57 80.66 80.66 0 0 0 4 13.78 70.82 70.82 0 0 0 6.57 12.83 51.65 51.65 0 0 0 9.06 10.6 42.22 42.22 0 0 0 11.45 7.26 34.5 34.5 0 0 0 13.73 2.7 35.77 35.77 0 0 0 9.91-1.37 48.88 48.88 0 0 0 9.28-3.71 52.35 52.35 0 0 0 8.43-5.51 64.89 64.89 0 0 0 7.37-6.9l3.5 3.4a81.93 81.93 0 0 1-11.08 11.82 90.51 90.51 0 0 1-13.84 10.06 75.56 75.56 0 0 1-15.53 7 52.42 52.42 0 0 1-16.06 2.6 39.15 39.15 0 0 1-14.58-2.71 48.1 48.1 0 0 1-12.56-7.32 56.23 56.23 0 0 1-10.23-10.8 73.25 73.25 0 0 1-7.63-13.2 75 75 0 0 1-4.77-14.43 67.1 67.1 0 0 1-1.65-14.52 69.72 69.72 0 0 1 3.45-21.15A102.27 102.27 0 0 1 79.82 120a120.08 120.08 0 0 1 14.25-19.34 109.83 109.83 0 0 1 17.71-15.9A88.83 88.83 0 0 1 131.6 74a57.09 57.09 0 0 1 20.62-4 37 37 0 0 1 11.88 1.85 28 28 0 0 1 9.54 5.36A24.76 24.76 0 0 1 180 85.9a28.7 28.7 0 0 1 2.33 11.87z" fill="#a1070c"/>
</svg>
