<svg id="fdbe6208-f8cc-4010-9dfc-3439603c3031" data-name="Layer 1" xmlns="http://www.w3.org/2000/svg" xmlns:xlink="http://www.w3.org/1999/xlink" viewBox="0 0 263.93 250">
  <defs>
    <linearGradient id="ec28701b-5d65-415e-96da-68d558f97c18" x1="-175.36" y1="525.17" x2="-175.16" y2="524.96" gradientTransform="matrix(805.55, 0, 0, -795.19, 141366.91, 417632.12)" gradientUnits="userSpaceOnUse">
      <stop offset="0" stop-color="#f9a03c"/>
      <stop offset="1" stop-color="#f7974e"/>
    </linearGradient>
    <linearGradient id="8c5792c7-c960-416a-a688-3afcd3495094" x1="-175.28" y1="527.26" x2="-174.9" y2="526.89" gradientTransform="matrix(392.68, 0, 0, -394.64, 68804.55, 208128.1)" xlink:href="#ec28701b-5d65-415e-96da-68d558f97c18"/>
    <linearGradient id="f386c928-1633-4f06-a900-f894882198b3" x1="-176.38" y1="528.49" x2="-176.05" y2="528.11" gradientTransform="matrix(400.78, 0, 0, -389.96, 70735.05, 206192.98)" xlink:href="#ec28701b-5d65-415e-96da-68d558f97c18"/>
    <linearGradient id="cfdedb7d-fdd3-4190-95c7-bce17920ed25" x1="-173.52" y1="524.27" x2="-173.45" y2="524.17" gradientTransform="matrix(2498.34, 0, 0, -2363.39, 433552.4, 1239037.4)" gradientUnits="userSpaceOnUse">
      <stop offset="0" stop-color="#f26d58"/>
      <stop offset="1" stop-color="#f9a03c"/>
    </linearGradient>
    <linearGradient id="b80832ea-25aa-44d2-ba0e-b6ec955bb7cf" x1="-174.01" y1="524.21" x2="-173.9" y2="524.14" gradientTransform="matrix(1569.6, 0, 0, -1707.12, 273247.11, 894907.17)" gradientUnits="userSpaceOnUse">
      <stop offset="0" stop-color="#b84e51"/>
      <stop offset="1" stop-color="#f68e48"/>
    </linearGradient>
    <linearGradient id="f67954ab-d5ac-417d-b497-8387143ad624" x1="-173.46" y1="525.5" x2="-173.45" y2="525.37" gradientTransform="matrix(1726.19, 0, 0, -904.57, 299502.27, 475530.78)" xlink:href="#ec28701b-5d65-415e-96da-68d558f97c18"/>
  </defs>
  <title>d3</title>
  <path d="M263.52,181.12c.12-1.15.2-2.31.27-3.48.08-1.38-83.08-80.29-83.08-80.29h-2s84.29,88.91,84.8,83.76Z" style="fill: url(#ec28701b-5d65-415e-96da-68d558f97c18)"/>
  <path d="M86.09,153.74l-.33.73-.36.76c-2.65,5.53,37.11,44.4,40.31,39.68l.44-.64.48-.73c2.56-3.88-39.4-42.32-40.54-39.79Z" style="fill: url(#8c5792c7-c960-416a-a688-3afcd3495094)"/>
  <path d="M142.28,208.41a11.09,11.09,0,0,1-1.64,2.32c-.12.25,38.82,38.87,38.82,38.87H183S146.4,210,142.28,208.41Z" style="fill: url(#f386c928-1633-4f06-a900-f894882198b3)"/>
  <path d="M263.84,176.94a76.21,76.21,0,0,1-76,72.65H182.3l-40.75-40.15a146.05,146.05,0,0,0,9.24-14.73h37a21.24,21.24,0,0,0,0-42.48H165.91A146.37,146.37,0,0,0,168.49,125a145.76,145.76,0,0,0-2.66-27.65h13.61l84.16,82.93c.1-1.11.18-2.22.24-3.34ZM22.14,0H0V54.88H22.14A70.2,70.2,0,0,1,92.27,125a69.72,69.72,0,0,1-6.52,29.47l40.39,39.8a124.26,124.26,0,0,0,21-69.27A125.15,125.15,0,0,0,22.14,0Z" style="fill: url(#cfdedb7d-fdd3-4190-95c7-bce17920ed25)"/>
  <path d="M187.82,0H98.17a147.34,147.34,0,0,1,52.38,54.88h37.27a21.24,21.24,0,1,1,0,42.48h-8.37l84.16,82.93c.2-2.25.32-4.51.32-6.81a75.73,75.73,0,0,0-17.66-48.68A76.06,76.06,0,0,0,187.82,0Z" style="fill: url(#b80832ea-25aa-44d2-ba0e-b6ec955bb7cf)"/>
  <path d="M182.3,249.59H98.81a147.62,147.62,0,0,0,42.74-40.15l40.75,40.15Zm-56.16-55.32-40.39-39.8a70.22,70.22,0,0,1-63.62,40.66H0V250H22.14A125,125,0,0,0,126.14,194.27Z" style="fill: url(#f67954ab-d5ac-417d-b497-8387143ad624)"/>
</svg>
