<svg id="4b05ee00-b540-4cca-8f57-0b250fdeb989" data-name="Layer 1" xmlns="http://www.w3.org/2000/svg" xmlns:xlink="http://www.w3.org/1999/xlink" viewBox="0 0 263.94 250">
  <defs>
    <linearGradient id="88dc776a-6caa-49f7-8f89-98afc2f51b5a" x1="-348.14" y1="-2.83" x2="-347.94" y2="-2.62" gradientTransform="translate(280554.05 2272.93) scale(805.55 795.19)" gradientUnits="userSpaceOnUse">
      <stop offset="0" stop-color="#f9a03c"/>
      <stop offset="1" stop-color="#f7974e"/>
    </linearGradient>
    <linearGradient id="2ab0080e-ad21-40aa-b830-893c34154410" x1="-347.84" y1="-4.58" x2="-347.46" y2="-4.21" gradientTransform="translate(136565.19 1856) scale(392.68 394.64)" xlink:href="#88dc776a-6caa-49f7-8f89-98afc2f51b5a"/>
    <linearGradient id="8e7339ce-7287-40e3-93f7-900b3c3d4b25" x1="-348.94" y1="-5.8" x2="-348.61" y2="-5.42" gradientTransform="translate(139896.99 2363.86) scale(400.78 389.96)" xlink:href="#88dc776a-6caa-49f7-8f89-98afc2f51b5a"/>
    <linearGradient id="bb5b0a42-72ab-46a4-b51d-155123c21b66" x1="-346.45" y1="-2.15" x2="-346.38" y2="-2.05" gradientTransform="translate(865592.24 5077.8) scale(2498.34 2363.39)" gradientUnits="userSpaceOnUse">
      <stop offset="0" stop-color="#f26d58"/>
      <stop offset="1" stop-color="#f9a03c"/>
    </linearGradient>
    <linearGradient id="43dccfdf-dac6-438a-84cf-b132a407ca33" x1="-346.9" y1="-2.06" x2="-346.79" y2="-1.99" gradientTransform="translate(544614.92 3520.51) scale(1569.6 1707.12)" gradientUnits="userSpaceOnUse">
      <stop offset="0" stop-color="#b84e51"/>
      <stop offset="1" stop-color="#f68e48"/>
    </linearGradient>
    <linearGradient id="98eb8815-dc96-42b0-a60d-a53043871288" x1="-346.36" y1="-3.2" x2="-346.35" y2="-3.07" gradientTransform="translate(597960.14 3075.22) scale(1726.19 904.57)" xlink:href="#88dc776a-6caa-49f7-8f89-98afc2f51b5a"/>
  </defs>
  <title>d3</title>
  <path d="M263.52,181.12c.12-1.15.2-2.31.27-3.48.08-1.38-83.08-80.29-83.08-80.29h-2s84.29,88.91,84.8,83.76Z" style="fill: url(#88dc776a-6caa-49f7-8f89-98afc2f51b5a)"/>
  <path d="M86.09,153.74l-.33.73-.36.76c-2.65,5.53,37.11,44.4,40.31,39.68l.44-.64.48-.73c2.56-3.88-39.4-42.32-40.54-39.79Z" style="fill: url(#2ab0080e-ad21-40aa-b830-893c34154410)"/>
  <path d="M142.28,208.41a11.09,11.09,0,0,1-1.64,2.32c-.12.25,38.82,38.87,38.82,38.87H183S146.4,210,142.28,208.41Z" style="fill: url(#8e7339ce-7287-40e3-93f7-900b3c3d4b25)"/>
  <path d="M263.84,176.94a76.21,76.21,0,0,1-76,72.65H182.3l-40.75-40.15a146.05,146.05,0,0,0,9.24-14.73h37a21.24,21.24,0,0,0,0-42.48H165.91A146.37,146.37,0,0,0,168.49,125a145.76,145.76,0,0,0-2.66-27.65h13.61l84.16,82.93c.1-1.11.18-2.22.24-3.34ZM22.14,0H0V54.88H22.14A70.2,70.2,0,0,1,92.27,125a69.72,69.72,0,0,1-6.52,29.47l40.39,39.8a124.26,124.26,0,0,0,21-69.27A125.15,125.15,0,0,0,22.14,0Z" style="fill: url(#bb5b0a42-72ab-46a4-b51d-155123c21b66)"/>
  <path d="M187.82,0H98.17a147.34,147.34,0,0,1,52.38,54.88h37.27a21.24,21.24,0,0,1,0,42.48h-8.38l84.16,82.93c.2-2.25.32-4.51.32-6.81a75.73,75.73,0,0,0-17.66-48.68A76.06,76.06,0,0,0,187.82,0Z" style="fill: url(#43dccfdf-dac6-438a-84cf-b132a407ca33)"/>
  <path d="M182.3,249.59H98.81a147.62,147.62,0,0,0,42.74-40.15Zm-56.16-55.32-40.39-39.8a70.22,70.22,0,0,1-63.62,40.66H0V250H22.14a125,125,0,0,0,104-55.73Z" style="fill: url(#98eb8815-dc96-42b0-a60d-a53043871288)"/>
</svg>
