<?xml version="1.0" encoding="utf-8"?>
<!-- Generator: Adobe Illustrator 21.1.0, SVG Export Plug-In . SVG Version: 6.00 Build 0)  -->
<svg version="1.1" id="Layer_1" xmlns="http://www.w3.org/2000/svg" xmlns:xlink="http://www.w3.org/1999/xlink" x="0px" y="0px"
	 viewBox="0 0 250 250" style="enable-background:new 0 0 250 250;" xml:space="preserve">
<path d="M0,125c0-34.5,12.2-64,36.6-88.4C61,12.2,90.5,0,125,0c34.5,0,64,12.2,88.4,36.6C237.8,61,250,90.5,250,125
	s-12.2,64-36.6,88.4S159.5,250,125,250c-34.5,0-64-12.2-88.4-36.6C12.2,189,0,159.5,0,125z M13.7,125c0,30.6,10.9,56.8,32.7,78.6
	c21.8,21.8,48,32.7,78.6,32.7c30.6,0,56.8-10.9,78.6-32.7s32.7-48,32.7-78.6c0-30.6-10.9-56.8-32.7-78.6
	c-21.8-21.8-48-32.7-78.6-32.7c-30.6,0-56.8,10.9-78.6,32.7C24.6,68.2,13.7,94.4,13.7,125z M48.8,151.9c-0.7-0.7-0.7-1.3,0-2
	c1.3-1.3,2.9-1.8,4.9-1.5c2,0.3,3.1,0.7,3.4,1c2.3,1,4.8,3.2,7.6,6.6c2.8,3.4,5,5.8,6.6,7.1c7.8,6.5,15.8,7,23.9,1.5
	c0.7-2.3,1.7-4.2,3.2-5.9c1.5-1.6,2.8-2.8,4.2-3.4c1.3-0.7,3.6-1.6,6.8-2.9c-10.7-1-19.4-2.8-26.1-5.6c-6.7-2.8-12-6.3-15.9-10.5
	c-5.2-5.9-8.4-13.5-9.5-22.9c-1.1-9.4-0.4-18.1,2.2-25.9c2-4.9,4.7-9.3,8.3-13.2c-2.6-8.1-2.1-17.4,1.5-27.8
	c10.4,0.7,19.9,4.2,28.3,10.7c16.3-4.2,33.2-4.4,50.8-0.5c2.3-1.6,5.8-3.7,10.5-6.1c4.7-2.4,10.7-3.8,17.8-4.2
	c1.3,3.6,2.2,7.8,2.7,12.7s0.2,9.4-0.7,13.7c7.5,7.8,11.4,18.2,11.7,31.2c0,10.4-1.8,19-5.4,25.9s-9.9,12.5-19,17.1
	c-6.2,2.9-14.3,4.7-24.4,5.4c4.6,2.3,7.9,4.6,10,7.1c2.1,2.4,3.5,6.3,4.2,11.5v15.4l0.5,14.9c1,1.6,2.1,3,3.4,4.2
	c1.3,1.1,2.4,2,3.4,2.4c1,0.5,1.3,1.2,1,2.2c-0.3,1-1.6,1.5-3.9,1.5c-5.5,0-9.9-2-13.2-5.9c-1-1.6-1.5-3.6-1.5-5.9v-23.4
	c0-2.6-0.7-4.5-2-5.6c-1.3-1.1-2.6-1.9-3.9-2.2v30.8c0,5.5,0.7,9.1,2,10.7c1.3,1.6,2.1,3.3,2.4,4.9c0.3,0.3,0.1,0.6-0.7,0.7
	c-0.8,0.2-2.2-0.1-4.2-0.7c-4.2-1-7.2-3.2-8.8-6.6s-2.4-7.1-2.4-11V167h-6.3v30.3c0,3.9-0.8,7.6-2.4,11.2c-2.3,4.6-6.5,7-12.7,7.3
	c-1-0.3-1.5-0.7-1.5-1c0.3-0.3,1.3-2,2.9-4.9c0.3-0.7,0.7-2,1.2-3.9c0.5-2,0.7-4.2,0.7-6.8v-30.8c-1.3,0.3-2.5,1.1-3.7,2.2
	c-1.1,1.1-1.7,3-1.7,5.6v23.4c0,2.3-0.5,4.2-1.5,5.9c-2.9,3.9-7.3,5.9-13.2,5.9c-2.3,0-3.6-0.5-3.9-1.5c-0.3-0.7-0.2-1.2,0.2-1.7
	s1.2-1.1,2.2-1.7c1-0.7,1.6-1.1,2-1.5c1.3-1,2.3-2.3,2.9-3.9c1-1.3,1.2-4.7,0.7-10.3s-0.6-9.1-0.2-10.7c-8.5,2.9-17.1,1.5-25.9-4.4
	c-2.6-2.6-5.2-6.3-7.8-11.2C58.6,161,54.7,156.7,48.8,151.9L48.8,151.9z"/>
</svg>
