<svg data-name="Layer 1" xmlns="http://www.w3.org/2000/svg" viewBox="0 0 51.25 50">
  <path d="M25.63 0a25.07 25.07 0 0 1 12.86 3.44 25.51 25.51 0 0 1 9.33 9.33 25.07 25.07 0 0 1 3.44 12.86 24.91 24.91 0 0 1-4.89 15.07A25.1 25.1 0 0 1 33.73 50a1.49 1.49 0 0 1-1.33-.23 1.31 1.31 0 0 1-.43-1v-2.55-4.49a5.94 5.94 0 0 0-1.74-4.74 22.85 22.85 0 0 0 3.42-.6A13.63 13.63 0 0 0 36.82 35a9.33 9.33 0 0 0 2.7-2.22 10.33 10.33 0 0 0 1.77-3.5 16.82 16.82 0 0 0 .68-5 9.88 9.88 0 0 0-2.64-6.87 8.88 8.88 0 0 0-.27-6.81 4.37 4.37 0 0 0-2.7.37 18 18 0 0 0-3.07 1.47l-1.27.8a24.09 24.09 0 0 0-12.81 0q-.53-.37-1.42-.9A20 20 0 0 0 15 11.06a4.59 4.59 0 0 0-2.84-.45 8.88 8.88 0 0 0-.27 6.81 9.88 9.88 0 0 0-2.64 6.87 16.66 16.66 0 0 0 .68 5 10.74 10.74 0 0 0 1.75 3.5A9 9 0 0 0 14.4 35a13.63 13.63 0 0 0 3.14 1.3 22.85 22.85 0 0 0 3.42.6 5.64 5.64 0 0 0-1.64 3.44 6.62 6.62 0 0 1-1.5.5 9.44 9.44 0 0 1-1.9.17 3.93 3.93 0 0 1-2.19-.72 5.88 5.88 0 0 1-1.85-2.09 5.38 5.38 0 0 0-1.62-1.74 4.87 4.87 0 0 0-1.65-.8l-.67-.1a2.16 2.16 0 0 0-1 .15q-.27.15-.17.38a1.84 1.84 0 0 0 .3.47 2.44 2.44 0 0 0 .43.4l.23.17a4 4 0 0 1 1.45 1.27 8.34 8.34 0 0 1 1.05 1.7l.33.77A4.23 4.23 0 0 0 12.08 43a5.19 5.19 0 0 0 2.24 1 14.25 14.25 0 0 0 2.32.23 9.82 9.82 0 0 0 1.85-.12l.77-.13v4.82a1.31 1.31 0 0 1-.43 1 1.49 1.49 0 0 1-1.33.23 25.1 25.1 0 0 1-12.61-9.34A24.91 24.91 0 0 1 0 25.63a25.07 25.07 0 0 1 3.44-12.87 25.51 25.51 0 0 1 9.33-9.33A25.07 25.07 0 0 1 25.63 0zM9.71 36.8q.1-.23-.23-.4t-.48.07q-.1.23.23.4t.48-.07zm1 1.13q.23-.17-.07-.53t-.53-.1q-.23.17.07.53t.56.11zm1 1.5q.3-.23 0-.63t-.57-.2q-.3.17 0 .6t.61.24zm1.4 1.4q.27-.27-.13-.63t-.67-.1q-.3.27.13.63t.71.11zm1.9.83q.1-.37-.43-.53t-.63.23q-.13.37.43.5t.62-.18zm2.1.17q0-.43-.57-.37t-.53.37q0 .43.57.37t.57-.36zm1.94-.33q-.07-.37-.6-.3t-.47.5q.07.4.6.27t.51-.46z" fill="#fff"/>
</svg>
