<svg xmlns="http://www.w3.org/2000/svg" viewBox="0 0 307.01 355.87">
  <path d="M48.17 155.57C37.78 160.45 10.29 182.45 5 189c-5.5 6.52-7.13-3.67-1.43-20.57 4.48-13.65 15.89-32.18 35-48.07 11.2-9.17 35.85-22.4 50.92-30.15 3.06-1.63 42.57-18.33 77.81-26.68 3.06-.82-3.67 5.09-4.68 8.35-5.3 15.48-111 81.88-111 81.88zm148.9 186.78c1.83 11 .2 11.81-11.2 13.24s-19.76-2.85-22.81-5.7-3.67-9.17-.61-14.87c1.83-3.67 3.67-4.89 4.69-9.37a22.82 22.82 0 0 1 2.65-6.92c.81-1.43 1-2.85 1.22-12.83s0-28.72 1-36.66c1-8.15 36.26 3.67 36.26 3.67s-8.35 20.78-10.59 25.87-2 14.87-2 16.91-.81 6.11-1.43 6.31 2 5.5.81 8.55c-.84 2.84 1.8 10.17 2.01 11.8zm13.44-311.44c-1.22-7.74 0-23 1.63-25.46 5.09-6.93 32-7.74 37.68.41 2.44 3.67 2.24 12.22 1.83 17.72s-1.83 17.31-2 21.18c-.2 2.85-29.74 7.33-36.26-.41-1.86-2.03-2.88-13.44-2.88-13.44zm59.89 291.68c12.42 9 22 10.59 28.31 13.85s4.68 9.57-5.91 11.41c-8.55 1.63-22-1.63-31-1.63s-28.92 1-34.22-2.65c-6.11-4.28-3.46-12.22-3.46-12.22 1.63-4.48 5.7-14.46 4.48-22.61s-2.85-12.63-5.91-20.16-5.29-26.07-2.44-27.09 2 0 5.7.81a59.3 59.3 0 0 0 15.68 2 120.05 120.05 0 0 0 19.76-1.83c3.05-.61 5.5-1.22 4.48 5.09s-4.07 18.13-4.28 27.29-.2 19.76.41 21.59 5.14 3.91 8.4 6.15z"/>
  <g fill="#88ce02">
    <path d="M226.81 51.28C204.4 70.63 161 75.93 96.65 100.78c-16.5 6.31-60.49 25.26-71.09 45 35.64-20.57 48.89 7.74 51.74 36.87 2.65 27.29 16.29 41.55 51.33 40.74 36.05-.81 47.05 20.17 57 44.81C205 173.9 236 155.57 255.93 139.48c42.37-34.43-9.77-95.13-29.12-88.2z"/>
    <path d="M226.81 51.28C173 70 119.87 74.7 57.34 113.2 42.47 122.37 11.1 143.14 5 182.86c22.81-25.26 75.57-57 140.14-77.2 32.59-10.18 56.42-16.91 85.35-28.11-2.05-13.03-2.05-18.12-3.68-26.27z"/>
  </g>
  <path d="M295.45 162.9s-3.87 13.24-11.61 17.52c0 0-5.7 2-17.11-4.28-3.26-1.83-5.7-8.15-5.5-10.18a9.5 9.5 0 0 1 3.26-7.13s3.26-5.5 7.13-5.3 10.39.81 12.43-1c1.83-2.06 11.81 3.65 11.4 10.37zM212.34 34.78a159.11 159.11 0 0 1-2.24 16.91c-.2 1.22-6.31 1.83-10.8 3.67 8.55 24.44 60.09 24.24 66.81 12.22a88.75 88.75 0 0 0-12.83-6.92c-3.06-1.22-2.85-1-3.06-6.72s-.61-16.3-1-19.15-31.99-2.86-36.88-.01z"/>
  <path d="M214.38 34.78s0 5.91-.61 11.61a48 48 0 0 1-.77 6.31c-.2 1.22 6.93 6.11 9 16.91 9.78 21.79 32.39 11 41.76.61A78.72 78.72 0 0 0 249 62.48c-3.06-1.22-1.63-3.87-1.83-9.57s-1-14.05-1.43-17.11-26.47-3.87-31.36-1.02z" fill="#efefef"/>
  <path d="M212.34 34.78s-.2 3.67-.81 7.94c2.65 2.65 6.11 6.31 8.76 8.55 1.83 1.63 6.31 1.43 10.39 1.43 3.67 0 6.93.41 8.35-.41 3.26-1.63 7.94-5.7 10.59-8.76-.2-3.67-.41-7.13-.61-8.76-.21-2.84-31.78-2.84-36.67.01z"/>
  <path d="M230.88 50.26a45.1 45.1 0 0 1-7.54-.61 12 12 0 0 1-2.85-1.22c-1.43-1-2.85-2.24-4.48-3.46-3.26-2.44-3.46-3.87-3.46-4.48a94.76 94.76 0 0 0-.41-23.63s-1.43-5.5 6.31-6.93a100.09 100.09 0 0 1 12.43-1.63 65.13 65.13 0 0 1 12.42 1.63c7.74 1.43 6.31 6.93 6.31 6.93a94.79 94.79 0 0 0-.41 23.63c0 .61-.2 2-3.46 4.48-2.85 2-5.09 4.28-7.33 4.68a45.12 45.12 0 0 1-7.53.61z"/>
  <path d="M230.88 3c-13.44 0-16.09 3.67-20 7.74-.81 1-.2 7.13 1.22 20.16h1.9a24.37 24.37 0 0 1-1-7.9c.2-4.28 1-4.07.41-5.09-.81-1.22-2.44-3.26 1.22-5.3s9.37 1.63 16.29 1.83c6.93-.2 12.83-3.87 16.5-1.83s2 4.07 1.22 5.3.2.81.41 5.09a24.4 24.4 0 0 1-1 7.94h1.83c1.22-13 2-18.74 1.43-19.76-3.52-4.51-6.99-7.97-20.43-8.18zm64.57 160.51s-3.87 12.42-11.41 16.7c-1.63-.81-1.43-2-2.85-3.87-.41-.61-1.83-1-2.44-1.63s-.41-1.63-1.43-2.44c-.82-.82-1.43-.2-2.24-.82-.81-.81-1-1.83-1.63-2.44-.41-.41-2-.61-2.44-1-1-1-10-2.85-9.57-4.89a17.72 17.72 0 0 1 2.44-5.3s3.87-5.7 7.74-5.5 7.54 1 9.57-.81c2.24-2.05 14.87 5.49 14.26 12z"/>
  <path d="M269 73.48s12.83-3.06 21.59 5.3a23.14 23.14 0 0 1 5.5 25.66 19.74 19.74 0 0 1 3.26 18.74c13.44 11.41 7.54 28.92-4.48 40.53 0 0-2.85-10.59-14.26-11.2.41-4.07-10.59-7.33-5.5-17.92-7.74-1.83-7.54-7.13-8.76-13.65-1.05-6.52 2.65-47.46 2.65-47.46z"/>
  <path d="M264.28 79.18s14.87-7.54 23.63 1 6.31 17.92 3.67 24.44c2.24 2.65 7.54 10.18 4.28 19.15-.61 2-5.09 2-8.35 7.33 8.15-4.69 13.24-3.46 15.07 2.44 2.85 9.17-3.46 20.17-9 26.28 0-.2-.2-.41-.2-.61-.81 3.06-1.83 9-7.94 15.48-3.06 3.26-5.5 2.85-9 2-4.07-1-5.5-2.85-11.2-5.91-3.26-1.83-1.43-4.07-1.43-5.91a4.18 4.18 0 0 1 1-1.83 16.4 16.4 0 0 1 3.46-4.48s2.65-3.67 6.52-3.46 7.94-.61 9-1.63c0-7.13-8.15-7.33-5.3-19.55.2-.61 1.22-1.63 4.48-2-4.89-1-7.13-1.22-10.59-4.48a15 15 0 0 1-4.89-8.76c-1.17-6.29-3.21-39.5-3.21-39.5z" fill="#efefef"/>
  <path d="M221.31 66.35a36.84 36.84 0 0 0-19.55-13c-3.46-1-5.7 1.83-9.16 3.87-1-.61-5.5-2.65-7.94-1.22s-4.07 2.85-6.52 3.87c-1.22-.61-4.48-.61-7.13.41-2.65.82-6.72 2.65-10.59 7.94-2.44 8.76 43.18 2.24 43.18 2.24z"/>
  <path d="M221.71 66.35c-6.52-2.24-5.5-9.78-20-11-2.85-.2-4.68 2-6.72 3.46a12.73 12.73 0 0 1 2.65 4.28c-1.83-2-5.09-4.68-8.35-5.3-3.05-.61-5.09 1.63-8.35 3.26a21.19 21.19 0 0 1 2 2.85c-2.85-1.83-4.89-2.44-8.76-1a22.49 22.49 0 0 0-11.61 8.55c-2.44 8.76 41.15-1 41.15-1z" fill="#88ce02"/>
  <path d="M260 69.61s0-2.24-.2-4.28c0-.41-1.63-1.43-1.63-1.83l-.41-.41s3.26-1.83 5.7-.81c2.65.81 4.07 4.28 4.07 4.28 4.68-1.63 5.09.2 7.33 2.65 4.89-1 5.5.81 8.55 5.3 0 0-3.67-.61-10.8.61-6.9 1.01-12.61-5.71-12.61-5.51z"/>
  <path d="M259.19 68.59s1.22-1 .81-1.22c2.24-1.22 5.3-2.65 6.72 1.22 4.68-1.63 5.3.61 7.54 3.06 5.7-2.65 6.11.61 6.52 2a80.45 80.45 0 0 0-8.15.61c-6.92 1.05-13.63-5.87-13.44-5.67z" fill="#88ce02"/>
  <path d="M189.94 63.5s11.61 4.07 21.39 3.46c9.78-.81 26.48-1.63 35.44 3.67 0 0 9.17-3.26 17.72-1S288.73 86.52 284 102c-.41 1-3.06 2.65-6.11 3.67 0 0 1.63 6.92-1.22 12.63-2.85 5.5-9.17 16.09-9.37 30.76-.2 2.44-.61 7.54-1 10-15.89-.61-40.33-6.52-64.36-6.11.2-2.65.41-4.28.61-6.92h.61c-1.22-6.72-1.63-10.18-2.85-15.28-7.74-4.89-15.89-10.59-22.81-21.39-6.71-10.83 12.44-45.86 12.44-45.86zm78.62 109.99s12.63 45.22-2.24 64.16a27 27 0 0 1-2.85 18.13c-.82 4.07-1.83 7.74-2.44 11.81-2.65 16.91-7.13 24-8.35 51.13l-12.22-.2S239 299 234.75 288.57c-2.44-5.91-12-13.85-11.61-21.79.41-6.11 1.63-11.2 12-19.35.81-11.81-11-23-9.17-67z"/>
  <path d="M264.9 171.66c3.26 20.78 10.8 51.53-2.85 66.61a30.71 30.71 0 0 1 .2 11.61 47.5 47.5 0 0 1-2.24 7.94c-2 4.89-2.85 12-3.46 16.3-2.65 16.91-2.65 17.72-3.87 44.81l-12.22-.2s-1.43-19.55-5.7-29.94c-2.44-5.91-7.54-11-7.94-18.94-.41-6.11 3.87-18.33 14.06-17.92-.61-24.65-12-19.76-15.07-71.09zM189.94 63.5a48.22 48.22 0 0 0 9.37 1.83 120.2 120.2 0 0 0 14.87-.2c9.78-.81 23.63-1.83 32.79 3.46a31.55 31.55 0 0 1 10.59-1.22c2.44.2 4.89 2.24 7.74 3.06 9 2.24 17.52 17.11 13.65 30.55-.41 1-3.26 0-6.52 1a27 27 0 0 1-2.24 16.3c-3.46 6.93-7.94 15.89-7.13 33-21.39-1-31-2.44-52.14-3.46a122.38 122.38 0 0 1-3.26-18.94 20.3 20.3 0 0 0 6.72-5.09c-6.11 1-8.55.61-12.22-1.43s-10.18-8.55-13.44-12.83c-.41-.41-2.65 6.31-7.74 6.52-1.83-2.65 5.91-10.18 4.48-13-5.09-10.42 4.48-39.55 4.48-39.55z" fill="#efefef"/>
  <path d="M266.52 154.75s.41 7.33.41 9.17c0 2 1.63 8.15 1.83 11-2.24 3.87-12 12.63-29.74 15.89-17.51 3.66-40.73-23.81-40.73-23.81.61-2.65 2.65-10.39 4.07-14.46a6.46 6.46 0 0 0 .61-1.83c1.84-2.71 63.55 4.04 63.55 4.04z"/>
  <path d="M262 155.36a58.73 58.73 0 0 0 1.43 12c1 5.91 2.65 9.78 2.65 13.65 0 11.81-15.48 9.78-28.52 10.18-17.52 3.67-32.39-23.83-32.39-23.83 1.22-4.68 2-10 3.87-14.46.2-2.44.61-5.5.81-6.92a520.46 520.46 0 0 1 52.55 2.44 17.67 17.67 0 0 1-.41 6.93z" fill="#efefef"/>
  <path d="M242.49 181.64s-10.79-24-43.18-16.9c-7.74 21.79-18.13 46.85-11.41 73.94-6.72 9.17-14.46 14.26-14.46 31.16s.82 19.76.82 19.76l23.83 1.22s7.74-10 10.79-20.78a44.19 44.19 0 0 0 1-14.87c.81-1.22 4.28-4.07 4.68-9.57 0 0 11.61-6.11 18.33-21 6.34-13.43 4.71-25.04 9.6-42.96z"/>
  <path d="M242.49 181.64c-.61-2.24-8.76-24.24-38.9-17.72-17.72 47.26-11.2 66.81-8.55 75.36-12 15.28-17.52 18.54-15.07 49.5h15.89c7.33-11.61 9-15.89 9.37-31.16 0-.61-2.24 1.22-3.87 3.26 1.22-6.31 4.68-7.54 7.33-11.41a12.07 12.07 0 0 0 2.24-7.33c14.26-9.57 19.55-21.59 22.61-34 2.46-8.58 5.28-22.63 8.95-26.5z" fill="#efefef"/>
  <path d="M192.18 148.85a42.82 42.82 0 0 1 10.39 1.83c4.68 1.63 4.68 2.65 6.52 4.68s6.31 5.09 5.5 8.15c-.41 1.63-1.43 2-2.85 3.46-.61.61-5.09 5.5-6.11 6.11-.61.41-1.43 1-2 1.43l-3.05 2c-2 1-3.46 1.63-5.7 1.43 0 0-5.09-.2-8.35-3.67 0 0-.41-1.63.41-2.44 0 0-4.28-3.67-5.5-6.11A10.32 10.32 0 0 1 181 158c.38-1.82 8.33-6.91 11.18-9.15zM197.27 347l-.61 5.09s-1.83 2.24-15.48 2c-13.85-.2-17.52-4.48-18.74-6.72l-.81-5.3s2.65-3.87 3.26-3.87c4.48.41 19.76 6.52 30.35 8.15 1.01.07 1.22.48 2.03.65zm29.54-10.36c0 2.24-.2 2.24-.2 4.48 2.44 1.83 8.56 2.85 20.16 2.65 16.91-.41 32.59 5.09 51.74 1.83l.2-3.67-1.83-.2-67.88-5.49z"/>
  <path d="M241.68 343.77h5.09c11-.41 21.39 2 32.59 2.65 5.91-.2 13.24-1.63 12.63-5.91l-57.85-4.89c-3.46 3.88-.82 7.13 7.54 8.15zM175.27 258c1.83 1.22 14.26 8.55 34.42 7.54-.41 3.87-.2 11.41-9.17 24.65-4.48 6.52-8.35 17.92-9.17 32.39.2 3.26 2 6.11-.41 10.39.81 2.65 4.07 7.94 5.7 11.2s2.44 6.93-8.35 7.13c-11 .2-28.72-1-26.27-9.57 1.22-4.48 4.68-9.17 5.09-11s.41-7.33 3.87-11c3.06-10.18 2-20 1.43-29.13-1.01-9.6-1.21-24.84 2.86-32.6zm18.95-166c14.46-19.35 2.24-34.83-21-30.15-9.35 1.85-18.72 8.37-19.33 20.15-3.05.41-10 .81-13.44 13.44-2.65 9.78-4.07 11.61-8.76 16.5-3.05 3.46.2 10.59 2.44 15.68 7.54 17.52 30.76 19.15 46.44 32.39 5.3-1.43 10.79-7.33 12.43-11.2-13.24-15.68-10.39-21.8-15.68-29.94 5.68-2 18.68-9.95 16.9-26.87z"/>
  <path d="M191.36 90.79c.81-1.22 2.24-3.87 2.85-4.89.2-.2 2.44 3.67 2.65 3.46 5.5-9 6.93-22 .61-23.22a36.1 36.1 0 0 1-6.31-1.63c-4.07-1.43-7.74-1.43-14.26-.2-9 1.63-17.92 8.15-17.92 17.52 0 .61 6.31 2.44 8.15 10-3.06-4.28-8.35-9-14.67-4.89-6.72 4.28-3.26 14.05-12.22 24.24-3.06 3.46-2.65 7.54.61 15.68 5.3 12.83 30.35 19.76 44 32 3.26-1.43 5.5-4.68 7.13-7.13-9.17-9.57-12.83-18.54-15.48-25.05-3.26-7.54-6.93-11.81-14.06-17.52a37.11 37.11 0 0 1 8.15 4.07 8.11 8.11 0 0 0 6.93.61c8.75-3.08 13.48-15.31 13.84-23.05z" fill="#efefef"/>
  <path d="M280 94.05c-.61 7.74-6.31 3.87-9.37 2.44-6.14-2.64-12.25-4.49-19.38-4.49A102.59 102.59 0 0 0 227 94.66c-11 3.05-14.26 2.85-19.15.41-4.89-2.65-13.44-9.17-13.44-9.17s-.2 2 1.83 4.68c2.65 3.26 8.55 7.33 16.5 10 3.87 1.22 6.93.41 10.39-.41 18.13-4.48 37.27-5.3 53.36 4.48.82.41 3.67-.82 4.89-2.65 1.62-2.65-1.38-7.95-1.38-7.95z"/>
  <path d="M187.29 171.66c1.63 1 3.67 1.63 5.91 3.46a4.5 4.5 0 0 1-2.65-.81 28.75 28.75 0 0 1-3.26-2.65z" fill="#001423"/>
  <path d="M246.16 10.13C245.55 8.3 241.06 5 230.68 5c-11.2 0-14.46 3.46-14.66 5.3 0 .61-.82 7.13-1 9.78 0 0 0 3.26.2 8.15.2 3.26 1 5.09 1.43 9.37a23 23 0 0 0 3.87 11 9.38 9.38 0 0 0 2.85 1.43c4.07.81 11.2 1 15.07 0 2.24-.61 5.09-4.48 5.7-7.94.81-4.28 1.63-7.33 1.83-10 .41-2.65.61-8.55.81-10.18a42.8 42.8 0 0 0-.62-11.78z" fill="#efefef"/>
  <path d="M224.77 261.89s10.8 4.68 37.48.61c0 0-7.54 37.89-4.07 56.83 0 0 3.46 4.89 29.13 14.26 0 0 11.41 2.85 11 8.56 0 0 .41 1.22-13.44.81s-26.89-2.85-36.05-2.85-18.94.41-20.57-2.24c-1.83-2.44.41-8.76 3.05-12.43 2.85-3.87 2-6.72 1.83-13.65-.62-18.12-14.47-36.86-8.36-49.9z"/>
  <path d="M222.53 265.35c-1.43 2 .2 9.78 2.24 17.31s6.52 12 7.54 24.44c1 12.22 1.22 13.85-2.24 21s-4.48 13.65 7.54 13.85 18.54-.2 30.76 1.63 16.5 2.44 23.22 1.43 8.15-3.26 5.3-5.3-14.67-4.28-19.76-8.35c-4.89-3.67-18.74-9.78-18.94-11.41-.61-5.5-.82-25.46.2-32s2.44-15.89 2.85-18.33 2.44-4.89-1-4.07a117.9 117.9 0 0 1-26.27 2c-9.81-.55-10.83-2.81-11.44-2.2z" fill="#88ce02"/>
  <path d="M229.45 328.29a32.58 32.58 0 0 0 12.43 2.85s-1.43 6.72.81 10.79-16.29 1.63-16.29 1.63l-.81-14.46zm53.98 17.52c3.26-1 5.5-4.68 2.85-8.15-2.85-3.46-5.3-4.07-1.63-4.28s17.11 7.94 17.11 7.94l-6.93 6.31zm-61.51-72.51c4.68 1.63 11.81 2 17.93 1.83s15.28-1 21.18-3.05 3.46 2.24 3.46 2.24l-3.26 3.06s-7.74 3.05-20.37 2.85c-14.87-.2-19.35-1.83-19.35-1.83zm.4 10.18c4.69 1.63 11.81 2 17.93 1.83s14.26-.2 20.17-2.44c2.44-.81 1 2.65 1 2.65l-1 1.83S252.47 290.2 240 290c-14.87-.2-17.52-1.43-17.52-1.43z" opacity=".3" style="isolation:isolate"/>
  <path d="M224.77 261.89s17.72 6.31 37.68 2c0 0-7.74 36.46-4.28 55.2 0 0 3.46 4.89 29.13 14.26 0 0 11.41 2.85 11 8.55 0 0 .41 1.22-13.44.81s-26.86-2.81-36.05-2.81-18.94.41-20.57-2.24c-1.83-2.44.41-8.76 3.05-12.42 2.85-3.87 2-6.72 1.83-13.65-.61-17.92-14.46-36.66-8.35-49.7z" fill="none"/>
  <path d="M224.77 261.89a77.92 77.92 0 0 0 37.68 1.83s-7.74 36.66-4.28 55.4c0 0 3.46 4.89 29.13 14.26 0 0 11.41 2.85 11 8.55 0 0 .41 1.22-13.44.81s-27.09-4.28-36.05-2.85c-9.57 1.63-18.94 1-20.57-2.24-1.43-2.65.41-8.76 3.05-12.42 2.85-3.87 2-6.72 1.83-13.65-.61-17.91-14.46-36.65-8.35-49.69z" fill="none"/>
  <path d="M208.88 140.7c0 1.43 15.89 9.37 24.65 11s27.09 0 29.94-.61l-.41 2.85s-21.79 3.26-38.5-1.22-14.87-5.5-14.87-5.5z"/>
  <path d="M174.87 314.44c2.44 1.22 11.2 3.46 16.91 2.24.81-.2 0-14.05 2.24-20.37 3.26-8.76 8.55-15.89 11-31.37a127.63 127.63 0 0 1-23.42-4.69c-6.53 19.97-4.29 37.08-6.73 54.19zm13.64 12.84c1.43.41 2.44 2 2.85 1 .81-1.83-1.43-5.3-1.63-7.74v-.2c-1.83-1.63-14.26-1.83-13.44-1-1.43 2.65-3.67 2.24-4.48 7.54-.41 2.65 2.85.41 5.91.2-5.5 3.67-11.81 8.35-12.83 12.42-1.22 5.7.82 7.33 6.93 10.39a65.76 65.76 0 0 0 16.5 1.22c5.5-1 6.52-3.67 4.89-7.33a73.94 73.94 0 0 1-4.7-16.5z" fill="#efefef"/>
  <path d="M190.75 62.69c6.72 3.87 16.09 2.85 19.55 2.65.82 0 9-1.43 9.37-1.22.81.2.81.82.81.82s-3.05 1.63-10 2c-6.52.41-14.26 0-18.54-2-5.06-2.25-1.19-2.25-1.19-2.25zM260 66.56c1.22.81 9.17 3.87 12.63 7.54 3.05 3.26 1.43 3.06.81 2.24-.81-1-7.13-5.3-9.57-6.31s-5.5-2.85-5.5-3.26 1.63-.21 1.63-.21z"/>
  <path d="M189.73 151.09c5.91-.41 12 1 15.89 5.09 2 2 5.3 4.28 4.89 6.31 0 .61-1.22 2.24-2.24 3.46-.61.81-2.44 2.65-3.06 3.26-.81.61-3.67 2.85-4.28 3.26s-1.43 1.43-2 1.63c-2 1-4.28.2-6.31-.81s.41-1.22-1.83-2.85c-5.5-3.87-8.55-6.52-6.31-14.05.16-1.39 2.4-3.06 5.25-5.3z" fill="#efefef"/>
  <path d="M137.8 104.44c-18.33 7.33-65 30.55-78.22 37.68 11 6.92 16.09 23.63 17.72 40.53.2 1.63.41 3.06.61 4.68a19.6 19.6 0 0 0 .61 3.06 1.22 1.22 0 0 0 .2.81c12-32.79 55-67.42 56.63-70.07.81-1.22-1-6.52 1.83-11.61 3.67-6.52 10.82-9.36.62-5.08zm43.58 153.79c9.37-18.74 9.57-36.66 9.37-57.64 0-8.76 6.31-21.18 3.06-17.72-12.22 13.65-43 39.31-65.18 40.74 31.16-1.03 43.37 14.65 52.75 34.62z" opacity=".4" style="isolation:isolate"/>
  <path d="M41.65 159.44c11.61-8.35 71.7-40.33 86.16-44.81 14.46-4.68 10-10.18 10-10.18S79.13 129.7 44.1 151.49"/>
  <path d="M212.75 100.57c-4.68-1.83-8.35 3.67-7.13 9s12.22 11.2 11.61 30.55c-.41 15.89-3.87 22.4-3.87 22.4l-7.74-9.78s-1.22-22-3.87-25.26-11-9.17-14.26-12.22 3.67-7.13 3.26-12.83c-.41-5.5 3.46-16.5 3.46-16.5zm28.31 86.77c-.41 15.28 3.06 37.89 4.48 48.68s3.26 11.61 0 16.5c-3.26 4.68-7.54 12.42-7.54 12.42l-14-1.22s11.2-14.26 11.81-16.91-5.7-22.81-5.7-22.81zM214 44.76c2.85 6.31 6.31 9.17 11.81 11C229 57 241.88 58.61 247 52.91c2.24-2.65.81-9.78.81-9.78l-11.63 9.37-15.68-2.85-1.84-4.65z" opacity=".4" style="isolation:isolate"/>
  <path d="M215.2 58.82c5.3 3.46 18.54 6.72 22.2 7.33 3.67.81 9.57-3.87 12.43-5.09 3.06-1.43 8.35-2.24 14.46 3.26.61.61-1.43 3.26-1.43 3.26a23.46 23.46 0 0 1-3.06-1 9.21 9.21 0 0 0-5.5-1.22c-10.18 1.2-11.81 4.64-20.77 2.64s-11.2-3.67-20-3.26" fill="#88ce02" stroke="#000" stroke-linejoin="round" stroke-width="1.59"/>
  <path d="M213.36 59.43c6.72 2.85 19.76 5.91 23.42 6.72s9.57-2.85 12.43-4.68c5.09-3.26 11.61-.61 14.67 2.85 2 2.24 2.85 3.67 2.85 4.28 0 .81-2.44 0-2.44 0-1.43-.61-3.06-.81-4.28-1.63-1.63-.81-3.26-2-5.7-1.83-10.18 1.22-12.22 4.68-21 2.65s-11-3.87-20.37-3.26" fill="#88ce02"/>
  <path d="M181.79 249.67c-.41-.41.41-.81 0-.81-2.65 0-6.31-2-8.35-4.89-8.76-12.63-21.59-21-44.81-20.37-34.83.81-48.68-13.44-51.33-40.74-1.43-14.87-5.5-29.33-13.85-37.48l-4.89 3.06C67.93 156.59 71 169.83 73 188c3.26 27.29 25.26 39.92 50.92 40.33 26.68.41 36.26 5.91 46.24 19.35a16 16 0 0 0 9.78 6.31z"/>
  <path d="M276.3 118.7c.61 3.05 2.24 9 5.5 11.81 1.43 1.43 1.63 1.83.41 1.83s-10.18-.41-10.18-.41l-2.44-4.28z" opacity=".4" style="isolation:isolate"/>
</svg>
