<svg xmlns="http://www.w3.org/2000/svg" viewBox="0 0 225.15 500">
  <path d="M173.71 484.93L178.5 405l13.25-22.61s-30.15 12.33-80.62 12.33S31 382.61 31 382.61l14.85 24.67 5.25 77.65c0 8.33 27.45 15.07 61.32 15.07s61.32-6.75 61.32-15.07m-15.17-373.29l10.07-39.8 55.76-58.67L209.71.65l-59 62.5L139 110.7q-13.2-.44-26.41-.44C50.4 110.26 0 117.35 0 126.09s50.4 15.82 112.58 15.82 112.57-7.08 112.57-15.82c0-6.44-27.34-12-66.58-14.45" fill="#d34a47"/>
  <path d="M152.72 133.93a47.79 47.79 0 0 1-8.6.52c-6.42 0-11 0-12.79-1.69a2.87 2.87 0 0 1-.75-1.92 2.46 2.46 0 0 1 1.84-2.22l1 1.52c-.42.15-.66.32-.66.5 0 .86 6.56 1.45 11.58 1.39s11.09-.48 11.09-1.33c0-.26-.46-.5-1.26-.69l1-1.51c1.3.4 2.44 1.18 2.43 2.54 0 2.3-2.93 2.65-4.83 2.9" fill="#fff"/>
  <path d="M224.29 13.28c1.4-1.62-.73-5.76-4.75-9.25s-8.43-5-9.83-3.38.73 5.76 4.75 9.25 8.43 5 9.83 3.38M171 289.68c-1.3-12.68 27.83-31.13 20.36-31.68-16.09.92-24.11 18.86-32.2 37.65-3 6.89-13.12 36.25-19.78 32.64s8.63-27.76 12.92-42.1c-4.94 3.63-23.08 17.72-27.75 4.52-7.55 6.29-23.55 9.79-21.77-6.97-4 7.08-13 17-23.74 12.86-14.14-5.39 8.19-50.44 13.75-48.17S91.67 261 89.92 265c-3.85 8.77-8.29 19.79-5.32 22.05 5.08 3.87 18.92-14.63 19.23-15 2.59-3.42 10-25.78 15.9-23.21s-14.82 32.09-7.06 38c1.57 1.18 8-.73 11.87-4.94 2.52-2.9 1.65-8.9 10.06-28.9s15.89-45 21.66-43.1 1 14.71-1.05 19.48c-9.7 22.41-26.48 59.44-18.57 56.63s12-3 19.78-12 7.39-24 12.55-23.68 4.3 5.11 3 8.75c5.08-5.82 24.09-18.07 28.68-5.93 5.44 14.36-27.2 35.11-19.06 34.05 7.93-1 20.79-9.17 26.27-16.57L223 134.76s-15.2 12.58-111.9 12.58S.79 135 .79 135l12.86 124c6.83-19.4 23-58.64 48.58-57.32 11.62.6 27.14 23 13.85 23.74-5.63.32-6.2-11.17-12.86-12.86-4.81-1.22-11.5 2.69-15.82 6.92-8.63 8.44-27.18 41.75-24.73 58.35C25.79 299 51.88 270.45 56.3 262c3.11-6 5.21-23.64 12-21.79s-.59 20.1-5.52 36.22c-5.54 18.11-8.45 37.21-15.39 35s4.36-25.57 4-29.67c-6.52 6-18.54 21.26-33.92 13.71l8 77s21.23 16.77 85.17 16.77 86-16.51 86-16.51l9.92-89.15c-8.11 7.9-33.79 21.93-35.44 6.12" fill="#d34a47"/>
</svg>
