<svg xmlns="http://www.w3.org/2000/svg" viewBox="0 0 100 100">
  <path d="M50 5C25.187 5 5 25.187 5 50s20.187 45 45 45 45-20.187 45-45S74.813 5 50 5zM26.24 39.126v1.317h-2.802v-1.317h2.802zm9.237 0v1.317h-2.802v-1.317h2.802zm-2.802 50.756v-1.25h2.802v1.506H33.26c-.196-.083-.39-.17-.585-.256zm-2.953-1.424v-1.483h2.802v1.506h-2.76l-.042-.022zm-3.33-1.96v-.99h2.8v1.316H26.9l-.51-.327zm-.152-22.525v1.317h-2.802v-1.317h2.802zm3.293-13.59v-1.507h2.99v1.506h-2.99zm2.99.15v1.505h-2.99v-1.505h2.99zm-2.99-1.808V47.22h2.99v1.506h-2.99zm0-1.656v-1.507h2.99v1.506h-2.99zm-.15 0H26.39v-1.507h2.992v1.506zm0 .15v1.506H26.39V47.22h2.992zm0 1.656v1.506H26.39v-1.506h2.992zm0 1.657v1.505H26.39v-1.505h2.992zm0 1.656v1.505H26.39V52.19h2.992zm.15 0h2.99v1.505h-2.99V52.19zm3.142 0h2.802v1.505h-2.802V52.19zm0-.152v-1.505h2.802v1.505h-2.802zm0-1.656v-1.506h2.802v1.506h-2.802zm0-1.657V47.22h2.802v1.506h-2.802zm0-1.656v-1.507h2.802v1.506h-2.802zm0-1.658v-1.506h2.802v1.506h-2.802zm-.15 0h-2.992v-1.506h2.99v1.506zm-3.143 0h-2.99v-1.506h2.99v1.506zm-3.142 0h-2.802v-1.506h2.802v1.506zm0 .15v1.507h-2.802v-1.507h2.802zm0 1.658v1.506h-2.802V47.22h2.802zm0 1.656v1.506h-2.802v-1.506h2.802zm0 1.657v1.505h-2.802v-1.505h2.802zm0 1.656v1.505h-2.802V52.19h2.802zm0 1.655v1.506h-2.802v-1.505h2.802zm.15 0h2.992v1.506h-2.99v-1.505zm3.143 0h2.99v1.506h-2.99v-1.505zm3.142 0h2.802v1.506h-2.802v-1.505zm2.802 1.657v1.506h-2.802v-1.506h2.802zm0 1.657v1.505h-2.802V57.16h2.802zm0 1.655v1.505h-2.802v-1.505h2.802zm0 1.656v1.507h-2.802V60.47h2.802zm-5.755 1.658h2.802v1.506h-2.802v-1.506zm0 1.656h2.802v1.506h-2.802v-1.506zm2.802 1.657v1.507h-2.802V65.44h2.802zm-6.284 3.163h-2.802v-1.505h2.802v1.505zm.15-1.506h2.803v1.505H26.39v-1.505zm-.15 1.657v1.506h-2.802v-1.506h2.802zm.15 0h2.803v1.506H26.39v-1.506zm3.332 0h2.802v1.506h-2.802v-1.506zm0-.15v-1.506h2.802v1.505h-2.802zm-.528-1.658h-2.802V65.44h2.802v1.506zm-2.954 0h-2.802V65.44h2.802v1.506zm-3.33 0h-2.802V65.44h2.802v1.506zm0 .15v1.506h-2.802v-1.505h2.802zm0 1.658v1.506h-2.802v-1.506h2.802zm0 1.656v1.506h-2.802V70.41h2.802zm.528 0h2.802v1.506h-2.802V70.41zm2.953 0h2.803v1.506H26.39V70.41zm3.332 0h2.802v1.506h-2.802V70.41zm2.802 1.657v1.506h-2.802v-1.506h2.802zm0 1.656v1.506h-2.802v-1.507h2.802zm0 1.657v1.506h-2.802V75.38h2.802zm0 1.656v1.505h-2.802v-1.504h2.802zm0 1.656v1.506h-2.802v-1.506h2.802zm0 1.657v1.505h-2.802V80.35h2.802zm-2.802 1.655h2.802v1.506h-2.802v-1.505zm2.953 0h2.802v1.506h-2.802v-1.505zm0-.15v-1.507h2.802v1.506h-2.802zm0-1.657v-1.506h2.802v1.506h-2.802zm0-1.657v-1.504h2.802v1.505h-2.802zm0-1.655V75.38h2.802v1.506h-2.802zm0-1.656v-1.507h2.802v1.506h-2.802zm0-1.658v-1.506h2.802v1.506h-2.802zm0-1.656V70.41h2.802v1.506h-2.802zm0-1.657v-1.507h2.802v1.506h-2.802zm0-1.657v-1.505h2.802v1.505h-2.802zm0-1.657V65.44h2.802v1.506h-2.802zm0-1.656v-1.506h2.802v1.506h-2.802zm0-1.657v-1.506h2.802v1.506h-2.802zm-.15-1.656H29.72V60.47h2.802v1.507zm-3.33-1.317v2.785h-1.232V60.66h1.23zm-1.384 2.785h-1.42V60.66h1.42v2.785zm1.384.528v1.317h-2.802v-1.317h2.802zM22.91 65.29h-2.802v-1.506h2.802v1.506zm-2.953 0h-2.802v-1.506h2.802v1.506zm0 .15v1.507h-2.802V65.44h2.802zm0 1.657v1.505h-2.802v-1.505h2.802zm0 1.657v1.506h-2.802v-1.506h2.802zm0 1.656v1.506h-2.802V70.41h2.802zm0 1.657v1.506h-2.802v-1.506h2.802zm.15 0h2.803v1.506h-2.802v-1.506zm3.33 0h2.803v1.506h-2.802v-1.506zm2.954 0h2.803v1.506H26.39v-1.506zm2.804 1.656v1.506h-2.802v-1.507h2.802zm0 1.657v1.506h-2.802V75.38h2.802zm0 1.656v1.505h-2.802v-1.504h2.802zm0 1.656v1.506h-2.802v-1.506h2.802zm0 1.657v1.316h-2.802V80.35h2.802zm0 1.844v2.785h-1.23v-2.786h1.23zm.528 1.468h2.802v1.506h-2.802v-1.506zm2.953 0h2.802v1.506h-2.802v-1.506zm2.802 1.657v1.504h-2.802V85.32h2.802zm0-41.564h-2.802V42.25h2.802v1.506zm-2.953 0h-2.99V42.25h2.99v1.506zm-3.142 0h-2.99V42.25h2.99v1.506zm-3.142 0h-2.802V42.25h2.802v1.506zm-2.802 11.746h2.802v1.506h-2.802v-1.506zm2.953 0h2.992v1.506h-2.99v-1.506zm3.143 0h2.99v1.506h-2.99v-1.506zm2.99 1.657v1.505h-2.99V57.16h2.99zm0 1.655v1.505h-2.817c-.026-.084-.09-.148-.173-.173v-1.332h2.99zM26.24 60.66v2.785h-1.42V60.66h1.42zm-1.57 2.785h-1.23V60.66h1.23v2.785zm-1.76-1.468h-2.802V60.66h2.802v1.317zm0 .15v1.507h-2.802v-1.506h2.802zm-2.953 1.506h-2.802v-1.506h2.802v1.506zm-2.802 10.09h2.802v1.506h-2.802v-1.507zm2.953 0h2.802v1.506h-2.802v-1.507zm3.33 0h2.802v1.506h-2.802v-1.507zm2.802 1.657v1.506h-2.802V75.38h2.802zm0 1.656v1.505h-2.802v-1.504h2.802zm0 1.656v1.506h-2.802v-1.506h2.802zm0 1.657v1.316h-2.802V80.35h2.802zm-3.33 1.316h-2.677l-.126-.12V80.35h2.802v1.316zm3.33.528v2.785h-1.42v-2.786h1.42zm.15 0h1.42v2.785h-1.42v-2.786zm3.332 3.125h2.802v1.504h-2.802V85.32zm2.953 1.655h2.802v1.506h-2.802v-1.505zM35.477 42.1h-2.802v-1.507h2.802V42.1zm-2.953 0h-2.99v-1.507h2.99V42.1zm-3.142 0h-2.99v-1.507h2.99V42.1zm-3.142 0h-2.802v-1.507h2.802V42.1zm-2.802 15.06h2.802v1.505h-2.802V57.16zm2.953 0h2.992v1.505h-2.99V57.16zm2.992 1.655v1.317h-2.99v-1.317h2.99zm-9.425 1.845v1.317h-2.802V60.66h2.802zm-2.802 14.72h2.802v1.506h-2.802V75.38zm2.953 0h2.802v1.506h-2.802V75.38zm2.802 1.656v1.505h-2.802v-1.504h2.802zm0 1.656v1.506h-2.802v-1.506h2.802zm-2.953 1.506h-1.212c-.475-.49-.938-.993-1.39-1.506h2.6v1.506zm0 .15v1.054c-.36-.346-.718-.695-1.068-1.053h1.067zm1.57 1.846v.64c-.245-.214-.497-.42-.738-.64h.738zm.152 0h1.23v1.793c-.416-.333-.826-.674-1.23-1.022v-.77zm1.758 0h1.23v2.785h-.48c-.253-.19-.5-.384-.75-.577v-2.21zm2.802 3.313v.893c-.442-.29-.877-.588-1.308-.893h1.308zm2.954 1.468v1.206c-.7-.38-1.383-.787-2.058-1.205h2.058zm3.33 1.656v1.183c-.836-.368-1.657-.763-2.464-1.182h2.464zm2.953 1.658v.7c-.618-.22-1.23-.454-1.834-.7h1.834zm-2.953-49.845h-2.99v-1.317h2.99v1.317zm-3.142 0h-2.99v-1.317h2.99v1.317zm-5.944 18.372h2.802v1.317h-2.802v-1.317zm-6.283 18.22h2.802v1.506h-2.73c-.025-.026-.048-.054-.072-.08v-1.424zm28.8-37.267l.436 15.193h-.868l.434-15.192zm5.968 15.72v3.24h-1.56l-.1-.065V55.49h1.66zm2.12-15.716l.435 15.19h-.868l.434-15.19zm.732 53.452l-.513-.452v-.17h1.66v.475c-.382.053-.763.105-1.147.147zm-10.696-.146v-.474h1.658v.17l-.514.45c-.383-.042-.764-.094-1.145-.146zm-1.812-.474h1.66v.455c-.558-.08-1.11-.17-1.66-.27v-.186zm-.528.09c-.168-.03-.34-.056-.506-.09h.506v.09zm-1.066-2.9h1.067v1.254h-1.124l.058-1.254zm.064-1.406h1.002v1.254h-1.06l.058-1.254zm.065-1.405h.937v1.254h-.995l.058-1.254zm.39-8.43h.547v1.253h-.606l.058-1.254zm.064-1.406h.483V78.4h-.54l.057-1.253zm.065-1.405h.418v1.254h-.476l.058-1.254zm.065-1.405h.354v1.254h-.41l.057-1.253zm.065-1.406h.29v1.255h-.348l.058-1.254zm.064-1.404h.224v1.254h-.282l.058-1.254zm.065-1.405h.16v1.255h-.217l.058-1.254zm6.677-9.835h1.48v1.254h-1.66v-1.135l.18-.12zm3.666.12v1.135h-1.66v-1.254h1.48l.18.12zm-5.657 25.336v-.162h1.66v1.254h-.42l-1.24-1.09zm.442 1.092h-.442v-.39l.442.39zm-.442-10.41l.712-.68h.948v1.254h-1.66v-.573zm-.528.574h-.07l.07-.068v.068zm-1.66-10.545v-.545h1.66v1.254h-.92l-.74-.71zm-.15-.143l-.42-.4h.42v.4zm11.993.144l-.74.71h-.918v-1.254h1.66v.545zm.152-.544h.42l-.42.4v-.4zm-2.338 11.09h-1.66v-1.254h.95l.71.68v.574zm.528-.068l.07.068h-.07v-.068zm-1.77 9.904h-.417v-1.254h1.66v.163l-1.242 1.092zm1.242-.39v.39h-.442l.442-.39zm-2.84 1.795h-.63v-1.254h1.66v.35l-1.03.904zm1.03-.2v.2h-.23l.23-.2zm-1.66.35h.46l-.46.405v-.404zm-.528.405l-.46-.404h.46v.404zm.528-3.214h1.66v1.254h-1.66v-1.254zm-.528 1.254h-1.66v-1.254h1.66v1.254zm2.338.15h.247l-.246.218v-.217zm1.66-1.555h-1.66v-1.254h1.66v1.254zm.528-1.254h1.255l-1.255 1.104v-1.104zm-2.34 1.254h-1.658v-1.254h1.66v1.254zm-1.658-1.405v-1.254h1.66v1.254h-1.66zm0-1.406V81.55h1.66v1.066h-1.66zm0-1.593v-1.065h1.66v1.065h-1.66zm0-1.217v-1.254h1.66v1.254h-1.66zm0-1.405v-1.253h1.66V78.4h-1.66zm0-1.404v-1.254h1.66v1.254h-1.66zm-3.998-8.45V67.31h1.66v1.255h-1.64l-.02-.02zm7.447.02h-1.638V67.31h1.66v1.235l-.022.02zm-3.977 3.3l-.354-.34h.354v.34zm.528-.34h.355l-.356.34v-.34zm0 1.576l1.132 1.084h-1.132v-1.084zm-.528 1.084h-1.132l1.132-1.083v1.083zm1.114-1.255h1.074v1.03l-1.074-1.03zm-.158-.15l-.31-.297 1-.957h.54v1.254h-1.23zm.848-1.405l.383-.367v.367h-.383zm-.764 0h-.512V70.12h1.66v.157l-1.148 1.098zm-.512-4.215v-1.254h1.66v1.254h-1.66zm1.66.15v1.255h-1.66V67.31h1.66zm-1.66-1.555V64.69h1.66v1.065h-1.66zm-.528 0h-1.66V64.69h1.66v1.065zm0 .15v1.255h-1.66v-1.254h1.66zm0 1.406v1.255h-1.66V67.31h1.66zm0 1.406v1.254h-1.66v-1.254h1.66zm.528 0h1.66v1.254h-1.66v-1.254zm1.81 1.405h.012l-.012.013v-.012zm0-.15v-1.254h1.48l-1.31 1.254h-.17zm0-2.81v-1.254h1.66v1.254h-1.66zm0-1.405V64.69h1.66v1.065h-1.66zm0-1.594v-1.065h1.66v1.066h-1.66zm-.15 0h-1.66v-1.065h1.66v1.066zm-2.188 0h-1.66v-1.065h1.66v1.066zm-1.81 0h-1.66v-1.065h1.66v1.066zm0 .53v1.064h-1.66V64.69h1.66zm0 1.216v1.254h-1.66v-1.254h1.66zm0 2.81v1.254h-.17l-1.31-1.254h1.48zm0 1.405v.013l-.012-.012h.012zm.15 0h1.66v1.255h-.512l-1.147-1.098v-.156zm.384 1.255h-.383v-.367l.383.367zm.158.15l1 .958-.31.297h-1.232v-1.254h.542zm.532 1.406l-1.074 1.03v-1.03h1.074zm-1.073 1.76l.37-.353h1.29v1.254h-1.66v-.9zm-.15.9h-.79l.79-.755v.756zm2.337-1.253h1.29l.37.353v.9h-1.66v-1.253zm1.81.498l.79.756h-.79v-.755zm1.554.756l-1.31-1.253h1.416v1.254h-.106zm-1.468-1.404l-.086-.082v-1.172h1.66v1.254H52.16zm-.086-1.406v-1.254h1.66v1.254h-1.66zm0-1.405v-.51l.776-.744h.883v1.255h-1.66zm.934-1.405l.726-.694v.694h-.726zm1.254-2.66h.76l-.76.73v-.73zm0-1.555V64.69h1.66v1.065h-1.66zm0-1.594v-1.065h1.66v1.066h-1.66zm0-1.216v-.978l1.464.978h-1.464zm-.528 0h-1.66V61.69h1.66v1.254zm-1.81 0h-1.66V61.69h1.66v1.254zm-2.188 0h-1.66V61.69h1.66v1.254zm-1.81 0h-1.66V61.69h1.66v1.254zm-2.188 0h-1.465l1.465-.978v.978zm0 .15v1.067h-1.66v-1.065h1.66zm0 1.595v1.064h-1.66V64.69h1.66zm0 2.62v.73l-.76-.73h.76zm1.254 2.66h-.726v-.694l.726.694zm.158.15l.776.744v.51h-1.66v-1.253h.884zm.776 1.406v1.254h-1.66v-1.254h1.66zm0 1.405v1.173l-.086.082h-1.574V72.93h1.66zm-.244 1.407l-1.31 1.254h-.106v-1.253h1.416zm.395 1.405h1.66v1.254h-1.66v-1.254zm1.66 1.405V78.4h-1.66v-1.253h1.66zm0 1.405v1.254h-1.66v-1.254h1.66zm0 1.405v1.065h-1.66v-1.065h1.66zm0 1.594v1.066h-1.66V81.55h1.66zm0 1.217v1.254h-1.66v-1.253h1.66zm0 1.406v1.254h-1.66v-1.254h1.66zm-1.81 1.254h-1.66v-1.254h1.66v1.254zm-2.19-.15l-1.254-1.105h1.255v1.104zm2.19 1.706v.217l-.248-.217h.246zm.15 0h1.66v1.254h-.632l-1.028-.904v-.35zm.23 1.254h-.23v-.202l.23.202zm.17.15l1.124.988-.303.267h-1.22v-1.254h.4zm.648 1.407l-1.05.922v-.922h1.05zm1.578-.15l-.304-.268 1.122-.987h.4v1.253h-1.22zm1.22.15v.922l-1.05-.922h1.05zm.15-1.406h1.66v1.254h-1.66v-1.254zm0-.15v-.335l1.047-.92h.614v1.254h-1.66zm2.19-1.255h1.658v1.254h-1.658v-1.254zm0-.15v-.854l.455-.402h1.203v1.254h-1.658zm.627-1.406l1.03-.907v.907h-1.03zm3.37-2.66h.743l.058 1.254h-.8v-1.253zm-.528 1.255h-1.244l1.244-1.094v1.094zm1.263-1.406h-.735v-.153l.7-.616.035.77zm-2.923 1.07v-.918h1.043l-1.043.917zm-.15.13l-.233.205H54.26v-1.253h1.66v1.05zm-2.188.206h-1.66v-1.254h1.66v1.254zm-1.66-1.406V81.55h1.66v1.066h-1.66zm0-1.593v-1.065h1.66v1.065h-1.66zm0-1.217v-1.254h1.66v1.254h-1.66zm0-1.405v-1.253h1.66V78.4h-1.66zm2.188-1.253h.23L55.8 78.4h-1.54v-1.253zm.992 0h.667v.638l-.666-.638zm-.157-.15l-.835-.8v-.455h1.66v1.254h-.825zm-.835-1.406v-1.253h1.66v1.254h-1.66zm0-1.404v-1.254h1.66v1.254h-1.66zm0-1.406v-1.254h1.66v1.254h-1.66zm0-1.405V70.12h1.66v1.255h-1.66zm0-1.405v-1.2l.057-.054h1.6v1.254h-1.658zm.215-1.405l1.31-1.254h.134v1.255h-1.443zm1.595-1.527l1.183-1.132h.476v1.254h-1.658v-.122zm1.66-1.283h-.318l.318-.305v.305zm.528.92l.022.485h-.022v-.486zm-.528-1.956l-1.082 1.035h-.577V64.69h1.66v.03zm-1.66-1.545l1.477.986H56.07v-.985zM54.8 61.69h1.122v.75l-1.123-.75zm-2.726-.15v-1.034l1.547 1.033h-1.546zm-4.148 0H46.38l1.546-1.034v1.033zm-3.847.9v-.75h1.12l-1.12.75zm-.152 1.72H42.45l1.478-.985v.986zm0 1.595h-.577l-1.08-1.036v-.03h1.658v1.065zm-1.66-.305l.318.305h-.318v-.305zm-.528 1.224v.486h-.022l.022-.486zm.528-.768h.476l1.183 1.132v.122h-1.66v-1.254zm1.945 1.405l1.31 1.255H44.08V67.31h.133zm1.468 1.406l.058.054v1.2h-1.66v-1.254h1.603zm.058 1.405v1.255h-1.66V70.12h1.66zm0 1.406v1.254h-1.66v-1.254h1.66zm0 1.405v1.255h-1.66V72.93h1.66zm0 1.407v1.254h-1.66v-1.253h1.66zm0 1.405v.455l-.835.8h-.824V75.74h1.658zm-.992 1.405l-.667.638v-.638h.666zm.764 0h.23V78.4H44.2l1.31-1.253zm.756 0h1.66V78.4h-1.66v-1.253zm1.66 1.405v1.254h-1.66v-1.254h1.66zm0 1.405v1.065h-1.66v-1.065h1.66zm0 1.594v1.066h-1.66V81.55h1.66zm0 1.217v1.254h-1.66v-1.253h1.66zm-2.188 1.255H44.31l-.23-.204v-1.05h1.658v1.254zm-1.81-.337l-1.043-.917h1.043v.917zm-2.188-1.07h-.736l.035-.768.7.616v.153zm-.742.152h.743v1.254h-.8l.058-1.253zm1.27.16l1.244 1.095h-1.244v-1.094zm2.842 2.5h-1.03v-.907l1.03.907zm.172.15l.456.402v.852h-1.66v-1.254h1.204zm.456 1.406v1.254h-1.66v-1.254h1.66zm.528 0h.614l1.046.92v.334h-1.66v-1.254zm1.66 1.405v1.254h-1.66v-1.254h1.66zm0 1.406v1.055l-.226.198h-1.433v-1.254h1.66zm-.398 1.405l-1.26 1.108v-1.11h1.26zm2.208-1.24v1.087H48.5l1.236-1.088zm.528 0l1.238 1.088h-1.238v-1.09zm2.037 1.088l-.225-.2v-1.054h1.66v1.254H52.3zm1.434.15v1.11l-1.26-1.11h1.26zm.528-1.404h1.66v1.254h-1.66v-1.254zm0-.15v-1.255h1.66v1.253h-1.66zm1.81-1.256h1.66v1.254h-1.66v-1.254zm0-.15v-1.255h1.66v1.254h-1.66zm0-1.406v-1.254h1.66v1.254h-1.66zm0-1.405v-1.04l.244-.214h1.416v1.254h-1.66zm2.188-1.254h.807l.058 1.254h-.865v-1.254zm0-2.412v-.21h.24l-.24.21zm-.528.465l-.445.39h-1.215v-1.064h1.66v.675zm-1.81.39h-1.66v-1.064h1.66v1.066zm-1.66-1.592v-1.065h1.66v1.065h-1.66zm0-1.217v-1.254h1.66v1.254h-1.66zm1.81-1.145l1.197 1.147H56.07V78.66zm.65-.108h1.01v.966l-1.01-.966zm-.157-.15l-.493-.472v-.783h1.66V78.4h-1.167zm-.493-1.406v-1.254h1.66v1.254h-1.66zm0-1.405v-1.253h1.66v1.254h-1.66zm0-1.404v-1.254h1.66v1.254h-1.66zm0-1.406v-1.254h1.66v1.254h-1.66zm0-1.405V70.12h1.66v1.255h-1.66zm0-1.405v-1.254h1.66v1.254h-1.66zm0-1.405V67.31h1.66v1.255h-1.66zm2.188-1.254h.03l.057 1.255h-.087V67.31zm-1.357-4.215h.828v.553l-.827-.553zm-.226-.15l-.605-.405v-.85h1.66v1.254h-1.055zm1.055-1.406h-1.66v-1.255h1.66v1.254zm-1.81 0h-1.35l-.31-.208v-1.047h1.66v1.254zm-2.188-.56l-1.04-.694h1.04v.694zm-3.47-.846v-.836l1.253.836h-1.253zm-.528 0h-1.253l1.253-.836v.836zm-3.47.845v-.695h1.04l-1.04.694zm-.528.352l-.31.207h-1.35v-1.255h1.66v1.047zm-1.81.207h-1.66v-1.255h1.66v1.254zm-1.66.15h1.66v.85l-.606.404h-1.054V61.69zm.83 1.405l-.83.553v-.553h.83zM41.71 67.31h.03v1.255h-.087l.058-1.254zm.558 0h1.66v1.255h-1.66V67.31zm1.66 1.406v1.254h-1.66v-1.254h1.66zm0 1.405v1.255h-1.66V70.12h1.66zm0 1.406v1.254h-1.66v-1.254h1.66zm0 1.405v1.255h-1.66V72.93h1.66zm0 1.407v1.254h-1.66v-1.253h1.66zm0 1.405v1.254h-1.66v-1.254h1.66zm0 1.405v.783l-.493.47h-1.167v-1.253h1.66zm-.65 1.405l-1.01.966v-.966h1.01zm.65.11v1.145H42.73l1.198-1.146zm.15-.11h1.66v1.254h-1.66v-1.254zm1.66 1.405v1.065h-1.66v-1.065h1.66zm0 1.594v1.066h-1.66V81.55h1.66zm-1.81 1.066h-1.215l-.445-.39v-.675h1.66v1.066zm-2.188-.855l-.24-.21h.24v.21zm-.807 2.413h.807v1.254h-.865l.058-1.254zm1.335 0h1.416l.244.214v1.04h-1.66v-1.254zm1.66 1.405v1.254h-1.66v-1.254h1.66zm0 1.405v1.254h-1.66v-1.254h1.66zm0 1.405v1.254h-1.66v-1.254h1.66zm.15 0h1.66v1.254h-1.66v-1.254zm1.66 1.406v1.254h-1.66v-1.254h1.66zm0 1.405v1.253h-1.66V91.2h1.66zm2.188.35v.902H46.9l1.026-.9zm.15-.132l.25-.22h1.41v1.254h-1.66v-1.034zm2.188-.22h1.41l.25.22v1.035h-1.66V91.2zm1.81.353l1.025.902h-1.026v-.9zm2.188-.35h1.66v1.253h-1.66V91.2zm1.81 0h1.66v1.253h-1.66V91.2zm0-.152v-1.254h1.66v1.254h-1.66zm2.188-1.254h1.067l.058 1.254H58.26v-1.254zm0-.15v-1.255h1.002l.058 1.253h-1.06zm0-1.407v-1.254h.937l.058 1.254h-.995zm0-1.405v-1.254h.872l.058 1.254h-.93zm0-5.81v-.267l.28.268h-.28zm-.528 0h-1.66V79.96h1.356l.305.292v.773zm.528-2.47h.548l.058 1.254h-.606v-1.254zm0-.15v-1.255h.483L58.8 78.4h-.54zm0-1.406v-1.254h.418l.058 1.254h-.476zm0-1.405v-1.253h.354l.058 1.254h-.412zm0-1.404v-1.254h.29l.057 1.254h-.347zm0-1.406v-1.254h.224l.058 1.254h-.282zm0-1.405V70.12h.16l.057 1.255h-.217zm0-1.405v-1.254h.094l.058 1.254h-.152zm-.528-9.836h-1.66V58.88h1.66v1.254zm-1.81 0h-1.66V58.88h1.66v1.254zm-2.188 0h-1.266l-.393-.262v-.992h1.66v1.254zm-1.81-.363l-1.336-.89h1.335v.89zm-3.847 0v-.89h1.335l-1.335.89zm-.15.102l-.394.263h-1.266V58.88h1.66v.992zm-2.19.262H44.08V58.88h1.658v1.254zm-1.81 0H42.27V58.88h1.658v1.254zm-2.28 8.582h.093v1.254h-.152l.058-1.254zm.926 11.24h1.355v1.066h-1.66v-.774l.305-.29zm-.833 1.067h-.28l.28-.268v.268zm-.872 4.555h.872v1.254h-.93l.058-1.254zm1.4 4.216h1.66v1.254h-1.66v-1.254zm1.66 1.405v1.253h-1.66V91.2h1.66zm2.338 1.81l.463-.406h1.196v.835c-.557-.027-1.108-.072-1.66-.12v-.31zm1.81-.406h1.66v.88c-.556-.002-1.11-.017-1.66-.04v-.84zm2.188 0h1.66v.84c-.552.023-1.105.038-1.66.04v-.88zm1.81 0h1.197l.464.407v.31c-.55.048-1.103.093-1.66.12v-.836zm3.998 0h1.66v.186c-.55.1-1.103.19-1.66.27v-.456zm2.188 0h.506c-.167.034-.338.06-.506.09v-.09zm1.158-.15H58.26v-1.255h1.132l.058 1.246-.032.007zm-1.158-12.43v-.067h.613l.03.683-.643-.617zm-.528-21.295h-1.66v-3.24h1.66v3.24zm-1.81 0h-1.66v-3.24h1.658v3.24zm-2.59-3.24h.402v3.24h-1.66v-3.24h1.257zm-3.596 3.173l-.098.066h-1.56v-3.24h1.658v3.173zm-1.81.066h-1.66v-3.24h1.661v3.24zm-2.684-3.24h.494v3.24h-1.66v-3.24h1.165zm-1.314 3.24h-1.66v-3.24h1.66v3.24zm-2.8 21.227h.612v.066l-.644.617.03-.683zm-.52 11.242h1.133v1.253h-1.158l-.03-.007.057-1.247zm35.133-49.29v5.722h-8.985V41.91h8.986zm-4.502-9.753h.02v6.427h-.02v-6.427zm-.28 6.955h.58v2.27h-.58v-2.27zm5.537 45.343h-.225v-1.59h2.17c-.634.547-1.28 1.078-1.945 1.59zm-2.42 1.743H68.62v-1.592h7.12v.422c-.545.402-1.1.793-1.665 1.17zm1.666-31.366h-7.12V53.24h7.12v1.592zm0-6.672v3.186h-7.12V48.16h7.12zm0 3.338v1.592h-7.12v-1.592h7.12zm-7.27 1.59h-3.567V51.5h3.567v1.59zM64.903 80.97v-1.59h3.567v1.59h-3.567zm3.567.15v1.593h-3.567V81.12h3.567zm-3.567-1.892v-1.592h3.567v1.592h-3.567zm3.567-20.76v1.592h-3.567v-1.592h3.567zm-3.567-.15v-1.592h3.567v1.59h-3.567zm10.838 3.635v1.592h-7.12v-1.592h7.12zm-7.12-.15V60.21h7.12v1.59h-7.12zm7.12 1.893v1.59h-7.12v-1.59h7.12zm0 1.742v1.592h-7.12v-1.592h7.12zm0 1.743v1.592h-7.12v-1.59h7.12zm0 1.743v1.592h-7.12v-1.592h7.12zm0 1.743v1.59h-7.12v-1.59h7.12zm0 1.742V74h-7.12v-1.592h7.12zm0 1.743v1.593h-7.12V74.15h7.12zm0 1.743v1.59h-7.12v-1.59h7.12zm.53 0h3.073v1.59H76.27v-1.59zm0-.15V74.15h3.073v1.592H76.27zm0-1.743v-1.592h3.073V74H76.27zm0-1.743v-1.59h3.073v1.59H76.27zm0-1.742v-1.592h3.073v1.592H76.27zm0-1.743v-1.59h3.073v1.59H76.27zm0-1.742v-1.592h3.073v1.592H76.27zm0-1.743v-1.59h3.073v1.59H76.27zm0-1.742v-1.592h3.073v1.592H76.27zm0-1.743V60.21h3.073v1.59H76.27zm0-1.743v-1.593h3.073v1.592H76.27zm-.53 0h-7.12v-1.593h7.12v1.592zm-7.27.15v1.59h-3.567v-1.59h3.567zm0 1.743v1.592h-3.567v-1.592h3.567zm0 1.743v1.59h-3.567v-1.59h3.567zm0 1.742v1.592h-3.567v-1.592h3.567zm0 1.743v1.592h-3.567v-1.59h3.567zm0 1.743v1.592h-3.567v-1.592h3.567zm0 1.743v1.59h-3.567v-1.59h3.567zm0 1.742V74h-3.567v-1.592h3.567zm0 1.743v1.593h-3.567V74.15h3.567zm0 1.743v1.59h-3.567v-1.59h3.567zm.15 1.743h7.12v1.592h-7.12v-1.592zm7.65 0h3.073v1.592H76.27v-1.592zm3.073-19.32H76.27v-1.59h3.073v1.59zm-3.602 0h-7.12v-1.59h7.12v1.59zm-7.12-1.742v-1.592h7.12v1.592h-7.12zm-.15 0h-3.567v-1.592h3.567v1.592zm-3.567-1.742V53.24h3.567v1.59h-3.567zm0 29.774h3.567v1.592h-3.567v-1.592zm0-.15v-1.592h3.567v1.59h-3.567zm3.718-1.592h7.12v1.59h-7.12v-1.59zm0-.15V81.12h7.12v1.593h-7.12zm0-1.744v-1.59h7.12v1.59h-7.12zm7.65-1.59h3.073v1.59H76.27v-1.59zm3.073-22.806H76.27V55.17h3.073v1.404zM66.49 48.16h1.98v3.186h-3.567V48.16h1.588zm-1.587 38.19h3.567v3.013c-.263.124-.53.242-.796.36h-2.77V86.35zm3.718 2.945V86.35h5.22c-1.665 1.094-3.406 2.082-5.22 2.945zm7.65-4.69h.032c-.01.01-.022.02-.033.027v-.026zm2.342-1.892H76.27V81.12h3.073v.95c-.24.22-.486.43-.73.643zm-13.71 7.162h2.44c-.803.35-1.613.683-2.44.986v-.985zm14.97-8.31V54.908c0-.146-.12-.264-.265-.264H76.27V41.646c0-.146-.12-.264-.265-.264h-3.938V38.85c0-.147-.118-.265-.264-.265h-.016v-6.69c0-.147-.118-.265-.264-.265h-.01V20.466c0-.146-.12-.264-.265-.264-.146 0-.264.118-.264.264V31.63h-.01c-.147 0-.265.117-.265.263v6.69h-.016c-.146 0-.264.12-.264.265v2.533h-3.94c-.145 0-.263.12-.263.265v5.986H64.64c-.147 0-.265.12-.265.265v43.143c-1.435.504-2.904.932-4.403 1.285L58.26 55.21c-.002-.01-.007-.02-.01-.03-.003-.024-.007-.048-.018-.07l-.01-.015c-.014-.025-.03-.048-.05-.066-.014-.013-.03-.02-.043-.03-.013-.006-.024-.016-.037-.02-.025-.012-.05-.015-.077-.017-.007 0-.014-.004-.02-.004h-2.99l-.698-24.44c0-.01-.005-.016-.007-.025-.012-.098-.075-.18-.166-.212-.01-.005-.022-.005-.034-.008-.016-.004-.032-.01-.05-.01h-.014c-.01 0-.02.004-.03.006-.1.013-.176.073-.208.16-.004.01-.003.02-.006.03-.005.02-.012.04-.013.06l-.7 24.442h-6.163L46.22 30.52c0-.01-.006-.02-.008-.03-.004-.025-.008-.05-.02-.072 0-.002 0-.003-.002-.004-.03-.06-.08-.107-.142-.13-.013-.007-.027-.007-.04-.01-.015-.003-.03-.01-.045-.01h-.015c-.01 0-.02.004-.03.006-.1.012-.174.072-.207.158-.003.01-.003.02-.006.032-.005.02-.012.038-.013.06l-.698 24.44h-2.99c-.008 0-.015.004-.024.005-.024.002-.048.005-.07.014-.02.006-.033.017-.048.028-.01.007-.022.012-.032.02-.02.02-.037.043-.05.068-.004.005-.01.01-.01.015-.01.022-.015.046-.02.07 0 .01-.007.02-.008.03l-1.713 37.113c-1.367-.322-2.71-.708-4.023-1.157V38.862c0-.146-.118-.264-.264-.264h-1.39v-18.02c0-.147-.117-.265-.263-.265s-.264.118-.264.264v18.02H25.09v-18.02c0-.146-.118-.264-.264-.264-.146 0-.264.118-.264.264v18.02h-1.39c-.145 0-.263.12-.263.265v21.27h-6.02c-.147 0-.265.118-.265.264V77.85C10.315 70.3 6.508 60.587 6.508 50 6.508 26.02 26.018 6.508 50 6.508c23.982 0 43.492 19.51 43.492 43.49 0 12.423-5.243 23.635-13.62 31.568z" fill="#999"/>
</svg>
