<?xml version="1.0" encoding="utf-8"?>
<!-- Generator: Adobe Illustrator 21.1.0, SVG Export Plug-In . SVG Version: 6.00 Build 0)  -->
<svg version="1.1" id="Layer_1" xmlns="http://www.w3.org/2000/svg" xmlns:xlink="http://www.w3.org/1999/xlink" x="0px" y="0px"
	 viewBox="0 0 250 250" style="enable-background:new 0 0 250 250;" xml:space="preserve">
<style type="text/css">
	.st0{fill:url(#SVGID_1_);}
	.st1{fill:url(#SVGID_2_);}
</style>
<radialGradient id="SVGID_1_" cx="33.2153" cy="-1456.809" r="326.3671" gradientTransform="matrix(1 0 0 1 0 1708)" gradientUnits="userSpaceOnUse">
	<stop  offset="9.000000e-02" style="stop-color:#FA8F21"/>
	<stop  offset="0.78" style="stop-color:#D82D7E"/>
</radialGradient>
<path class="st0" d="M83.3,125c0-23,18.7-41.7,41.7-41.7s41.7,18.7,41.7,41.7S148,166.7,125,166.7S83.3,148,83.3,125 M60.8,125
	c0,35.5,28.7,64.2,64.2,64.2s64.2-28.7,64.2-64.2S160.5,60.8,125,60.8S60.8,89.6,60.8,125 M176.7,58.3c0,8.3,6.7,15,15,15
	c8.3,0,15-6.7,15-15c0-8.3-6.7-15-15-15h0C183.5,43.3,176.7,50,176.7,58.3 M74.5,226.8c-12.2-0.6-18.8-2.6-23.2-4.3
	c-5.8-2.3-10-5-14.4-9.4c-4.4-4.4-7.1-8.5-9.4-14.4c-1.7-4.4-3.8-11-4.3-23.2c-0.6-13.2-0.7-17.1-0.7-50.5s0.1-37.3,0.7-50.5
	c0.6-12.2,2.6-18.8,4.3-23.2c2.3-5.8,5-10,9.4-14.4s8.5-7.1,14.4-9.4c4.4-1.7,11-3.8,23.2-4.3c13.2-0.6,17.1-0.7,50.5-0.7
	s37.3,0.1,50.5,0.7c12.2,0.6,18.8,2.6,23.2,4.3c5.8,2.3,10,5,14.4,9.4c4.4,4.4,7.1,8.5,9.4,14.4c1.7,4.4,3.8,11,4.3,23.2
	c0.6,13.2,0.7,17.1,0.7,50.5s-0.1,37.3-0.7,50.5c-0.6,12.2-2.6,18.8-4.3,23.2c-2.3,5.8-5,10-9.4,14.4c-4.4,4.4-8.5,7.1-14.4,9.4
	c-4.4,1.7-11,3.8-23.2,4.3c-13.2,0.6-17.1,0.7-50.5,0.7S87.7,227.4,74.5,226.8 M73.5,0.8C60.2,1.4,51.1,3.5,43.1,6.6
	C34.9,9.8,27.9,14,21,21S9.8,34.9,6.6,43.1c-3.1,8-5.2,17-5.8,30.3C0.1,86.8,0,91.1,0,125s0.1,38.2,0.8,51.5
	c0.6,13.3,2.7,22.4,5.8,30.3C9.8,215.1,14,222.1,21,229c7,6.9,13.9,11.2,22.1,14.4c8,3.1,17,5.2,30.3,5.8
	c13.3,0.6,17.6,0.8,51.5,0.8s38.2-0.1,51.5-0.8c13.3-0.6,22.4-2.7,30.3-5.8c8.2-3.2,15.2-7.5,22.1-14.4c7-7,11.2-13.9,14.4-22.1
	c3.1-8,5.2-17,5.8-30.3c0.6-13.3,0.8-17.6,0.8-51.5s-0.1-38.2-0.8-51.5c-0.6-13.3-2.7-22.4-5.8-30.3C240.2,34.9,236,27.9,229,21
	c-7-7-13.9-11.2-22.1-14.4c-8-3.1-17-5.2-30.3-5.8C163.2,0.2,159,0,125,0S86.8,0.1,73.5,0.8"/>
<radialGradient id="SVGID_2_" cx="151.6201" cy="-1445.6085" r="257.2223" gradientTransform="matrix(1 0 0 1 0 1708)" gradientUnits="userSpaceOnUse">
	<stop  offset="0.64" style="stop-color:#8C3AAA;stop-opacity:0"/>
	<stop  offset="1" style="stop-color:#8C3AAA"/>
</radialGradient>
<path class="st1" d="M83.3,125c0-23,18.7-41.7,41.7-41.7s41.7,18.7,41.7,41.7S148,166.7,125,166.7S83.3,148,83.3,125 M60.8,125
	c0,35.5,28.7,64.2,64.2,64.2s64.2-28.7,64.2-64.2S160.5,60.8,125,60.8S60.8,89.6,60.8,125 M176.7,58.3c0,8.3,6.7,15,15,15
	c8.3,0,15-6.7,15-15c0-8.3-6.7-15-15-15h0C183.5,43.3,176.7,50,176.7,58.3 M74.5,226.8c-12.2-0.6-18.8-2.6-23.2-4.3
	c-5.8-2.3-10-5-14.4-9.4c-4.4-4.4-7.1-8.5-9.4-14.4c-1.7-4.4-3.8-11-4.3-23.2c-0.6-13.2-0.7-17.1-0.7-50.5s0.1-37.3,0.7-50.5
	c0.6-12.2,2.6-18.8,4.3-23.2c2.3-5.8,5-10,9.4-14.4s8.5-7.1,14.4-9.4c4.4-1.7,11-3.8,23.2-4.3c13.2-0.6,17.1-0.7,50.5-0.7
	s37.3,0.1,50.5,0.7c12.2,0.6,18.8,2.6,23.2,4.3c5.8,2.3,10,5,14.4,9.4c4.4,4.4,7.1,8.5,9.4,14.4c1.7,4.4,3.8,11,4.3,23.2
	c0.6,13.2,0.7,17.1,0.7,50.5s-0.1,37.3-0.7,50.5c-0.6,12.2-2.6,18.8-4.3,23.2c-2.3,5.8-5,10-9.4,14.4c-4.4,4.4-8.5,7.1-14.4,9.4
	c-4.4,1.7-11,3.8-23.2,4.3c-13.2,0.6-17.1,0.7-50.5,0.7S87.7,227.4,74.5,226.8 M73.5,0.8C60.2,1.4,51.1,3.5,43.1,6.6
	C34.9,9.8,27.9,14,21,21S9.8,34.9,6.6,43.1c-3.1,8-5.2,17-5.8,30.3C0.1,86.8,0,91.1,0,125s0.1,38.2,0.8,51.5
	c0.6,13.3,2.7,22.4,5.8,30.3C9.8,215.1,14,222.1,21,229c7,6.9,13.9,11.2,22.1,14.4c8,3.1,17,5.2,30.3,5.8
	c13.3,0.6,17.6,0.8,51.5,0.8s38.2-0.1,51.5-0.8c13.3-0.6,22.4-2.7,30.3-5.8c8.2-3.2,15.2-7.5,22.1-14.4c7-7,11.2-13.9,14.4-22.1
	c3.1-8,5.2-17,5.8-30.3c0.6-13.3,0.8-17.6,0.8-51.5s-0.1-38.2-0.8-51.5c-0.6-13.3-2.7-22.4-5.8-30.3C240.2,34.9,236,27.9,229,21
	c-7-7-13.9-11.2-22.1-14.4c-8-3.1-17-5.2-30.3-5.8C163.2,0.2,159,0,125,0S86.8,0.1,73.5,0.8"/>
</svg>
