<svg viewBox="0 0 256 283" xmlns="http://www.w3.org/2000/svg" preserveAspectRatio="xMidYMid">
  <path d="M239.97 139.2a26.32 26.32 0 0 0-29.08-26.17l36.15-106.6H93.44l36.09 106.51a26.44 26.44 0 0 0-1.6-.05 26.32 26.32 0 0 0-8 51.4 114.94 114.94 0 0 1-20.69 26.03c-10.9 10.29-23.38 18.09-36.87 22.9-16.07-8.26-23.66-26.62-16.81-42.71.77-1.82 1.56-3.66 2.32-5.5a26.32 26.32 0 1 0-21.11-4.07c-6.51 14.83-16.09 30.35-19.07 48.34-3.58 21.56-.01 44.44 18.63 57.36 43.43 30.1 90.56-18.65 140.26-30.91 18.01-4.44 37.78-3.73 53.65-12.92a44.93 44.93 0 0 0 22-31.18c2.2-12.69-1-25.32-8.39-35.56a26.2 26.2 0 0 0 6.12-16.87zm-85.73.1v-.1a26.3 26.3 0 0 0-12.68-22.51l28.73-58.1 28.77 58.71a26.29 26.29 0 0 0-11.72 21.9l.01.58-33.1-.48z" fill="#C63D14"/>
  <path d="M246.4 139.2a32.79 32.79 0 0 0-26.69-32.17L256 0H84.47l36.34 107.25a32.8 32.8 0 0 0-25.63 31.95c0 11.73 6.2 22.02 15.48 27.8a109.7 109.7 0 0 1-15.83 18.65 99.23 99.23 0 0 1-31.9 20.5c-11.65-7.32-16.57-21.11-11.46-33.13l.4-.94.75-1.77a32.8 32.8 0 0 0 22-30.92c0-18.05-14.7-32.74-32.75-32.74S9.13 121.34 9.13 139.39c0 9.12 3.74 17.37 9.77 23.3a551.64 551.64 0 0 1-3.42 7.13c-5.51 11.32-11.76 24.16-14.12 38.4-4.7 28.3 2.87 50.93 21.31 63.7 11.19 7.76 22.55 10.8 33.98 10.8 21.53 0 43.3-10.8 64.6-21.39 15.35-7.62 31.21-15.5 46.88-19.36 5.83-1.44 11.83-2.3 18.18-3.22 12.6-1.82 25.62-3.7 37.15-10.38a51.4 51.4 0 0 0 25.12-35.64 53.06 53.06 0 0 0-6.98-36.48 32.54 32.54 0 0 0 4.8-17.05zm-12.86 0a19.91 19.91 0 0 1-19.88 19.9c-10.97 0-19.9-8.93-19.9-19.9s8.93-19.89 19.9-19.89a19.91 19.91 0 0 1 19.89 19.9zm4.53-126.35l-32.05 94.52a32.35 32.35 0 0 0-4.05 1.25L170.3 44.06l-31.75 64.2a32.34 32.34 0 0 0-4.23-1.16L102.4 12.85h135.67zM127.93 119.31a19.91 19.91 0 0 1 19.89 19.9 19.91 19.91 0 0 1-19.9 19.88c-10.96 0-19.88-8.92-19.88-19.89s8.92-19.89 19.89-19.89zm-86.06.2a19.91 19.91 0 0 1 19.9 19.88 19.91 19.91 0 0 1-19.9 19.9c-10.96 0-19.89-8.93-19.89-19.9s8.93-19.89 19.9-19.89zm194.04 71.02a38.57 38.57 0 0 1-18.89 26.72c-9.39 5.44-20.63 7.06-32.54 8.78-6.38.92-12.98 1.87-19.43 3.46-17.04 4.2-33.55 12.4-49.51 20.33-31.94 15.87-59.53 29.57-85.55 11.54-19.05-13.2-18.17-37.64-15.95-51.03 2.06-12.4 7.62-23.83 13-34.88a748.86 748.86 0 0 0 2.72-5.65 32.46 32.46 0 0 0 8.46 2.13c-5.47 18.07 3.14 37.72 21.2 47l2.48 1.27 2.62-.93C78.81 214.18 91.98 206 103.65 195c7.55-7.12 14.04-15 19.37-23.42a32.9 32.9 0 0 0 4.9.37 32.78 32.78 0 0 0 32.75-32.75c0-9.7-4.25-18.44-10.99-24.44l20.58-41.61 20.79 42.4a32.65 32.65 0 0 0-10.14 23.65 32.78 32.78 0 0 0 32.75 32.75 32.55 32.55 0 0 0 18.67-5.87 39.9 39.9 0 0 1 3.58 24.45z" fill="#FFF"/>
</svg>
