<?xml version="1.0" encoding="utf-8"?>
<!-- Generator: Adobe Illustrator 21.1.0, SVG Export Plug-In . SVG Version: 6.00 Build 0)  -->
<svg version="1.1" id="Layer_1" xmlns="http://www.w3.org/2000/svg" xmlns:xlink="http://www.w3.org/1999/xlink" x="0px" y="0px"
	 viewBox="0 0 250 250" style="enable-background:new 0 0 250 250;" xml:space="preserve">
<style type="text/css">
	.st0{fill:url(#SVGID_1_);}
</style>
<linearGradient id="SVGID_1_" gradientUnits="userSpaceOnUse" x1="-430.4859" y1="-1.3742" x2="-395.2749" y2="33.8368" gradientTransform="matrix(5.0206 0 0 5.0206 2197.9062 43.5102)">
	<stop  offset="0" style="stop-color:#2489BE"/>
	<stop  offset="1" style="stop-color:#0575B3"/>
</linearGradient>
<path class="st0" d="M125,0C56,0,0,56,0,125s56,125,125,125s125-56,125-125S194,0,125,0z M91.7,185.4H64.2V96.8h27.4L91.7,185.4
	L91.7,185.4z M77.8,85.2c-9,0-16.2-7.3-16.2-16.4c0-9,7.3-16.4,16.2-16.4S94,59.8,94,68.8C94,77.8,86.8,85.2,77.8,85.2z
	 M194.5,185.4h-27.3v-46.5c0-12.8-4.9-19.9-14.9-19.9c-11,0-16.7,7.4-16.7,19.9v46.5h-26.3V96.8h26.3v11.9c0,0,7.9-14.6,26.7-14.6
	s32.3,11.5,32.3,35.2L194.5,185.4L194.5,185.4z"/>
</svg>
