<svg data-name="Layer 1" xmlns="http://www.w3.org/2000/svg" viewBox="0 0 52.32 50">
  <path d="M11.89 16.25V50H.65V16.25zm.71-10.43A5.39 5.39 0 0 1 10.88 10a6.42 6.42 0 0 1-4.62 1.67H6.2A6.15 6.15 0 0 1 1.7 10 5.58 5.58 0 0 1 0 5.82a5.49 5.49 0 0 1 1.75-4.17A6.41 6.41 0 0 1 6.34 0a6.23 6.23 0 0 1 4.53 1.65 5.68 5.68 0 0 1 1.73 4.17zm39.72 24.83V50H41.11V31.95a9.85 9.85 0 0 0-1.38-5.6 4.85 4.85 0 0 0-4.31-2 5.52 5.52 0 0 0-3.59 1.18 7.24 7.24 0 0 0-2.16 2.91 8.23 8.23 0 0 0-.37 2.76V50H18.09q.07-13.59.07-22t0-10.08v-1.63h11.13v4.9h-.07a14.82 14.82 0 0 1 1.4-1.91 14.52 14.52 0 0 1 1.92-1.77 8.85 8.85 0 0 1 3-1.48 13.5 13.5 0 0 1 3.9-.53 12.1 12.1 0 0 1 9.37 3.87q3.51 3.82 3.51 11.28z" fill="#fff"/>
</svg>
