<?xml version="1.0" encoding="utf-8"?>
<!-- Generator: Adobe Illustrator 21.1.0, SVG Export Plug-In . SVG Version: 6.00 Build 0)  -->
<svg version="1.1" id="primary_Logo" xmlns="http://www.w3.org/2000/svg" xmlns:xlink="http://www.w3.org/1999/xlink" x="0px"
	 y="0px" viewBox="0 0 250 250" style="enable-background:new 0 0 250 250;" xml:space="preserve">
<style type="text/css">
	.st0{fill:#2FFC8D;}
	.st1{fill:#03E370;}
	.st2{fill:#10C767;}
	.st3{fill:#00AB6C;}
</style>
<g id="XMLID_98_">
	<g id="XMLID_99_">
		<path id="XMLID_103_" class="st0" d="M169,17.6c-1.3-0.6-2.3,0-2.3,1.5v174.5l76.4,38.2c3.8,1.9,6.9,0,6.9-4.3v-168
			c0-0.9-0.4-1.6-1.2-2L169,17.6z"/>
		<path id="XMLID_102_" class="st1" d="M83.3,152l82-133.2c0.8-1.2,2.4-1.7,3.7-1l79.2,39.6c0.9,0.5,1.4,1.7,0.8,2.7l-82.3,133.6
			L83.3,152z"/>
		<path id="XMLID_101_" class="st2" d="M9.2,21.2c-5.1-2.6-6.8-0.7-3.8,4.2L83.3,152l83.3,41.7L83.8,59.1c-0.3-0.6-0.9-1-1.5-1.4
			L9.2,21.2z"/>
		<path id="XMLID_100_" class="st3" d="M83.3,227.6c0,4.2-3.1,6.2-6.9,4.3l-71.8-36c-2.5-1.3-4.6-4.6-4.6-7.5V21.7
			c0-2.8,2.1-4.1,4.6-2.8l77.7,38.9c0.6,0.3,1,1,1,1.6L83.3,227.6L83.3,227.6z"/>
	</g>
</g>
</svg>
