<svg viewBox="0 0 256 291" xmlns="http://www.w3.org/2000/svg" preserveAspectRatio="xMidYMid">
  <path d="M248.2 223.77L135.8 288.7a15.51 15.51 0 0 1-15.6 0L7.8 223.77A15.6 15.6 0 0 1 0 210.34V80.47c0-5.62 2.97-10.62 7.8-13.43L120.2 2.11a15.51 15.51 0 0 1 15.6 0l112.4 64.93a15.6 15.6 0 0 1 7.8 13.43v129.87a16.3 16.3 0 0 1-7.8 13.43z" fill="#8D6748"/>
  <path d="M127.84 19.75c-2.34 0-4.68.62-6.7 1.87l-97.1 56.04a13.24 13.24 0 0 0-6.71 11.55v112.08c0 4.84 2.5 9.2 6.7 11.55l97.1 56.04a12.82 12.82 0 0 0 6.71 1.87c2.34 0 4.69-.62 6.72-1.87l97.09-56.04a13.24 13.24 0 0 0 6.71-11.55V89.2c0-4.84-2.5-9.2-6.71-11.55l-97.1-56.04a12.83 12.83 0 0 0-6.7-1.87zm0 4.68c1.56 0 2.97.47 4.37 1.25l97.1 56.04a8.98 8.98 0 0 1 4.37 7.65v112.08a8.98 8.98 0 0 1-4.37 7.64l-97.1 56.04a8.84 8.84 0 0 1-4.37 1.25 8.39 8.39 0 0 1-4.37-1.25L26.38 209.1a8.98 8.98 0 0 1-4.37-7.64V89.37a8.98 8.98 0 0 1 4.37-7.65l97.1-56.04a9.3 9.3 0 0 1 4.36-1.25zm-8.97 97.72h13.11c.47 0 .78-.16 1.1-.47 7.8-8.74 8.58-27 8.58-32.47 0-.78-.63-1.56-1.56-1.56h-29.35c-.78 0-1.56.62-1.56 1.56 0 5.3.78 23.57 8.59 32.47.3.31.62.47 1.09.47zm-3.6-29.66h20.61c.78 0 1.56.62 1.56 1.56 0 4.37-.78 16.7-6.08 23.1-.47.31-.78.47-1.25.47h-9.21c-.47 0-.78-.16-1.1-.47-5.3-6.24-5.93-18.73-6.08-23.1 0-.78.62-1.56 1.56-1.56zm13.12-7.96s5.62-3.28 2.19-9.21c-2.03-3.12-2.97-5.78-2.19-6.87-2.03 2.5-5.46 5.15-1.72 10.77a8.8 8.8 0 0 1 1.72 5.3zm-6.24.47s3.74-2.19 1.4-6.25c-1.4-2.03-2.03-3.9-1.4-4.53-1.4 1.72-3.6 3.44-1.1 7.34.78.78 1.1 2.81 1.1 3.44zm-.47 30.75h7.8c.31 0 .63-.16.94-.47 2.65-3.12 3.9-7.96 4.53-12.18 0 0-.16 1.4-3.9 2.81-5.16 1.88-14.21.63-14.21.63.78 3.27 2.03 6.4 3.9 8.74.16.31.63.47.94.47zm-58.7 43.86v-31.22h-5.77l-9.52 14.67-9.52-14.67h-5.78v31.38h5.46v-22.33l9.68 14.52h.16l9.83-14.67v22.32H63zm34.97-30.6a18.16 18.16 0 0 0-6.55-1.24c-2.35 0-4.53.3-6.56 1.25a14.9 14.9 0 0 0-5.15 3.43 15.69 15.69 0 0 0-3.44 5.15 17.14 17.14 0 0 0-1.25 6.24v.16c0 2.19.47 4.37 1.25 6.24a14.91 14.91 0 0 0 8.43 8.59c2.03.78 4.22 1.25 6.56 1.25s4.53-.31 6.56-1.25a14.9 14.9 0 0 0 5.15-3.44 15.69 15.69 0 0 0 3.43-5.14 17.15 17.15 0 0 0 1.25-6.25v-.16c0-2.18-.47-4.37-1.25-6.24a14.9 14.9 0 0 0-8.43-8.59zm3.75 15.15c0 1.4-.31 2.8-.78 4.21-.63 1.25-1.25 2.5-2.19 3.44a12.49 12.49 0 0 1-3.28 2.34 9.3 9.3 0 0 1-4.21.93c-1.4 0-2.97-.3-4.22-.93a12.49 12.49 0 0 1-3.27-2.34 10.61 10.61 0 0 1-2.19-3.6c-.47-1.4-.78-2.8-.78-4.37v-.15c0-1.4.31-2.81.78-4.22.63-1.25 1.25-2.5 2.19-3.43a12.5 12.5 0 0 1 3.27-2.34 9.3 9.3 0 0 1 4.22-.94 9.3 9.3 0 0 1 4.21.94 12.5 12.5 0 0 1 3.28 2.34c.94 1.1 1.72 2.18 2.19 3.59.47 1.4.78 2.8.78 4.37v.16zm23.1-4.69c.62-1.25 1.25-2.5 2.19-3.43a12.53 12.53 0 0 1 3.27-2.34 8.65 8.65 0 0 1 4.06-.94c1.88 0 3.44.31 4.84 1.1 1.4.77 2.66 1.71 3.9 2.8l3.6-4.05a28.06 28.06 0 0 0-2.35-2.03 14.2 14.2 0 0 0-2.65-1.56c-1.1-.32-2.03-.63-3.28-.94a30.4 30.4 0 0 0-3.9-.31c-2.5 0-4.53.46-6.56 1.24a14.92 14.92 0 0 0-5.15 3.44 18.01 18.01 0 0 0-3.28 5.15 16.49 16.49 0 0 0-1.25 6.24v.16c0 2.19.47 4.21 1.25 6.24a14.56 14.56 0 0 0 3.28 5.15 15.67 15.67 0 0 0 5 3.44 15.9 15.9 0 0 0 6.24 1.25c1.4 0 2.8 0 4.21-.31 1.1-.16 2.35-.63 3.28-1.1.94-.46 1.88-.93 2.81-1.71.94-.78 1.72-1.4 2.5-2.35l-3.59-3.59a29.26 29.26 0 0 1-4.06 2.97c-1.25.78-2.96 1.1-4.84 1.1-1.4 0-2.8-.48-4.06-.94a9.75 9.75 0 0 1-3.27-2.34 10.6 10.6 0 0 1-2.19-3.6c-.47-1.4-.78-2.8-.78-4.37v-.15c0-1.4.31-2.81.78-4.22zm32.94-11.08v31.22h5.46V146.5h14.99v13.11h5.46v-31.22h-5.46v12.96H163.2v-12.96h-5.46zm59.94 23.73l3.12 7.5h5.78l-13.74-31.38h-5l-13.73 31.37h5.62l3.27-7.5h14.68zm-7.34-17.33l5.3 12.49h-10.6l5.3-12.49zM28.5 171.16h199v-1.72h-199v1.72zm114.42-60.41c0 .62-.16 1.1-.16 1.72h84.76v-1.72h-84.6zm-34.81 0H28.49v1.72h79.76c0-.63-.15-1.1-.15-1.72z" fill="#FFF"/>
</svg>
