<svg viewBox="0 0 256 282" xmlns="http://www.w3.org/2000/svg" preserveAspectRatio="xMinYMin meet">
  <g fill="#fff">
    <path d="M116.5 3.58c6.97-3.98 16.03-4 22.99 0 35 19.77 70 39.52 104.99 59.3 6.58 3.71 10.98 11.03 10.92 18.62v118.97c.05 7.9-4.8 15.4-11.73 19.01L139.05 278.5a22.88 22.88 0 0 1-23.24-.64c-10.46-6.07-20.93-12.1-31.4-18.15-2.13-1.28-4.54-2.3-6.05-4.36 1.34-1.8 3.72-2.03 5.66-2.81 4.37-1.39 8.38-3.62 12.39-5.78 1-.7 2.25-.43 3.22.2 8.94 5.12 17.8 10.4 26.78 15.48 1.91 1.1 3.85-.37 5.48-1.28 34.23-19.34 68.5-38.61 102.72-57.97a3.4 3.4 0 0 0 1.87-3.34c.02-39.25 0-78.5.01-117.74a3.68 3.68 0 0 0-2.19-3.67c-34.76-19.58-69.5-39.18-104.25-58.76a3.62 3.62 0 0 0-4.1 0C91.2 39.25 56.47 58.87 21.71 78.44a3.64 3.64 0 0 0-2.2 3.66v117.75a3.33 3.33 0 0 0 1.89 3.3c9.27 5.26 18.56 10.48 27.84 15.72 5.23 2.81 11.64 4.49 17.4 2.33a13.2 13.2 0 0 0 8.55-12.4c.05-39.02-.02-78.04.04-117.05-.13-1.74 1.52-3.17 3.2-3 4.46-.03 8.92-.06 13.37 0 1.86-.03 3.14 1.83 2.91 3.58-.01 39.26.05 78.52-.03 117.79.02 10.46-4.28 21.85-13.96 26.97-11.93 6.17-26.66 4.86-38.44-1.06-10.2-5.1-19.93-11.1-29.95-16.55C5.37 215.89.55 208.36.6 200.47V81.5c-.07-7.74 4.5-15.2 11.3-18.85L116.5 3.58z"/>
    <path d="M146.93 85.99c15.2-.98 31.5-.58 45.18 6.91 10.6 5.74 16.47 17.8 16.66 29.57-.3 1.59-1.96 2.46-3.48 2.35-4.4 0-8.82.06-13.24-.03-1.87.08-2.96-1.65-3.19-3.3-1.27-5.64-4.34-11.22-9.64-13.93-8.14-4.08-17.58-3.87-26.45-3.79-6.48.35-13.45.9-18.94 4.72-4.21 2.88-5.5 8.7-3.99 13.4 1.42 3.37 5.3 4.46 8.5 5.46 18.32 4.8 37.74 4.32 55.72 10.62 7.45 2.58 14.73 7.58 17.28 15.37 3.33 10.45 1.87 22.93-5.56 31.32-6.03 6.9-14.8 10.65-23.56 12.7-11.65 2.6-23.74 2.66-35.56 1.5-11.13-1.26-22.7-4.19-31.29-11.76-7.34-6.38-10.92-16.31-10.57-25.9.09-1.62 1.7-2.75 3.25-2.61 4.44-.04 8.89-.05 13.33 0 1.78-.12 3.1 1.41 3.18 3.08.82 5.37 2.84 11 7.52 14.18 9.03 5.83 20.37 5.43 30.7 5.6 8.58-.38 18.2-.5 25.19-6.16 3.69-3.23 4.78-8.64 3.78-13.29-1.08-3.92-5.18-5.75-8.71-6.95-18.1-5.72-37.74-3.64-55.66-10.12-7.27-2.57-14.3-7.43-17.1-14.9-3.9-10.58-2.11-23.66 6.1-31.77 8-8.06 19.56-11.16 30.55-12.27z"/>
  </g>
</svg>
