<svg xmlns="http://www.w3.org/2000/svg" viewBox="0 0 250.46 250">
  <title>postcss</title>
  <g>
    <path d="M250.36,118.47c-.08-3.21-.25-6.51-.42-9.72s-.25-6.59-.59-9.89c-.59-4.48-1.18-9-2.2-13.44a76.57,76.57,0,0,0-3.3-10.57,127.17,127.17,0,0,0-5.24-12.09C235.31,56.5,231,50.92,227,45.09c-2.62-3.72-6-6.76-8.54-10.57a26.09,26.09,0,0,0-5.66-5.75c-3.38-2.71-6.93-5.16-10.48-7.52-2.71-1.86-5.41-3.64-8.29-5.24-2.28-1.27-4.74-2.28-7.1-3.38-2.7-1.27-5.33-2.79-8.37-3.38a22.11,22.11,0,0,1-2.2-.68c-1.94-.68-3.81-1.44-5.75-2-3-.93-5.83-2-8.88-2.79a81.09,81.09,0,0,0-9-1.69c-3.38-.51-6.85-.68-10.23-1-2.2-.25-4.4-.51-6.51-.59-3.21-.17-6.51-.17-9.72-.25a47.74,47.74,0,0,0-4.9-.17A72.21,72.21,0,0,0,114,.7c-2.37.25-4.73.68-7,1-2.79.34-5.58.51-8.37.85-2.62.34-5.33.85-7.95,1.27-.93.17-1.86.51-2.79.68a53.64,53.64,0,0,0-6.17,1.27c-3.63,1.1-7.27,2.37-10.82,3.72A99.61,99.61,0,0,0,61.23,14C58,15.75,55,17.86,51.93,19.89c-2.87,1.94-5.75,4-8.54,6.17a98.72,98.72,0,0,0-7.69,6.85c-1.35,1.35-2.45,3-3.72,4.48-2.11,2.45-4.23,4.82-6.26,7.36C24,46.86,22.5,49.06,20.9,51.26a107.83,107.83,0,0,0-7.61,12.17c-.93,1.69-1.78,3.38-2.62,5.07C9.4,71,8,73.5,6.86,76.12a32.19,32.19,0,0,0-2,5.66Q3,88,1.37,94.29A47.33,47.33,0,0,0,0,105.71a80.16,80.16,0,0,0,.59,10.06c.08.85-.42,1.86.59,2.54.08,0,0,.34-.09.42a.82.82,0,0,0,.51,1.18.3.3,0,0,1,.08.17H1.28c-.25.76.59,1.35.25,2.2-.08.17.25.51.42.76a2.85,2.85,0,0,0,0,.85,19.53,19.53,0,0,1,.42,2.37c0,.59.51,1.27.68,1.86a1,1,0,0,1-.17.85c-.51.59-.42,1.1.34,1.44a1,1,0,0,1,.42.59,9.46,9.46,0,0,1-.25,1.52c.17.17.25.34.17.51s-.25.51-.17.68a11.18,11.18,0,0,1,1,4.4,3.24,3.24,0,0,0,.34,1.1,1.26,1.26,0,0,1,.51.08l-.51,1.52a7.15,7.15,0,0,1,1.18-.51,26.45,26.45,0,0,0,.85,3,1.45,1.45,0,0,0,.51.51c-.09.17-.09.51-.25.59a25.77,25.77,0,0,0,1.1,4.4c.09,0,.17-.09.25-.09-.25-1.52-.42-3.13-.68-4.65v-.51A.85.85,0,0,1,8,143.5a5.87,5.87,0,0,1,.25,1c.68,0,1.69.42,2.37.42a7.89,7.89,0,0,1,.25-.76c-.51-.51-.93-1.27-1.44-1.78a2.6,2.6,0,0,1,0,1.18c-.34-.17-.76-.34-1.18-.51a15.19,15.19,0,0,1,1.18-1.35c0-.76-.42-1.44-1.61-1.35.51-.17,1-.42,1.61-.59a5.77,5.77,0,0,0,.25.68c.68-1.18-.34-2.11-.34-3.3.08-1.44-.76-2.87-1-4.4-.42-2.37-.34-5.92-.59-8.29,0-.17-.25-.34-.42-.51-.09.09-.51,1.18-.59,1.27.25,2,.51,4.06.68,6.09-.08,0-.17,0-.17.08-.34-1.78-.68-3.64-1.1-5.66a9.79,9.79,0,0,0-.17,1.18c-.25-.08-.34-.17-.76-.34.34.76.68,1.27.93,1.86a2.76,2.76,0,0,0-1.27-.17v2.37a11.51,11.51,0,0,1-1.52-2.11c-.17-.68-.25-1.35-.42-2l.25-.09a4.59,4.59,0,0,1-.25-.85q-.14-1-.25-2c.08-.08.42-.17.59-.34l-.68-1a13.82,13.82,0,0,0,1.52.17c0-.17.08-.25,0-.34-.85-.76-.25-1.44.08-2.11.17-.34.76-.42.93-.76.68-1.27,1.78-2.28,1.78-3.89a22.9,22.9,0,0,1,.34-2.37c.17-1.44.34-2.87.42-4.31a39,39,0,0,1,.42-5.5c.68-3,1.52-5.92,2.45-8.88.68-2.11,1.44-4.14,2.28-6.26a98.51,98.51,0,0,1,4.06-9.72c2.28-4.56,4.9-9,7.44-13.44,1.61-2.79,3.3-5.41,5.07-8.12s3.38-5.33,5.33-7.78a68.58,68.58,0,0,1,9-9.55c3.38-3,6.59-6.17,10.23-9a103.45,103.45,0,0,1,15-9.64A114.48,114.48,0,0,1,82.19,15c2.87-1.1,6-1.6,9-2.54a35.61,35.61,0,0,1,10.31-1.69c2.28-.08,4.48-.34,6.76-.59,2-.17,4.06-.34,6.26-.59a3.73,3.73,0,0,0-.42.68c-.93,1.35-1.94,2.71-2.87,4.06-.76,1.1-1.61,2.28-2.37,3.38-1.35,1.78-2.79,3.55-4.06,5.41C102.82,25.9,101,28.77,99,31.56s-4.23,5.24-6.34,7.86c-2.79,3.64-5.41,7.36-8.2,11-2.54,3.47-5.24,6.76-7.69,10.23-2.2,3-4.14,6.26-6.26,9.39-3.13,4.65-6.26,9.22-9.39,13.87q-3.68,5.31-7.44,10.57A2,2,0,0,1,53,95c-.17.17-.51.34-.51.51a9.63,9.63,0,0,1-.42,1.69c-.68,1.27-1.35,2.54-2.11,3.72-.42.68-1,1.27-1.52,1.94-.17-.08-.25-.17-.42-.17.34-.85,1.78-1.35,1.1-2.62-.42.68-.85,1.27-1.27,1.94l-1,2c.34.25.93.42.34.93-.25.42-.51.93-.76,1.35.09,0,.09.08.17.08.25-.34.51-.59.76-.93.08,0,.17.08.25.08a12.45,12.45,0,0,1-1.18,2.37,6.79,6.79,0,0,1-1.78,1.69c.09.08.68.34.76.42.25-.34.34-.17.59-.51.17.25.42-.17.51.08a4,4,0,0,0,.59-.85,3.07,3.07,0,0,1,1.69-1.86,3.34,3.34,0,0,0,.85-.68c2.54-2.62,5.16-5.16,7.44-7.95,3.55-4.31,6.76-8.79,10.15-13.19,1.44-1.86,3.13-3.72,4.65-5.5.17.09.34.09.42.17-.17,1.78-.34,3.64-.42,5.41-.25,3.13-.42,6.26-.68,9.47-.08,1.27,0,2.53-.08,3.8,0,.34-.25.59-.25.93,0,.85.25,1.78.25,2.62-.25,3.13-.59,6.17-.85,9.3a5,5,0,0,0,.42,1.94,2.35,2.35,0,0,0-.42-.34c0,4.9.93,9.72.17,14.54.34-.09.51-.17.51-.34a12.89,12.89,0,0,0,.25-1.78,10.11,10.11,0,0,0,0-1.61v-.85a28.52,28.52,0,0,0,.25-4.65,15.88,15.88,0,0,1,.17-4.9c.17-.68-.08-1.52.34-2.37v1.27c-.09,4.82.08,9.64-.59,14.46-.08.42.25,1.18-.68,1.1-.09,0-.17.42-.34.68-.42.85.51,1.94-.34,2.79-.17.17.17.93.25,1.44,0,.17.09.34,0,.42-.34.59-.34.59.17.68.09,1.86.25,3.55.34,5.33H71c1.1-3.21.42-6.51,1-9.81a33.49,33.49,0,0,1,.09,4.14c0,2.2-.09,4.31-.17,6.51a6.56,6.56,0,0,1-.17,1.27,23,23,0,0,1-.76,3.47,9.51,9.51,0,0,0-.17,3.13V151c0,.09.25.34.25.68.08.76-.34,1.52-.09,2.37.09.17-.08.42-.17.59a1.2,1.2,0,0,0-.08.76l.25,1.27c0,.08.09.17.17.34a2.7,2.7,0,0,0,.09-.68c1.44.17.68,1.44,1.35,2.11-.34.17-.59.25-.59.34a3.79,3.79,0,0,1,.25.93,19.33,19.33,0,0,1-.17,2.2c0,1.94-.09,3.89-.09,5.75,0,.25.09.51.09.76s-.09.34-.09.59v1.78h.34a4.62,4.62,0,0,1-.59.76c-.08,0-.34,0-.34-.08V160.83H70.19c-.17,5.07.25,9.64-.68,14.37a21.7,21.7,0,0,1-2.45.25c-2.62,0-5.24,0-7.86.08-3.13,0-6.17.09-9.3.09-1.52,0-3.13.17-4.65.17-2,0-4.14-.25-6.17-.25-3.13,0-6.17.25-9.3.34-2.28.08-4.57.08-6.85.17-1.52.08-3,.17-4.57.34a13.78,13.78,0,0,0-2.11.59,7.12,7.12,0,0,0-1.35,0c-.85.17-1.61.68-2.45.85-1.27.25-1.61.59-1.44,1.86v.85a2.53,2.53,0,0,0-.59-.42.29.29,0,0,0-.17.08c.08.25.25.42.34.68.34-.17.76-.59,1.1-.59h1.18c-.17,0-.25.51-.51.93l1.52-.59a2.39,2.39,0,0,1,.08.68,11.07,11.07,0,0,1,3.3-.17,67.16,67.16,0,0,0,10.06,1.52c2.2.17,4.31.25,6.51.34,3.13.17,6.26.34,9.38.34,2.62,0,5.16-.25,7.78-.25,3.64,0,7.27.17,10.91.25.76,0,1.61-.09,2.45-.09h6.17c5.5-.17,11-.25,16.49-.42,3.13-.08,6.34-.25,9.47-.34l9.64-.25c3.72-.08,7.44-.08,11.08-.17,2.79,0,5.5-.08,8.29-.17,3.13-.09,6.34-.34,9.47-.51,1.69-.08,3.38-.25,5.07-.42,2-.17,4.14-.42,6.17-.51,3-.17,6.17-.25,9.22-.42,3.8-.25,7.61-.59,11.5-.68,3.55-.17,7.19-.09,10.74-.17,3.13-.08,6.26-.25,9.47-.34l5.33-.25s3.55-.08,5.33-.25c3-.17,6.09-.51,9.13-.59,1.94-.08,3.89,0,5.83-.08,3.13-.09,6.34-.25,9.47-.25,1.18,0,2.45.17,4,.25-.68.59-1.1.93-1.61,1.35a5.28,5.28,0,0,1,1,.42c0,.09-.08.17-.08.34-.42,0-.85.09-1.27.09a5.34,5.34,0,0,0-.51,1.44h1.52c-.59,0-1.1.76-1.69,1.27.09.08.17.08.25.17-.93-.34-1.52-.17-1.86.76a1.87,1.87,0,0,0,.68.08c-.08.25-.17.51-.25.85a1.23,1.23,0,0,0-.17.59l-.25-.25a1.09,1.09,0,0,0-.08-.51c-.51.51-1.27.85-.85,1.94-.34.17-.76.34-1.18.59a3.62,3.62,0,0,1,.34.59c-.76.08-1.52.25-1.35,1.18.34.08.68.25.93.34-.42.17-.85.42-1.27.59-.09.17-.17.59-.34.68-1.18.25-.51.68-.17,1.1a3.42,3.42,0,0,1-.76.42,1.37,1.37,0,0,1,.59.34,4.9,4.9,0,0,1-.59.34,2.81,2.81,0,0,0,.51.25q-.51.38-1.27,1a.76.76,0,0,0,.08.42,7.4,7.4,0,0,0-1,1.18,16.64,16.64,0,0,1-.93,1.69c-1.78,1.94-3,4.23-5.33,5.75a18.45,18.45,0,0,0-2.37,2.11c-1.52,1.44-2.87,3-4.48,4.4-2.11,1.78-4.31,3.38-6.6,5-2.79,1.94-5.58,3.89-8.37,5.75-1.52,1-3.21,1.78-4.82,2.71s-3.13,1.78-4.74,2.71a24.44,24.44,0,0,1-3,2.11c-2.79,1.18-5.75,2.2-8.62,3.3-.25.08-.42.17-.68.25-2.11.93-4.14,1.94-6.26,2.71a48.3,48.3,0,0,1-6,1.61,18.27,18.27,0,0,1-2.2.08c-1.44.25-2.88.59-4.31.76-3.72.51-7.44.85-11.16,1.35-2.2.25-4.31.68-6.51.93-1.52.09-3.13-.08-4.65-.08a22.45,22.45,0,0,1-3.38.08c-1.77-.25-3.55-.68-5.33-1a2.51,2.51,0,0,0-1.35-.08c-.68.34-1.27-.17-1.94,0-.42.08-.85-.25-1.27-.25s-.76.08-1.18,0a7.76,7.76,0,0,0-2.79-.51,11,11,0,0,1-3.13-.68l-4.48-1a7.45,7.45,0,0,1-1.69-.76,1.61,1.61,0,0,1-.76.25,23.41,23.41,0,0,1-4.23-.85,7.57,7.57,0,0,0-3.55-.85c-.34.08-.59-.09-.93-.09-.25-.34-.51-1-.76-1-1.69.09-2.71-1.35-4.14-1.77-.76-.25-1.35-1.1-2.11-1.35-1.86-.76-3.38-2.37-5.5-2.62a12.12,12.12,0,0,1-2.11-.68,7.55,7.55,0,0,0,.68.85l-.17.17c-2.28-1.35-4.56-2.71-6.85-4-.34-.09-.59-.42-.85-.59l-2.28-1.52c-.25-.17-.76-.42-.76-.34-.51.59-1,.09-1.35-.08-2.28-1.61-4.9-2.62-7.1-4.4a13.92,13.92,0,0,1-2.71-2.2,13.33,13.33,0,0,0-4.23-3.3c-1.27-.68-2.45-1.44-3.64-2.2a2.24,2.24,0,0,1-1.18-1.86c0-.59-.25-1.18-1-.85-.34-.51-.68-1.1-1.1-1.27a8.94,8.94,0,0,1-2.45-1.86c-.76-.68-1.35-1.61-2.28-1.94-1.69-.68-2.71-2.11-3.72-3.3-2.37-2.79-4.48-5.83-6.68-8.79a6,6,0,0,0-.76-.68l-.09.08c.42.85.85,1.61,1.27,2.45-.09.08-.25.17-.34.25-.51-.59-1.1-1.18-1.61-1.78-.09.09-.17.17-.25.17l6.09,9.64c.51.76.93,1.52,1.44,2.28a1.14,1.14,0,0,1-.34.25,3.33,3.33,0,0,1-2.2-1.61c-.76-1.35-1.61-2.2-3.3-2a14.65,14.65,0,0,1-.42-1.86,6.86,6.86,0,0,1-1.18-.09c1.18,1.86,2.2,3.47,3.3,5.33-.42-.25-.68-.42-.85-.51,1.52,1.61,2.62,3.64,4.57,4.65.42,1.94,2.62,2.87,3.13,4.74l-1.18-.25c-.68-.85-1.44-1.69-2.2-2.62a4.3,4.3,0,0,0,.76,1.52,32.26,32.26,0,0,0,3.13,3.64c.42.42,1,.59,1,1.35a2.36,2.36,0,0,1,.68-.42,5.43,5.43,0,0,0-.34.76c.34,0,.59.08.85.08.17.51-.09,1.27.93,1.1.09,0,.17.08.25.17.42,1.1,1.1,1.1,2,.68a.66.66,0,0,1,.68.17c.42.93,1,1,1.78.34,0,.42.08.85.08,1.18h.34c0-.17-.08-.42-.08-.85.42.34.68.51.85.68a14.36,14.36,0,0,0,2.79,3.21c1.61,1.35,3,2.79,4.56,4.06a64.54,64.54,0,0,0,9.55,6.34c4.06,2.28,7.95,4.74,12.09,6.93A65.33,65.33,0,0,0,89,242.76c2,.42,4,.85,6,1.35,1.78.51,3.55,1.27,5.33,1.69,2.71.59,5.5,1.1,8.2,1.61l1.86.25v.17c.76,0,1.69-.34,1.86-.09.42.68.76.34,1.27.25a7.24,7.24,0,0,1,1.94-.17c2.37.08,4.65.59,7,.42.51,0,1.27-.42,1.69.42.17-.09.25-.17.42-.25.34-.09.76-.09,1.1-.17v.17a3.91,3.91,0,0,1-.68.17,6.59,6.59,0,0,1,.93.25,1.13,1.13,0,0,1-.42.25,3.7,3.7,0,0,0-.76.42,19,19,0,0,0,8.45,0V249h.34a1.21,1.21,0,0,0,.17.51A27,27,0,0,0,145,248.09c.34.42.59,1,1.1.17.17-.25.59-.34.93-.42a4.66,4.66,0,0,1,2.37-.25c.76.25,1-.42,1.61-.42a15.79,15.79,0,0,0,2.87-.25c.51-.08,1-.34,1.61-.51a.31.31,0,0,0-.08-.25,14,14,0,0,0-1.78-.17c1-.51,1.94-.93,2.87-1.35,0,.08.09.08.09.17-.25.08-.42.42-.76.42H157c-.25,0-.59.76-1,1.27l8.54-2.11v-.17c-.34.08-.59.08-.85.17-.08-1.78,1.86-1.18,2.54-2.2-.85.25-1.69.51-2.54.68v-.17c2.87-1.27,5.83-2.54,8.71-3.8,0,.09.09.09.09.17-.51.34-1,.59-1.78,1a10.65,10.65,0,0,1,1.1.17c0,.25,0,.42-.08.51,1.44-.09,1.1-1.35,1.52-2.12.25.08.59.25.85.17a22.17,22.17,0,0,0,2.2-.68c.85-.25,1.69-.51,2.54-.85,1.35-.59,2.62-1.35,4-2a4.08,4.08,0,0,1,1,0,.86.86,0,0,0,.59-.34c.34-.25.68-.76.93-.68a1.91,1.91,0,0,0,2.37-1.35c.09,0,.09-.09.17-.09a12.29,12.29,0,0,1,1.27-.93c1.86-1,3.64-2,5.5-3,.08-.08.25,0,.42,0a2.1,2.1,0,0,0,.76-.08c1.1-.51,2.11-1.1,3.13-1.69-.25-.09,0-.17-.85-.25v-.17a10.38,10.38,0,0,0,1.61-.42l-.17-.17c2.2-2.2,5-3.8,7.1-5.66a4.89,4.89,0,0,0,.85.17,2.08,2.08,0,0,0,.09-.68,7.76,7.76,0,0,1,1.1-1.27c1.86-1.69,3.89-3.13,5.58-4.9,2.45-2.45,4.82-5,7-7.61a68.81,68.81,0,0,0,5.75-7.36c2.37-3.64,4.4-7.36,6.51-11.16,1.52-2.71,2.88-5.41,4.4-8.12.17-.25.51-.59.76-.59,2.28-.25,4.57-.42,6.76-.68a6.56,6.56,0,0,0,1.61-.68c-.25-.42-.42-.93-.68-1.35s-.85-.93-1.18-1.44a8.09,8.09,0,0,1-.85-1.44c-.25-.42-.51-.76-.76-1.18a30.52,30.52,0,0,1-1.44-2.87,1.84,1.84,0,0,1-.17-.93c1.52-3.3,2.11-6.85,3.55-10.15s1.86-7.19,2.54-10.82c.59-3.47.93-6.93,1.35-10.4.25-2.45.59-4.82.68-7.27a71.09,71.09,0,0,0,.25-11.16ZM37.8,212.83c-.59-.68-1.1-1.44-1.69-2.11l.25-.25c.93,1,1.86,2,2.79,3.13a4.07,4.07,0,0,1-1.35-.76Zm1.35.76c.25-.08.51-.08.76-.17.25.42.42.93.68,1.44C39.41,214.77,38.82,214.27,39.16,213.59Zm87.93,34.92v-.25l4.74-.51V248a45,45,0,0,1-4.74.51Zm21.31-2.2c-1.18.25-2.45.42-3.64.59-.42.09-.93.51-1.1-.25-.17.08-.34.08-.51.17.42,1.27,1.44.25,2.28.76-1.86.25-3.64.42-5.41.68v-.17l1.61-.25v-.25a25.42,25.42,0,0,0-2.54-.17c-.25,0-.59.34-.85.42a4.31,4.31,0,0,1-1.1.17c-1.44.08-2.87.08-4.23.17-.08,0-.25-.09-.34-.09v-.25l16.91-2.28c.08.17.08.34.17.51a5.59,5.59,0,0,0-1.27.25Zm1.27-.85c1.94-.25,3.72-.42,5.58-.68C151.35,245.89,150.09,246.06,149.66,245.47ZM76,74.77c2.71-3.72,5.5-7.44,8.2-11.25.85-1.1,1.52-2.28,2.37-3.38a5.33,5.33,0,0,1,1-.85l-.09-.17a7.81,7.81,0,0,0,.85-1.1,17.26,17.26,0,0,0,1-2.2,1.19,1.19,0,0,1,.34-.34c1.18.59,1.18-.68,1.61-1.1q1.14-1.28,2.2-2.62a17.42,17.42,0,0,0,1.44-2c.08-.25-.17-.68-.25-1h-.25c.25-.17.51-.42.76-.59.09,0,.09,0,.17-.08.51-.76,1-1.52,1.52-2.2A36.38,36.38,0,0,1,100.2,42c-.17.42-.34.85-.51,1.18.08,0,.08.09.17.09,1-1.35,2.11-2.62,3.13-4-.09-.08-.17-.17-.25-.17-.42.42-.76.85-1.18,1.27-.08-.08-.17-.17-.25-.17.85-1.1,1.69-2.2,2.54-3.47a12.81,12.81,0,0,1,.68,1.27c.34-.85.68-1.44.93-2-.25.25-.59.51-.85.76l-.25-.25,1.52-2.28c1.61-2.28,3.21-4.65,4.82-6.93.59-.85,1.35-1.52,1.86-2.37,1.61-3.21,4.14-5.75,6.09-8.71a13.83,13.83,0,0,1,1.52-1.61c.42-.51.76-.34,1.1.09,2.28,2.87,4.56,5.83,6.85,8.71,1.69,2.11,3.38,4.14,5,6.34,1.94,2.71,3.8,5.41,5.75,8.12,2.2,3.13,4.4,6.26,6.51,9.47,3.21,4.73,6.26,9.47,9.47,14.2,2.37,3.47,4.74,6.85,7,10.32h-4.31c-4-.09-8-.42-12-.25-5.41.25-10.91.85-16.32,1.27-6.85.59-13.78.68-20.63.68-2.45,0-4.9.34-7.36.51-3,.17-5.83.34-8.79.42-3.47.17-6.85.25-10.31.34-1.94.09-4,0-6.09,0Zm97,38.89v.76c-.08,0-.17.08-.34.08-.34-1.18-.68-2.45-1.1-3.64a28.52,28.52,0,0,0-3.3-7.1c-1.69-2.37-3.21-4.82-4.9-7.27a13.66,13.66,0,0,0-1.52-1.61A29.54,29.54,0,0,0,156,89.48a69.22,69.22,0,0,0-10.57-5.41,24.53,24.53,0,0,1-3-1.52h2L159,82.29c3.13-.09,6.17-.09,9.3-.25a1.66,1.66,0,0,1,1.61.93c.76,1.27,1.52,2.54,2.37,3.81a1.59,1.59,0,0,1,.25.68c0,1.86,0,3.81.08,5.66s.25,3.81.34,5.75-.17,4-.09,6c.09,2.88.17,5.83.17,8.79ZM82,85.33c4-.17,7.78-.42,11.67-.59,3-.17,6.17-.25,9.22-.42a18.19,18.19,0,0,1,3.72,0,28.78,28.78,0,0,0-3.89,2.2c-1.52,1-3,2.37-4.48,3.47a25.68,25.68,0,0,0-4.14,3.89c-1.61,1.94-3.38,3.64-5.07,5.5a53.25,53.25,0,0,0-3.55,4.06c-1.44,1.86-2.71,3.89-4.06,6,.42-8,.93-16,.59-24.1Zm55.21,81.33a68.7,68.7,0,0,1-8.29,1.78,51.75,51.75,0,0,1-7.27.25c-2.2,0-4.31-.09-6.51-.25a22.07,22.07,0,0,1-7.27-1.61c-2-.93-4.14-1.78-6.17-2.79A16.33,16.33,0,0,1,96.14,160a32.8,32.8,0,0,0-4-3.64,4,4,0,0,0,1.78,2.45c-.42.51-1,.25-1.86-1.1a5,5,0,0,1-.68.34c.25-.59.51-1.18.76-1.69-.34-.68-.76-1.44-1.1-2.11q-1-1.66-1.94-3.38c-.17-.25-.17-.51-.34-.76a18.67,18.67,0,0,1-1.18-1.52,33.88,33.88,0,0,0-2.11-3.13c0,.25.08.51.08.85a.29.29,0,0,0-.17.08l-1.78-4.31c-.09,0-.09,0-.17.09L85,147.73c-.09,0-.17.09-.25.09a4.79,4.79,0,0,1-.68-1.1c-.17-.68-.68-.68-1.1-.42a1.16,1.16,0,0,0-.34,1c.59,1.44,1.27,2.87,1.94,4.31a10.47,10.47,0,0,0,.59,1.44c.09.17.34.34.34.59a14.14,14.14,0,0,0,1,1.94c.76,1,1.61,2,2.37,3s1.44,2.11,2.11,3.13c.09.17.34.17.42.25.42,1.27,1.86,2.2,2.88,1.69.25,1.94,2.37,2.62,3.21,4.48q-1.24-.51-2.45-1.1c-.08.09-.08.17-.17.34a32.75,32.75,0,0,1,3,1.61,24.33,24.33,0,0,1,2.45,1.61,7.74,7.74,0,0,0,3.64,1.78.93.93,0,0,0-.17-.34q3.36,1.56,6.68,3.21l-27.9.51c0-1.61-.08-3.13-.08-4.73a14.86,14.86,0,0,0,.08-1.94c-.25-3.89-.25-7.78-.76-11.58a82.18,82.18,0,0,1-.42-12.09c.08-2.2-.09-4.48-.17-6.68,0-3,0-5.83.08-8.79a3.13,3.13,0,0,1,.34-1.18h.25c.08.17,0,.42.17.51.25.25.68.68.85.59.51-.34,1.27-.68,1.44-1.18a8.21,8.21,0,0,0,.59-3.13,3,3,0,0,1,.68-1.78A7.78,7.78,0,0,0,86,123c-.34-.25-.68-.42-1.1-.76.34-.93.25-2,1.52-2.54.17-.09.17-.51.25-.76.08-.68.17-1.44.25-2.11a2.66,2.66,0,0,0,.42.51,1.05,1.05,0,0,1,.17-.25c0-.34-.08-1,0-1,1-.17.59-1.27,1.1-1.78.08-.08-.09-.34-.09-.51s0-.42.09-.42c1.18-.25,1-1.52,1.77-2.11.25-.17.34-.42.68-.85.68,1.18-.51,1.78-.59,2.62,1.44-.85,1.86-2.88,1-3.47a4.89,4.89,0,0,0,.93-.93c.93-1,1.94-1.95,2.79-3,.59-.76.93-1.69,1.52-2.45a4.8,4.8,0,0,1,1.52-1,10.34,10.34,0,0,0,3.89-3.21,4.68,4.68,0,0,1,.68-.51c.25-.17.76-.17.85-.42s-.17-.59-.34-.85c.34-.17.68-.51,1.35-.85-.25.51-.34.85-.51,1.18l.42.42c.76-.59,1.94-1.27,2.71-1.78,0-.08-.42-.42-.42-.42-.51.25-1.27.68-2,1,.17-.25.17-.42.25-.51a31.15,31.15,0,0,1,3.64-2.11c3-1.35,5.92-2.71,8.88-4a4.14,4.14,0,0,1,1.78-.08,1.88,1.88,0,0,0,.68-.08c1.35-.42,2.71-.85,4.06-1.18a7,7,0,0,1,1.86-.25c2.54.08,5.07.08,7.61.25a12.86,12.86,0,0,1,3.13.68,30.11,30.11,0,0,1,3.8,1.61,41.82,41.82,0,0,1,4.14,2.54c2.45,1.61,4.73,3.38,7.19,4.82a19.09,19.09,0,0,1,5.75,5.58c1.86,2.62,4,5,4.82,8.2l1.27,5.58c.25,1,.85,2,.59,3.21-.42,2.11-.76,4.31-1.1,6.43a8.63,8.63,0,0,0-.25,2.54c.17,2.62-.85,4.9-1.86,7.27-.34.76-.85,1.52-1.27,2.37a2.55,2.55,0,0,0,.68.34l.76-1.52c.08,0,.08,0,.17.09-.42,1.18-.76,2.45-1.18,3.64-1,2.62-2,5.33-3.3,7.86a41,41,0,0,1-2.71,4c-.85,1.18-1.52,2.45-2.37,3.55a12,12,0,0,1-2.54,2.54,65,65,0,0,1-7.1,4.74,17.79,17.79,0,0,1-5,1.86Zm-45.06-4.48-.08.08a2.13,2.13,0,0,1-.59-.34l-2-3a1,1,0,0,1-.17-.85q1.36,2.12,2.87,4.14Zm52.59,11.58a34.24,34.24,0,0,0,9.81-6.51,9,9,0,0,1,1.35-1.18,29.65,29.65,0,0,0,8.54-8.62c2.71-3.89,4.48-8.29,6.68-12.43a9,9,0,0,1,.51-.93c-.17,9.64.93,19.11,2.2,28.66l-29.08,1Zm85.73-2.54c-.09.17-.25.34-.34.51A5.26,5.26,0,0,1,230,171c-.51,1.35-1.61.68-2.37.68-4.56.08-9.22.08-13.78.08-4.4,0-8.88,0-13.27.09-1.44,0-3,.34-4.4.42-3.47.17-6.93.25-10.4.34-.25,0-.51-.42-.93-.76a5.62,5.62,0,0,1-.51.76c-.08-.17-.25-.34-.42-.59a5.85,5.85,0,0,1-.25.68h-.25a24.46,24.46,0,0,1-.51-3.47c0-2.54.25-5.07.34-7.61.08-1.18,0-2.28,0-3.38l.93.68a7.49,7.49,0,0,1,.51-.85,1.45,1.45,0,0,1-.34-.25c.17-.08.34-.25.34-.34a3.46,3.46,0,0,0,.25-.68,9,9,0,0,0-.25-1.61.31.31,0,0,0,.25-.08l.51,2.54h.25c-.34-.59.76-1.1-.17-1.78-.08-.08.09-.59.09-.85a17.51,17.51,0,0,1-.68-1.69,2,2,0,0,1,.59-.25,7.89,7.89,0,0,0-.85-.42c.85-.76.85-1.18.09-2,.17-.08.34-.08.34-.17a10.38,10.38,0,0,0-.17-2.28c-.17-.85.25-1.86-1-2.37a2.54,2.54,0,0,0,.34.68,2.36,2.36,0,0,0-.51.25c-1.1-1-.42-2.37-.68-3.89a13.9,13.9,0,0,1,1.44.51c-.17-.59-.59-1.27-.85-2h-.34v-5.58c0,.08.59.08.93.17,0-.08.09-.17.09-.25-.25-.34-.59-.68-.93-1.1l.17-.17a3,3,0,0,1-.34-2.28v-5.92c.85.85-.42,1.94.85,2.45v-.85H184c-.09-1.27-.09-2.54-.17-3.8h-.17c-.08.17-.08.25-.17.42h-.17c.17-6.68.34-13.36.51-20.21a26.12,26.12,0,0,1,2.37,3.21,88.25,88.25,0,0,0,6.85,9.81c2,2.79,3.89,5.83,5.75,8.71,2.28,3.47,4.48,6.93,6.76,10.4q2.55,3.94,5.24,7.78c1.61,2.28,3.3,4.48,5,6.68,1.44,1.94,3,3.89,4.4,5.83,1.69,2.37,3.38,4.74,5.07,7,.85,1.18,1.77,2.37,2.71,3.55a10.14,10.14,0,0,0,1.78,1.61.64.64,0,0,1-.34-.09,8.11,8.11,0,0,0,.59.76c.93.51,1,1,.51,1.78Zm4.31-21.14v-.59C234.8,149.67,234.89,149.93,234.8,150.1Zm2.87-37.28a4.26,4.26,0,0,1-.68-.59c-.09.25,0,.51-.17.85-.08-.25-.68-.17-.68-.42-.09,1.18.51,2.37.42,3.55.25-.17,1.27-.25,1.52-.51a.64.64,0,0,0,.34.17c-1.69,1.27-1.27,2.54-.51,4,.17.34.68,1,.17,1.69-.17.17.09.68.17,1.1h.25v.17l-.76.25c-.17-.25-1.18-.76-1.18-1.18v4.31c.85.25.85,1.44,1.18,2a2.55,2.55,0,0,0,.34-.68l.09.08a9.86,9.86,0,0,1-.34,1.52,20,20,0,0,0-.42,2.2c0,.08.17.25.17.34-.93,2.11-.42,4.48-.76,6.68-.25,1.61,0,3.3-.17,5a40.19,40.19,0,0,1-.85,4.4c-.08.25-.25.34-.68.51a6.8,6.8,0,0,0-.09-2.62c-.08,0-1.18-.59-1.27-.59a28.42,28.42,0,0,0,.93,4.14c-.25-.08-1.27-.68-1.35-.68-.17,1-.17,2.37-.25,3.47-.08.85-.85,1.61-.93,2.54,0,.51.59.85.51,1.69h.68c0-1.69.76-3.21.76-5h.25c.08.17.34.34.25.42a11.26,11.26,0,0,0-.42,2.87c0,.51.42,1,.25,1.61a8.19,8.19,0,0,0-.34,1.77A4.8,4.8,0,0,1,234,157l-.93-.08c-.08.51.59,1,.51,1.44-.09.08-.17.08-.34.17l-2.79-4.06c-2.2-3.21-4.4-6.43-6.6-9.72a20.18,20.18,0,0,1-1.52-2.54,119.46,119.46,0,0,0-8.71-12.94c-2.45-3.13-4.4-6.51-6.68-9.81-2.11-3.13-4.23-6.17-6.34-9.3-.76-1-1.69-1.94-2.37-3-2.2-3.47-4.14-7-6.34-10.48C190,93.79,188,91,186,88.21q-1-1.46-2-3a1.22,1.22,0,0,1-.17-.59c-.17-1.86-.34-3.72-.42-5.5s.17-3.38.17-5.16V72.48c0-.42.08-.76.08-1.18.08-.09.17-.25.25-.34-2.45,0-5-.08-7.44,0-1.61.09-2.45-.59-3.55-1.77-3.21-3.64-5.58-7.78-8.37-11.67-2.62-3.72-5.33-7.36-8-11-2.2-3-4.4-5.83-6.59-8.79-2.45-3.38-4.82-6.76-7.36-10.15-3-4.06-6.17-8.12-9.3-12.17-1.44-1.86-3-3.64-4.65-5.58,1.1.17,2.11.34,3.13.42l4.06.25c3,.25,6.09.42,9.13.84,2.54.34,5.07.85,7.69,1.27A108.54,108.54,0,0,1,169,16.85c3.13,1,6.17,2.37,9.22,3.64A186.36,186.36,0,0,1,198,30.21c2,1.1,3.21,2.87,4.74,4.48,2.2,2.28,4.4,4.57,6.51,6.93,2.45,2.79,4.74,5.66,7.1,8.54,2.11,2.54,4.31,5.07,6.43,7.61a27.1,27.1,0,0,1,1.78,2.54c1.35,2,2.87,4,4.06,6.17a35,35,0,0,1,1.94,5.24c.85,2.62,1.69,5.16,2.54,7.78q.89,3,1.52,6c.34,1.35.25,2.79.68,4.14.51,1.78,0,3.72.51,5.5.08.17.17.42.25.59.34.34.59.68.09,1.18a.9.9,0,0,0,0,.68,3.57,3.57,0,0,0,.42-.59c0,.17.08.25.08.34a4.09,4.09,0,0,0,0,1,1.8,1.8,0,0,0,.25.59,6.81,6.81,0,0,1,.68-.51,33.5,33.5,0,0,1,.85,8.71c0,2.79.51,5.58-.68,8.29.25-.93-.34-1.78-.09-2.62Z" fill="#dd3735"/>
    <path d="M183.93,146a.3.3,0,0,1,.17.09L184,146C184,145.88,184,145.88,183.93,146Zm13.36,83.53a7.94,7.94,0,0,1-3,1.52c-.08-.08-.08-.17-.17-.25.93-.59,1.94-1.18,2.88-1.78.08.17.25.34.34.51ZM38.76,114.94c.93-1.18,1.86-2.37,2.87-3.55.08.08.76.25.85.34-.93,1.18-2.2,2.79-3.13,4.06-.17-.17-.42-.76-.59-.85Zm-24,41.43c-.68-1.44-1.35-3-2-4.4a3,3,0,0,1,.76-.34,29.41,29.41,0,0,1,2,4.4A6.72,6.72,0,0,1,14.75,156.37Zm21.56-40.58c-.51.76-1,1.61-1.52,2.37-.08-.08-1,.34-1.1.25.51-.76,1.77-2.11,2.28-2.87A1.14,1.14,0,0,0,36.31,115.78ZM188.24,233c.09,0,.09-.09.17-.09a13.8,13.8,0,0,0,1.94.17c-1.1.76-1.78.68-2.11-.08ZM36.48,119.33a3.48,3.48,0,0,1,.42-.76,1.74,1.74,0,0,0,.42-.08c.34-.59.34-1,.68-1.52-.08-.08-.17-.08-.25-.17-.51.34-1,.76-1.52,1.1a.47.47,0,0,1,.17.42c-.68-.08-.93.25-1.27,1.18-.09.25-.51.34-.93.68-.08.17-.17.59-.34,1l.09.09a1.25,1.25,0,0,1-.42.25c-.51.51-1.1.93-1.61,1.44a2.45,2.45,0,0,0-.17.76c.59-.59,1.61-1.69,2.37-2.37l.08.08c.34-.51.59-1,.93-1.52.08.08.08.17.17.25-.25.68-.51,1.44-.76,2.11-.17.08-.42.25-.42.17-.34.25-.59.59-.93.85l-1.52,1c-.85.76-1.69,1.44-2.62,2.2-.59.93-1.18,1.77-1.86,2.87,1-.25,1.27.17,1.18,1,1.18.17,1.27-.76,1.61-1.44.09-.17.17-.51.34-.59.76-.68,1.61-1.27,2.45-1.94a1.14,1.14,0,0,0,.17-.76c0-.08-.42-.08-.68-.17.76-.85,1.86-2.28,2.62-3.21.42-.25.85-.59.85-.85-.09-.93.51-1.18,1.18-1.52a.92.92,0,0,1-.42-.59Z" fill="#dd3735"/>
    <path d="M38.17,118.4c-.34.59-.68,1.1-1,1.69l-.51-.25c-.34,1.94-1.52,3.64-2.71,4a1.41,1.41,0,0,0,.93.25c.25-.08.42-.51.59-.76l2.28-3.3.76-1.27-.34-.34ZM10,155.52c.42,0,.85.09,1.35.09,0-.34.42-.25.42-.59H12c0,.42.09.76.09,1.18H10.35c-.09-.09-.42-.59-.34-.68Zm-.68-3.89c-.25-.25-.68-.51-.68-.76s.17-.76.42-1.18c.17.59.25,1.1.42,1.69C9.42,151.46,9.34,151.55,9.34,151.63Zm2.11-5.41c.34.85.68,1.78,1,2.62a2.54,2.54,0,0,0-.68.34c-.34-.85-.76-1.78-1.1-2.62A2.09,2.09,0,0,1,11.45,146.22ZM199.65,227a14.08,14.08,0,0,1,1.61-.42,20,20,0,0,0-1.86,1.52c-.09-.09-.17-.17-.25-.17.17-.34.34-.59.51-.93ZM95.75,48.4c.51-.34.93-.59,1.44-.93l.17.17c-.51.68-.93,1.35-1.52,2.2-.08-.59-.08-.93-.17-1.35-.08,0,0,0,.09-.08Zm24.77,42.78,2.45-1.1a6.38,6.38,0,0,0-.09,1.18,3,3,0,0,0-.85-.17c-.51.08-1.44.76-1.86.85C120.1,91.94,120.52,91.26,120.52,91.18Zm63.41,71.7c.17.85,1.78,1.27.17,2.11.25.17.51.25.76.42a.64.64,0,0,1-.17.34c-.17.09-.51.25-.68.17s-.25-.34-.25-.51C183.76,164.65,183.84,163.89,183.93,162.88Z" fill="#dd3735"/>
  </g>
</svg>
