<svg xmlns="http://www.w3.org/2000/svg" viewBox="0 0 500 175.8">
  <title>rails</title>
  <path d="M435.21,152.94V175.8h41.3c8.46,0,23-6.19,23.49-23.49v-8.84c0-14.78-12.12-23.49-23.49-23.49H455.92V109.37h40.79v-23H457.56c-10.1,0-23.62,8.34-23.62,23.87v8c0,15.53,13.39,23.49,23.62,23.49,28.42.13-6.82,0,19.45,0v11.11m-263.07-5.43s22.1-1.89,22.1-30.44-26.77-31.19-26.77-31.19H161v90h24.25V154.08l21,21.72h35.87l-28.16-28.42Zm-9.35-18.44H185.27V108.36h19.45s5.43,2,5.43,10.23-5.56,10.36-5.56,10.36Zm91.31-42.56H271.28c-17.55,0-23.49,15.91-23.49,23.49V175.8h24.63V160h23.11V175.8H319.4V109.88c0-19.2-17.43-23.49-23.49-23.49Zm-.38,48.12H272.29V112.65s0-4.93,7.7-4.93h8.46c6.82,0,6.95,4.93,6.95,4.93V134.5h.13Zm35.11-48.12h25.64V175.8H330.64Zm61.63,66.3V86.39H366.76V175.8h60V152.69Z" fill="#c00"/>
  <path d="M8.84,175.8h99.77s-19.07-87,44.08-122.25c13.77-6.69,57.59-31.7,129.33,21.34,2.27-1.89,4.42-3.41,4.42-3.41S220.76,5.94,147.64,13.26c-36.75,3.28-82,36.75-108.49,81S8.84,175.8,8.84,175.8Z" fill="#c00"/>
  <path d="M8.84,175.8h99.77s-19.07-87,44.08-122.25c13.77-6.69,57.59-31.7,129.33,21.34,2.27-1.89,4.42-3.41,4.42-3.41S220.76,5.94,147.64,13.26c-36.75,3.28-82,36.75-108.49,81S8.84,175.8,8.84,175.8Z" fill="#c00"/>
  <path d="M8.84,175.8h99.77s-19.07-87,44.08-122.25c13.77-6.69,57.59-31.7,129.33,21.34,2.27-1.89,4.42-3.41,4.42-3.41S220.76,5.94,147.64,13.26C110.76,16.54,65.55,50,39,94.22S8.84,175.8,8.84,175.8ZM216.72,20.33l.51-8.46c-1.14-.63-4.29-2.15-12.25-4.42l-.51,8.34C208.64,17.18,212.68,18.69,216.72,20.33Z" fill="#c00"/>
  <path d="M204.72,47.11l-.51,8a70.43,70.43,0,0,1,12.5,1.52l.51-7.83A89.43,89.43,0,0,0,204.72,47.11ZM158,7.7h1.26L156.73,0a100.77,100.77,0,0,0-12.12.76L147,8.21A106.62,106.62,0,0,1,158,7.7Zm6.06,46.48,2.9,8.71a79.9,79.9,0,0,1,11-4.42l-2.78-8.34a91.63,91.63,0,0,0-11.11,4ZM106.72,21,101,12.25c-3.16,1.64-6.44,3.41-9.85,5.43L97,26.52c3.28-2,6.44-3.92,9.72-5.56ZM132.61,77.8l6.06,9.09a70.13,70.13,0,0,1,7.45-9l-5.68-8.59a69.87,69.87,0,0,0-7.83,8.46ZM114.3,118.46l10.23,8.08a100.86,100.86,0,0,1,2.65-14.78l-9.09-7.2a120.08,120.08,0,0,0-3.79,13.89ZM59,58.47l-9-7.83c-3.28,3.16-6.44,6.31-9.35,9.47l9.72,8.34a127.9,127.9,0,0,1,8.59-10ZM20.84,114.93l-14.52-5.3c-2.4,5.43-5.05,11.75-6.31,15.16l14.52,5.3C16.17,125.79,18.82,119.6,20.84,114.93Zm91.56,35.62a128.3,128.3,0,0,0,1.52,15.91l15.16,5.43a166.93,166.93,0,0,1-3-16.42Z" fill="#c00"/>
</svg>
