<svg xmlns="http://www.w3.org/2000/svg" viewBox="0 0 500 175.8">
  <path d="M435.21 152.94v22.86h41.3c8.46 0 23-6.19 23.49-23.49v-8.84c0-14.78-12.12-23.49-23.49-23.49h-20.59v-10.61h40.79v-23h-39.15c-10.1 0-23.62 8.34-23.62 23.87v8c0 15.53 13.39 23.49 23.62 23.49 28.42.13-6.82 0 19.45 0v11.11m-263.07-5.43s22.1-1.89 22.1-30.44-26.77-31.19-26.77-31.19H161v90h24.25v-21.7l21 21.72h35.87l-28.16-28.42zm-9.35-18.44h-19.32v-20.61h19.45s5.43 2 5.43 10.23-5.56 10.36-5.56 10.36zm91.31-42.56h-24.62c-17.55 0-23.49 15.91-23.49 23.49v65.9h24.63V160h23.11v15.8h23.87v-65.92c0-19.2-17.43-23.49-23.49-23.49zm-.38 48.12h-23.23v-21.88s0-4.93 7.7-4.93h8.46c6.82 0 6.95 4.93 6.95 4.93v21.85h.13zm35.11-48.12h25.64v89.39h-25.63zm61.63 66.3V86.39h-25.5v89.41h60v-23.11z" fill="#c00"/>
  <path d="M8.84 175.8h99.77s-19.07-87 44.08-122.25c13.77-6.69 57.59-31.7 129.33 21.34 2.27-1.89 4.42-3.41 4.42-3.41s-65.68-65.54-138.8-58.22c-36.75 3.28-82 36.75-108.49 81S8.84 175.8 8.84 175.8z" fill="#c00"/>
  <path d="M8.84 175.8h99.77s-19.07-87 44.08-122.25c13.77-6.69 57.59-31.7 129.33 21.34 2.27-1.89 4.42-3.41 4.42-3.41s-65.68-65.54-138.8-58.22c-36.75 3.28-82 36.75-108.49 81S8.84 175.8 8.84 175.8z" fill="#c00"/>
  <path d="M8.84 175.8h99.77s-19.07-87 44.08-122.25c13.77-6.69 57.59-31.7 129.33 21.34 2.27-1.89 4.42-3.41 4.42-3.41s-65.68-65.54-138.8-58.22C110.76 16.54 65.55 50 39 94.22S8.84 175.8 8.84 175.8zM216.72 20.33l.51-8.46c-1.14-.63-4.29-2.15-12.25-4.42l-.51 8.34c4.17 1.39 8.21 2.9 12.25 4.54z" fill="#c00"/>
  <path d="M204.72 47.11l-.51 8a70.43 70.43 0 0 1 12.5 1.52l.51-7.83a89.43 89.43 0 0 0-12.5-1.69zM158 7.7h1.26L156.73 0a100.77 100.77 0 0 0-12.12.76L147 8.21a106.62 106.62 0 0 1 11-.51zm6.06 46.48l2.9 8.71a79.9 79.9 0 0 1 11-4.42l-2.78-8.34a91.63 91.63 0 0 0-11.11 4zM106.72 21L101 12.25a198.72 198.72 0 0 0-9.85 5.43L97 26.52c3.28-2 6.44-3.92 9.72-5.56zm25.89 56.8l6.06 9.09a70.13 70.13 0 0 1 7.45-9l-5.68-8.59a69.87 69.87 0 0 0-7.83 8.46zm-18.31 40.66l10.23 8.08a100.86 100.86 0 0 1 2.65-14.78l-9.09-7.2a120.08 120.08 0 0 0-3.79 13.89zM59 58.47l-9-7.83a224.22 224.22 0 0 0-9.35 9.47l9.72 8.34a127.9 127.9 0 0 1 8.59-10zm-38.16 56.46l-14.52-5.3a321.82 321.82 0 0 0-6.31 15.16l14.52 5.3a430.6 430.6 0 0 1 6.31-15.16zm91.56 35.62a128.3 128.3 0 0 0 1.52 15.91l15.16 5.43a166.93 166.93 0 0 1-3-16.42z" fill="#c00"/>
</svg>
