<svg viewBox="0 0 256 230" xmlns="http://www.w3.org/2000/svg" preserveAspectRatio="xMinYMin meet">
  <path d="M.75 114.75c0 19.21 18.77 37.15 48.35 47.26-5.91 29.74-1.06 53.7 15.13 63.05 16.65 9.6 41.45 2.95 64.98-17.62 22.95 19.74 46.13 27.51 62.31 18.15 16.63-9.63 21.69-35.23 15.62-65.9 30.81-10.18 48.04-25.47 48.04-44.94 0-18.77-18.8-35-47.97-45.05 6.53-31.94 1-55.32-15.87-65.05-16.26-9.37-39.72-1.2-63 19.06C104.12 2.2 80.9-4.36 64.05 5.39 47.81 14.8 43.17 39.2 49.1 69.5 20.5 79.45.75 96.06.75 114.75z" fill="#FFF"/>
  <path d="M201.03 79.67a151.36 151.36 0 0 0-7.28-2.29 137.5 137.5 0 0 0 1.13-4.96c5.5-26.73 1.9-48.26-10.4-55.35-11.78-6.8-31.06.3-50.53 17.24a151.14 151.14 0 0 0-5.62 5.16 137.57 137.57 0 0 0-3.75-3.46c-20.4-18.12-40.86-25.75-53.14-18.64-11.77 6.82-15.26 27.06-10.3 52.39a150.91 150.91 0 0 0 1.67 7.48c-2.9.82-5.7 1.7-8.37 2.63-23.92 8.34-39.2 21.41-39.2 34.97 0 14 16.4 28.05 41.32 36.57a128.44 128.44 0 0 0 6.11 1.9 147.81 147.81 0 0 0-1.77 8.08c-4.73 24.89-1.04 44.65 10.7 51.42 12.14 7 32.5-.2 52.32-17.52a128 128 0 0 0 4.72-4.35 148.34 148.34 0 0 0 6.1 5.58c19.21 16.52 38.18 23.2 49.91 16.4 12.12-7.02 16.06-28.25 10.94-54.08-.39-1.97-.84-3.99-1.35-6.04 1.43-.42 2.83-.86 4.2-1.31 25.9-8.58 42.76-22.46 42.76-36.65 0-13.6-15.77-26.76-40.18-35.17z" fill="#53C1DE"/>
  <path d="M195.4 142.33c-1.23.4-2.5.8-3.79 1.18a226.56 226.56 0 0 0-11.44-28.62 227.8 227.8 0 0 0 11-28.2c2.3.66 4.55 1.37 6.71 2.11 20.91 7.2 33.67 17.84 33.67 26.04 0 8.74-13.78 20.08-36.14 27.49zm-9.27 18.39c2.26 11.42 2.58 21.75 1.08 29.82-1.34 7.25-4.05 12.09-7.4 14.03-7.12 4.12-22.35-1.24-38.77-15.37a138.39 138.39 0 0 1-5.68-5.18 226.83 226.83 0 0 0 18.94-24.05 225.33 225.33 0 0 0 30.6-4.72c.46 1.86.87 3.68 1.23 5.47zm-93.85 43.13c-6.96 2.46-12.5 2.53-15.85.6-7.13-4.11-10.1-19.98-6.05-41.26a138.5 138.5 0 0 1 1.65-7.5c9.26 2.04 19.5 3.51 30.45 4.4a234 234 0 0 0 19.4 23.96 118.86 118.86 0 0 1-4.3 3.97c-8.78 7.66-17.56 13.1-25.3 15.83zm-32.6-61.58c-11.01-3.76-20.11-8.66-26.35-14-5.6-4.8-8.43-9.56-8.43-13.43 0-8.23 12.26-18.72 32.72-25.85a139.28 139.28 0 0 1 7.78-2.45 231.5 231.5 0 0 0 11.01 28.54 235.02 235.02 0 0 0-11.15 28.94 118.9 118.9 0 0 1-5.58-1.75zM70.61 67.9c-4.25-21.7-1.43-38.07 5.67-42.18 7.56-4.37 24.27 1.87 41.9 17.5 1.12 1 2.25 2.06 3.38 3.14a231.32 231.32 0 0 0-19.25 23.82 236.7 236.7 0 0 0-30.15 4.68 141.53 141.53 0 0 1-1.55-6.96zm97.47 24.07a306.98 306.98 0 0 0-6.87-11.3c7.2.91 14.11 2.12 20.6 3.6a205.9 205.9 0 0 1-7.23 19.46 336.42 336.42 0 0 0-6.5-11.76zm-39.75-38.71c4.45 4.82 8.91 10.2 13.3 16.05a284.25 284.25 0 0 0-26.71 0 212.87 212.87 0 0 1 13.4-16.05zm-40 38.78a285.24 285.24 0 0 0-6.38 11.68 213.03 213.03 0 0 1-7.18-19.55 217.79 217.79 0 0 1 20.48-3.52 283.79 283.79 0 0 0-6.92 11.39zm7.13 57.68c-7.4-.83-14.38-1.95-20.82-3.35 2-6.44 4.45-13.14 7.32-19.95a283.5 283.5 0 0 0 6.4 11.7 285.27 285.27 0 0 0 7.1 11.6zm33.14 27.39a216.96 216.96 0 0 1-13.6-16.27 336.86 336.86 0 0 0 26.86-.05 205.27 205.27 0 0 1-13.26 16.32zm46.07-51.03a205 205 0 0 1 7.59 19.87c-6.56 1.5-13.63 2.7-21.08 3.6a337.54 337.54 0 0 0 6.93-11.5 306.63 306.63 0 0 0 6.56-11.97zm-14.92 7.15a316.48 316.48 0 0 1-10.84 17.49c-6.7.48-13.63.72-20.69.72-7.03 0-13.87-.22-20.46-.64a273.8 273.8 0 0 1-11.04-17.52 271.33 271.33 0 0 1-9.64-18.2 273.86 273.86 0 0 1 9.61-18.22 271.25 271.25 0 0 1 10.96-17.44 273.48 273.48 0 0 1 41.19 0 290.7 290.7 0 0 1 10.88 17.39 316.42 316.42 0 0 1 9.74 18.13 290.8 290.8 0 0 1-9.7 18.29zm19.92-107.8c7.56 4.37 10.5 21.97 5.75 45.04a127.53 127.53 0 0 1-1.01 4.5 231.24 231.24 0 0 0-30.22-4.78 226.76 226.76 0 0 0-19.1-23.84 141.92 141.92 0 0 1 5.2-4.76c16.68-14.52 32.27-20.25 39.38-16.15z" fill="#FFF"/>
  <path d="M128.22 94.67a20.18 20.18 0 1 1 0 40.35 20.18 20.18 0 0 1 0-40.35" fill="#53C1DE"/>
</svg>
