<?xml version="1.0" encoding="utf-8"?>
<!-- Generator: Adobe Illustrator 15.1.0, SVG Export Plug-In . SVG Version: 6.00 Build 0)  -->
<!DOCTYPE svg PUBLIC "-//W3C//DTD SVG 1.1//EN" "http://www.w3.org/Graphics/SVG/1.1/DTD/svg11.dtd">
<svg version="1.1" id="Layer_1" xmlns="http://www.w3.org/2000/svg" xmlns:xlink="http://www.w3.org/1999/xlink" x="0px" y="0px"
	 width="483.863px" height="568.266px" viewBox="64.091 32.658 483.863 568.266"
	 enable-background="new 64.091 32.658 483.863 568.266" xml:space="preserve">
<path d="M186.376,231.128v164.383c0,9.25,7.503,16.763,16.763,16.763H531.19c9.251,0,16.764-7.504,16.764-16.763V231.128
	c0-9.26-7.504-16.754-16.764-16.754h-85.428l-0.669-168.927c-0.019-7.069-5.757-12.79-12.826-12.79H76.917
	c-7.087,0-12.826,5.748-12.826,12.826v482.333c0,40.151,32.658,72.81,72.81,72.818l338.18,0.289
	c40.161,0,72.818-32.666,72.818-73.117c0-7.087-5.738-12.826-12.826-12.826H196.894c-7.087,0-12.826,5.748-12.826,12.826
	c0,26.005-21.153,47.158-47.158,47.158s-47.167-21.153-47.167-47.158V58.318h329.743l0.616,156.056H203.14
	C193.88,214.374,186.376,221.869,186.376,231.128z M208.588,540.65h311.966c-5.494,19.94-23.805,34.622-45.456,34.622
	l-282.785-0.244C200.533,565.397,206.28,553.612,208.588,540.65z M424.293,333.762c1.113-1.367,2.616-2.154,4.489-2.371
	c1.893-0.208,3.521,0.28,4.879,1.475c8.201,6.671,16.374,9.966,24.503,9.875c6.417,0,11.612-1.475,15.595-4.426
	c3.974-2.951,5.956-6.137,5.956-9.559c0-6.499-7.53-11.16-22.574-13.984h-0.263c-6.661-1.285-12.428-3.078-17.306-5.386
	c-4.879-2.308-8.454-5.277-10.717-8.916c-2.264-3.629-3.395-7.377-3.395-11.224c0-7.44,3.268-13.559,9.812-18.347
	c6.544-4.789,14.093-7.178,22.646-7.178c3.747,0,7.604,0.643,11.541,1.919c3.928,1.285,6.86,2.48,8.789,3.593
	c1.928,1.113,4.453,2.688,7.639,4.743c1.448,1.023,2.372,2.435,2.761,4.236c0.371,1.792,0.073,3.439-0.904,4.933
	c-0.987,1.502-2.39,2.444-4.173,2.824c-1.802,0.38-3.467,0.063-5.006-0.959c-4.027-2.733-7.604-4.788-10.717-6.155
	c-3.132-1.367-6.436-2.055-9.938-2.055c-5.657,0-10.273,1.331-13.857,3.974c-3.585,2.652-5.395,5.476-5.395,8.472
	c0,1.457,0.335,2.697,1.022,3.72c2.39,3.937,8.861,6.888,19.379,8.852h0.244c7.196,1.458,13.098,3.25,17.714,5.386
	c10.608,5.213,15.913,12.4,15.913,21.551c0,7.957-3.521,14.482-10.519,19.569c-7.015,5.087-15.098,7.63-24.258,7.63
	c-11.205-0.082-22.148-4.363-32.848-12.826c-1.357-1.114-2.154-2.607-2.371-4.49C422.736,336.758,423.18,335.129,424.293,333.762z
	 M338.729,333.762c1.114-1.367,2.616-2.154,4.49-2.371c1.892-0.208,3.521,0.28,4.879,1.475c8.2,6.671,16.374,9.966,24.502,9.875
	c6.417,0,11.613-1.475,15.596-4.426c3.974-2.951,5.956-6.137,5.956-9.559c0-6.499-7.531-11.16-22.575-13.984h-0.262
	c-6.662-1.285-12.428-3.078-17.307-5.386s-8.454-5.277-10.717-8.916c-2.263-3.629-3.395-7.377-3.395-11.224
	c0-7.44,3.268-13.559,9.812-18.347c6.545-4.789,14.094-7.178,22.647-7.178c3.747,0,7.603,0.643,11.54,1.919
	c3.929,1.285,6.861,2.48,8.789,3.593s4.453,2.688,7.64,4.743c1.448,1.023,2.371,2.435,2.761,4.236
	c0.371,1.792,0.072,3.439-0.905,4.933c-0.986,1.502-2.39,2.444-4.173,2.824c-1.801,0.38-3.467,0.063-5.006-0.959
	c-4.027-2.733-7.603-4.788-10.717-6.155c-3.132-1.367-6.436-2.055-9.938-2.055c-5.657,0-10.273,1.331-13.857,3.974
	c-3.584,2.652-5.395,5.476-5.395,8.472c0,1.457,0.335,2.697,1.022,3.72c2.39,3.937,8.861,6.888,19.379,8.852h0.245
	c7.195,1.458,13.097,3.25,17.714,5.386c10.607,5.213,15.912,12.4,15.912,21.551c0,7.957-3.521,14.482-10.518,19.569
	c-7.016,5.087-15.098,7.63-24.258,7.63c-11.206-0.082-22.149-4.363-32.848-12.826c-1.358-1.114-2.154-2.607-2.372-4.49
	C337.173,336.758,337.616,335.129,338.729,333.762z M252.651,277.381c9.232-9.024,20.275-13.577,33.092-13.658
	c11.206,0,21.09,3.331,29.625,10.001c1.557,1.286,2.444,2.906,2.706,4.879c0.245,1.964-0.226,3.765-1.484,5.386
	c-1.239,1.629-2.878,2.562-4.933,2.824c-2.055,0.253-3.802-0.217-5.25-1.412c-5.748-4.707-12.817-7.051-21.234-7.051
	c-8.436,0-15.949,3.077-22.52,9.241c-6.236,6.409-9.368,13.939-9.368,22.574c0,8.645,3.186,16.021,9.567,22.131
	c6.363,6.11,13.74,9.169,22.13,9.169c8.382,0,15.523-2.354,21.425-7.06c1.448-1.114,3.204-1.539,5.25-1.286s3.711,1.149,5.005,2.697
	c1.204,1.629,1.666,3.44,1.412,5.449c-0.262,2.009-1.149,3.611-2.706,4.815c-8.535,6.671-18.419,10.001-29.625,10.001
	c-12.817,0-23.869-4.507-33.092-13.532c-9.242-9.024-13.894-19.904-13.984-32.648C238.757,297.24,243.409,286.405,252.651,277.381z"
	/>
</svg>
