<?xml version="1.0" encoding="utf-8"?>
<!-- Generator: Adobe Illustrator 15.1.0, SVG Export Plug-In . SVG Version: 6.00 Build 0)  -->
<!DOCTYPE svg PUBLIC "-//W3C//DTD SVG 1.1//EN" "http://www.w3.org/Graphics/SVG/1.1/DTD/svg11.dtd">
<svg version="1.1" id="Layer_1" xmlns="http://www.w3.org/2000/svg" xmlns:xlink="http://www.w3.org/1999/xlink" x="0px" y="0px"
	 width="483.817px" height="568.266px" viewBox="64.091 32.658 483.817 568.266"
	 enable-background="new 64.091 32.658 483.817 568.266" xml:space="preserve">
<g>
	<path d="M471.36,301.82c2.562-2.57,3.893-5.648,3.974-9.241c-0.091-3.766-1.412-6.924-3.974-9.495
		c-2.562-2.562-5.693-3.847-9.359-3.847h-15.794v26.431h15.785C465.667,305.667,468.79,304.381,471.36,301.82z"/>
	<path d="M305.611,301.82c2.561-2.57,3.892-5.648,3.973-9.241c-0.09-3.766-1.412-6.924-3.973-9.495
		c-2.562-2.562-5.693-3.847-9.359-3.847h-15.786v26.431h15.786C299.917,305.667,303.049,304.381,305.611,301.82z"/>
	<path d="M195.382,231.128v164.383c0,9.25,7.504,16.763,16.763,16.763h319c9.25,0,16.763-7.504,16.763-16.763V231.128
		c0-9.26-7.503-16.754-16.763-16.754h-85.383l-0.669-168.927c-0.019-7.069-5.757-12.79-12.826-12.79H76.917
		c-7.087,0-12.826,5.748-12.826,12.826v482.333c0,40.151,32.658,72.81,72.81,72.818l338.18,0.289
		c40.161,0,72.818-32.666,72.818-73.117c0-7.087-5.738-12.826-12.826-12.826H196.894c-7.087,0-12.826,5.748-12.826,12.826
		c0,26.005-21.153,47.158-47.158,47.158s-47.167-21.153-47.167-47.158V58.318h329.743l0.625,156.056H212.146
		C202.886,214.374,195.382,221.869,195.382,231.128z M208.588,540.65h311.966c-5.494,19.94-23.805,34.622-45.456,34.622
		l-282.785-0.244C200.533,565.397,206.28,553.612,208.588,540.65z M431.969,272.059c0-1.964,0.688-3.639,2.063-5.005
		c1.358-1.367,3.032-2.055,5.006-2.055h22.963c7.612,0,14.111,2.698,19.497,8.083c5.386,5.386,8.083,11.867,8.083,19.434
		s-2.697,14.021-8.083,19.37c-5.395,5.34-11.885,8.02-19.497,8.02h-15.794v27.842c0,1.964-0.697,3.629-2.109,5.005
		c-1.412,1.367-3.104,2.055-5.068,2.055c-1.974,0-3.639-0.688-5.006-2.055s-2.063-3.032-2.063-5.005v-75.688H431.969z
		 M341.011,272.059c0-1.964,0.688-3.639,2.063-5.005c1.358-1.367,3.032-2.055,5.006-2.055c1.964,0,3.647,0.688,5.068,2.055
		c1.412,1.367,2.109,3.032,2.109,5.005v30.784h33.228v-30.784c0-1.964,0.688-3.639,2.064-5.005c1.357-1.367,3.032-2.055,5.005-2.055
		c1.965,0,3.648,0.688,5.069,2.055c1.412,1.367,2.108,3.032,2.108,5.005v75.688c0,1.964-0.696,3.629-2.108,5.005
		c-1.412,1.367-3.104,2.055-5.069,2.055c-1.973,0-3.639-0.688-5.005-2.055c-1.367-1.367-2.064-3.032-2.064-5.005v-30.793h-33.228
		v30.793c0,1.964-0.697,3.629-2.109,5.005c-1.411,1.367-3.104,2.055-5.068,2.055c-1.974,0-3.639-0.688-5.006-2.055
		c-1.366-1.367-2.063-3.032-2.063-5.005V272.059z M266.219,272.059c0-1.964,0.688-3.639,2.064-5.005
		c1.358-1.367,3.032-2.055,5.005-2.055h22.963c7.612,0,14.112,2.698,19.497,8.083c5.386,5.386,8.083,11.867,8.083,19.434
		s-2.697,14.021-8.083,19.37c-5.395,5.34-11.884,8.02-19.497,8.02h-15.786v27.842c0,1.964-0.697,3.629-2.109,5.005
		c-1.412,1.367-3.104,2.055-5.069,2.055c-1.973,0-3.639-0.688-5.005-2.055s-2.064-3.032-2.064-5.005V272.059L266.219,272.059z"/>
</g>
</svg>
