<?xml version="1.0" encoding="utf-8"?>
<!-- Generator: Adobe Illustrator 15.1.0, SVG Export Plug-In . SVG Version: 6.00 Build 0)  -->
<!DOCTYPE svg PUBLIC "-//W3C//DTD SVG 1.1//EN" "http://www.w3.org/Graphics/SVG/1.1/DTD/svg11.dtd">
<svg version="1.1" id="Layer_1" xmlns="http://www.w3.org/2000/svg" xmlns:xlink="http://www.w3.org/1999/xlink" x="0px" y="0px"
	 width="483.817px" height="568.266px" viewBox="64.091 32.658 483.817 568.266"
	 enable-background="new 64.091 32.658 483.817 568.266" xml:space="preserve">
<path d="M104.868,231.128v164.383c0,9.25,7.503,16.763,16.763,16.763h409.514c9.25,0,16.763-7.504,16.763-16.763V231.128
	c0-9.26-7.503-16.754-16.763-16.754h-85.383l-0.669-168.927c-0.019-7.069-5.757-12.79-12.826-12.79H76.917
	c-7.087,0-12.826,5.748-12.826,12.826v482.333c0,40.151,32.658,72.81,72.81,72.818l338.18,0.289
	c40.161,0,72.818-32.666,72.818-73.117c0-7.087-5.738-12.826-12.826-12.826H196.894c-7.087,0-12.826,5.748-12.826,12.826
	c0,26.005-21.153,47.158-47.158,47.158s-47.167-21.153-47.167-47.158V58.318h329.743l0.625,156.056h-298.48
	C112.372,214.374,104.868,221.869,104.868,231.128z M444.804,272.059c0-1.964,0.688-3.639,2.063-5.005
	c1.357-1.367,3.032-2.055,5.006-2.055c1.964,0,3.647,0.688,5.068,2.055c1.412,1.367,2.109,3.032,2.109,5.005v68.501h34.775
	c1.874,0,3.53,0.706,4.933,2.118c1.412,1.412,2.118,3.077,2.118,5.005c0,1.928-0.706,3.593-2.118,5.005
	c-1.402,1.412-3.059,2.118-4.933,2.118h-41.953c-1.974,0-3.639-0.688-5.006-2.055c-1.366-1.367-2.063-3.032-2.063-5.005V272.059
	L444.804,272.059z M208.588,540.65h311.966c-5.494,19.94-23.805,34.622-45.456,34.622l-282.785-0.244
	C200.533,565.397,206.28,553.612,208.588,540.65z M336.53,272.059c0-1.964,0.688-3.639,2.063-5.005
	c1.358-1.367,3.032-2.055,5.006-2.055h0.38c2.48,0,4.363,0.987,5.648,2.951l25.525,35.409l25.524-35.409
	c1.448-1.964,3.376-2.951,5.775-2.951h0.136c1.964,0.091,3.647,0.815,5.068,2.182c1.412,1.367,2.109,2.996,2.109,4.878v75.688
	c0,1.882-0.697,3.53-2.109,4.933c-1.412,1.403-3.104,2.118-5.068,2.118c-1.974,0-3.639-0.688-5.006-2.055
	c-1.366-1.367-2.063-3.032-2.063-5.005v-54.01l-18.465,25.661c-1.457,1.964-3.386,2.951-5.784,2.951h-0.253
	c-2.472,0-4.444-0.978-5.893-2.951l-18.348-25.661v54.01c0,1.964-0.697,3.629-2.109,5.005c-1.411,1.367-3.104,2.055-5.068,2.055
	c-1.974,0-3.639-0.688-5.006-2.055c-1.366-1.367-2.063-3.032-2.063-5.005V272.059L336.53,272.059z M248.523,267.053
	c1.367-1.367,3.032-2.055,5.005-2.055h54.78c1.973,0,3.629,0.688,5.005,2.055c1.367,1.367,2.055,3.032,2.055,5.005
	c0,1.974-0.697,3.657-2.109,5.069c-1.411,1.412-3.059,2.118-4.941,2.118h-20.402v68.51c0,1.964-0.679,3.63-2.055,5.005
	c-1.367,1.367-3.032,2.055-5.005,2.055c-1.964,0-3.629-0.688-5.005-2.055c-1.367-1.367-2.055-3.032-2.055-5.005v-68.52h-20.266
	c-1.973,0-3.629-0.706-5.005-2.118c-1.367-1.412-2.055-3.096-2.055-5.069S247.157,268.42,248.523,267.053z M162.444,272.059
	c0-1.964,0.688-3.639,2.063-5.005c1.358-1.367,3.032-2.055,5.006-2.055c1.964,0,3.647,0.688,5.069,2.055
	c1.412,1.367,2.109,3.032,2.109,5.005v30.784h33.228v-30.784c0-1.964,0.688-3.639,2.064-5.005c1.357-1.367,3.032-2.055,5.005-2.055
	c1.964,0,3.647,0.688,5.069,2.055c1.412,1.367,2.109,3.032,2.109,5.005v75.688c0,1.964-0.697,3.629-2.109,5.005
	c-1.412,1.367-3.105,2.055-5.069,2.055c-1.973,0-3.639-0.688-5.005-2.055s-2.064-3.032-2.064-5.005v-30.793h-33.228v30.793
	c0,1.964-0.697,3.629-2.109,5.005c-1.412,1.367-3.105,2.055-5.069,2.055c-1.974,0-3.639-0.688-5.006-2.055
	c-1.367-1.367-2.063-3.032-2.063-5.005V272.059z"/>
</svg>
