<svg xmlns="http://www.w3.org/2000/svg" viewBox="0 0 32 32">
  <path style="line-height:normal;text-indent:0;text-align:start;text-decoration-line:none;text-decoration-style:solid;text-decoration-color:#000000;text-transform:none;block-progression:tb;isolation:auto;mix-blend-mode:normal" d="M20.488.998a.5.5 0 0 0-.074.006H6.996c-1.1 0-2 .9-2 2v26c0 1.1.9 2 2 2h18c1.1 0 2-.9 2-2v-.752c0-.015.004-.03.004-.045V22.52a.52.52 0 0 0-.004-.063V7.582a.5.5 0 0 0-.195-.48l-5.905-5.907a.5.5 0 0 0-.407-.197zM6.996 2.004h13v4c0 1.1.9 2 2 2h4V22h-20V3.004c0-.563.437-1 1-1zm14 .707l4.293 4.294h-3.294c-.563 0-1-.437-1-1V2.71zm-7.488 7.294c-1.1 0-2 .9-2 2v.999c0 .563-.438 1-1 1a.5.5 0 0 0-.1.01.5.5 0 0 0-.387.35.5.5 0 0 0-.01.048.5.5 0 0 0 .498.592c.562 0 1 .437 1 1v1.001c0 1.1.9 2 2 2a.5.5 0 1 0 0-1c-.563 0-1-.437-1-1v-.999c0-.598-.273-1.133-.694-1.5.42-.367.694-.9.694-1.5v-1.001c0-.563.437-1 1-1a.5.5 0 1 0 0-1zm4.933 0a.5.5 0 0 0 .052 1c.563 0 1 .437 1 1v.999c0 .6.273 1.132.694 1.5-.42.367-.694.902-.694 1.5v1.001c0 .563-.437 1-1 1a.5.5 0 1 0 0 1c1.1 0 2-.9 2-2v-.999c0-.563.438-1 1-1a.5.5 0 0 0 .324-.113.5.5 0 0 0 .038-.035.5.5 0 0 0-.362-.85c-.562 0-1-.438-1-1v-1.002c0-1.1-.9-2-2-2a.5.5 0 0 0-.05 0zM16 11.498a1 1 0 0 0-1 1 1 1 0 0 0 1 1 1 1 0 0 0 1-1 1 1 0 0 0-1-1zm0 2.996v.004a1 1 0 0 0-1 1 1 1 0 0 0 .508.87l-.45.903a.5.5 0 1 0 .895.447l.75-1.508a1 1 0 0 0 .295-.673.5.5 0 0 0 0-.01 1 1 0 0 0 .002-.033 1 1 0 0 0-1-1zM6.04 23.04H25.96v5.167c0 1.026-.664 1.754-1.386 1.754H7.426c-.722 0-1.385-.727-1.385-1.753V23.04zm4.456.96v.002a.5.5 0 0 0-.492.508v2.992c0 .286-.214.5-.5.5-.286 0-.5-.214-.5-.5a.5.5 0 0 0-.508-.506.5.5 0 0 0-.492.506c0 .822.678 1.5 1.5 1.5.774 0 1.41-.603 1.484-1.36a.5.5 0 0 0 .016-.132v-3.002a.5.5 0 0 0-.508-.508zm2.95.002a.5.5 0 0 0-.063.012c-.77.06-1.387.704-1.387 1.488 0 .79.628 1.44 1.406 1.49a.5.5 0 0 0 .094.01h1c.286 0 .5.214.5.5 0 .286-.214.5-.5.5h-2a.5.5 0 1 0 0 1h2a.5.5 0 0 0 .104-.012c.774-.055 1.396-.7 1.396-1.488 0-.786-.62-1.433-1.392-1.49a.5.5 0 0 0-.108-.01h-.965a.5.5 0 0 0-.034 0c-.286 0-.5-.214-.5-.5 0-.286.214-.5.5-.5h2a.5.5 0 1 0 0-1H13.53a.5.5 0 0 0-.034 0 .5.5 0 0 0-.05 0z" color="#000" font-family="sans-serif" white-space="normal" overflow="visible" solid-color="#000000" fill-rule="evenodd"/>
</svg>
