<svg xmlns="http://www.w3.org/2000/svg" viewBox="0 0 32 32"><path style="line-height:normal;text-indent:0;text-align:start;text-decoration-line:none;text-decoration-style:solid;text-decoration-color:#000;text-transform:none;block-progression:tb;isolation:auto;mix-blend-mode:normal" d="M20.488.998a.5.5 0 0 0-.074.006H6.996c-1.1 0-2 .9-2 2v26c0 1.1.9 2 2 2h18c1.1 0 2-.9 2-2v-.752c0-.015.004-.03.004-.045V22.52a.52.52 0 0 0-.004-.063V7.582a.5.5 0 0 0-.195-.48l-5.905-5.907a.5.5 0 0 0-.407-.197zM6.996 2.004h13v4c0 1.1.9 2 2 2h4V22h-20V3.004c0-.563.437-1 1-1zm14 .707l4.293 4.294h-3.294c-.563 0-1-.437-1-1V2.71zM15.508 10c-.468 0-.94.127-1.36.396a2.505 2.505 0 0 0-.814 3.352.5.5 0 0 0 .867-.5 1.495 1.495 0 0 1 .49-2.012 1.491 1.491 0 0 1 2.03.393c.468.654.34 1.547-.29 2.046h-.002l-.326.248a2.497 2.497 0 0 0-1.102 2.072v2.5a.5.5 0 1 0 1 0v-2.5c0-.5.246-.963.66-1.242a.5.5 0 0 0 .024-.02l.355-.27a.5.5 0 0 0 .007 0 2.509 2.509 0 0 0 .488-3.417 2.493 2.493 0 0 0-1.562-1 2.512 2.512 0 0 0-.465-.047zm-3.98 2a.5.5 0 0 0-.342.148l-2.993 2.957a.5.5 0 0 0-.177.282.5.5 0 0 0-.004.013.5.5 0 0 0-.002.016.5.5 0 0 0-.008.092.5.5 0 0 0 .002.025.5.5 0 0 0 .002.026.5.5 0 0 0 .004.028.5.5 0 0 0 .004.02.5.5 0 0 0 .004.015.5.5 0 0 0 .17.273l2.998 2.96a.5.5 0 1 0 .7-.71l-2.67-2.642 2.67-2.643a.5.5 0 0 0-.357-.858V12zm7.927 0a.5.5 0 0 0-.342.86l2.672 2.642-2.672 2.64a.5.5 0 1 0 .7.712l3-2.96a.5.5 0 0 0 .185-.39.5.5 0 0 0 0-.018.5.5 0 0 0-.002-.033.5.5 0 0 0-.002-.015.5.5 0 0 0-.006-.034.5.5 0 0 0-.183-.3l-2.99-2.956a.5.5 0 0 0-.36-.148zm-3.99 8a.5.5 0 0 0-.465.5.5.5 0 0 0 .5.5.5.5 0 0 0 .5-.5.5.5 0 0 0-.5-.5.5.5 0 0 0-.035 0zM6.04 23.04h19.92v5.167c0 1.026-.664 1.754-1.386 1.754H7.426c-.722 0-1.385-.727-1.385-1.753V23.04zm3.45.96c-.774 0-1.41.603-1.484 1.36l-.002.01a.5.5 0 0 0-.014.124v3.004a.5.5 0 1 0 1 0V26.91c.157.057.325.096.5.096.823 0 1.5-.678 1.5-1.5 0-.823-.677-1.5-1.5-1.5V24zm2.992 0a.5.5 0 0 0-.492.506v1.953a.5.5 0 0 0 0 .073v1.963a.5.5 0 1 0 1 0v-1.494h1.998v1.494a.5.5 0 1 0 1 0v-1.902a.5.5 0 0 0 0-.188v-1.9a.5.5 0 0 0-.506-.506.5.5 0 0 0-.494.506v1.496H12.99v-1.496a.5.5 0 0 0-.508-.506zm6.008 0c-.778 0-1.418.608-1.486 1.37a.5.5 0 0 0-.014.124v3a.5.5 0 1 0 1 0v-1.588c.157.057.325.094.5.094.823 0 1.5-.677 1.5-1.5s-.677-1.5-1.5-1.5zm-9 .996V25c.282 0 .5.218.5.5 0 .282-.218.5-.5.5a.493.493 0 0 1-.5-.5v-.01a.492.492 0 0 1 .5-.494zm9 0V25c.282 0 .5.218.5.5 0 .282-.218.5-.5.5a.493.493 0 0 1-.5-.5v-.01a.492.492 0 0 1 .5-.494z" color="#000" font-family="sans-serif" white-space="normal" overflow="visible" solid-color="#000000" fill-rule="evenodd"/></svg>