<?xml version="1.0" encoding="utf-8"?>
<!-- Generator: Adobe Illustrator 15.1.0, SVG Export Plug-In . SVG Version: 6.00 Build 0)  -->
<!DOCTYPE svg PUBLIC "-//W3C//DTD SVG 1.1//EN" "http://www.w3.org/Graphics/SVG/1.1/DTD/svg11.dtd">
<svg version="1.1" id="Layer_1" xmlns="http://www.w3.org/2000/svg" xmlns:xlink="http://www.w3.org/1999/xlink" x="0px" y="0px"
	 width="483.817px" height="568.266px" viewBox="64.091 32.658 483.817 568.266"
	 enable-background="new 64.091 32.658 483.817 568.266" xml:space="preserve">
<path d="M222.546,231.128v164.383c0,9.25,7.503,16.763,16.763,16.763h291.836c9.25,0,16.763-7.504,16.763-16.763V231.128
	c0-9.26-7.503-16.754-16.763-16.754h-85.383l-0.669-168.927c-0.019-7.069-5.757-12.79-12.826-12.79H76.917
	c-7.087,0-12.826,5.748-12.826,12.826v482.333c0,40.151,32.658,72.81,72.81,72.818l338.18,0.289
	c40.161,0,72.818-32.666,72.818-73.117c0-7.087-5.738-12.826-12.826-12.826H196.894c-7.087,0-12.826,5.748-12.826,12.826
	c0,26.005-21.153,47.158-47.158,47.158s-47.167-21.153-47.167-47.158V58.318h329.743l0.625,156.056H239.309
	C230.049,214.374,222.546,221.869,222.546,231.128z M208.588,540.65h311.966c-5.494,19.94-23.805,34.622-45.456,34.622
	l-282.785-0.244C200.533,565.397,206.28,553.612,208.588,540.65z M391.057,333.762c1.113-1.367,2.606-2.154,4.489-2.371
	c1.883-0.208,3.512,0.28,4.879,1.475c8.2,6.671,16.374,9.966,24.502,9.875c6.408,0,11.604-1.475,15.587-4.426
	c3.974-2.951,5.965-6.137,5.965-9.559c0-6.499-7.531-11.16-22.574-13.984h-0.263c-6.662-1.285-12.437-3.078-17.315-5.386
	c-4.87-2.308-8.445-5.277-10.717-8.916c-2.263-3.629-3.395-7.377-3.395-11.224c0-7.44,3.268-13.559,9.812-18.347
	c6.544-4.789,14.094-7.178,22.646-7.178c3.757,0,7.612,0.643,11.541,1.919c3.929,1.276,6.861,2.48,8.789,3.593
	s4.462,2.688,7.64,4.743c1.448,1.023,2.371,2.435,2.761,4.236c0.38,1.792,0.081,3.439-0.905,4.933
	c-0.978,1.502-2.381,2.444-4.173,2.824c-1.792,0.38-3.467,0.063-5.006-0.959c-4.019-2.733-7.594-4.788-10.717-6.155
	c-3.122-1.367-6.436-2.055-9.938-2.055c-5.647,0-10.264,1.331-13.857,3.974c-3.584,2.652-5.386,5.476-5.386,8.472
	c0,1.457,0.335,2.697,1.022,3.72c2.39,3.937,8.853,6.888,19.37,8.852h0.254c7.187,1.458,13.088,3.25,17.704,5.386
	c10.608,5.213,15.913,12.4,15.913,21.551c0,7.957-3.513,14.482-10.519,19.569c-7.015,5.087-15.098,7.63-24.248,7.63
	c-11.206-0.082-22.149-4.363-32.848-12.826c-1.367-1.114-2.154-2.607-2.372-4.49C389.499,336.758,389.943,335.129,391.057,333.762z
	 M311.458,328.567c0.905-1.756,2.271-2.906,4.109-3.467s3.63-0.407,5.386,0.453c1.756,0.851,2.933,2.227,3.539,4.1
	c1.194,3.594,3.331,6.526,6.408,8.789c3.087,2.263,6.798,3.395,11.16,3.395c4.354,0,8.273-1.729,11.74-5.196
	c3.467-3.458,5.195-7.585,5.195-12.382v-50.923c0-1.964,0.706-3.639,2.109-5.005c1.412-1.367,3.104-2.055,5.068-2.055
	c1.974,0,3.639,0.688,5.006,2.055c1.366,1.367,2.063,3.032,2.063,5.005v50.923c0,8.816-3.132,16.32-9.368,22.52
	s-13.768,9.296-22.574,9.296c-7.015,0-13.306-2.055-18.863-6.155c-5.558-4.1-9.359-9.413-11.414-15.912
	C310.408,332.133,310.562,330.323,311.458,328.567z"/>
</svg>
