<svg xmlns="http://www.w3.org/2000/svg" viewBox="0 0 32 32"><path style="line-height:normal;text-indent:0;text-align:start;text-decoration-line:none;text-decoration-style:solid;text-decoration-color:#000;text-transform:none;block-progression:tb;isolation:auto;mix-blend-mode:normal" d="M20.488.998a.5.5 0 0 0-.074.006H6.996c-1.1 0-2 .9-2 2v26c0 1.1.9 2 2 2h18c1.1 0 2-.9 2-2v-.752c0-.015.004-.03.004-.045V22.52a.52.52 0 0 0-.004-.063V7.582a.5.5 0 0 0-.195-.48l-5.905-5.907a.5.5 0 0 0-.407-.197zM6.996 2.004h13v4c0 1.1.9 2 2 2h4V22h-20V3.004c0-.563.437-1 1-1zm14 .707l4.293 4.294h-3.294c-.563 0-1-.437-1-1V2.71zm-7.488 7.292v.002c-1.1 0-2 .9-2 2v.999c0 .563-.438 1-1 1a.5.5 0 0 0-.498.406.5.5 0 0 0 .148.455.5.5 0 0 0 .078.06.5.5 0 0 0 .14.06.5.5 0 0 0 .097.017.5.5 0 0 0 .035 0c.562 0 1 .437 1 1V17c0 1.1.9 2 2 2a.5.5 0 1 0 0-1c-.563 0-1-.437-1-1v-1a1.99 1.99 0 0 0-.694-1.5c.42-.368.694-.9.694-1.5v-1c0-.563.437-1 1-1a.5.5 0 1 0 0-1zm4.933.002a.5.5 0 0 0 .052 1c.563 0 1 .437 1 1v.999c0 .6.273 1.132.694 1.5-.42.367-.694.902-.694 1.5v1.001c0 .563-.437 1-1 1a.5.5 0 1 0 0 1c1.1 0 2-.9 2-2v-.999c0-.563.438-1 1-1a.5.5 0 0 0 .324-.113.5.5 0 0 0 .038-.035.5.5 0 0 0-.362-.85c-.562 0-1-.438-1-1v-1.002c0-1.1-.9-2-2-2a.5.5 0 0 0-.05 0zM6.04 23.04h19.92v5.167c0 1.026-.664 1.754-1.386 1.754H7.426c-.722 0-1.385-.727-1.385-1.753V23.04zm4.413.96a.5.5 0 0 0-.105.023c-1.302.116-2.344 1.17-2.344 2.48 0 1.314 1.053 2.37 2.363 2.477a.5.5 0 0 0 .145.022h1a.5.5 0 1 0 0-1h-.932c-.892 0-1.576-.67-1.576-1.5s.684-1.5 1.576-1.5h.924a.5.5 0 1 0 0-1h-1a.5.5 0 0 0-.05 0V24zm4 0a.5.5 0 0 0-.062.012c-.77.06-1.386.704-1.386 1.488 0 .79.627 1.44 1.406 1.49a.5.5 0 0 0 .094.012h1c.286 0 .5.214.5.5 0 .286-.214.5-.5.5h-2a.5.5 0 1 0 0 1h2a.5.5 0 0 0 .103-.014 1.502 1.502 0 0 0 1.397-1.488c0-.786-.62-1.433-1.393-1.49a.5.5 0 0 0-.106-.01h-1a.488.488 0 0 1-.5-.5c0-.286.214-.5.5-.5h2a.5.5 0 1 0 0-1H14.54a.5.5 0 0 0-.036 0 .5.5 0 0 0-.05 0zm4.992 0a.5.5 0 0 0-.062.012c-.77.06-1.387.704-1.387 1.488 0 .79.628 1.44 1.406 1.49a.5.5 0 0 0 .094.012h1c.286 0 .5.214.5.5 0 .286-.214.5-.5.5h-2a.5.5 0 1 0 0 1h2a.5.5 0 0 0 .104-.014 1.502 1.502 0 0 0 1.396-1.488c0-.786-.62-1.433-1.392-1.49a.5.5 0 0 0-.108-.01h-1a.488.488 0 0 1-.5-.5c0-.286.214-.5.5-.5h2a.5.5 0 1 0 0-1H19.53a.5.5 0 0 0-.034 0 .5.5 0 0 0-.05 0z" color="#000" font-family="sans-serif" white-space="normal" overflow="visible" solid-color="#000000" fill-rule="evenodd"/></svg>