<svg xmlns="http://www.w3.org/2000/svg" viewBox="0 0 75 75">
  <g id="surface1">
    <path d="M75,16.67,70.83,70.83,16.67,75Z" fill="#9b1010"/>
    <path d="M45.83,45.83l25,25L75,16.67Z" fill="#b71c1c"/>
    <path d="M70.83,4.18c-9.49-9.49-32.1-2.26-50.5,16.15s-25.63,41-16.15,50.5,32.1,2.26,50.5-16.15S80.32,13.67,70.83,4.18Z" fill="#c62828"/>
    <path d="M8.33,22.92,22.92,8.33,39.58,0l12.5,8.33L45.83,27.08,27.08,43.75,8.33,50,0,37.5Z" fill="#e53935"/>
    <path d="M52.08,8.33,39.58,0H62.5ZM75,18.75,52.08,8.33,45.83,27.08Zm-47.92,25,27.57,10.9L45.83,27.08ZM8.33,50l8.33,25L27.08,43.75ZM0,37.5V60.42L8.33,50Z" fill="#ff5252"/>
  </g>
</svg>
