<svg xmlns="http://www.w3.org/2000/svg" viewBox="0 0 75 75">
  <path d="M75 16.67l-4.17 54.16L16.67 75z" fill="#9b1010"/>
  <path d="M45.83 45.83l25 25L75 16.67z" fill="#b71c1c"/>
  <path d="M70.83 4.18c-9.49-9.49-32.1-2.26-50.5 16.15s-25.63 41-16.15 50.5 32.1 2.26 50.5-16.15 25.64-41.01 16.15-50.5z" fill="#c62828"/>
  <path d="M8.33 22.92L22.92 8.33 39.58 0l12.5 8.33-6.25 18.75-18.75 16.67L8.33 50 0 37.5z" fill="#e53935"/>
  <path d="M52.08 8.33L39.58 0H62.5zM75 18.75L52.08 8.33l-6.25 18.75zm-47.92 25l27.57 10.9-8.82-27.57zM8.33 50l8.33 25 10.42-31.25zM0 37.5v22.92L8.33 50z" fill="#ff5252"/>
</svg>
