<?xml version="1.0" encoding="utf-8"?>
<!-- Generator: Adobe Illustrator 21.1.0, SVG Export Plug-In . SVG Version: 6.00 Build 0)  -->
<svg version="1.1" id="Layer_1" xmlns="http://www.w3.org/2000/svg" xmlns:xlink="http://www.w3.org/1999/xlink" x="0px" y="0px"
	 viewBox="0 0 250 250" style="enable-background:new 0 0 250 250;" xml:space="preserve">
<style type="text/css">
	.st0{fill:#2DAAE1;}
	.st1{fill:#FFFFFF;}
</style>
<circle class="st0" cx="125" cy="125" r="125"/>
<path class="st1" d="M205.1,75.3c-5.9,2.6-12.2,4.4-18.9,5.2c6.8-4.1,12-10.5,14.5-18.2c-6.5,3.8-13.5,6.5-20.9,8
	c-6-6.4-14.5-10.4-24-10.4c-18.1,0-32.9,14.7-32.9,32.9c0,2.6,0.3,5.1,0.9,7.5C96.5,98.9,72.2,85.8,56,65.9
	c-2.8,4.9-4.5,10.5-4.5,16.5c0,11.4,5.8,21.5,14.6,27.4c-5.2-0.2-10.3-1.6-14.9-4.1v0.4c0,15.9,11.3,29.2,26.4,32.2
	c-2.8,0.8-5.7,1.1-8.7,1.1c-2.1,0-4.2-0.2-6.2-0.6c4.2,13.1,16.3,22.6,30.7,22.8c-11.3,8.8-25.4,14.1-40.8,14.1
	c-2.7,0-5.3-0.2-7.9-0.5c14.6,9.3,31.8,14.8,50.4,14.8c60.5,0,93.6-50.1,93.6-93.6c0-1.4,0-2.8-0.1-4.2
	C195.2,87.7,200.7,81.9,205.1,75.3L205.1,75.3z"/>
</svg>
