<svg data-name="Layer 1" xmlns="http://www.w3.org/2000/svg" viewBox="0 0 61.56 50">
  <path d="M61.56 5.94a26.44 26.44 0 0 1-6.33 6.52v1.64a35.84 35.84 0 0 1-1.48 10.14 36.63 36.63 0 0 1-4.51 9.71 38.16 38.16 0 0 1-7.21 8.22A32.09 32.09 0 0 1 32 47.87 36.88 36.88 0 0 1 19.38 50 35 35 0 0 1 0 44.34a27 27 0 0 0 3 .16 24.7 24.7 0 0 0 15.71-5.4 12.64 12.64 0 0 1-11.8-8.75 16 16 0 0 0 2.38.2 13.05 13.05 0 0 0 3.32-.43 12.41 12.41 0 0 1-7.25-4.36 12.19 12.19 0 0 1-2.87-8v-.16a12.52 12.52 0 0 0 5.7 1.6 12.6 12.6 0 0 1-4.1-4.49 12.29 12.29 0 0 1-1.52-6A12.36 12.36 0 0 1 4.3 2.3a35.77 35.77 0 0 0 11.5 9.32 35.16 35.16 0 0 0 14.51 3.89 14 14 0 0 1-.31-2.89 12.16 12.16 0 0 1 3.69-8.93A12.65 12.65 0 0 1 51.84 4a24.74 24.74 0 0 0 8-3 12.25 12.25 0 0 1-5.55 7 25.14 25.14 0 0 0 7.27-2.06z" fill="#fff"/>
</svg>
