<svg xmlns="http://www.w3.org/2000/svg" viewBox="0 0 500 500">
  <path d="M0 250V0h500v500H0" fill="#007acc"/>
  <path d="M109.62 250.87v20.38h65v185h46.13v-185h65v-20c0-11.25 0-20.38-.5-20.62 0-.38-39.62-.5-87.75-.5l-87.5.38V251l-.38-.13zM401.75 230A60.52 60.52 0 0 1 433 247.88c4.63 5 11.5 13.75 12 16 0 .75-21.62 15.38-34.75 23.5-.5.38-2.5-1.75-4.5-5-6.5-9.25-13.12-13.25-23.5-14-15-1-25 6.88-25 20a19.75 19.75 0 0 0 2.25 9.5c3.38 6.88 9.63 11 29 19.5 35.75 15.37 51.25 25.5 60.63 40 10.63 16.25 13 41.75 5.88 60.88-8 20.88-27.5 35-55.37 39.63-8.75 1.5-28.75 1.25-38.12-.37-20-3.75-39.12-13.75-50.87-26.62-4.62-5-13.5-18.38-13-19.25l4.75-3 18.75-10.88 14.12-8.25 3.25 4.38c4.12 6.5 13.38 15.25 18.75 18.25 16.25 8.38 38 7.25 48.75-2.5a18.73 18.73 0 0 0 6.62-15c0-5.75-.88-8.38-3.75-12.75-4-5.5-12-10-34.5-20-25.88-11-36.87-18-47.13-28.75-5.88-6.5-11.25-16.63-13.75-25-1.87-7.25-2.5-25-.75-32.12 5.38-25 24.25-42.5 51.25-47.5 8.75-1.75 29.38-1 38 1.25l-.25.25z" fill="#fff"/>
</svg>
