<svg xmlns="http://www.w3.org/2000/svg" viewBox="0 0 1584.14 703.31"><path d="M1524.6 336.65l-64 85 72 57zm-71-144l66 92 50-129zm66 92l5 52 45-181z" fill="none" stroke="#de6551" stroke-width=".6"/><path d="M1524.6 336.65l8 142 37-323zm45-181l-37 323 51 224z" fill="none" stroke="#de6551" stroke-width=".6"/><path d="M1532.6 478.65l9 100 42 124z" fill="none" stroke="#de6551" stroke-width=".6"/><path d="M1541.6 578.65l-19 89 61 35zm16-475l-73 18 85 34z" fill="none" stroke="#de6551" stroke-width=".6"/><path d="M1484.6 121.65l-31 71 116-37zm-8 505l46 41 19-89zm56-148l-84 85 93 15zm-29-460l-19 103 73-18zm16 266l-24 16 29 36z" fill="none" stroke="#de6551" stroke-width=".6"/><path d="M1448.6 563.65l28 63 65-48zm5-371l42 108 24-16zm-25 204l32 25 64-85zm32 25l-12 142 84-85z" fill="none" stroke="#de6551" stroke-width=".6"/><path d="M1495.6 300.65l-67 96 96-60zm-111-273l100 94 19-103z" fill="none" stroke="#de6551" stroke-width=".6"/><path d="M1384.6 27.65l-14 78 114 16zm69 165l-112 108h154zm-112 108l87 96 67-96h-154z" fill="none" stroke="#de6551" stroke-width=".6"/><path d="M1341.6 300.65l1 49 86 47zm-12 116l119 147 12-142zm41-311l83 87 31-71z" fill="none" stroke="#de6551" stroke-width=".6"/><path d="M1428.6 396.65l-99 20 131 5zm20 167l-49 30 77 33z" fill="none" stroke="#de6551" stroke-width=".6"/><path d="M1329.6 416.65l70 177 49-30zm5-225l7 109 112-108zm-5 225l-58 124 97 60z" fill="none" stroke="#de6551" stroke-width=".6"/><path d="M1329.6 416.65l39 184 31-7zm41-311l-36 86 119 1zm-28 244l-13 67 99-20zm-62-307l90 63 14-78zm-38 423l29 75 58-124z" fill="none" stroke="#de6551" stroke-width=".6"/><path d="M1254.6 153.65l80 38 36-86z" fill="none" stroke="#de6551" stroke-width=".6"/><path d="M1280.6 42.65l-26 111 116-48zm-9 498l-9 125 106-65zm63-349l-95 52 102 57zm7 109l-104 62 105-13zm-104 62l92 54 13-67z" fill="none" stroke="#de6551" stroke-width=".6"/><path d="M1239.6 243.65l-2 119 104-62zm4-189l11 99 26-111zm11 99l-15 90 95-52zm-17 209l5 103 87-49zm-50-91l50 91 2-119z" fill="none" stroke="#de6551" stroke-width=".6"/><path d="M1205.6 209.65l34 34 15-90zm19 336l38 120 9-125zm-49-520l68 29 37-12zm68 29l-55 68 66 31z" fill="none" stroke="#de6551" stroke-width=".6"/><path d="M1224.6 545.65l-60 131 98-11zm18-80l-18 80 47-5zm-55-194l-14 74 64 17zm50 91l-82 78 87 25zm-49-240l17 87 49-56zm-51 290l18 28 18-95z" fill="none" stroke="#de6551" stroke-width=".6"/><path d="M1127.6 665.65l37 11 60-131zm46-320l-18 95 82-78zm-18 95l69 105 18-80zm20-415l13 97 55-68zm30 184l-18 62 52-28z" fill="none" stroke="#de6551" stroke-width=".6"/><path d="M1155.6 440.65l-49 52 118 53zm33-318l-50 35 67 52zm-124 458l63 85 97-120z" fill="none" stroke="#de6551" stroke-width=".6"/><path d="M1106.6 492.65l-42 88 160-35zm32-240l49 19 18-62zm37-227l-87 82 100 15z" fill="none" stroke="#de6551" stroke-width=".6"/><path d="M1138.6 157.65v95l67-43zm0 95l35 93 14-74zm-50-145l50 50 50-35z" fill="none" stroke="#de6551" stroke-width=".6"/><path d="M1138.6 252.65l-90-4 125 97z" fill="none" stroke="#de6551" stroke-width=".6"/><path d="M1048.6 248.65l89 164 36-67z" fill="none" stroke="#de6551" stroke-width=".6"/><path d="M1048.6 248.65l-33 165 122-1zm16 332l-10 50 73 35zm-16-332l90 4v-95zm89 164l-31 80 49-52z" fill="none" stroke="#de6551" stroke-width=".6"/><path d="M1015.6 413.65l91 79 31-80zm73-306l-40 141 90-91z" fill="none" stroke="#de6551" stroke-width=".6"/><path d="M1020.6 111.65l28 137 40-141z" fill="none" stroke="#de6551" stroke-width=".6"/><path d="M1020.6 111.65l-53 67 81 70zm-21 397l65 72 42-88z" fill="none" stroke="#de6551" stroke-width=".6"/><path d="M1015.6 413.65l-16 95 107-16z" fill="none" stroke="#de6551" stroke-width=".6"/><path d="M989.6 430.65l10 78 16-95zm-83-53l109 36 33-165z" fill="none" stroke="#de6551" stroke-width=".6"/><path d="M877.6 316.65l29 61 142-129zm80 261l97 53 10-50z" fill="none" stroke="#de6551" stroke-width=".6"/><path d="M999.6 508.65l-42 69 107 3zm-32-330l-90 138 171-68zm-112 78l22 60 90-138zm51 121l83 53 26-17z" fill="none" stroke="#de6551" stroke-width=".6"/><path d="M930.6 115.65l37 63 53-67zm-24 262l13 54 70-1z" fill="none" stroke="#de6551" stroke-width=".6"/><path d="M989.6 430.65l-70 1 80 77z" fill="none" stroke="#de6551" stroke-width=".6"/><path d="M919.6 431.65l38 146 42-69z" fill="none" stroke="#de6551" stroke-width=".6"/><path d="M919.6 431.65l-87 69 125 77zm-21-268l-43 93 112-78z" fill="none" stroke="#de6551" stroke-width=".6"/><path d="M930.6 115.65l-32 48 69 15zm-98 385l-19 86 81 45z" fill="none" stroke="#de6551" stroke-width=".6"/><path d="M832.6 500.65l62 131 63-54zm-39-442l105 105 32-48z" fill="none" stroke="#de6551" stroke-width=".6"/><path d="M864.6 11.65l-71 47 137 57zm42 366l-63 18 76 36z" fill="none" stroke="#de6551" stroke-width=".6"/><path d="M843.6 395.65l-11 105 87-69zm-21-161l33 22 43-93zm55 82l-34 79 63-18z" fill="none" stroke="#de6551" stroke-width=".6"/><path d="M735.6 182.65l87 52 76-71z" fill="none" stroke="#de6551" stroke-width=".6"/><path d="M793.6 58.65l-58 124 163-19zm20 528l61 79 20-34zm42-330l-129 22 151 38zm-129 22l117 117 34-79z" fill="none" stroke="#de6551" stroke-width=".6"/><path d="M813.6 586.65l-63 56 124 23zm9-352l-96 44 129-22zm-96 44l-17 89 134 28zm-13-278l80 58 71-47zm-16 425l135 75 11-105z" fill="none" stroke="#de6551" stroke-width=".6"/><path d="M709.6 367.65l-12 58 146-30zm31 212l73 7 19-86z" fill="none" stroke="#de6551" stroke-width=".6"/><path d="M697.6 425.65l43 154 92-79zm24-364l14 121 58-124zm14 121l-9 96 96-44z" fill="none" stroke="#de6551" stroke-width=".6"/><path d="M697.6 425.65l-14 132 57 22zm43 154l10 63 63-56zm-27-579l8 61 72-3zm8 61l-53 22 67 99zm-53 22l-6 99h73z" fill="none" stroke="#de6551" stroke-width=".6"/><path d="M662.6 182.65l64 96 9-96h-73zm21 375l-71 64 102 67zm57 22l-57-22 67 85z" fill="none" stroke="#de6551" stroke-width=".6"/><path d="M683.6 557.65l31 131 36-46zm-40-125l40 125 14-132zm19-250l-27 78 91 18z" fill="none" stroke="#de6551" stroke-width=".6"/><path d="M635.6 260.65l74 107 17-89z" fill="none" stroke="#de6551" stroke-width=".6"/><path d="M635.6 260.65l-30 81 104 26zm78-260l-80 35 88 26zm-80 35l35 48 53-22zm7 366l57 24 12-58zm3 31l-69 70 109 55z" fill="none" stroke="#de6551" stroke-width=".6"/><path d="M605.6 341.65l35 60 69-34zm35 60l3 31 54-7zm-75-248l97 29 6-99zm27 441l20 27 71-64z" fill="none" stroke="#de6551" stroke-width=".6"/><path d="M574.6 502.65l18 92 91-37zm59-467l-91 69 126-21zm-91 69l23 49 103-70zm23 49l70 107 27-78zm75 248l-137 53 140-22zm-137 53l71 48 69-70z" fill="none" stroke="#de6551" stroke-width=".6"/><path d="M605.6 341.65l-102 113 137-53zm-40-188l-72 142 142-35zm-72 142l25 20 117-55z" fill="none" stroke="#de6551" stroke-width=".6"/><path d="M518.6 315.65l87 26 30-81zm-52 77l37 62 15-139z" fill="none" stroke="#de6551" stroke-width=".6"/><path d="M518.6 315.65l-15 139 102-113zm74 279l-64 19 84 8z" fill="none" stroke="#de6551" stroke-width=".6"/><path d="M574.6 502.65l-46 111 64-19zm-121-320l40 113 72-142z" fill="none" stroke="#de6551" stroke-width=".6"/><path d="M483.6 509.65l45 104 46-111zm18-507l-14 89 55 13z" fill="none" stroke="#de6551" stroke-width=".6"/><path d="M503.6 454.65l-20 55 91-7zm39-350l-89 78 112-29z" fill="none" stroke="#de6551" stroke-width=".6"/><path d="M487.6 91.65l-34 91 89-78zm-4 418l7 143 38-39z" fill="none" stroke="#de6551" stroke-width=".6"/><path d="M483.6 509.65l-131 45 138 98zm10-214l-27 97 52-77z" fill="none" stroke="#de6551" stroke-width=".6"/><path d="M410.6 290.65l56 102 27-97z" fill="none" stroke="#de6551" stroke-width=".6"/><path d="M453.6 182.65l-43 108 83 5zm-58-177l92 86 14-89zm-28 464l116 40 20-55z" fill="none" stroke="#de6551" stroke-width=".6"/><path d="M466.6 392.65l-99 77 136-15zm-71-234l58 24 34-91zm-43 396l-10 107 148-9zm-10 107l138 35 10-44zm53-656l-52 114 144-28z" fill="none" stroke="#de6551" stroke-width=".6"/><path d="M343.6 119.65l52 39 92-67zm24 350l-15 85 131-45zm28-311l15 132 43-108zm15 132l-62 35 118 67zm-62 35l19 144 99-77z" fill="none" stroke="#de6551" stroke-width=".6"/><path d="M348.6 325.65l-59 65 78 79zm-86-151l-6 100 139-116zm64-173l17 118 52-114zm69 157l-139 116 154 16zm-139 116l92 51 62-35z" fill="none" stroke="#de6551" stroke-width=".6"/><path d="M343.6 119.65l-31 5 83 34z" fill="none" stroke="#de6551" stroke-width=".6"/><path d="M312.6 124.65l-50 50 133-16zm14-123l-14 123 31-5zm-53 590l69 70 10-107zm-10-147l89 110 15-85z" fill="none" stroke="#de6551" stroke-width=".6"/><path d="M289.6 390.65l-26 54 104 25zm-16 201l45 83 24-13zm-10-147l10 147 79-37zm-7-170l33 116 59-65zm-28-58l28 58 6-100z" fill="none" stroke="#de6551" stroke-width=".6"/><path d="M263.6 444.65l-87 113 97 34zm10 147l-31 8 76 75zm-115-463l104 46 50-50zm98 146l-74 60 107 56zm-93 206l13 77 87-113zm13 77l66 42 31-8zm6-223l81 110 26-54z" fill="none" stroke="#de6551" stroke-width=".6"/><path d="M182.6 334.65l-43 100 124 10zm-24-206l70 88 34-42zm-19 306l24 46 100-36zm89-218l-72 72 100-14zm-72 72l26 46 74-60zm20 269l-66 40 132 2zm-101-523l78 94h5z" fill="none" stroke="#de6551" stroke-width=".6"/><path d="M158.6 128.65l-57 47 127 41zm-57 47l19 79 108-38z" fill="none" stroke="#de6551" stroke-width=".6"/><path d="M120.6 254.65l36 34 72-72zm33-126l-52 47 57-47h-5zm10 352l-68 36 81 41zm-7-192l-34 41 60 5zm-34 41l17 105 43-100zm-27 187l15 81 66-40zm-20-482l-37 72 115 22z" fill="none" stroke="#de6551" stroke-width=".6"/><path d="M139.6 434.65l-44 82 68-36zm-17-105l-65 4 82 101zm-2-75l2 75 34-41zm-82-148l63 69 52-47z" fill="none" stroke="#de6551" stroke-width=".6"/><path d="M120.6 254.65l-57 8 59 67zm-116 201l91 61 44-82z" fill="none" stroke="#de6551" stroke-width=".6"/><path d="M57.6 333.65l-53 122 135-21zm-53 122l22 53 69 8zm97-280l-38 87 57-8zm-38 87l-6 71 65-4zm32 254l-75 85 90-4z" fill="none" stroke="#de6551" stroke-width=".6"/><path d="M26.6 508.65l-6 93 75-85zm-26-302l63 56 38-87z" fill="none" stroke="#de6551" stroke-width=".6"/><path d="M38.6 106.65l-38 100 101-31zm-27-62l27 62 37-72zm-11 162l57 127 6-71z" fill="none" stroke="#de6551" stroke-width=".6"/><path d="M.6 206.65l4 249 53-122zm11-162l-11 162 38-100zm-7 411l16 146 6-93z" fill="none" stroke="#de6551" stroke-width=".6"/></svg>