<svg version="1" xmlns="http://www.w3.org/2000/svg" width="740" height="740" viewBox="0 0 555.000000 555.000000"><path d="M95.7 129.6c-.1.1-3.8.4-8.2.8-11.2.9-12.9 1.2-22.9 4.1-16.6 4.8-30.3 13-43 25.6l-7.9 7.8 3.3 3.8c1.8 2.1 5.8 6.6 8.8 10l5.5 6.2 6.7-6.3c3.7-3.4 10.1-8.4 14.2-10.9 7.2-4.5 20.6-10.1 26.5-11.1 1.6-.3 4.4-.8 6.3-1.2 4.3-.8 20.2-.7 25 .1 21.9 3.7 37.3 15.5 41.6 31.7 1.5 6.2 1.3 16.6-.6 22.3-4 12.3-15.7 21.6-33 26-8.2 2.1-8.9 2.2-30.7 2.4L69 241v28.5h19.3c26.1 0 32.6 1.1 46.4 7.6 14.5 6.9 21.3 17.5 21.9 34.1.8 23.4-12.8 40-38.1 46.4-9.2 2.3-29.2 2.3-39 .1-18.2-4.2-31.5-11.4-43.8-23.8l-6.8-6.9-8.9 9.2c-4.9 5.1-8.9 9.9-9 10.6 0 .7 3.7 5 8.3 9.6 23.5 23.8 56.7 34.2 96.2 30.3 39-3.8 68.1-28.6 72.1-61.4 3.6-29.4-8.1-50.9-35-64.7-3.7-1.9-9.2-4-12.2-4.7-4.9-1.1-7.4-2.9-4-2.9 3 0 16.4-6.2 22.8-10.6 16.4-11.2 24.7-26.3 24.9-45.4.3-32.3-20.7-56.1-56.7-64.5-6.8-1.6-30.6-3.7-31.7-2.9zm340 0c-.1.1-3.2.4-6.8.8-15.2 1.4-28.2 5.2-42.1 12.1-6.6 3.3-9.7 5.3-15.3 9.5-3.2 2.4-16.5 16-16.5 16.8 0 .4 4.2 5.1 9.3 10.4l9.3 9.8 5.9-6.1c16.8-17.3 36.3-25.1 62-25.1 16.8.1 30.5 5.2 40.5 15.2 8.8 8.7 12 17.8 11.4 32-.8 21.7-11.3 40.7-35.9 65.5-11.7 11.8-18.4 18-34.1 31.6-12.1 10.5-16.6 14.3-48.6 40.2-1.5 1.2-6.5 5.1-11.2 8.7l-8.5 6.5v12.7L355 383h171.6l-.1-13.8v-13.7l-55-.2c-30.3-.1-57.7-.2-61-.3-5.9 0-5.9 0-3.5-1.7 1.4-.9 2.7-1.9 3-2.3.3-.3 5.9-4.9 12.5-10.2 6.6-5.3 13.4-10.9 15-12.3 18.8-16.4 24.7-21.7 39-35.8 29.9-29.2 43.8-51.5 47.8-77 3.7-23-1.8-44.3-15.3-59-11.4-12.4-28.2-21.4-47.2-25.3-4.1-.8-25.5-2.3-26.1-1.8zM268 144c-24.5 25-51.5 53.1-51.8 53.8-.1.4 4 4.9 9.1 10l9.3 9.3 13-13.7c7.1-7.5 13.4-14.2 13.9-14.8 5.9-6.7 12.5-13.3 12.8-12.8.2.4.3 47.2.3 103.9l-.1 103.3h31.2l-.1-124.7-.1-124.8-13.5-.1-13.5-.1L268 144z"/></svg>