<?xml version="1.0" standalone="no"?>
<!DOCTYPE svg PUBLIC "-//W3C//DTD SVG 20010904//EN"
 "http://www.w3.org/TR/2001/REC-SVG-20010904/DTD/svg10.dtd">
<svg version="1.0" xmlns="http://www.w3.org/2000/svg"
 width="700.000000pt" height="700.000000pt" viewBox="0 0 700.000000 700.000000"
 preserveAspectRatio="xMidYMid meet">
<metadata>
Created by potrace 1.11, written by Peter Selinger 2001-2013
</metadata>
<g transform="translate(0.000000,700.000000) scale(0.100000,-0.100000)"
fill="#000000" stroke="none">
<path d="M1867 6536 c-23 -10 -84 -61 -196 -163 -20 -18 -50 -38 -67 -43 -17
-6 -36 -21 -42 -33 -9 -18 -18 -100 -21 -188 -1 -11 -9 -15 -28 -14 -64 4 -84
-27 -88 -139 -2 -44 -6 -164 -10 -266 -4 -102 -8 -200 -8 -217 0 -18 -3 -33
-6 -34 -20 -4 -137 -7 -439 -13 -189 -4 -354 -11 -366 -16 -46 -17 -47 -23
-61 -255 -3 -55 -8 -138 -10 -185 -3 -47 -7 -121 -10 -165 -3 -44 -7 -125 -10
-180 -3 -55 -7 -136 -10 -180 -10 -173 -15 -253 -20 -325 -2 -41 -7 -118 -10
-170 -5 -100 -14 -255 -20 -355 -2 -33 -7 -109 -10 -170 -9 -174 -15 -265 -20
-340 -6 -94 -15 -252 -20 -350 -4 -81 -13 -227 -20 -345 -2 -36 -7 -117 -10
-180 -4 -63 -8 -140 -10 -170 -7 -113 -17 -287 -20 -340 -3 -50 -13 -232 -20
-335 -1 -22 -6 -107 -9 -190 -8 -167 -5 -180 51 -191 26 -5 37 -1 57 19 22 22
26 36 27 84 0 32 2 69 4 83 1 14 6 86 9 160 4 74 9 155 11 180 2 25 6 97 9
160 4 63 9 147 11 185 3 39 7 117 10 175 3 58 8 132 10 165 2 33 7 105 10 160
3 55 8 138 10 185 3 47 7 121 10 165 3 44 7 123 10 175 9 143 14 233 20 360 8
146 13 201 20 208 3 3 49 7 103 8 121 2 575 12 867 20 121 3 290 7 376 9 l157
3 -3 -155 c-2 -85 -5 -156 -7 -157 -2 -1 -46 -22 -98 -46 -191 -87 -406 -220
-579 -359 -173 -138 -391 -367 -507 -531 -21 -30 -41 -57 -44 -60 -10 -9 -87
-144 -122 -215 -236 -476 -175 -975 160 -1303 204 -199 446 -251 783 -166 189
48 332 112 899 400 325 165 388 193 540 245 171 57 248 71 385 71 242 0 455
-72 940 -322 508 -261 608 -307 798 -369 234 -76 432 -86 600 -30 249 83 480
361 548 659 34 148 33 340 0 495 -21 93 -75 239 -128 344 -58 113 -55 100 -68
361 -3 63 -7 149 -10 190 -2 41 -7 134 -10 205 -4 72 -8 157 -10 190 -2 33 -6
116 -9 185 -4 69 -9 157 -11 195 -2 39 -7 124 -10 190 -3 66 -8 156 -10 200
-3 44 -7 130 -10 190 -3 61 -8 154 -11 208 l-6 97 146 0 c109 0 146 -3 147
-12 1 -7 3 -22 4 -33 1 -11 6 -74 9 -140 4 -66 9 -147 11 -180 2 -33 7 -107
10 -165 3 -58 7 -130 10 -160 2 -30 6 -109 10 -175 3 -66 8 -147 10 -180 2
-33 7 -105 10 -160 3 -55 8 -131 10 -170 3 -38 7 -110 10 -160 7 -135 15 -273
20 -340 2 -33 7 -109 10 -170 4 -60 8 -139 10 -175 3 -36 7 -108 10 -160 9
-161 16 -273 20 -330 2 -30 7 -107 10 -171 7 -142 14 -170 46 -188 31 -17 74
-8 89 19 14 25 14 45 5 180 -7 117 -9 137 -19 340 -4 63 -8 138 -11 165 -2 28
-7 100 -10 160 -3 61 -8 139 -10 175 -3 36 -7 108 -10 160 -3 52 -8 122 -10
155 -2 33 -7 110 -10 170 -3 61 -8 139 -10 175 -3 36 -7 110 -10 165 -3 55 -7
129 -10 165 -3 36 -7 112 -10 170 -3 58 -8 134 -10 170 -2 36 -7 110 -10 165
-3 55 -7 132 -10 170 -6 89 -16 252 -20 330 -3 53 1 66 27 107 23 37 28 54 23
77 -13 59 -10 59 -335 60 l-165 1 -1 43 c-1 58 -16 354 -19 397 -2 19 -4 67
-5 106 -3 67 -1 75 34 126 42 64 45 96 13 126 -18 17 -36 22 -75 22 -35 0 -52
4 -53 13 0 6 -2 28 -4 47 -11 121 -7 176 14 223 21 45 21 49 5 82 -13 29 -22
35 -48 36 -17 0 -174 3 -350 5 -269 4 -322 2 -341 -10 -21 -14 -151 -298 -161
-353 -2 -13 6 -33 21 -51 21 -25 25 -40 25 -92 0 -56 -7 -77 -71 -213 -39 -84
-92 -197 -117 -252 -25 -55 -92 -190 -148 -300 -193 -379 -214 -423 -214 -444
0 -21 27 -55 50 -63 12 -4 13 -17 25 -390 l6 -196 -48 15 c-217 67 -483 129
-642 148 -30 4 -61 8 -70 10 -14 2 -103 12 -201 21 -55 6 -329 5 -390 0 -30
-3 -88 -8 -129 -11 -41 -4 -81 -8 -90 -10 -9 -1 -41 -6 -71 -10 -30 -4 -64 -9
-75 -11 -11 -3 -36 -7 -55 -10 -19 -3 -84 -17 -145 -30 -140 -31 -141 -31
-203 -49 l-22 -6 1 648 2 648 -68 195 -67 195 -2 320 -3 320 -48 105 c-45 100
-47 109 -48 195 0 59 -5 100 -15 120 -26 52 -179 279 -214 316 -18 20 -54 62
-80 92 -52 60 -72 70 -111 53z m37 -181 c3 -8 2 -15 -2 -16 -43 -5 -52 -5 -52
1 0 10 23 30 36 30 6 0 14 -7 18 -15z m91 -205 l0 -45 -158 -3 -159 -3 6 38
c3 21 5 43 6 48 0 6 58 10 153 10 l152 0 0 -45z m67 -441 c-2 -139 -5 -255 -6
-257 -9 -8 -511 -6 -509 3 1 9 12 305 16 446 l2 56 185 2 c101 1 185 3 186 4
1 1 31 2 66 1 l63 -1 -3 -254z m158 -29 c0 -5 5 -21 12 -37 13 -32 19 -191 8
-198 -5 -3 -16 -2 -25 1 -14 6 -16 23 -13 130 1 67 6 120 10 118 4 -3 8 -9 8
-14z m3592 -258 c6 -6 13 -145 9 -179 -1 -10 -50 -13 -211 -13 -161 0 -210 3
-211 13 0 6 -3 53 -5 103 l-4 92 207 -5 c115 -2 211 -7 215 -11z m-3688 -177
c-2 -104 -15 -712 -19 -910 -2 -104 -7 -305 -10 -445 -3 -140 -7 -255 -8 -257
-3 -3 -299 -11 -1052 -28 -137 -4 -294 -8 -349 -9 l-98 -3 7 136 c3 75 8 156
10 181 1 25 6 101 10 170 3 69 8 145 10 170 2 25 6 101 10 170 3 69 8 150 10
180 2 30 6 109 10 175 3 66 8 136 10 155 3 28 17 285 18 338 0 8 20 12 61 13
34 0 117 2 186 4 69 2 269 6 445 10 176 3 320 7 322 8 1 1 97 2 215 2 l213 0
-1 -60z m3782 -235 c1 -35 16 -327 18 -376 l3 -40 -269 0 -268 0 -1 40 c-1 23
-2 64 -4 91 -1 28 -6 110 -9 183 l-7 132 268 -2 268 -3 1 -25z m-3526 -1050
c0 -354 -2 -645 -3 -646 -1 -2 -35 58 -75 131 l-73 134 5 268 c3 147 8 394 12
548 5 284 12 542 14 560 0 6 28 -71 61 -170 l60 -180 -1 -645z m2865 740 c3
-69 8 -160 10 -202 l5 -78 -115 0 -115 0 102 205 c56 112 103 203 105 202 1
-1 4 -59 8 -127z m266 -249 c3 -1 7 -31 8 -68 1 -38 4 -93 6 -123 2 -30 6
-116 10 -190 3 -74 8 -173 10 -220 3 -47 7 -132 10 -190 11 -255 15 -340 20
-420 2 -47 7 -146 11 -220 3 -74 7 -161 9 -192 3 -65 6 -65 -73 -3 l-51 40 -1
70 c-1 39 -3 93 -5 120 -1 28 -6 118 -9 200 -4 83 -9 186 -11 230 -6 106 -13
260 -20 420 -3 72 -8 159 -10 195 -9 130 -15 342 -11 348 3 6 78 8 107 3z
m183 -146 c4 -77 9 -183 11 -235 3 -52 7 -142 10 -200 2 -58 7 -152 10 -210 7
-136 13 -243 20 -410 3 -74 8 -166 10 -205 3 -38 7 -126 10 -195 3 -69 8 -152
10 -185 l3 -60 -19 24 c-14 17 -19 40 -20 85 -1 33 -2 81 -3 106 -2 25 -6 115
-10 200 -4 85 -9 182 -11 215 -2 33 -7 130 -10 215 -4 85 -8 182 -10 215 -2
33 -7 121 -10 195 -16 354 -27 545 -30 550 -1 3 1 16 6 29 18 46 27 7 33 -134z
m238 141 c3 -24 6 -67 12 -186 4 -69 9 -161 11 -205 7 -120 14 -259 19 -360
14 -271 17 -336 21 -400 4 -66 10 -195 20 -400 3 -49 7 -124 9 -165 3 -41 8
-136 12 -210 4 -74 8 -150 9 -167 1 -18 -1 -33 -4 -33 -3 1 -31 32 -61 70 -39
49 -55 79 -56 102 -9 184 -15 315 -19 373 -3 39 -7 129 -10 200 -3 72 -7 162
-10 200 -4 62 -13 256 -20 415 -3 58 -14 291 -20 420 -16 301 -17 343 -7 349
18 11 92 9 94 -3z m-661 -278 c1 -24 2 -59 4 -78 3 -42 14 -286 20 -420 2 -52
6 -142 10 -200 3 -58 7 -151 10 -207 3 -57 7 -148 10 -204 l5 -101 -32 20
c-78 48 -146 86 -210 118 -63 32 -68 37 -69 67 0 17 -2 91 -4 162 -5 148 -12
377 -21 678 l-6 207 141 0 141 0 1 -42z m-415 -221 c0 -28 4 -167 8 -307 5
-140 9 -298 11 -351 l3 -96 -37 14 c-30 12 -37 20 -38 41 -1 49 -14 395 -18
503 -5 88 -2 113 13 145 21 47 52 104 55 104 1 0 2 -24 3 -53z m-1156 -621
c36 -4 81 -8 100 -11 19 -2 55 -6 80 -9 25 -4 65 -9 90 -12 77 -9 290 -53 407
-85 441 -116 801 -291 1128 -547 60 -47 328 -310 375 -367 179 -220 294 -430
349 -638 28 -102 46 -267 30 -267 -5 0 -42 22 -82 48 -328 220 -758 414 -1181
531 -198 55 -413 105 -501 117 -16 2 -41 6 -55 8 -14 3 -45 8 -70 11 -25 3
-52 8 -60 10 -8 2 -40 7 -70 10 -30 3 -71 7 -90 10 -161 22 -342 30 -655 30
-316 0 -488 -8 -635 -30 -14 -2 -50 -7 -80 -10 -718 -87 -1483 -376 -1979
-747 -40 -30 -67 -44 -71 -38 -10 16 -4 136 10 221 49 295 223 592 525 895
355 357 725 570 1263 729 68 20 131 38 140 40 164 35 384 75 442 81 41 3 78 8
81 10 3 2 57 6 120 10 63 3 115 7 117 9 4 3 202 -3 272 -9z m-1456 -78 c-11
-17 -24 -6 -24 19 0 26 1 26 14 8 8 -11 12 -23 10 -27z m1671 -1231 c22 -3 73
-8 114 -12 97 -7 287 -32 386 -50 44 -8 94 -17 110 -20 41 -7 60 -11 140 -30
39 -9 81 -19 95 -21 53 -10 310 -85 420 -123 391 -133 710 -292 1003 -498 60
-43 67 -51 61 -73 -3 -14 -7 -29 -8 -35 -13 -66 -71 -189 -127 -272 -50 -74
-159 -175 -228 -212 -104 -55 -175 -70 -314 -67 -215 4 -377 61 -837 295 -580
294 -601 303 -764 361 -72 26 -178 58 -210 64 -6 2 -38 8 -71 16 -33 7 -118
13 -190 13 -182 0 -365 -44 -605 -144 -30 -13 -239 -116 -465 -230 -518 -261
-598 -296 -815 -355 -80 -22 -313 -26 -375 -6 -189 61 -341 204 -434 409 -17
40 -34 87 -37 105 -5 30 -1 37 40 71 130 107 420 283 639 387 314 148 755 292
1052 344 17 3 55 10 85 16 30 6 71 13 90 16 19 3 80 11 135 19 55 7 130 16
168 19 142 12 202 18 205 21 6 5 694 -3 737 -8z"/>
</g>
</svg>
