<svg xmlns="http://www.w3.org/2000/svg" viewBox="0 0 1994.6 1088.1">
  <path fill="#4B4B77" d="M453.4 22.8c24.2 15.1 41.3 33.6 51.4 55.2 15.1 34.6 31.9 72.2 50.2 113s36.9 82.1 55.2 123.9c18.3 41.8 36.1 82.6 52.9 122.2s32.2 75.9 45.5 108.8c13.4 32.9 24 60.8 31.9 83.9 7.9 23 11.9 38.3 11.9 45.5 0 12.4-1.7 24.2-4.9 36.1-3.2 11.9-9.2 22.8-17.8 32.4-8.7 9.6-20.8 17.6-36.1 23.3-15.6 5.7-35.6 8.7-60.1 8.7-26 0-47-3.5-63.3-10.4-16.3-6.9-29.7-15.6-40.6-26.5-10.9-10.9-19.8-22.3-27-34.1s-14.6-23.3-22.3-34.1-16.3-19.5-26-26.5c-9.6-6.9-23-10.4-39.6-10.4h-69.3c-20.3 0-36.1 3.5-48.2 10.4-11.9 6.9-21.5 15.6-29.2 26.5-7.7 10.9-14.6 22.3-21 34.1-6.4 11.9-14.8 23.3-25 34.1s-23.3 19.5-39.6 26.5c-16.3 6.9-38.1 10.4-65.5 10.4-40.3 0-70-8.9-88.8-27C9.4 730.7 0 709.4 0 684.9c0-9.4 3.7-25.7 11.4-49.2 7.7-23.5 17.8-51.4 30.9-83.8 13.6-32.6 28.4-68.5 45-108.3 16.6-39.6 34.1-80.6 52.9-122.7 18.8-42.3 37.6-84.3 56.1-126.6 18.8-42.3 36.9-82.9 54.2-121.7 10.1-22.3 27-40.1 50.2-52.9C324.3 6.7 350.2 0 379.2 0c25.2 0 49.9 7.7 74.2 22.8zm874.8 3.7c18.8 17.1 28.2 38.8 28.2 65.5 0 15.1-3.7 34.9-11.4 59.6-7.7 24.5-17.3 52.2-29.2 83.4-11.9 30.9-25.7 64.6-41.1 100.7-15.6 36.1-31.2 72.7-47 110.3-21.5 51.2-40.3 97.2-55.7 138-15.6 40.8-31.4 75.4-47.5 103.9-16.3 28.4-33.9 50.5-52.9 66-19 15.6-42.8 23.3-70.7 23.3-28.9 0-52.9-6.2-72-19-19-12.6-36.4-31.7-51.9-57.4-15.6-25.5-30.7-57.9-45.5-96.7-14.8-38.8-32.2-85.1-52.4-138.5-15.1-40.3-30.7-79.9-46.5-118.5-15.8-38.6-30.2-74.2-43.3-106.6-12.9-32.4-23.5-61.6-31.9-87.1-8.2-25.5-12.4-45.5-12.4-60.1 0-33.1 11.1-56.9 33.6-71.5C701 7.4 728.9.2 762.1.2c30.2 0 53.9 3.7 70.7 11.4s31.7 17.6 43.8 29.7c8.7 8.7 17.3 21.3 26 37.8 8.7 16.6 16.8 34.9 24.2 54.7 7.7 19.8 15.1 39.8 22.8 60.1 7.7 20.3 14.6 38.8 21 55.7 6.4 17.1 12.9 30.7 19 41.1 6.2 10.4 11.6 15.6 16.8 15.6 5.7 0 11.6-5.2 17.8-15.6s12.4-24 19-40.6c6.4-16.6 13.1-34.9 20-54.7s14.1-39.6 21.5-58.9c7.4-19.3 15.6-37.3 23.7-53.4 8.2-16.3 16.8-28.7 25.5-37.3 7.9-7.9 15.6-14.6 23.3-20 7.7-5.4 15.8-9.9 25-13.6 8.9-3.7 19.3-6.2 30.9-8.2 11.6-1.7 25.5-2.7 42.3-2.7 29.6-.1 54 8.3 72.8 25.2zm367.4-3.7c24.2 15.1 41.3 33.6 51.4 55.2 15.1 34.6 31.9 72.2 50.2 113 18.3 40.8 36.9 82.1 55.2 123.9s36.1 82.6 52.9 122.2c16.8 39.6 32.2 75.9 45.5 108.8 13.4 32.9 24 60.8 31.9 83.9 7.9 23 11.9 38.3 11.9 45.5 0 12.4-1.7 24.2-4.9 36.1-3.2 11.9-9.2 22.8-17.8 32.4-8.7 9.6-20.8 17.6-36.1 23.3-15.6 5.7-35.6 8.7-60.1 8.7-26 0-47-3.5-63.3-10.4-16.3-6.9-29.7-15.6-40.6-26.5-10.9-10.9-19.8-22.3-27-34.1s-14.6-23.3-22.3-34.1c-7.7-10.9-16.3-19.5-26-26.5-9.6-6.9-23-10.4-39.6-10.4h-69.3c-20.3 0-36.1 3.5-48.2 10.4-11.9 6.9-21.5 15.6-29.2 26.5-7.7 10.9-14.6 22.3-21 34.1s-14.8 23.3-25 34.1c-10.1 10.9-23.3 19.5-39.6 26.5-16.3 6.9-38.1 10.4-65.5 10.4-40.3 0-70-8.9-88.8-27-18.8-18.1-28.2-39.3-28.2-63.8 0-9.4 3.7-25.7 11.4-49.2 7.7-23.5 17.8-51.4 30.9-83.8 12.9-32.4 27.7-68.5 44.3-108.1 16.6-39.6 34.1-80.6 52.9-122.7 18.8-42.3 37.6-84.3 56.1-126.6 18.8-42.3 36.9-82.9 54.2-121.7 10.1-22.3 27-40.1 50.2-52.9C1565.6 7.1 1591.6.5 1620.5.5c26.1-.5 50.8 7.2 75.1 22.3z"/>
  <path fill="#E0C7C1" d="M376.7 1088.1c5.9 0 11.6-3.2 14.3-8.7 0-.2 23.5-43.5 46.7-94.7 11.6-25.7 23.5-53.2 32.4-78.7 4.5-12.9 8.2-25 10.9-36.1 2.7-11.4 4.5-21.8 4.5-31.2 0-36.9-13.6-69.8-36.4-92.5-19-19-44.8-30.7-72.7-30.7s-53.7 11.6-72.7 30.7c-22.5 22.5-36.4 55.4-36.4 92.5 0 9.6 1.7 20 4.5 31.2 4.7 19.8 12.9 42.3 22 65.5 27.9 69.5 68 143.7 68 144.2 3.3 5 8.7 8.5 14.9 8.5zm1242.2 0c5.9 0 11.6-3.2 14.3-8.7 0-.2 23.5-43.5 46.7-94.7 11.6-25.7 23.5-53.2 32.4-78.7 4.5-12.9 8.2-25 10.9-36.1 2.7-11.4 4.5-21.8 4.5-31.2 0-36.9-13.6-69.8-36.4-92.5-19-19-44.8-30.7-72.7-30.7-27.9 0-53.7 11.6-72.7 30.7-22.5 22.5-36.4 55.4-36.4 92.5 0 9.6 1.7 20 4.5 31.2 4.7 19.8 12.9 42.3 22 65.5 27.9 69.5 68 143.7 68 144.2 3.2 5 8.7 8.5 14.9 8.5z"/>
</svg>
