<svg xmlns="http://www.w3.org/2000/svg" viewBox="0 0 2500 973.2">
  <path d="M1714.6 85.9l-.6-5.4-8.7.7.6 5.4zm58.3 140.3l.2 3 6.1-.6c-.2-1.8.6-4.8 1.8-8.5l-.6-5.4c-2.5.3-5.1 4.2-7.5 11.5zm-227.7 176.7c-.4-5-15.9-24.4-46.5-58.5-.6-6.3 10-15.7 31.6-28.1l61.7-53.7c13.8-17.5 22-46 24.4-85.5l-.7-9q-3.6-41-59.6-66.1-33.3-22.5-119.6-24.7c-47.6 4.1-109.9 21-186.5 51.1a753.74 753.74 0 0 1-72 45.4l.4 4.6a17.61 17.61 0 0 0 7.2-3.1c3.1-.4 5 1.1 5.2 4.1l4.6-2.4 2.2-.2.2 2c.2 2.4-16.4 15.5-50 39l2.6 4.8-2.2.2-5.5-2c.2 1.7-2.2 2.8-6.8 3.1l.2 2 5.4 6.6c-1.7.2-4.2-.6-7.8-1.8-7.8.7-15.3 4.8-22.9 12.6l3.1-13.7q17-72.9 23.1-128.9l-.6-2.4a92.18 92.18 0 0 1-22.3-20.9c.2-5.7.2-9 0-9.8l-.6-2-2.2.6q-36.6 54.9-140.9 187.2-79.5 94.2-82 104.7-32.4 33.4-30.8 40.4c-5.7 3.7-8.1 7.4-7.2 11.4-1.7.4-2.8-.2-3.1-1.8q-13.8 22.5-41.2 28.8l-19.2 4.4c-2.6.6-3.9 2.4-3.7 5.5l.6 2.4 7.2-1.7.6 2-16.3 6.3-28.8 6.6-15.5 1.1c-2.2 2.2 12-.2 6.5 1.1l-18.8 4.4c-11.5 2.6-17.7 1.7-18.8-3l-2.2.6a10 10 0 0 1 .2 4.8l-1.1-4.6-15.1 3.5q-1.65-10.5-61.3-76.4c-.7-8.5 13.3-20.9 41.9-36.9l80.9-71.1q27.15-34.95 32.3-111.9l-1.1-12c-3.1-36.2-29.4-65.4-78.7-87.9-29.2-19.8-81.6-30.3-157.3-31.9q-94.2 8.1-245.6 66.7a938.92 938.92 0 0 1-94.7 59.8l.6 6.3c2.4-.2 5.5-1.5 9.4-3.7 4.1-.4 6.3 1.5 6.7 5.2l6.3-3.5 3.1-.2.2 3c.2 3-21.8 20.1-66.3 51.5l3.5 5.5-3.1.2-6.8-2.4c.2 1.8-3 3.1-9.4 3.7l.4 3.3 7.4 8.1c-2.4.2-5.7-.6-10-2-14.4 1.3-28.4 11.6-42.3 31.2l3.5 5.5c12-11.1 19-16.6 21-16.8l.7 9c-2 .2-5.2 1.5-9.4 3.7l7.6 11.5a248.54 248.54 0 0 1 48.2-40.4c8.7 2.2 13.3 5 13.5 7.9l6.6-.6q71.4-53 141.4-76.4l.6 6.3c-8.7 12.9-14.6 19.6-17.7 19.9a20.18 20.18 0 0 0 4.6 11.6c.7 7.9-20.5 61.5-63.5 160.4Q107.9 721.65 8.3 886.9c.2 2.2 1.5 5.2 3.9 8.9 16.4-3.9 26.8-7.9 31.2-11.8l3.5-.4.6 6.3 6.1-.6 6.3-3.5c.2 1.8 2.2 2.8 6.5 2.4l.6 6.3c.6 6.1-3 15.3-10.3 28.1-6.6 7.6-13.8 23.4-21.4 47.6l.2 3 6.1-.6c26.6-29.7 46.7-58.9 60.6-87.3q116.25-34.05 177.6-67c41.2-3.5 72.6-14.4 94-32.3l-.4-3.3-15.5 4.6-3.5.4-.4-3.3c30.3-4.6 51.1-11.3 62.8-20.5q88.35-68.1 133.5-96.6 92.85-68.1 120.4-132.8c3.5-.8 6.9-1.6 10.3-2.4 8.7-.4 13.5-.6 14.8-.9-.4-1.7.4-2.6 2-3 13.8-1.5 7.2.9 16.1-1.1l23.3-5.4c-1.5.4-2 1.1-1.7 2.6l3.5-2.2a4.78 4.78 0 0 1-1.8-.4l3.9-.9-1.8 1.1a21 21 0 0 0 8.5-.6l1.7 6.8-106.2 168.2-23.5 29.4-11.4 38.4 2.2-.6 11.4-4.8-3.7 15 1.1 4.4 3.1 3.9c-1.5.4-2 1.3-1.7 3l.6 2.4 4.8-1.1c7-6.1 10-11.6 8.9-16.6 7.6 1.3 12.6 1.8 15.1 1.1l.6 2.4c-4.6 1.1-7 4.8-7.4 11.1l.6 2.4 2.6-.6c38.4-41.9 132.6-185.4 208.1-282.7-2.4-10.5 36.9-25.1 118.2-43.9l2.6-.6q4.5 19.05-18.8 92.5c-10 29.5-14.8 45.8-14 48.4q-19.35 58.95-18.3 63.9L895.6 758a861.19 861.19 0 0 0-42.8 152.7c1.7-.4 4.2-.2 7.9.7l4.1-3.5c.4 1.7 1.5 2.2 3.1 1.8l-1.7-6.8 12.6-.4c3.7-.9 6.8-5.5 9.4-14-.6-12.7 2-19.6 7.8-21 7.8-30.3 12.6-45.4 14.2-46q10.8-45.15 16.1-51.5c10.9-39.1 18.8-59.3 24-60.6l1.1 4.8-7.9 20.5q-20.7 92.25-42.1 145.7l4.1 17.7 2.6-.6q51.45-110.85 148.3-438.7c1.9-19.2 11.1-34.2 27.5-44.7l-3.7-3.9-.6-2c7.4-1.7 12.6-4.6 15.5-8.7-.4-1.7-6.8-4.1-19.4-7.4l32.1-137.7c7-6.3 11.1-9.6 12.4-9.6l.6 7a17.61 17.61 0 0 0-7.2 3.1l6.1 8.7a199.56 199.56 0 0 1 36.2-31c6.6 1.8 10 4.1 10.3 6.3l4.8-.4q54.9-40.2 107.6-57.6l.4 4.6c-6.5 9.8-10.9 14.8-13.3 15a20.47 20.47 0 0 0 3 8.9q.9 9.15-47.8 122-111.3 261.75-187 387.4c.2 1.7 1.3 3.9 3.3 6.8 12.4-3 20.3-6.1 23.4-9l2.2-.2.4 4.6 5.2-.4 4.6-2.4c.2 1.3 1.8 1.9 5 1.7l.4 5c.4 4.4-2.2 11.4-7.9 21-5.4 5.7-10.9 17.7-16.8 36l.2 2.4 4.8-.4q30.15-33.75 46-66.5c58.9-17.4 103.8-34.2 134.8-50.8 31.6-2.8 55.4-10.9 71.6-24.6l-.2-2.4-12 3.5-2.6.2-.2-2.4c22.9-3.3 39-8.5 47.6-15.3 44.7-34.3 78.5-58.9 101.4-73.3 71-51.7 104.2-101.5 100.1-149.4zm-12.1 3.2l1.7 18.6c-2.2 4.6-4.6 7-6.8 7.2l-2.8-31.8c5.1 1.9 7.7 3.8 7.9 6zM135 255.8l-3.1.2-.6-5.7 12.7-1.1.2 3c-2 .1-5.2 1.2-9.2 3.6zM72.7 878.2c-7.4-3.3-14-4.6-19.8-4.1l-.7-9c-.4-3.5 1.7-5.9 6.1-6.8 4.1-.4 6.5 2.6 6.8 8.5 10.7-13.1 16.6-19.8 17.7-19.9l6.8 2.8c-2.1 18.3-7.8 27.8-16.9 28.5zm664.9-695.5c-3.1.4-9.4-9.4-18.5-28.8l-.6-5.7c5.9-.6 12 9 18.5 28.8zm-8.8-68.9l-2.6 6.1-90.3-37.7q90.3 3.15 92.9 31.6zM347.5 441.2l-12.7 1.1-.6-5.7 12.7-1.1zm-10.4-196.7l3.1-.2.7 9c-3 .2-6.8 4.6-11.6 13.1l-.6-6.3c5.9-6.7 8.8-11.9 8.4-15.6zm-26.7 63.2l1.1 12-3.1.2-1.1-12zm-14.1 22.5l6.1-.6c-.6 10-3.3 15.3-8.3 15.7l-3.1.2c3.9-6.6 5.7-11.8 5.3-15.3zm-10.5 31.4l3.5-.4.2 3-5.7 9.6-6.1.6-.2-3c6.1-.6 8.9-3.7 8.3-9.8zm-10.3 28.2l-1.8 15.1-3.1.2-1.3-15zM171.9 684.3c-4.1 20.7-8.5 31.2-13.1 31.6l-.2-3c-1.1-10.1 3.3-19.7 13.3-28.6zm-19 41.2l.2 3c.4 4.1-1.5 6.5-5.5 6.6l-.2-3c-.4-3.5 1.4-5.7 5.5-6.6zm-5.6 85.5l9.6-.9.4 3.3c-2.4.2-5.5 1.5-9.4 3.7l-6.1.6c-.4-3.2 1.7-5.6 5.5-6.7zm273.3-84.4c-53.9 26.6-85.7 44.7-95.1 54.1q-87.45 30.45-86.8 37.9-77.85 30.75-102.5 45.1c-3.9.4-9.4-1.1-16.8-4.4-.9-10.5 3.9-19 14-25.8a55 55 0 0 1 26 4.1c9.6-5 26.4-10.5 50.2-16.4l-.6-6.3-19.2 1.7q3.6-4.95 55.6-26l9.6-.9.2 3c-16.4 1.5-25.5 6.3-27.5 15 .4 3.9 2.6 5.5 6.7 5.2 12.4-7.8 18.5-12.4 18.3-13.7q35.3-6.6 194.4-101.7l.6 5.7c.2 2.4-8.8 10.1-27.1 23.4zm-162.8 53.5a63 63 0 0 0 39.9-18.5c4.4-.4 6.8 1.3 7 5.2-7.6.7-22.2 7-43.4 19.2l-3.1.2-.4-6.1zm262.7-201.8l-81.4 64.4c-60.6 39.7-93.1 59.6-97.7 60q-144.6 79.5-179.7 82.5l-3.5.4q4.5-16.35 128.9-263.7 54.9-4.65 172.6-51.1l19.2-1.7c39.7-3.5 69.4 4.2 89 22.7l1.1 12c-14.7 42.6-31 67.3-48.5 74.5zm-159.2-89.5l13.1-1.1.2 3-13.1 1.1zm184.1-31.2l9.6-.9c8.9 4.2 13.5 7.9 13.8 11.3l.2 3c-8.4.6-16.4-3.8-23.6-13.4zm26.1-148.3q-12.75 15.3-69.8 51.9c-12.6 1.1-59.3 19.2-140.1 54.7a26 26 0 0 0-12.9-2.2l-.6-5.7c-.9-11.6 4.2-26.2 15.7-43.9 6.3-33.2 13.1-52.3 20.7-56.9l67.3-151.7q-1.05-14.1 43.2-21.6l9.6-.9.7 8.7c29-4.4 47.1-7 54.1-7.6 53.5-4.6 81.4 6.3 83.6 32.3l6.1-.6-1.3-15.3 6.6-.6c15.7 8.7 24.2 19.2 25.3 31.6.7 8.5-3.9 19-13.7 31.6-4.1.4-6.5-2.6-6.8-8.5l-6.6.6-1.5 18.5c-27.1 40.6-46.9 61.5-59.1 62.6-10.9 15.3-17.8 22.8-20.5 23zm41.3 106.2c-5.5-3.7-10-5.4-13.3-5.2l-.7-9 6.1-.6 13.5 7.9c.5 4.3-1.3 6.5-5.6 6.9zm42.8 50.8c5.9 2.4 9.4 5 10.2 7.4l-3 .7.2.2a6.46 6.46 0 0 0-1.9.4l-4.4 3.5zm4.1 25.4l-.6-2.4 7.8-1.8.6 2.4zm18.7 20.9c7.9-1.3 11.8-1.8 26.6-5.2l.6 2.4-28.1 6.5c.3-1.3.7-2.6.9-3.7zm27.3 11.6c-11.8 1.1-9.2-.4-28.1 3.9l-.6-2.4 23.5-7.6 11.3-2.6 1.1 4.4c-5 1.2-1.3 1.2-7.2 4.3zm24.9-5.9c-2.8.7-5-.6-6.3-3.7l7.2-1.7c3.1-.7 5.2.6 5.9 3.7l-6.8 1.7zm67.6-72.7l-.6-2.4 11.6-2.8 1.1 4.4zm72.2 442.7a20.75 20.75 0 0 0 .6-7.4l2.6-.6q4.65-1.05 5.7 3.3l.6 2.4-9.5 2.3zM921 464.6l-5.2-.9a150.44 150.44 0 0 1-21 7l-4.8 1.1c-2.8.7-5-.4-6.1-3.3l33.8-7.8 11.1-5.2 3.7 4.2c-5.4 1.2-9.3 2.9-11.5 4.9zm26-8.3l-.6-2.4c1.7-.4 3.9-1.7 6.3-4.1l24-5.5.6 2.4c-12.7 3.1-22.9 6.3-30.3 9.6zm3.7-48.6c-1.7.4-3.9 1.9-6.7 4.1-.4-1.7-3.7-1.7-10-.2-1.1-4.6 16.6-11.1 53.4-19.6l5.2-1.1 1.1 4.4c-25.8 7.6-40.2 11.9-43 12.4zm64.6-69.8c-2.6 29.4-12.9 46-31.2 50.2l-.6-2.4-16.3 6.3-7.2 1.7a18.68 18.68 0 0 1-10-.2l-1.5-6.5q-.9-3.6 70.5-97.3l5.5.9c2.3 8.6-.9 24.3-9.2 47.3zm114.3-97.8l-2.2.2-.4-4.6 9.6-.9.2 2.4a27.72 27.72 0 0 0-7.2 2.9zm-47.1 472.8c-5.5-2.6-10.5-3.7-14.8-3.3l-.6-7c-.2-2.4 1.3-4.1 4.4-5 3.1-.4 5 1.8 5.4 6.7 7.9-10.2 12.4-15.3 13.3-15.3l5 2c-1.8 14-6 21.4-12.7 21.9zm504.8-528c-2.4.2-7-7.2-14.2-22.2l-.4-4.6c4.6-.4 9.4 6.8 14.2 21.6l.4 5.2zm-6.6-52.8l-2.2 4.8-68.3-28.6c45.6 1.4 69.2 9.4 70.5 23.8zM1291 380.8l-9.6.9-.4-4.6 9.6-.7.4 4.4zm-7.9-149.4l2.6-.2.6 7c-2.4.2-5.4 3.5-8.9 10l-.4-4.6c4.2-5.4 6.2-9.4 6.1-12.2zm-20.2 48l.7 9-2.6.2-.7-9zm-10.9 17.2l4.8-.4c-.6 7.8-2.6 11.8-6.1 12.2l-2.6.2q4.2-7.8 3.9-12zm-7.7 23.6l2.2-.2.2 2.4-4.2 7.4-4.8.4-.2-2.4c4.9-.4 7.1-3 6.8-7.6zm-7.8 21.4l-1.7 11.8-2.2.2-.9-11.6 4.8-.4zm-78.8 224c-3.1 15.5-6.5 23.5-10 23.8l-.2-2c-.5-7.8 2.8-15.2 10.2-21.8zm-14.6 31.2l.2 2c.4 3.3-1.1 5.2-4.4 5.4l-.2-2.4c-.2-2.4 1.3-4.1 4.4-5zm-4.1 65l7.4-.6.2 2.4a21 21 0 0 0-7.2 2.8l-4.8.4c-.2-2.6 1.3-4.3 4.4-5zm207.4-64.1c-40.6 20.1-64.8 33.8-72.4 40.8-44.3 15.5-66.3 25.1-65.9 29-39.3 15.7-65.2 27-77.4 34.2-3 .2-7.2-.9-12.7-3.5-.7-7.9 3-14.4 10.7-19.2a41.14 41.14 0 0 1 19.8 3c7.4-3.7 20.1-7.8 38.2-12.4l-.4-4.6-15.1 1.1q2.85-3.9 42.5-19.9l7.4-.6.2 2c-12.6 1.1-19.6 4.8-21 11.4.2 3 2 4.4 5.2 4.1 9.2-6.1 13.7-9.6 13.7-10.7q26.55-4.65 147.5-77.4l.4 4.6c0 2.1-6.9 8-20.7 18.1zm-123.7 40.6a49.25 49.25 0 0 0 30.6-13.8c3.1-.4 5 1.1 5.2 4.1-5.5.6-16.4 5.2-32.9 14l-2.6.2-.3-4.5zm199.8-153.4l-61.5 49.5c-46 30.1-70.9 45.2-74.8 45.6q-109.65 60.3-136.4 62.6l-2.6.2q3.3-12.45 98-200.2 41.25-3.6 130.9-39.1l15-1.3c30.1-2.6 52.6 3.3 67.4 17.5l.7 9q-16.95 47.7-36.7 56.2zM1301.7 417l9.6-.9.2 2.4-9.6.9zm139.8-23.9l7.4-.6c6.8 3.3 10.3 6.3 10.5 8.7l.2 2c-6.5.7-12.6-2.7-18.1-10.1zm19.4-112.4q-9.75 11.7-52.6 39.5-14.4 1.35-106.4 41.2a24.29 24.29 0 0 0-9.8-1.3l-.4-4.6c-.7-8.9 3.1-19.9 11.6-33.4 4.8-25.5 10.2-39.7 15.7-43l51.5-115.2c-.6-6.8 10.3-12.4 32.5-16.6l7.4-.6.6 7c21.8-3.5 35.4-5.5 41-6.1 40.6-3.5 61.9 4.6 63.5 24.6l4.8-.4-.9-11.1 4.8-.4c11.8 6.5 18.1 14.2 18.8 23.4.6 6.7-2.8 14.8-9.8 24.2-3.1.4-5-1.8-5.4-6.6l-4.8.4-1.5 13.8c-20.5 31.2-35.4 47.3-44.9 48-8.2 11.3-13.3 17-15.7 17.2zm21.6 76.8l-.6-7 4.8-.4 10.3 6.3c.2 3-1.3 4.6-4.4 5-4.4-2.8-7.7-4.1-10.1-3.9zM623 806l-4.8 1.1-4.1 3.5q1.05 4.5 5.7 3.3c3.1-.7 4.4-2.6 3.7-5.5zm-18.3-36.4l.6 2.4c3.1-.7 4.4-2.6 3.7-5.5l-.6-2.4c-3 .7-4.3 2.6-3.7 5.5zm130-309.2l5.5-1.3-1.1-4.8-5.5 1.3 1.1 4.8zm1675.4 140.7c-56.1 12.6-63.1 10.3-75 11.3l.4 4.6 5.2-.4 2.8-.2-.7-.6 6.1-2.4c55.6-6.1 62-3.9 61.5-10.2zm-302.3 40l.4 4.6h.7l-.4-4.6zm-34.7-121.7l-5-1.7c-4.1 10.9-6.1 17.4-5.9 19.2l.2 2c3.9-.1 7.4-6.7 10.7-19.5zm348.4 80.7l.4 4.6 8.1 1.5-.4-4.6-8.1-1.5zm-382 46.7l-12.6-1.5-2.2 4.8.2 2.4 74.8-6.3-.4-4.6-59.8 5.2zm-34-163.7l-.2-2.4-2.6.2-4.6 3 2.6 4.4c3.5-.4 5.2-2.1 4.8-5.2zm451.5 83.1l3.5-.4c2-.2 3-1.8 2.8-4.8l-2-4.4c-12.7 1.1-18.6 1.7-29 7.4l-.2-2.4-15.3 1.5c-.4-4.6-1.7-7-3.7-6.8l-7.9.7c-9.2.7-13.7.4-18.3 3.9-.2-1.7-.7-2.4-1.7-2.4l-8.9.7-5.2 3c-.2-1.7-.7-2.4-1.7-2.4l-3.1 2.8-.2-2.4-12.4-.9-3 .2.4 4.6 6.3 1.7 5.9-.4a10.43 10.43 0 0 0 6.8 1.5l5.2-2.6.2 2c-29 7.2-28.8 5.9-48.7 9.2-2.2-1.5-3.9-2.2-5-2l-.4.4c-2.2-.2-3.5-1.7-3.7-4.1l10.3-1.3c.7 0 1.3.7 7 1.8 8.3-4.1 8.7-5.7 13.1-6.1l-.4-4.6c-28.4 5.5-17 1.9-52.6 5l-1.7.2-.4-4.6c45.8-5.5 30.5-2.4 46.2-6.8.2 1.7.7 2.4 1.7 2.4a10.79 10.79 0 0 1 6.3-3.1l3.1-.2c16.1-1.3 21.4 1.8 53.2-7l.2 2 5.2-2.6 4.8-.4c-.4-4.6 6.6-5.4 9-5.5l-.4-5c-55.8 11.3-70.3 8.1-85.9 12.6l-.2-2c-14.6 2.6-15.1 1.5-18.8 1.7a9.45 9.45 0 0 0-4.6 3c-.2-1.7-.7-2.4-1.8-2.4-.6 0-.7.2-.9.2l-47.3 7.8c-.2-1.3-.7-2-1.8-1.8-24.6 5.2-17.9 6.1-50.8 9a15.14 15.14 0 0 0-6.1 2.6c-.2-1.3-.9-2-2.6-1.9l-20.1 1.7-13.5 3.3c-.2-1.3-.9-2-2.6-1.8a113.17 113.17 0 0 1-19.6 3.7h-.4c-3.3.4 1.7-.9-.9-2l-4.1 2.4c-5.9.6-2.8-.4-23.1-.2-35.6 4.4-31.8 5-35.6 5.2l-13.3-.9a1.82 1.82 0 0 1-2 2.2c-15.1-2-22.9-4.4-23.1-7.2q3-21.6 10.5-22.2l2.6-.2-2.2 4.8 2.6-.2c4.8-2.6 7-5 6.8-7.2l-.4-5-4.8.4-.4-4.6a16 16 0 0 1 1.5-9.2l10.9-17.5.4 4.6 5.2-.4-.4-4.6-3-4.2c3.9-3.3 6.8-5.2 9.2-5.4l-.2-2.4-7 .6-.6-7c14-29.2 20.7-46.2 20.3-51l5 2c3.1-.2 4.6-2 4.4-5.4l-4.8.4-.2-2a18.3 18.3 0 0 1 1.8-9.8c7.6-7.9 11.1-15.9 10.3-24.2 1.5-.2 2.2.6 2.4 2.2 6.5-3.7 11.4-13.5 15.1-29.7 11.5-20.7 27.7-62 48.9-123.9 40.6-109.3 39-120.9 44.7-146.8l-4.8.4a16.91 16.91 0 0 1-1.8 9.4c-3.3-1.3-5.9-2-7.8-1.8l-.2-2c-.7-9.4 3.1-20.7 12-34l2.2-.2 4.6 15.4 4.8-.4c-.2-1.1 1.1-7.4 3.7-19-.2-2.4-2-3.9-5.7-4.1l-4.6 3c-.4-3.3-.2-12 .4-25.8l-2.4.2c-4.1-4.1-6.1-7.4-6.3-10.2l-26.4 2.6a24.09 24.09 0 0 0-3-8.1c-.2-2.4 5.7-4.8 17.9-7.2l5.4 2 5-3c.2 1.7 1.1 2.4 2.9 2.2l5-3c.2 1.7 1.1 2.4 3 2.2l2.4-.2-.4-5.4c-3.7.4-13.5.4-29-.2l-5 3.3-.2-3c-123.9 10.2-194.2 15.9-211 17.5-2.2.2-10.9 0-26.2-.4.2 2-1.7 3.1-5.4 3.5l-5.4-2.4-18.1 4.6c-4.2.4-11.4.2-21.4-.9a18.9 18.9 0 0 1-10.2 3.9c-2.2.2 26.4-1.5 53-3.3-2.8 2.2-7 3.5-12.9 4.1a17.75 17.75 0 0 1-10.5-1.8c-4.1 1.8-17.2 4.8-39.1 9.2l-5.4-2-86.4 13.3a20.84 20.84 0 0 0-11.6-1.8c-4.6.4-12.4 2-23.1 5l-41.7 17.4 3.1 5.2a24 24 0 0 0 8.5-3.3l14.8 1.3-1.9 13.8c-13.7 6.1-21.6 15.1-23.8 26.6-20.5 9-30.6 15.5-30.6 19.4l.2 2.4 3.1-.2 5.5-3 6.5 7.8.9 10.7c.4 3.3-34.2 75.9-103.2 217.7q-89.7 204.9-94.2 224.9c-20.5 5.7-32.3 14-35.8 25.1.4 3.5 6.5 5.9 18.3 6.8l.6 5.4-5.4 8.9.9 10.7c.6 5.5 15.5 9.8 44.9 12.7-.2-1.8.7-3 2.8-3.1.6 6.6-1.3 19.6-5.5 38.8l3.1-.2c12.2-16.6 17.9-28.1 17.4-34.3l2.6-.2c3-.2 6.1 3.1 9.8 10.3-3.7 1.5-16.6 30.8-38.8 88.3l3.1 5.2 3.1-.2q40.65-103.05 51.1-113.9 53.4-4.65 184.8-18.8l5.5-3.3a2.69 2.69 0 0 0 3.3 2.6l5.7-.6 5.5-3.3a2.69 2.69 0 0 0 3.3 2.6l66.3-5.7c17.5-1.5 25.8-6.8 25.1-15.9-.2-2.4 10.2-5.2 31-8.1 2-.2 5 .4 9 1.7-.2-1.7 10.3-3.3 31.4-5.2.6-11.1 4.1-17 10.3-17.5l-.6-5.4a92.72 92.72 0 0 0-20.3 4.6c-13.8-.7-22.7-1.8-26.4-3.1-3.7 2-6.5 3.1-8.5 3.3l-46.2 1.5-5.5 3c-.2-1.7-1.3-2.4-3.3-2.2l-2.6.2-5.9 3c-.2-1.7-5-3-14.6-4.2l-5.9 3.5-11.5.9-.2-3c59.5-6.5 88.8-14.6 88.1-24.2 3.9-.4 5.9 1.5 6.3 5.4l17.4-4.4-.6-5.4-142.4 3.9c.2 1.9-.7 3-2.8 3.1l-17.4-1.5a21.7 21.7 0 0 0-11.1 3.9l-6.5-2.4c-17.9 1.5-31.2 3.7-40.1 6.5a254.21 254.21 0 0 0-40.6.6l-31.9 2.8-14.8-1.7c-.7-9.4 17.5-55.8 55.2-138.8 10.9-28.1 20.9-45.6 30.5-52.3 2-.2 5 .6 9 2.2l22.7-7.8 11.6 1.8c19.6-1.7 42.3-7.2 68.3-16.8 6.5-.6 11.3-.2 14.8 1.3l17.4-4.1 51.7-4.4c22-1.8 45.8-6.7 71.6-14.6l-.6-5.4c-9.6.9-14.6-.7-15-4.6q-.9-10.8-21-9l-.6-5.4 14.2-4.1 37.3-3.1-.6-5.4c-1.5.2-9 0-23.1-.6l-.6-5.7 14.4-1.3c3.9-.4 5.5-2.2 5.2-5.9q-29.1.9-29.4-3-202.8 9.9-203.3 3.7c-2 .2-4.8 1.5-8.5 3.7l-3.5-5.5c35.8-76.1 56.9-114.5 63-115 .2 3-1.3 7.8-4.6 14.2l.2 2.4 5.7-.6c14.2-34 26.2-51.5 36.2-52.3 42.5-3.7-5.9-6.5 84.9-20.7 3.7 1.7 6.3 2.4 8.1 2.2 35.6-7.2 85.3-14.8 149-22.5l-.4-5.4-34 3.1-.4-5.4a18.9 18.9 0 0 0 10.2-3.9l.2 3c1.9-.2 4.4-1.5 7.8-3.7 5.9-.6 10.3 0 13.5 1.7 11.8-3.1 21.4-5 28.4-5.7l21.2-2c5.2-3.3 7.6-6.3 7.4-9l-.2-2.4a64.42 64.42 0 0 1-18.6-1.1c-.2-3 1.3-5 4.8-5.9l39.5-3.7 18.1-4.6c.2 2 1.1 2.8 2.6 2.8 1.8-.2 4.4-1.5 7.8-3.7.9.2 2 .2 3 .4a140.91 140.91 0 0 0-7.9 21.6l-5.2.4a22.62 22.62 0 0 0-3-9.4l-2.6.2c-48 133.7-69.4 195.9-113.7 298.6-8.1 26.2-15 40.8-20.9 43.9.2 3 2 4.4 5.2 4.1 1.1 12.9-1.9 25.7-9 38.2-20.5 59.1-34.2 91.4-41.2 97.3l4.6 27.9c.2 3-1.3 4.6-4.4 5l-4.8.4c-.7-7.8-3.5-11.5-8.5-10.9l-2.6.2a108 108 0 0 0-14.2 34.2l4.8-.4c6.5-4.2 9.4-9.2 8.9-15l9.6-.9 5.5 2c-4.4 7-6.5 12.6-6.1 16.8l2.6 4.4-6.3 14.8.2 2.4c5.5-.6 11.6 1.3 18.1 5.2 4.4-.4 9.2-2.4 14.6-5.9 5.5-.6 26.2-.7 61.9-.7l17.9-6.1c21.8-.2 25.3.4 44.1-1.3l7.8-.7 4.1-2.8.2 2.4c19.8-1.7 21-.4 36.6 1.5l.2 2.4-10.9.9.4 4.6a16.23 16.23 0 0 0 8.7-3.3c2.8-.2 4.4 1.3 4.6 4.6a70.72 70.72 0 0 0-15 3.3l-4.8-1.7c-7.6 2-5.9 2.6-11.1 3l-7.6-1.5a1.77 1.77 0 0 1-1.8 2.2c.2 3 1.8 4.4 4.6 4.2l7.8-.7 40.4-3.5 15.3-3.3c.2 1.3.7 2 2 1.8l7.4-2.8 13.9-1.1c10.7-.9 10.5-1.7 33.8-5.4-.2-1.5.4-2 1.5-2.2l.2 2c37.9-6.5 40.2-6.8 46.3-8.9l.6 1.1c9.4-2.2 4.1-1.7 6.7-3.5.2 1.7.7 2.4 1.7 2.4l6.6-.6-.4-5-13.5-.2-.2-.4c-.6.2-.9.2-1.5.4h-1.8v.4c-9 1.8-9.2.6-15.1 1.1l-33.8 1.8-.2-2.4 18.8-2.6 6.8-.6 3.9-2.8.2 2.4c26.6-2.2 36 4.4 159-21.8 6.6-.6 6.1-6.1 10.3-17.5a11.37 11.37 0 0 1-6.5-1.5c-10.2 3.9-15.5 2-35.1 5.2-1.7.2-3-1.3-3.5-4.2l-.2-2 18.8.6c3.5-.4 10.3-.9 20.5-6.6.6 1.5-3.1 2.4-.9 2.3zm-909.2 14.5l-8.7.7c-.4-3.5 4.2-16.8 13.8-39.5l5.7-.6c.3 5.5-3.2 18.6-10.8 39.4zm10.5-42.1l-.2-2.4c-.2-3 1.7-5 5.7-5.9l.2 2.4c.3 3.5-1.6 5.6-5.7 5.9zm115.4 89.2l.2 2.4-14.4 1.3-.2-2.4 14.4-1.3zm-17.3-1.5c.2 3-4.2 6.3-13.8 9.6l-17.7-1.3-5.7.6-.6-5.4 37.8-3.5zm116.7-537.1l-8.7.7-.2-3c-.2-3 1.5-5 5.2-5.9l3.1-.2 5.9 2.4c.2 3.6-1.4 5.7-5.3 6zm132-25.8l2.8-.2.4 5.4-7.9.7c-.3-3 1.2-5 4.7-5.9zM1871.9 75l-13.1-1.5-.2-2.4c17.2-1.5 22.9-3.3 33.4-6.3q.3 3 5.4 2.4l.4 5.4-5.2.6a17.75 17.75 0 0 1-10.5-1.8 23.6 23.6 0 0 1-10.2 3.6zm16.4 47.8l-.2-2.4 21.2-2 .2 2.4zm22.7-18.4l-.2-3 10.3-.9.2 3zm2.4-36.2l-2.8.2 2.4-5.7 23.6-2.2.2 3c-6 .4-14 2.1-23.4 4.7zm12 50.9l-.4-5.4 10.3-.9c3.5-.4 5.4 1.3 5.5 5l-15.4 1.3zm62.6-85.3l-13.3 3.7-2.4.2a125.56 125.56 0 0 1-24-.6c17.2-1 33.6-2.3 39.7-3.3zm-14.2 59.1l.2 2.4-18.3 1.7-.2-2.4zm29.9 14.2c-.2-2.2-3.7-3.7-10.9-4.4l-18.3 5.2-14 .6c-3.1-2.2-4.8-3.7-5-4.8l16.2.9 36.6-5.9 18.6.7.2 3a104.88 104.88 0 0 0-23.4 4.7zm188.1-48.5c2.2.2 3.7.2 4.2.2a71 71 0 0 1 22-14.8q-9.9 43.8-31.2 64.8l-10.3-6.3c8.7-21.9 13.9-36.5 15.3-43.9zm-31.7 54.5l2.6-.2c-3.5 6.6-6.6 10.2-9.2 10.3l-.6-7c1.6 0 4-1.1 7.2-3.1zm-20.5 48.9c5-19.9 9.8-31.2 14.2-34.2l.2 2.4c-2.6 18.5-6.7 28.3-12 29l.9 11.6c-4.4 6.3-6.5 11.1-6.3 14.8l-2.6.2-1.5-16.1c3-.3 5.4-2.9 7.1-7.7zm-8 26.6c.2 2.8-1.7 9.2-5.4 19.2l-2.6.2-.6-7c3.7-8.2 6.6-12.2 8.6-12.4zm-149 432.4l-.2-2 4.8-.4.6 7c-2.6.2-4.4-1.3-5.2-4.6zm212.9 5.5c-.2-1.7-.9-2.4-2.6-2.2l-12 1.1-.2-2.4h1.1l28.4-2.4.2 2.4c-8.2.4-13.2 1.7-14.9 3.5zm-14.2-5.9c1.1.6.6 1.1 0 1.5-.5-.2-1.3-.7 0-1.5zm1.5-33.2l-15.9 1.3-.2-2.4 14.4-1.3 12.6-3.1c.2 1.5.9 2 2.6 1.8 15-2.6 13.5-3.3 20.7-3.9 2.4-.2 3.9 1.3 4.1 4.2l-38.3 3.4zm55.6-4.8c-8.9-.9-9.4-1.7-15.7-1.1l-.2-2 14.2-1.3.2 2c-1.5.2 3.9.5 1.5 2.4zm1.1-2.6l-.2-2 7.8-.7.2 2zm17.1-1.5l-.2-2c1.3-.2 3.1-1.1 5.5-3 3.9-.4 5.9 2.2 6.3 5.2l-11.6-.2zm22-2.7l-.2-2.4 9.4-.7.2 2.4zm13.1-1.2q-.3-4.2 3.3-4.8l3.1 4.1a1.71 1.71 0 0 1 1.5-2.2l2.4 4.4-10.3-1.5zm-139.4 60.2l-.4-4.6-1.5.2.4 4.6zm324.4-84c1.5-.9 2.2-1.8-1.3-2.4-1.7 1.8 1.8 2.4-1.8 2.6l.2 1.7c.4-.4 1.3-.9 2-1.5l-2 1.7v.2l-3.9 5 7.8-2.8h.9l-.4-4.6zm13.5 10.6l-1.5.2.4 4.6 10.9-.9c-.2-3-7.4-3.9-9.8-3.9zm-16.8-8.2l.2-.2v-.2c0 .1-.2.2-.2.4z"/>
  <path fill="#f9dc3e" d="M1764.6 211.5l.2 3 6.1-.6c-.2-1.8.6-4.8 1.8-8.5l-.6-5.4c-2.5.2-5.1 4.1-7.5 11.5zm-58.4-140.4l-.6-5.4-8.6.8.6 5.4zm-169.3 317.1c-.4-5-15.9-24.4-46.5-58.5-.6-6.3 10-15.7 31.6-28.1l61.7-53.7c13.8-17.5 22-46 24.4-85.5l-.7-9q-3.6-41-59.6-66.1-33.3-22.5-119.6-24.7c-47.6 4.1-109.9 21-186.5 51.1a766.54 766.54 0 0 1-72 45.4l.4 4.6a17.61 17.61 0 0 0 7.2-3.1c3.1-.4 5 1.1 5.2 4.1l4.6-2.4 2.2-.2.2 2c.2 2.4-16.4 15.5-50 39l2.6 4.8-2.2.2-5.5-2c.2 1.7-2.2 2.8-6.8 3.1l.2 2 5.4 6.6c-1.7.2-4.2-.6-7.8-1.8-7.8.7-15.3 4.8-22.9 12.6l3.1-13.7q17-72.9 23.1-128.9l-.6-2.4a92.18 92.18 0 0 1-22.3-20.9c.2-5.7.2-9 0-9.8l-.6-2-2.2.6q-36.6 54.9-140.9 187.2-79.5 94.2-82 104.7-32.4 33.45-30.8 40.4c-5.7 3.7-8.1 7.4-7.2 11.4-1.7.4-2.8-.2-3.1-1.8q-13.8 22.5-41.2 28.8l-19.2 4.4c-2.6.6-3.9 2.4-3.7 5.5l.6 2.4 7.2-1.7.6 2-16.2 6.3-28.8 6.6-15.1.9c-2.2 2.2 12-.2 6.5 1.1l-18.8 4.4c-11.4 2.6-17.7 1.7-18.8-3l-2.2.6a10 10 0 0 1 .2 4.8l-1.1-4.6-15.1 3.5q-1.65-10.5-61.3-76.4c-.7-8.5 13.3-20.9 41.9-36.9l80.9-71.1q27.15-35 32.3-111.9l-1.1-12c-3.1-36.2-29.4-65.4-78.7-87.9-29.2-19.8-81.6-30.3-157.3-31.9Q436.4 35.4 285 94a938.92 938.92 0 0 1-94.7 59.8l.6 6.3c2.4-.2 5.5-1.5 9.4-3.7 4.1-.4 6.3 1.5 6.6 5.2l6.3-3.5 3.1-.2.2 3c.2 3-21.8 20.1-66.3 51.5l3.5 5.5-3.1.2-6.8-2.4c.2 1.8-3 3.1-9.4 3.7l.4 3.3 7.4 8.1c-2.4.2-5.7-.6-10-2-14.4 1.3-28.4 11.6-42.3 31.2l3.5 5.5c12-11.1 19-16.6 21-16.8l.7 9c-2 .2-5.2 1.5-9.4 3.7l7.6 11.4a248.54 248.54 0 0 1 48.2-40.4c8.7 2.2 13.3 5 13.5 7.9l6.7-.6q71.4-53 141.4-76.4l.6 6.3c-8.7 12.9-14.6 19.6-17.7 19.9a20.88 20.88 0 0 0 4.6 11.6c.7 7.9-20.5 61.5-63.5 160.4C148.6 591.8 66.7 762.1 0 872.1c.2 2.2 1.5 5.2 3.9 8.9 16.4-3.9 26.8-7.9 31.2-11.8l3.5-.4.6 6.3 6.1-.6 6.3-3.5c.2 1.8 2.2 2.8 6.5 2.4l.6 6.3c.6 6.1-3 15.3-10.3 28.1-6.6 7.6-13.8 23.5-21.4 47.6l.2 2.9 6.1-.6C59.9 928 80 898.8 93.9 870.4q116.25-34.05 177.6-67c41.2-3.5 72.6-14.4 94-32.3l-.4-3.3-15.5 4.6-3.5.4-.4-3.3c30.3-4.6 51.1-11.3 62.8-20.5q88.35-68.1 133.5-96.6 92.85-68.1 120.4-132.8c3.3-.7 6.6-1.5 10.3-2.4 8.7-.4 13.5-.6 14.8-.9-.4-1.7.4-2.6 2-3 13.8-1.5 7.2.9 16.1-1.1l23.3-5.4 3.9-.9-1.8 1.1a21 21 0 0 0 8.5-.6l1.7 6.8L635 681.6 611.6 711l-11.5 38.4 2.2-.6 11.4-4.8-3.7 15 1.1 4.4 3.1 3.9c-1.5.4-2 1.3-1.7 3l.6 2.4 4.8-1.1c7-6.1 10-11.6 8.9-16.6 7.6 1.3 12.6 1.8 15.1 1.1l.6 2.4c-4.6 1.1-7 4.8-7.4 11.1l.6 2.4 2.6-.6c38.4-41.9 132.6-185.4 208.1-282.7-2.4-10.5 36.9-25.1 118.2-43.9l2.6-.6q4.5 19.05-18.8 92.5c-10 29.5-14.8 45.8-14 48.4Q915 644.05 916.1 649l-28.8 94.4a852.8 852.8 0 0 0-42.8 152.7c1.7-.4 4.2-.2 7.9.7l4.1-3.5c.4 1.7 1.5 2.2 3.1 1.8l-1.7-6.8 12.6-.4c3.7-.9 6.8-5.5 9.4-14-.6-12.7 2-19.6 7.8-21 7.8-30.3 12.6-45.4 14.2-46q10.8-45.15 16.1-51.5c10.9-39.1 18.8-59.3 24-60.6l1.1 4.8-7.9 20.5q-20.85 92.25-42.1 145.7l4.1 17.7 2.6-.6q51.45-110.85 148.3-438.7c1.8-19.2 11.1-34.2 27.5-44.7l-3.7-3.9-.6-2c7.4-1.7 12.6-4.6 15.5-8.7-.4-1.7-6.8-4.1-19.4-7.4l32.1-137.7c7-6.3 11.1-9.6 12.4-9.6l.6 7a17.61 17.61 0 0 0-7.2 3.1l6.1 8.7a199.56 199.56 0 0 1 36.2-31c6.7 1.8 10 4.1 10.3 6.3l4.8-.4q54.9-40.2 107.6-57.6l.4 4.6c-6.5 9.8-10.9 14.8-13.3 15a20.47 20.47 0 0 0 3 8.9q.9 9.15-47.8 122-111.3 261.75-187 387.4c.2 1.7 1.3 3.9 3.3 6.8 12.4-3 20.3-6.1 23.5-9l2.2-.2.4 4.6 5.2-.4 4.6-2.4c.2 1.3 1.8 1.8 5 1.7l.4 5c.4 4.4-2.2 11.4-7.9 21-5.4 5.7-10.9 17.7-16.8 36l.2 2.4 4.8-.4q30.15-33.75 46-66.5c58.9-17.4 103.8-34.2 134.8-50.8 31.6-2.8 55.4-10.9 71.6-24.6l-.2-2.4-12 3.5-2.6.2-.2-2.4c22.9-3.3 39-8.5 47.6-15.3 44.7-34.3 78.5-58.9 101.4-73.3q106.35-77.85 100-149.5zm-12.2 3.1l1.7 18.6c-2.2 4.6-4.6 7-6.8 7.2l-2.8-31.8c5.2 1.9 7.8 3.8 7.9 6zM126.7 241l-3.1.2-.6-5.7 12.7-1.1.2 3c-2 .1-5.2 1.2-9.2 3.6zM64.4 863.4c-7.4-3.3-14-4.6-19.8-4.1l-.7-9c-.4-3.5 1.7-5.9 6.1-6.8 4.1-.4 6.5 2.6 6.8 8.5 10.7-13.1 16.6-19.8 17.7-19.9l6.8 2.8c-2.1 18.4-7.8 27.8-16.9 28.5zm664.9-695.5c-3.1.4-9.4-9.4-18.5-28.8l-.6-5.7c5.9-.6 12 9 18.5 28.8zM720.5 99l-2.6 6.1-90.3-37.7q90.3 3.15 92.9 31.6zM339.2 426.4l-12.7 1.1-.6-5.7 12.7-1.1zm-10.4-196.7l3.1-.2.7 9c-3 .2-6.8 4.6-11.6 13.1l-.6-6.3c5.9-6.7 8.8-11.9 8.4-15.6zm-26.7 63.2l1.1 12-3.1.2-1.1-12zM288 315.4l6.1-.6c-.6 10-3.3 15.3-8.3 15.7l-3.1.2c3.9-6.6 5.7-11.8 5.3-15.3zm-10.5 31.4l3.5-.4.2 3-5.7 9.6-6.1.6-.2-3c6.1-.6 8.9-3.7 8.3-9.8zm-10.3 28.3l-1.8 15.1-3.1.2-1.3-15zM163.6 669.6c-4.1 20.7-8.5 31.2-13.1 31.6l-.2-3c-1.1-10.2 3.3-19.8 13.3-28.6zm-19 41.1l.2 3c.4 4.1-1.5 6.5-5.5 6.6l-.2-3c-.4-3.4 1.4-5.7 5.5-6.6zm-5.6 85.5l9.6-.9.4 3.3c-2.4.2-5.5 1.5-9.4 3.7l-6.1.6c-.4-3.2 1.7-5.6 5.5-6.7zm273.3-84.4c-53.9 26.6-85.7 44.7-95.1 54.1q-87.45 30.45-86.8 37.9-77.85 30.7-102.5 45.1c-3.9.4-9.4-1.1-16.8-4.4-.9-10.5 3.9-19 14-25.8a55 55 0 0 1 26 4.1c9.6-5 26.4-10.5 50.2-16.4l-.6-6.3-19.2 1.7q3.6-4.95 55.6-26l9.6-.9.2 3c-16.4 1.5-25.5 6.3-27.5 15 .4 3.9 2.6 5.5 6.6 5.2 12.4-7.8 18.5-12.4 18.3-13.7q35.1-6.6 194.4-101.7l.6 5.7c.3 2.4-8.7 10.1-27 23.4zm-162.9 53.6a63 63 0 0 0 39.9-18.5c4.4-.4 6.8 1.3 7 5.2-7.6.7-22.2 7-43.4 19.2l-3.1.2-.4-6.1zm262.8-201.8l-81.4 64.6c-60.6 39.7-93.1 59.6-97.9 60q-144.6 79.5-179.6 82.5l-3.5.4q4.5-16.35 128.9-263.7 54.9-4.65 172.6-51.1l19.2-1.7c39.7-3.5 69.4 4.2 89 22.7l1.1 12c-14.6 42.3-30.9 67.1-48.4 74.3zM353 474l13.1-1.1.2 3-13.1 1.1zm184.1-31.2l9.6-.9c8.9 4.2 13.5 7.9 13.8 11.3l.2 3c-8.4.6-16.4-3.8-23.6-13.4zm26-148.2q-12.75 15.3-69.8 51.9c-12.6 1.1-59.3 19.2-140.1 54.7a26 26 0 0 0-12.9-2.2l-.6-5.7c-.9-11.6 4.2-26.2 15.7-43.9 6.3-33.2 13.1-52.3 20.7-56.9l67.4-151.6q-1.05-14.1 43.2-21.6l9.6-.9.7 8.7c29-4.4 47.1-7 54.1-7.6 53.5-4.6 81.4 6.3 83.6 32.3l6.1-.6-1.3-15.3 6.7-.6c15.7 8.7 24.2 19.2 25.3 31.6.7 8.5-3.9 19-13.7 31.6-4.1.4-6.5-2.6-6.8-8.5l-6.7.6-1.5 18.5c-27 40.4-46.8 61.3-59 62.4-11.1 15.3-17.9 22.9-20.7 23.1zm41.4 106.1c-5.5-3.7-10-5.4-13.3-5.2l-.7-9 6.1-.6 13.5 7.9c.5 4.3-1.3 6.5-5.6 6.9zm42.8 50.8c5.9 2.4 9.4 5 10.2 7.4l-3 .7.2.2a5.26 5.26 0 0 0-1.8.4l-4.4 3.5-1.2-12.2zm4.1 25.5l-.6-2.4 7.8-1.8.6 2.4-7.8 1.8zm18.7 20.8c7.9-1.3 11.8-1.8 26.6-5.2l.6 2.4-28.1 6.5c.3-1.3.7-2.6.9-3.7zm27.3 11.7c-11.8 1.1-9.2-.4-28.1 3.9l-.6-2.4 23.6-7.6 11.3-2.6 1.1 4.4c-5.1 1.1-1.4 1.1-7.3 4.3zm24.9-5.9c-2.8.7-5-.6-6.3-3.7l7.2-1.7c3.1-.7 5.2.6 5.9 3.7l-6.8 1.7zm67.6-72.8l-.6-2.4 11.6-2.8 1.1 4.4zm72.2 442.8a20.75 20.75 0 0 0 .6-7.4l2.6-.6q4.65-1.05 5.7 3.3l.6 2.4-9.5 2.3zm50.6-423.8l-5.2-.9a150.44 150.44 0 0 1-21 7l-4.8 1.1c-2.8.7-5-.4-6.1-3.3l33.8-7.8 11.1-5.2 3.7 4.2c-5.4 1.2-9.3 2.9-11.5 4.9zm26-8.3l-.6-2.4c1.7-.4 3.9-1.7 6.3-4.1l24-5.5.6 2.4c-12.8 3.2-22.9 6.3-30.3 9.6zm3.7-48.5c-1.7.4-3.9 1.8-6.6 4.1-.4-1.7-3.7-1.7-10-.2-1.1-4.6 16.6-11.1 53.4-19.6l5.2-1.1 1.1 4.4c-25.9 7.6-40.3 11.8-43.1 12.4zm64.6-69.8c-2.6 29.4-12.9 46-31.2 50.2l-.6-2.4-16.2 6.3-7.2 1.7a18.68 18.68 0 0 1-10-.2l-1.5-6.5q-.9-3.6 70.5-97.3l5.5.9c2.2 8.5-1 24.2-9.3 47.3zm114.3-97.9l-2.2.2-.4-4.6 9.6-.9.2 2.4a28.67 28.67 0 0 0-7.2 2.9zm-47.1 472.9c-5.5-2.6-10.5-3.7-14.8-3.3l-.6-7c-.2-2.4 1.3-4.1 4.4-5 3.1-.4 5 1.8 5.4 6.6 7.9-10.2 12.4-15.3 13.3-15.3l5 2c-1.8 14-6 21.4-12.7 22zM1579 170.1c-2.4.2-7-7.2-14.2-22.2l-.4-4.6c4.6-.4 9.4 6.8 14.2 21.6l.4 5.2zm-6.6-52.8l-2.2 4.8-68.4-28.6c45.7 1.5 69.3 9.4 70.6 23.8zM1282.7 366l-9.6.9-.4-4.6 9.6-.9zm-8-149.4l2.6-.2.6 7c-2.4.2-5.4 3.5-8.9 10l-.4-4.6c4.3-5.3 6.3-9.4 6.1-12.2zm-20.1 48l.7 9-2.6.2-.7-9zm-10.9 17.2l4.8-.4c-.6 7.8-2.6 11.8-6.1 12.2l-2.6.2q4.2-7.8 3.9-12zm-7.7 23.6l2.2-.2.2 2.4-4.2 7.4-4.8.4-.2-2.4c4.9-.4 7.1-2.9 6.8-7.6zm-7.8 21.5l-1.7 11.8-2.2.2-.9-11.6 4.8-.4zm-78.8 223.9c-3.1 15.5-6.5 23.5-10 23.8l-.2-2c-.5-7.7 2.8-15.1 10.2-21.8zm-14.6 31.2l.2 2c.4 3.3-1.1 5.2-4.4 5.4l-.2-2.4c-.2-2.4 1.2-4 4.4-5zm-4.1 65l7.4-.6.2 2.4a21 21 0 0 0-7.2 2.8l-4.8.4c-.2-2.6 1.3-4.2 4.4-5zm207.4-64c-40.6 20.1-64.8 33.8-72.4 40.8-44.3 15.5-66.3 25.1-65.9 29-39.3 15.7-65.2 27-77.4 34.2-3 .2-7.2-.9-12.7-3.5-.7-7.9 3-14.4 10.7-19.2a41.14 41.14 0 0 1 19.8 3c7.4-3.7 20.1-7.8 38.2-12.4l-.4-4.6-15 1.3c1.8-2.6 16.1-9.2 42.5-19.9l7.4-.6.2 2c-12.6 1.1-19.6 4.8-21 11.5.2 3 2 4.4 5.2 4.1 9.2-6.1 13.7-9.6 13.7-10.7q26.55-4.65 147.5-77.4l.4 4.6c-.1 1.7-7 7.6-20.8 17.8zm-123.7 40.6a49.25 49.25 0 0 0 30.6-13.8c3.1-.2 5 1.1 5.2 4.1-5.5.6-16.4 5.2-32.9 14l-2.6.2-.3-4.5zm199.7-153.5l-61.5 49.5c-46 30.1-70.9 45.2-74.8 45.6q-109.65 60.3-136.5 62.6l-2.6.2q3.3-12.45 98-200.1 41.25-3.6 130.9-39.1l15-1.3c30.1-2.6 52.6 3.3 67.4 17.5l.7 9c-11.1 31.8-23.3 50.4-36.6 56.1zm-120.7-67.9l9.6-.9.2 2.4-9.6.9zm139.8-23.8l7.4-.6c6.8 3.3 10.3 6.3 10.5 8.7l.2 2c-6.5.6-12.6-2.7-18.1-10.1zm19.3-112.5q-9.75 11.7-52.6 39.5-14.4 1.35-106.4 41.2a24.29 24.29 0 0 0-9.8-1.3l-.4-4.6c-.7-8.9 3.1-19.9 11.6-33.4 4.8-25.5 10.2-39.7 15.7-43l51.5-115.2c-.6-6.8 10.3-12.4 32.5-16.6l7.4-.6.6 7c21.8-3.5 35.4-5.5 41-6.1 40.6-3.5 61.9 4.6 63.5 24.6l4.8-.4-.9-11.1 4.8-.4c11.8 6.5 18.1 14.2 18.8 23.4.6 6.6-2.8 14.8-9.8 24.2-3.1.4-5-1.8-5.4-6.7l-4.8.4-1.5 13.8c-20.5 31.2-35.5 47.3-44.9 48-8.1 11.4-13.3 17.1-15.7 17.3zm21.7 76.8l-.6-7 4.8-.4 10.3 6.3c.2 3-1.3 4.6-4.4 5-4.4-2.7-7.7-4-10.1-3.9zM614.7 791.2l-4.8 1.1-4.1 3.5q1.05 4.5 5.7 3.3c3.1-.7 4.4-2.6 3.7-5.5l-.5-2.4zm-18.3-36.3l.6 2.4c3.1-.7 4.4-2.6 3.7-5.5l-.6-2.4c-3 .7-4.3 2.5-3.7 5.5zm130.7-245.6l3.5-2.2a5.85 5.85 0 0 1-1.9-.4 2.18 2.18 0 0 0-1.6 2.6zm-.7-63.7l5.5-1.3-1.1-4.8-5.5 1.3zm1304.8 186.5l-12.6-1.5-2.2 4.8.2 2.4 74.8-6.3-.4-4.6zm68.3-5.8l.4 4.6h.7l-.4-4.6zm313.7-40.9l.4 4.6 8.1 1.5-.4-4.6zm-11.4.9c-56.1 12.6-63.1 10.3-75 11.3l.4 4.6 5.2-.4 2.8-.2-.7-.6 6.1-2.4c55.6-6.1 62-3.9 61.5-10.2zm-337-81.6l-5-1.7c-4.1 10.9-6.1 17.4-5.9 19.2l.2 2c3.9-.1 7.4-6.8 10.7-19.5zm-67.6-36.4l-.2-2.4-2.6.2-4.6 3 2.6 4.4c3.5-.4 5.2-2.1 4.8-5.2zM2144 620.1l-.4-4.6-1.5.2.4 4.6 1.5-.2zm304.7-68.7l3.5-.4c2-.2 3-1.8 2.8-4.8l-2-4.4c-12.7 1.1-18.6 1.7-29 7.4l-.2-2.4-15.3 1.5c-.4-4.6-1.7-7-3.7-6.8l-7.9.7c-9.2.7-13.7.4-18.3 3.9-.2-1.7-.7-2.4-1.7-2.4l-8.9.7-5.2 3c-.2-1.7-.7-2.4-1.7-2.4l-3.1 2.8-.2-2.4-12.4-.9-3 .2.4 4.6 6.3 1.7 5.9-.4a10.43 10.43 0 0 0 6.8 1.5l5.2-2.6.2 2c-29 7.2-28.8 5.9-48.7 9.2-2.2-1.5-3.9-2.2-5-2l-.4.4c-2.2-.2-3.5-1.7-3.7-4.1l10.3-1.3c.7 0 1.3.7 7 1.9 8.3-4.1 8.7-5.7 13.1-6.1l-.4-4.6c-28.4 5.5-17 1.8-52.6 5l-1.7.2-.4-4.6c45.8-5.5 30.5-2.4 46.2-6.8.2 1.7.7 2.4 1.7 2.4a10.79 10.79 0 0 1 6.3-3.1l3.1-.2c16.1-1.3 21.4 1.8 53.2-7l.2 2 5.2-2.6 4.8-.4c-.4-4.6 6.7-5.4 9-5.5l-.4-5c-55.8 11.3-70.4 8.1-85.9 12.6l-.2-2c-14.6 2.6-15.1 1.5-18.8 1.7a9.45 9.45 0 0 0-4.6 3c-.2-1.7-.7-2.4-1.8-2.4-.6 0-.7.2-.9.2l-47.3 7.8c-.2-1.3-.7-2-1.8-1.8-24.6 5.2-17.9 6.1-50.8 9a15.14 15.14 0 0 0-6.1 2.6c-.2-1.3-.9-2-2.6-1.8l-20.1 1.7-13.5 3.3c-.2-1.3-.9-2-2.6-1.8a113.17 113.17 0 0 1-19.6 3.7h-.4c-3.3.4 1.7-.9-.9-2l-4.1 2.4c-5.9.6-2.8-.4-23.1-.2-35.6 4.4-31.8 5-35.6 5.2l-13.3-.9a1.82 1.82 0 0 1-2 2.2c-15.1-2-22.9-4.4-23.1-7.2q3-21.6 10.5-22.2l2.6-.2-2.2 4.8 2.6-.2c4.8-2.6 7-5 6.8-7.2l-.4-5-4.8.4-.4-4.6a16.2 16.2 0 0 1 1.5-9.2l10.9-17.5.4 4.6 5.2-.4-.4-4.6-3-4.2c3.9-3.3 6.8-5.2 9.2-5.4l-.2-2.4-7 .6-.6-7c14-29.2 20.7-46.2 20.3-51l5 2c3.1-.2 4.6-2 4.4-5.4l-4.8.4-.2-2a18.3 18.3 0 0 1 1.8-9.8c7.6-7.9 11.1-15.9 10.3-24.2 1.5-.2 2.2.6 2.4 2.2 6.5-3.7 11.5-13.5 15.1-29.7q17.1-31.05 48.9-123.9c40.6-109.3 39-120.9 44.7-146.8l-4.8.4a16.91 16.91 0 0 1-1.8 9.4c-3.3-1.3-5.9-2-7.8-1.8l-.2-2c-.7-9.4 3.1-20.7 12-34l2.2-.2 4.1 15.9 4.8-.4c-.2-1.1 1.1-7.4 3.7-19-.2-2.4-2-3.9-5.7-4.1l-4.6 3c-.4-3.3-.2-12 .4-25.8l-2.4.2c-4.1-4.1-6.1-7.4-6.3-10.2l-26.4 2.6a24.09 24.09 0 0 0-3-8.1c-.2-2.4 5.7-4.8 17.9-7.2l5.4 2 5-3c.2 1.7 1.1 2.4 3 2.2l5-3c.2 1.7 1.1 2.4 3 2.2l2.4-.2-.4-5.4c-3.7.4-13.5.4-29-.2l-5 3.3-.2-3c-123.9 10.2-194.2 15.9-211 17.5-2.2.2-10.9 0-26.2-.4.2 2-1.7 3.1-5.4 3.5l-5.4-2.4-18.1 4.6c-4.2.4-11.5.2-21.4-.9a18.9 18.9 0 0 1-10.2 3.9c-2.2.2 26.4-1.5 53-3.3-2.8 2.2-7 3.5-12.9 4.1a17.75 17.75 0 0 1-10.5-1.8c-4.1 1.8-17.2 4.8-39.1 9.2l-5.4-2-86.4 13.3a20.84 20.84 0 0 0-11.6-1.8c-4.6.4-12.4 2-23.1 5l-41.7 17.4 3.1 5.2a24 24 0 0 0 8.5-3.3l14.8 1.3-1.8 13.8c-13.7 6.1-21.6 15.1-23.8 26.6-20.5 9-30.6 15.5-30.6 19.4l.2 2.4 3.1-.2 5.5-3 6.5 7.8.9 10.7c.4 3.3-34.2 75.9-103.2 217.7q-89.7 204.9-94.2 224.9c-20.5 5.7-32.3 14-35.8 25.1.4 3.5 6.5 5.9 18.3 6.8l.6 5.4-5.4 8.9.9 10.7c.6 5.5 15.5 9.8 44.9 12.7-.2-1.8.7-3 2.8-3.1.6 6.6-1.3 19.6-5.5 38.8l3.1-.2c12.2-16.6 17.9-28.1 17.4-34.3l2.6-.2c3-.2 6.1 3.1 9.8 10.3-3.7 1.5-16.6 30.8-38.8 88.3l3.1 5.2 3.1-.2q40.65-103.05 51.1-113.9 53.4-4.65 184.8-18.8l5.5-3.3c.2 1.9 1.3 2.8 3.3 2.6l5.7-.6 5.5-3.3a2.69 2.69 0 0 0 3.3 2.6l66.3-5.7c17.5-1.5 25.8-6.8 25.1-15.9-.2-2.4 10.2-5.2 31-8.1 2-.2 5 .4 9 1.7-.2-1.7 10.3-3.3 31.4-5.2.6-11.1 4.1-17 10.3-17.5l-.6-5.4a92.72 92.72 0 0 0-20.3 4.6c-13.8-.7-22.7-1.8-26.4-3.1-3.7 2-6.5 3.1-8.5 3.3l-46.2 1.5-5.5 3c-.2-1.7-1.3-2.4-3.3-2.2l-2.6.2-5.9 3c-.2-1.7-5-3-14.6-4.2l-5.9 3.5-11.4.9-.2-3c59.5-6.5 88.8-14.6 88.1-24.2 3.9-.4 5.9 1.5 6.3 5.4l17.4-4.4-.6-5.4-142.4 3.9c.2 1.8-.7 3-2.8 3.1l-17.4-1.5a21.7 21.7 0 0 0-11.1 3.9l-6.5-2.4c-17.9 1.5-31.2 3.7-40.1 6.5a254.21 254.21 0 0 0-40.6.6l-31.9 2.8-14.8-1.7c-.7-9.4 17.5-55.8 55.2-138.8 10.9-28.1 20.9-45.6 30.5-52.3 2-.2 5 .6 9 2.2l22.7-7.8 11.6 1.8c19.6-1.7 42.3-7.2 68.3-16.8 6.5-.6 11.3-.2 14.8 1.3l17.4-4.1 51.7-4.4c22-1.8 45.8-6.6 71.6-14.6l-.6-5.4c-9.6.9-14.6-.7-15-4.6q-.9-10.8-21-9l-.6-5.4 14.2-4.1 37.3-3.1-.6-5.4c-1.5.2-9 0-23.1-.6l-.6-5.7 14.4-1.3c3.9-.4 5.5-2.2 5.2-5.9q-29.1.9-29.4-3-202.8 9.9-203.3 3.7c-2 .2-4.8 1.5-8.5 3.7l-3.5-5.5c35.8-76.1 56.9-114.5 63-115 .2 3-1.3 7.8-4.4 14.2l.2 2.4 5.7-.6c14.2-34 26.2-51.5 36.2-52.3 42.5-3.7-5.9-6.5 84.9-20.7 3.7 1.7 6.3 2.4 8.1 2.2 35.6-7.2 85.3-14.8 149-22.5l.6-6.1-34 3.1-.4-5.4a18.9 18.9 0 0 0 10.2-3.9l.2 3c1.8-.2 4.4-1.5 7.8-3.7 5.9-.6 10.3 0 13.5 1.7 11.8-3.1 21.4-5 28.4-5.7l21.2-2c5.2-3.3 7.6-6.3 7.4-9l-.2-2.4c-5.4.6-11.4.2-18.6-1.1-.2-3 1.3-5 4.8-5.9l39.5-3.7 18.1-4.6c.2 2 1.1 2.8 2.6 2.8 1.8-.2 4.4-1.5 7.8-3.7.9.2 2 .2 3 .4a140.91 140.91 0 0 0-7.9 21.6l-5.2.4a22.16 22.16 0 0 0-3-9.4l-2.6.2c-48 133.7-69.4 195.9-113.7 298.6-8.1 26.2-15 40.8-20.9 43.9.2 3 2 4.4 5.2 4.1 1.1 12.9-1.8 25.7-9 38.2-20.5 59.1-34.2 91.4-41.2 97.3l4.6 27.9c.2 3-1.3 4.6-4.4 5l-4.8.4c-.7-7.8-3.5-11.5-8.5-10.9l-2.6.2a108 108 0 0 0-14.2 34.2l4.8-.4c6.5-4.2 9.4-9.2 8.9-15l9.6-.9 5.5 2c-4.4 7-6.5 12.6-6.1 16.8l2.6 4.4-6.3 14.8.2 2.4c5.5-.6 11.6 1.3 18.1 5.2 4.4-.4 9.2-2.4 14.6-5.9 5.5-.6 26.2-.7 61.9-.7l17.9-6.1c21.8-.2 25.3.4 44.1-1.3l7.8-.7 4.1-2.8.2 2.4c19.8-1.7 21.1-.4 36.6 1.5l.2 2.4-10.9.9.4 4.6a16.23 16.23 0 0 0 8.7-3.3c2.8-.2 4.4 1.3 4.6 4.6a70.72 70.72 0 0 0-15 3.3l-4.8-1.7c-7.6 2-5.9 2.6-11.1 3l-7.6-1.5a1.77 1.77 0 0 1-1.8 2.2c.2 3 1.8 4.4 4.6 4.2l7.8-.7 40.4-3.5 15.3-3.3c.2 1.3.7 2 2 1.8l7.4-2.8 13.8-1.1c10.7-.9 10.5-1.7 33.8-5.4-.2-1.5.4-2 1.5-2.2l.2 2c37.9-6.5 40.2-6.8 46.3-8.9l.6 1.1c9.4-2.2 4.1-1.7 6.6-3.5.2 1.7.7 2.4 1.7 2.4l6.7-.6-.4-5-13.5-.2-.2-.4c-.6.2-.9.2-1.5.4h-1.8v.4c-9 1.8-9.2.6-15.1 1.1l-33.8 1.8-.2-2.4 18.8-2.6 6.8-.6 3.9-2.8.2 2.4c26.6-2.2 36 4.4 159-21.8 6.7-.6 6.1-6.1 10.3-17.5a11.37 11.37 0 0 1-6.5-1.5c-10.2 3.9-15.5 2-35.1 5.2-1.7.2-3-1.3-3.5-4.2l-.2-2 18.8.6c3.5-.4 10.3-.9 20.5-6.6-.2 1.5-4 2.5-1.8 2.3zM1539.5 566l-8.7.7c-.4-3.5 4.2-16.8 13.8-39.5l5.7-.6c.3 5.4-3.2 18.5-10.8 39.4zm10.5-42.1l-.2-2.4c-.2-3 1.7-5 5.7-5.9l.2 2.4c.2 3.5-1.6 5.5-5.7 5.9zm115.4 89.1l.2 2.4-14.4 1.3-.2-2.4zm-17.3-1.4c.2 3-4.2 6.3-13.8 9.6l-17.7-1.3-5.7.6-.6-5.4zm116.7-537.1l-8.7.7-.2-3c-.2-3 1.5-5 5.2-5.9l3.1-.2 5.9 2.4c.2 3.6-1.5 5.6-5.3 6zm132-25.9l2.8-.2.4 5.4-8 .7c-.2-2.9 1.3-5 4.8-5.9zm-33.2 11.6l-13.1-1.5-.2-2.4c17.2-1.5 22.9-3.3 33.4-6.3q.3 3 5.4 2.4l.4 5.4-5.2.6a17 17 0 0 1-10.5-1.9 21.8 21.8 0 0 1-10.2 3.7zm16.4 47.9l-.2-2.4 21.2-2 .2 2.4zm22.7-18.5l-.2-3 10.3-.9.2 3zm2.4-36.2l-2.8.2 2.4-5.7 23.6-2.2.2 3a135 135 0 0 0-23.4 4.7zm12 51l-.4-5.4 10.3-.9c3.5-.4 5.4 1.3 5.5 5l-15.4 1.3zm62.6-85.3l-13.3 3.7-2.4.2a125.56 125.56 0 0 1-24-.6c17.2-1.1 33.6-2.4 39.7-3.3zm-14.2 59.1l.2 2.4-18.3 1.7-.2-2.4c0-.1 18.3-1.7 18.3-1.7zm29.9 14.2c-.2-2.2-3.7-3.7-10.9-4.4l-18.3 5.2-14 .6c-3.1-2.2-4.8-3.7-5-4.8l16.2.9L2000 84l18.6.7.2 3a98.46 98.46 0 0 0-23.4 4.7zm188.1-48.6c2.2.2 3.7.2 4.2.2a71 71 0 0 1 22-14.8c-6.7 29.2-17 50.8-31.2 64.8l-10.3-6.3c8.7-21.9 13.9-36.5 15.3-43.9zm-31.7 54.5l2.6-.2c-3.5 6.6-6.6 10.2-9.2 10.3l-.6-7c1.6 0 4-1.1 7.2-3.1zm-20.5 48.9c5-19.9 9.8-31.2 14.2-34.2l.2 2.4c-2.6 18.5-6.6 28.3-12 29l.9 11.6c-4.4 6.3-6.5 11.1-6.3 14.8l-2.6.2-1.5-16.1c3-.3 5.4-2.9 7.1-7.7zm-8 26.6c.2 2.8-1.7 9.2-5.4 19.2l-2.6.2-.6-7c3.7-8.2 6.6-12.2 8.6-12.4zm-149 432.4l-.2-2 4.8-.4.6 7c-2.6.2-4.4-1.3-5.2-4.6zm212.9 5.6c-.2-1.7-.9-2.4-2.6-2.2l-12 1.1-.2-2.4h1.1l28.4-2.4.2 2.4c-8.2.3-13.2 1.6-14.9 3.5zm-14.2-5.9c1.1.6.6 1.1 0 1.5-.5-.3-1.3-.8 0-1.5zm1.5-33.3l-15.9 1.3-.2-2.4 14.4-1.3 12.6-3.1c.2 1.5.9 2 2.6 1.8 15-2.6 13.5-3.3 20.7-3.9 2.4-.2 3.9 1.3 4.1 4.2l-38.3 3.4zm55.6-4.8c-8.9-.9-9.4-1.7-15.7-1.1l-.2-2 14.2-1.3.2 2c-1.5.2 3.9.6 1.5 2.4zm1.1-2.6l-.2-2 7.8-.7.2 2zm17.1-1.4l-.2-2c1.3-.2 3.1-1.1 5.5-3 3.9-.4 5.9 2.2 6.3 5.2l-11.6-.2zm22-2.8l-.2-2.4 9.4-.7.2 2.4zm13.1-1.1q-.3-4.2 3.3-4.8l3.1 4.1a1.71 1.71 0 0 1 1.5-2.2l2.4 4.4-10.3-1.5zm181.7-21.4l.2-.2v-.2a.7.7 0 0 0-.2.4zm3.3-2.4c1.5-.9 2.2-1.8-1.3-2.4-1.7 1.8 1.8 2.4-1.8 2.6l.2 1.7c.4-.4 1.3-.9 2-1.5l-2 1.7v.2l-3.9 5 7.8-2.8h.9l-.4-4.6zm13.5 10.5l-1.5.2.4 4.6 10.9-.9c-.2-3-7.4-3.9-9.8-3.9z"/>
</svg>
