<svg xmlns="http://www.w3.org/2000/svg" viewBox="0 0 1951 2494.1">
  <path fill="#794422" d="M1366.1 748.5c1034.9 515 553.3 1490.1-346 1540.2-38.1 2.1-76.3.3-114-5.3C49.8 2156.2-257.2 1294 550.4 786.6 796.5 632.1 1106 619 1366.1 748.5"/>
  <path fill="#502D17" d="M1301.3 2267.3c453.1-261.5 662.8-1003.6 283.4-1654.4 21.4-113.8 34.3-220.2 36.1-316.9 3.6-31.3-26.8-55.6-56.6-45.3-88.7 21.7-174.2 51-255.7 88.9-61.8-43-125.6-57.6-178.1-60.3-28.5-1.5-17.8-44.4-15.4-60.1 13.6-29.7 26.4-54.6 58.3-83 22.2-20.3-5.6-48.1-31.1-32.2-41.4 19.8-67.3 39.8-96.5 68.9-8.3 6.2-18.2 5.6-25.3 4.3-5.1-1-8.8-5.6-9.4-10.8-6.3-57.5.2-109 50.5-147.8 9.5-7.3 0-21.3-10.9-18C966.7 26.2 930.3 84.2 901.2 156c-23.4-16.4-50.7-30.8-81.8-43.2-5.3-2.8-12.1-4.6-16.9-1-8.5 6.4-19.1 13.1-14.2 24.5 33 47.8 66.2 94.4 101.4 124.8-83.4 17.7-162.3 46.8-235.5 90.1l-278-107c-36.3-13.9-74.2 16.3-68.6 54.8 15.9 165.2 32.2 324.7 55.9 386.5C39.4 1352.8 238.7 2021.9 670 2267.3H0v226.8h1951v-226.8h-649.7z"/>
  <path fill="#FFF" d="M981.3 815c124.3-307.5 398.5-347 593.1-150.5 161.6 163.1 165.7 612.8-226.8 695.7 399.1 331.5 126.5 894.1-329.3 894.1-457.9-6.5-750.2-558.2-324.9-898.4-396.8 17.4-464.5-397.6-320.5-636.9 131.7-218.7 512.5-252.9 608.4 96"/>
  <path fill="#FF7F2B" d="M1162.3 1231.5c11.2-16.1 10.6-37.3-.8-53.3-38.1-53.3-92.6-97.2-171.5-97.2-81 0-129.1 44-173.4 102.5-11.6 15.3-12.4 36.4-1.8 52.3 33.2 50.3 90.4 96.8 155.1 144.6 11.9 8.8 28.2 8.5 39.7-.6 60.9-48 117.6-97.7 152.7-148.3"/>
  <path fill="#B1DFEC" d="M1443.6 934.2c0 142.7-93.9 255.5-201.7 255.5-107.8 0-195.2-115.7-195.2-258.4s87.4-258.4 195.2-258.4c107.8 0 201.7 118.6 201.7 261.3zM913 959.6c0 142.7-93.9 255.5-201.7 255.5s-195.2-115.7-195.2-258.4 87.4-258.4 195.2-258.4c107.8 0 201.7 118.6 201.7 261.3z"/>
  <path d="M1368.7 964.7c0 93.6-58.5 168.7-126.1 168.7s-125.4-75.9-125.4-169.4c0-93.6 57.7-169.4 125.4-169.4s126.2 76.6 126.1 170.1zm-526.2-2.9c0 93.6-58.5 168.7-126.1 168.7S591 1054.6 591 961.1s57.8-169.4 125.4-169.4 126.1 76.6 126.1 170.1z"/>
  <path fill="#FFF" d="M1271.4 883.3c0 28.5-22.8 51.6-50.9 51.6-28.1 0-50.9-23.1-50.9-51.6s22.8-51.6 50.9-51.6c28.1 0 50.9 23.1 50.9 51.6zm-487.8-2.9c0 28.5-22.8 51.6-50.9 51.6-28.1 0-50.9-23.1-50.9-51.6s22.8-51.6 50.9-51.6c28.1 0 50.9 23.1 50.9 51.6z"/>
  <path fill="#FF7F2B" d="M556.1 2375.6s-1.5 61.8 40 62.5c13 39 58.9 38.8 66.2 5.1h52.3s-5.1 26.9 26.2 26.2c31.2-.7 28.3-28.4 28.3-28.4h49.4s-7.3 28.4 24.7 28.4 30.4-32.5 30.4-32.5c18-11.3 39-10.4 39-45.3 0-7.6-1.8-15.9-5.3-24.5-18.9-46.5-87.1-101.6-182.6-102-61.3.4-118.4 37.8-156.3 74.5-11.6 11.3-12.3 36-12.3 36zm865 0s0 64-41.4 64.7c-6.5 37.1-59.9 36.6-64.7 2.9h-52.3s3.6 26.9-27.6 26.2c-31.3-.7-26.9-28.4-26.9-28.4h-49.4s5.8 28.4-26.2 28.4-29-32.5-29-32.5c-18-11.3-39-10.4-39-45.3 0-7.6 1.8-15.9 5.3-24.5 18.9-46.5 87.1-101.6 182.6-102 61.3.4 112.8 37.4 152.7 72 15.9 16.7 15.9 38.5 15.9 38.5z"/>
</svg>
