<svg xmlns="http://www.w3.org/2000/svg" viewBox="0 0 367 423.8">
  <path fill="#673AB8" d="M183.5 0L367 106v211.9L183.5 423.8 0 317.9V106z"/>
  <path fill="#FFF" d="M50 316.1c24.4 31.2 101.9 7.4 175.1-49.8s115-126.7 90.6-157.9c-24.4-31.2-101.9-7.4-175.1 49.8S25.6 284.9 50 316.1zm10.4-8.1c-8.1-10.4-4.6-30.7 10.9-56.3 16.2-27 43.8-56.7 77.5-83s69.3-45.9 99.3-55.1c28.6-8.8 49.1-7.3 57.2 3.1 8.1 10.4 4.6 30.7-10.9 56.3-16.2 27-43.8 56.7-77.5 83s-69.3 45.9-99.3 55.1c-28.5 8.7-49.1 7.2-57.2-3.1z"/>
  <path fill="#FFF" d="M315.8 316.1c24.4-31.2-17.4-100.7-90.6-157.9S74.4 77.2 50 108.5s17.4 100.7 90.6 157.9 150.8 80.9 175.2 49.7zm-10.5-8.1c-8.1 10.4-28.7 11.8-57.2 3.1-30.1-9.2-65.6-28.8-99.3-55.1s-61.3-56.1-77.5-83c-15.4-25.6-18.9-45.9-10.9-56.3 8.1-10.4 28.7-11.8 57.2-3.1 30.1 9.2 65.6 28.8 99.3 55.1s61.3 56.1 77.5 83c15.5 25.6 19 45.9 10.9 56.3z"/>
  <path fill="#FFF" d="M182.9 240.4c15.5 0 28.1-12.6 28.1-28.1s-12.6-28.1-28.1-28.1-28.1 12.6-28.1 28.1 12.6 28.1 28.1 28.1z"/>
</svg>
