<svg xmlns="http://www.w3.org/2000/svg" viewBox="0 0 2500 879">
  <path fill="#C00" d="M2176 764.7V879h206.5c42.3 0 114.9-30.9 117.5-117.5v-44.2c0-73.9-60.6-117.5-117.5-117.5h-102.9v-53h204V431.9h-195.8c-50.5 0-118.1 41.7-118.1 119.3V591c0 77.7 66.9 117.5 118.1 117.5 142.1.6-34.1 0 97.2 0v55.6m-1315.3-27.2s110.5-9.5 110.5-152.2-133.9-156-133.9-156H805.1V879h121.2V770.4L1031.2 879h179.3l-140.8-142.1zm-46.7-92.2h-96.6V541.8h97.2s27.2 10.1 27.2 51.1c0 41.1-27.8 51.8-27.8 51.8zm456.5-212.8h-123.1c-87.8 0-117.5 79.6-117.5 117.5V879H1362v-78.9h115.6V879H1597V549.4c0-96-87.2-117.5-117.5-117.5zm-1.9 240.6h-116.2V563.3s0-24.6 38.5-24.6h42.3c34.1 0 34.7 24.6 34.7 24.6v109.2h.7zm175.6-240.6h128.2V879h-128.2V431.9zm308.1 331.5V431.9h-127.6V879h299.9V763.4h-172.3z"/>
  <path fill="#C00" d="M44.2 879h498.9s-95.4-435.1 220.4-611.3c68.8-33.5 287.9-158.5 646.6 106.7 11.4-9.5 22.1-17 22.1-17s-328.4-327.7-694-291.1C554.4 82.7 328.4 250.1 195.8 471.1S44.2 879 44.2 879z"/>
  <path fill="#C00" d="M44.2 879h498.9s-95.4-435.1 220.4-611.3c68.8-33.5 287.9-158.5 646.6 106.7 11.4-9.5 22.1-17 22.1-17s-328.4-327.7-694-291.1C554.4 82.7 328.4 250.1 195.8 471.1S44.2 879 44.2 879z"/>
  <path fill="#C00" d="M44.2 879h498.9s-95.4-435.1 220.4-611.3c68.8-33.5 287.9-158.5 646.6 106.7 11.4-9.5 22.1-17 22.1-17s-328.4-327.7-694-291.1C553.8 82.7 327.7 250.1 195.1 471.1S44.2 879 44.2 879zm1039.4-777.3l2.5-42.3c-5.7-3.2-21.5-10.7-61.3-22.1l-2.5 41.7c20.9 6.9 41.1 14.5 61.3 22.7z"/>
  <path fill="#C00" d="M1023.6 235.5l-2.5 39.8c20.8.6 41.7 3.2 62.5 7.6l2.5-39.2c-21.4-4.4-42.3-6.9-62.5-8.2zM790 38.5h6.3L783.6 0C764 0 743.8 1.3 723 3.8L735 41c18.3-1.8 36.7-2.5 55-2.5zm30.3 232.4l14.5 43.6c18.3-8.8 36.6-16.4 54.9-22.1l-13.9-41.7c-21.4 6.3-39.7 13.3-55.5 20.2zM533.6 104.8l-28.4-43.6c-15.8 8.2-32.2 17-49.3 27.2l29 44.2c16.5-10.1 32.3-19.6 48.7-27.8zM663 389l30.3 45.5c10.7-15.8 23.4-30.3 37.3-44.8l-28.4-42.9c-14.5 13.1-27.8 27.7-39.2 42.2zm-91.5 203.3l51.1 40.4c2.5-24.6 6.9-49.3 13.3-73.9l-45.5-36c-8.2 23.4-13.9 46.8-18.9 69.5zM294.9 292.4l-44.8-39.2c-16.4 15.8-32.2 31.6-46.7 47.4l48.6 41.7c13.2-17.1 27.7-34.1 42.9-49.9zM104.2 574.6l-72.6-26.5c-12 27.2-25.3 58.7-31.6 75.8l72.6 26.5c8.2-21.5 21.5-52.4 31.6-75.8zM562 752.7c1.3 33.5 4.4 60.6 7.6 79.6l75.8 27.2c-5.7-24.6-11.4-52.4-15.2-82.1L562 752.7z"/>
</svg>
