<svg xmlns="http://www.w3.org/2000/svg" viewBox="0 0 2488.8 2481.9">
  <linearGradient id="a" x1="1128.278" x2="1128.013" y1="-3.754" y2="-4.222" gradientTransform="matrix(1981.5812 0 0 1980.0968 -2233588.25 10140.197)" gradientUnits="userSpaceOnUse">
    <stop offset="0" stop-color="#fb7655"/>
    <stop offset="0" stop-color="#fb7655"/>
    <stop offset=".41" stop-color="#e42b1e"/>
    <stop offset=".99" stop-color="#900"/>
    <stop offset="1" stop-color="#900"/>
  </linearGradient>
  <path fill="url(#a)" d="M1928.2 1638.2L507.2 2482l1839.9-124.9 141.7-1855.2-560.6 1136.3z"/>
  <linearGradient id="b" x1="1127.251" x2="1126.102" y1="-4.965" y2="-5.381" gradientTransform="matrix(588.89 0 0 1091.4792 -661378.688 7348.222)" gradientUnits="userSpaceOnUse">
    <stop offset="0" stop-color="#871101"/>
    <stop offset="0" stop-color="#871101"/>
    <stop offset=".99" stop-color="#911209"/>
    <stop offset="1" stop-color="#911209"/>
  </linearGradient>
  <path fill="url(#b)" d="M2350.1 2355.8L2192 1264.3l-430.8 568.8 588.9 522.7z"/>
  <linearGradient id="c" x1="1128.144" x2="1127.776" y1="-9.809" y2="-11.924" gradientTransform="matrix(1838.8894 0 0 214.6868 -2072625.875 4841.516)" gradientUnits="userSpaceOnUse">
    <stop offset="0" stop-color="#871101"/>
    <stop offset="0" stop-color="#871101"/>
    <stop offset=".99" stop-color="#911209"/>
    <stop offset="1" stop-color="#911209"/>
  </linearGradient>
  <path fill="url(#c)" d="M2352.3 2355.8l-1158.5-90.9-680.3 214.7 1838.8-123.8z"/>
  <linearGradient id="d" x1="1126.729" x2="1126.894" y1="-5.739" y2="-5.021" gradientTransform="matrix(636.8931 0 0 948.1528 -717119.875 7042.372)" gradientUnits="userSpaceOnUse">
    <stop offset="0" stop-color="#fff"/>
    <stop offset="0" stop-color="#fff"/>
    <stop offset=".23" stop-color="#e57252"/>
    <stop offset=".46" stop-color="#de3b20"/>
    <stop offset=".99" stop-color="#a60003"/>
    <stop offset="1" stop-color="#a60003"/>
  </linearGradient>
  <path fill="url(#d)" d="M515 2479.8l289.4-948.2-636.9 136.2 347.5 812z"/>
  <linearGradient id="e" x1="1127.365" x2="1127.402" y1="-5.483" y2="-4.817" gradientTransform="matrix(1028.4187 0 0 1043.1245 -1158195.625 6683.543)" gradientUnits="userSpaceOnUse">
    <stop offset="0" stop-color="#fff"/>
    <stop offset="0" stop-color="#fff"/>
    <stop offset=".23" stop-color="#e4714e"/>
    <stop offset=".56" stop-color="#be1a0d"/>
    <stop offset=".99" stop-color="#a80d00"/>
    <stop offset="1" stop-color="#a80d00"/>
  </linearGradient>
  <path fill="url(#e)" d="M1761.1 1836.3L1494.8 793.1l-762.1 714.4 1028.4 328.8z"/>
  <linearGradient id="f" x1="1127.145" x2="1127.271" y1="-6.493" y2="-5.724" gradientTransform="matrix(921.017 0 0 648.5522 -1036271.75 4531.7)" gradientUnits="userSpaceOnUse">
    <stop offset="0" stop-color="#fff"/>
    <stop offset="0" stop-color="#fff"/>
    <stop offset=".18" stop-color="#e46342"/>
    <stop offset=".4" stop-color="#c82410"/>
    <stop offset=".99" stop-color="#a80d00"/>
    <stop offset="1" stop-color="#a80d00"/>
  </linearGradient>
  <path fill="url(#f)" d="M2428.4 807.8L1708 219.5 1507.4 868l921-60.2z"/>
  <linearGradient id="g" x1="1126.504" x2="1127.225" y1="-10.656" y2="-11.707" gradientTransform="matrix(691.0189 0 0 237.2921 -776940.813 2673.714)" gradientUnits="userSpaceOnUse">
    <stop offset="0" stop-color="#fff"/>
    <stop offset="0" stop-color="#fff"/>
    <stop offset=".54" stop-color="#c81f11"/>
    <stop offset=".99" stop-color="#bf0905"/>
    <stop offset="1" stop-color="#bf0905"/>
  </linearGradient>
  <path fill="url(#g)" d="M2091.5 9.7l-423.7 234.2L1400.5 6.5l691 3.2z"/>
  <linearGradient id="h" x1="1121.921" x2="1122.152" y1="-6.21" y2="-5.631" gradientTransform="matrix(177.4931 0 0 709.3571 -199084.188 5831.935)" gradientUnits="userSpaceOnUse">
    <stop offset="0" stop-color="#fff"/>
    <stop offset="0" stop-color="#fff"/>
    <stop offset=".31" stop-color="#de4024"/>
    <stop offset=".99" stop-color="#bf190b"/>
    <stop offset="1" stop-color="#bf190b"/>
  </linearGradient>
  <path fill="url(#h)" d="M0 1985.9l177.5-323.7-143.6-385.7L0 1985.9z"/>
  <path fill="#FFF" d="M24.4 1264.3l144.5 409.8 627.7-140.8 716.6-666 202.2-642.4L1397 0 855.6 202.6C685 361.3 354 675.2 342.1 681.1c-11.9 6-218.6 396.8-317.7 583.2z"/>
  <linearGradient id="i" x1="1127.063" x2="1128.312" y1="-3.891" y2="-5.177" gradientTransform="matrix(1544.4149 0 0 1542.2134 -1740886 7949.26)" gradientUnits="userSpaceOnUse">
    <stop offset="0" stop-color="#bd0012"/>
    <stop offset="0" stop-color="#bd0012"/>
    <stop offset=".07" stop-color="#fff"/>
    <stop offset=".17" stop-color="#fff"/>
    <stop offset=".27" stop-color="#c82f1c"/>
    <stop offset=".33" stop-color="#820c01"/>
    <stop offset=".46" stop-color="#a31601"/>
    <stop offset=".72" stop-color="#b31301"/>
    <stop offset=".99" stop-color="#e82609"/>
    <stop offset="1" stop-color="#e82609"/>
  </linearGradient>
  <path fill="url(#i)" d="M531.6 528.2c369.7-366.5 846.3-583.1 1029.2-398.6 182.8 184.5-11.1 633-380.7 999.4-369.8 366.5-840.4 595-1023.2 410.4-182.9-184.4 5-644.8 374.7-1011.2z"/>
  <linearGradient id="j" x1="1127.679" x2="1127.211" y1="-5.154" y2="-5.305" gradientTransform="matrix(1240.8304 0 0 951.1702 -1398013.75 7050.88)" gradientUnits="userSpaceOnUse">
    <stop offset="0" stop-color="#8c0c01"/>
    <stop offset="0" stop-color="#8c0c01"/>
    <stop offset=".54" stop-color="#990c00"/>
    <stop offset=".99" stop-color="#a80d0e"/>
    <stop offset="1" stop-color="#a80d0e"/>
  </linearGradient>
  <path fill="url(#j)" d="M515 2479.4l287.2-951.2 953.7 306.4C1411 2158 1027.5 2431.3 515 2479.4z"/>
  <linearGradient id="k" x1="1127.564" x2="1127.002" y1="-5.039" y2="-5.487" gradientTransform="matrix(917.9897 0 0 1031.1821 -1032850 6646.79)" gradientUnits="userSpaceOnUse">
    <stop offset="0" stop-color="#7e110b"/>
    <stop offset="0" stop-color="#7e110b"/>
    <stop offset=".99" stop-color="#9e0c00"/>
    <stop offset="1" stop-color="#9e0c00"/>
  </linearGradient>
  <path fill="url(#k)" d="M1514.4 865.4l244.8 969.8c288-302.9 546.6-628.5 673.2-1031.2l-918 61.4z"/>
  <linearGradient id="l" x1="1127.48" x2="1127.149" y1="-5.41" y2="-5.754" gradientTransform="matrix(778.269 0 0 798.665 -875050.063 4922.91)" gradientUnits="userSpaceOnUse">
    <stop offset="0" stop-color="#79130d"/>
    <stop offset="0" stop-color="#79130d"/>
    <stop offset=".99" stop-color="#9e120b"/>
    <stop offset="1" stop-color="#9e120b"/>
  </linearGradient>
  <path fill="url(#l)" d="M2429.9 808.8c98-295.7 120.6-719.9-341.4-798.7l-379.1 209.4 720.5 589.3z"/>
  <path fill="#9E1209" d="M0 1981.6c13.6 488 365.7 495.3 515.7 499.6l-346.5-809.1L0 1981.6z"/>
  <radialGradient id="m" cx="1127.079" cy="-7.214" r=".696" gradientTransform="matrix(909.2308 0 0 475.1044 -1022968.5 4424.662)" gradientUnits="userSpaceOnUse">
    <stop offset="0" stop-color="#a80d00"/>
    <stop offset="0" stop-color="#a80d00"/>
    <stop offset=".99" stop-color="#7e0e08"/>
    <stop offset="1" stop-color="#7e0e08"/>
  </radialGradient>
  <path fill="url(#m)" d="M1515.8 866.9c221.3 136 667.4 409.3 676.5 414.3 14.1 7.9 192.3-300.6 232.8-475l-909.3 60.7z"/>
  <radialGradient id="n" cx="1126.95" cy="-5.911" r=".884" gradientTransform="matrix(951.4143 0 0 740.6335 -1071265.5 6208.714)" gradientUnits="userSpaceOnUse">
    <stop offset="0" stop-color="#a30c00"/>
    <stop offset="0" stop-color="#a30c00"/>
    <stop offset=".99" stop-color="#800e08"/>
    <stop offset="1" stop-color="#800e08"/>
  </radialGradient>
  <path fill="url(#n)" d="M801.8 1528.2l383.9 740.6c227-123.1 404.7-273.1 567.5-433.7l-951.4-306.9z"/>
  <linearGradient id="o" x1="1125.688" x2="1125.153" y1="-5.151" y2="-6.048" gradientTransform="matrix(391.9162 0 0 792.3398 -440840.188 6560.353)" gradientUnits="userSpaceOnUse">
    <stop offset="0" stop-color="#8b2114"/>
    <stop offset="0" stop-color="#8b2114"/>
    <stop offset=".43" stop-color="#9e100a"/>
    <stop offset=".99" stop-color="#b3100c"/>
    <stop offset="1" stop-color="#b3100c"/>
  </linearGradient>
  <path fill="url(#o)" d="M167.7 1673.1l-54.4 647.7c102.6 140.2 243.8 152.4 391.9 141.5-107.1-266.8-321.2-800-337.5-789.2z"/>
  <linearGradient id="p" x1="1126.83" x2="1127.446" y1="-9.037" y2="-8.386" gradientTransform="matrix(762.6236 0 0 318.554 -857404.25 3001.93)" gradientUnits="userSpaceOnUse">
    <stop offset="0" stop-color="#b31000"/>
    <stop offset="0" stop-color="#b31000"/>
    <stop offset=".44" stop-color="#910f08"/>
    <stop offset=".99" stop-color="#791c12"/>
    <stop offset="1" stop-color="#791c12"/>
  </linearGradient>
  <path fill="url(#p)" d="M1707.1 221.2l762.6 107C2429 155.8 2304.1 44.5 2091 9.7l-383.9 211.5z"/>
</svg>
