<svg xmlns="http://www.w3.org/2000/svg" viewBox="0 0 2499.81 1873.74">
  <path fill="#cf649a" d="M2151.92 1076c-87.4.5-163.1 21.5-226.6 52.7-23.4-46.4-46.9-86.9-50.8-117.2-4.4-35.2-9.8-56.6-4.4-98.6s29.8-101.6 29.8-106.5c-.5-4.4-5.4-25.9-55.7-26.4s-93.8 9.8-98.6 22.9a569.06 569.06 0 0 0-21 74.7c-8.8 45.9-100.6 208.5-152.8 293.9-17.1-33.2-31.7-62.5-34.7-85.9-4.4-35.2-9.8-56.6-4.4-98.6s29.8-101.6 29.8-106.4c-.5-4.4-5.4-25.9-55.7-26.4s-93.8 9.8-98.6 22.9-10.3 44.4-21 74.7c-10.3 30.3-132.3 301.8-164.1 372.6-16.1 36.1-30.3 64.9-40.5 84.5s-.5 1.5-1.5 3.4c-8.8 16.6-13.7 25.9-13.7 25.9v.5c-6.8 12.2-14.2 23.9-17.6 23.9-2.4 0-7.3-32.7 1-77.6 18.1-94.2 62-241.2 61.5-246.6 0-2.4 8.3-28.3-28.3-41.5-35.6-13.2-48.3 8.8-51.3 8.8s-5.4 7.8-5.4 7.8 39.6-165.5-75.7-165.5c-72.3 0-171.9 78.6-221.2 150.4-31.2 17.1-97.7 53.2-168 91.8-26.9 14.6-54.7 30.3-81.1 44.4l-5.4-5.9c-139.3-148.8-397.6-254.3-386.9-454.5 3.9-72.8 29.3-264.6 496.1-497.1 382.3-190.4 688.5-138.2 741.7-22 75.7 166-163.6 474.6-561 519-151.4 17.1-231-41.5-251-63.5-21-22.9-23.9-23.9-31.7-19.5-12.7 6.8-4.9 27.3 0 39.6 11.7 30.8 60.5 85.4 143.6 112.8 72.7 23.9 250.5 37.1 465.3-45.9 240.7-93.3 428.7-352.1 373.5-568.4-56.1-220.1-421.4-292.4-766.6-169.8-205.6 73.2-428.2 187.5-588.4 337.4-190.4 177.7-220.7 333-208 397.4 44.4 230 361.3 379.9 488.3 490.7-6.3 3.4-12.2 6.8-17.6 9.8-63.5 31.2-305.2 157.7-365.7 291.5-68.4 151.4 10.7 260.3 63.5 274.9 163.1 45.4 330.1-36.1 420.4-170.4 89.8-134.3 79.1-308.6 37.6-388.2l-1.5-2.9 49.8-29.3c32.2-19 64-36.6 91.8-51.8-15.6 42.5-26.9 92.8-32.7 166-6.8 85.9 28.3 197.3 74.7 241.2 20.5 19 44.9 19.5 60.1 19.5 53.7 0 78.1-44.4 105-97.7 33.2-64.9 62.5-140.1 62.5-140.1s-36.6 203.6 63.5 203.6c36.6 0 73.2-47.4 89.8-71.8v.5s1-1.5 2.9-4.9c2-3 4-6.1 5.9-9.3v-1c14.6-25.4 47.4-83.5 96.2-179.7 63-124 123.5-279.3 123.5-279.3s5.9 38.1 23.9 100.6c10.7 37.1 34.2 77.6 52.2 117.2-14.6 20.5-23.4 32.2-23.4 32.2l.5.5c-11.7 15.6-24.9 32.2-38.6 48.8-49.8 59.6-109.4 127.4-117.2 147-9.3 22.9-7.3 40 10.7 53.7 13.2 9.8 36.6 11.7 61.5 9.8 44.9-2.9 76.2-14.2 91.8-21a320.33 320.33 0 0 0 79.1-41.5c48.8-36.1 78.6-87.4 75.7-155.8-1.5-37.6-13.7-74.7-28.8-109.9 4.4-6.3 8.8-12.7 13.2-19.5 77.2-112.6 136.8-236.6 136.8-236.6s5.9 38.1 23.9 100.6c9.3 31.7 27.8 66.4 44.4 100.6-72.3 59.1-117.7 127.4-133.3 172.4-28.8 83-6.3 120.6 36.1 129.4 19 3.9 46.4-4.9 66.9-13.7a302.72 302.72 0 0 0 84.5-43.5c48.8-36.1 95.7-86.4 93.3-154.3-1.5-31.2-9.8-62-21-91.3 61.5-25.4 141.1-40 242.2-27.8 217.3 25.4 260.3 161.1 252 217.8s-53.7 87.9-68.9 97.7c-15.1 9.3-20 12.7-18.6 19.5 2 10.3 8.8 9.8 22 7.8 18.1-2.9 114.3-46.4 118.2-150.9 5.8-134.3-121.6-280.8-347.7-279.3zm-1675.7 564.9c-71.8 78.6-172.9 108.4-215.8 83-46.4-26.9-28.3-142.6 60.1-226.1 53.7-50.8 123.5-97.7 169.4-126.5 10.3-6.3 25.9-15.6 44.4-26.9a54.18 54.18 0 0 1 4.9-2.9c3.4-2 7.3-4.4 11.2-6.8 32.7 119.2 1.4 223.7-74.2 306.2zm524.9-356.9c-24.9 61-77.6 217.8-109.4 209-27.3-7.3-43.9-126-5.4-243.2 19.5-59.1 61-129.4 85.4-156.7 39.6-43.9 82.5-58.6 93.3-40.5 12.7 23.4-48.3 193.3-63.9 231.4zm433.1 207c-10.7 5.4-20.5 9.3-24.9 6.4-3.4-2 4.4-9.3 4.4-9.3s54.2-58.1 75.7-85c12.2-15.6 26.9-33.7 42.5-54.2v5.9c-.1 70.3-67.5 117.2-97.7 136.2zm333.9-76.2c-7.8-5.9-6.8-23.9 19.5-80.6 10.3-22.5 33.7-60.1 74.2-95.7 4.9 14.6 7.8 28.8 7.3 42-.4 88-62.9 120.7-101 134.3z"/>
</svg>
