<svg xmlns="http://www.w3.org/2000/svg" viewBox="0 0 412 393.2">
  <path d="M208.8 392.1c45.1-161.1 43.8-161.8 76.3-276.7l7.8 4.5c4.3 2.5 7.7.4 7.7-4.5V60.7C309.3 30.4 316.1 7 318.1 0h35.3L412 54.3l-38.5 33.3 29.1 31.5-191.8 273c-1 1.6-2.3 1.2-2 0zm21-347.2c1.7 0 3.1 1 3.1 2.1v28.1c0 1.2-1.4 2.1-3.1 2.1h-47.4c-1.7 0-3.2-1-3.2-2.1V47c0-1.2 1.4-2.1 3.2-2.1h47.4z"/>
  <path d="M288.3 13.8l-52.1 30.1c.6.9 1 2 1 3.1v28.1c0 1.5-.6 2.8-1.5 3.8l52.7 30.4c3.6 2.1 6.5.4 6.5-3.8v-88c-.1-4.1-3-5.8-6.6-3.7zM175 75.1V47c0-1.2.4-2.2 1-3.1l-52.1-30.1c-3.6-2.1-6.5-.4-6.5 3.8v88c0 4.1 2.9 5.8 6.5 3.8L176.6 79c-1-1.1-1.6-2.5-1.6-3.9z"/>
  <path d="M201.2 392.1h1.9C158 231 159.3 230.3 126.8 115.4l-7.8 4.5c-4.3 2.5-7.7.4-7.7-4.5V60.7C102.7 30.4 95.9 7 93.9 0H58.6L0 54.3l38.5 33.3L9.4 119l191.8 273.1z"/>
  <circle cx="204.6" cy="121.6" r="14.2"/>
  <circle cx="204.6" cy="206.2" r="14.2"/>
  <circle cx="204.6" cy="290.9" r="14.2"/>
</svg>
