<?xml version="1.0" standalone="no"?>
<!DOCTYPE svg PUBLIC "-//W3C//DTD SVG 20010904//EN"
 "http://www.w3.org/TR/2001/REC-SVG-20010904/DTD/svg10.dtd">
<svg version="1.0" xmlns="http://www.w3.org/2000/svg"
 width="555.000000pt" height="555.000000pt" viewBox="0 0 555.000000 555.000000"
 preserveAspectRatio="xMidYMid meet">
<metadata>
Created by potrace 1.11, written by Peter Selinger 2001-2013
</metadata>
<g transform="translate(0.000000,555.000000) scale(0.100000,-0.100000)"
fill="#000000" stroke="none">
<path d="M957 4254 c-1 -1 -38 -4 -82 -8 -112 -9 -129 -12 -229 -41 -166 -48
-303 -130 -430 -256 l-79 -78 33 -38 c18 -21 58 -66 88 -100 l55 -62 67 63
c37 34 101 84 142 109 72 45 206 101 265 111 16 3 44 8 63 12 43 8 202 7 250
-1 219 -37 373 -155 416 -317 15 -62 13 -166 -6 -223 -40 -123 -157 -216 -330
-260 -82 -21 -89 -22 -307 -24 l-183 -1 0 -142 0 -143 193 0 c261 0 326 -11
464 -76 145 -69 213 -175 219 -341 8 -234 -128 -400 -381 -464 -92 -23 -292
-23 -390 -1 -182 42 -315 114 -438 238 l-68 69 -89 -92 c-49 -51 -89 -99 -90
-106 0 -7 37 -50 83 -96 235 -238 567 -342 962 -303 390 38 681 286 721 614
36 294 -81 509 -350 647 -37 19 -92 40 -122 47 -49 11 -74 29 -40 29 30 0 164
62 228 106 164 112 247 263 249 454 3 323 -207 561 -567 645 -68 16 -306 37
-317 29z"/>
<path d="M4357 4254 c-1 -1 -32 -4 -68 -8 -152 -14 -282 -52 -421 -121 -66
-33 -97 -53 -153 -95 -32 -24 -165 -160 -165 -168 0 -4 42 -51 93 -104 l93
-98 59 61 c168 173 363 251 620 251 168 -1 305 -52 405 -152 88 -87 120 -178
114 -320 -8 -217 -113 -407 -359 -655 -117 -118 -184 -180 -341 -316 -121
-105 -166 -143 -486 -402 -15 -12 -65 -51 -112 -87 l-85 -65 0 -127 -1 -128
858 0 858 0 -1 138 0 137 -550 2 c-303 1 -577 2 -610 3 -59 0 -59 0 -35 17 14
9 27 19 30 23 3 3 59 49 125 102 66 53 134 109 150 123 188 164 247 217 390
358 299 292 438 515 478 770 37 230 -18 443 -153 590 -114 124 -282 214 -472
253 -41 8 -255 23 -261 18z"/>
<path d="M2680 4110 c-245 -250 -515 -531 -518 -538 -1 -4 40 -49 91 -100 l93
-93 130 137 c71 75 134 142 139 148 59 67 125 133 128 128 2 -4 3 -472 3
-1039 l-1 -1033 156 0 156 0 -1 1247 -1 1248 -135 1 -135 1 -105 -107z"/>
</g>
</svg>
