<svg version="1.0" xmlns="http://www.w3.org/2000/svg"
 width="1167.000000pt" height="1167.000000pt" viewBox="0 0 1167.000000 1167.000000"
 preserveAspectRatio="xMidYMid meet">
<metadata>
Created by potrace 1.11, written by Peter Selinger 2001-2013
</metadata>
<g transform="translate(0.000000,1167.000000) scale(0.100000,-0.100000)"
fill="#000000" stroke="none">
<path d="M0 5835 l0 -5835 5835 0 5835 0 0 5835 0 5835 -5835 0 -5835 0 0
-5835z m5938 4714 c395 -43 695 -177 952 -425 220 -213 371 -481 455 -807 69
-270 68 -256 72 -1239 l4 -888 -435 0 -435 0 -3 878 -4 877 -26 97 c-41 150
-96 247 -197 349 -70 71 -102 94 -171 127 -123 59 -185 73 -346 79 -110 4
-160 2 -225 -12 -170 -34 -295 -101 -405 -218 -80 -83 -131 -174 -171 -302
l-28 -90 0 -3160 0 -3160 22 -83 c72 -268 237 -440 498 -518 110 -32 324 -44
439 -24 281 49 478 217 565 480 48 145 51 198 51 1093 l0 837 436 0 435 0 -4
-892 c-4 -989 -3 -975 -72 -1245 -127 -493 -429 -881 -840 -1078 -279 -134
-630 -190 -976 -155 -750 76 -1305 570 -1490 1324 -69 284 -64 16 -64 3416 0
2903 1 3071 18 3180 103 655 425 1133 937 1390 170 85 387 148 581 169 121 12
315 13 427 0z"/>
</g>
</svg>
