<?xml version="1.0" encoding="utf-8"?>
<!-- Generator: Adobe Illustrator 21.1.0, SVG Export Plug-In . SVG Version: 6.00 Build 0)  -->
<svg version="1.1" id="Layer_1" xmlns="http://www.w3.org/2000/svg" xmlns:xlink="http://www.w3.org/1999/xlink" x="0px" y="0px"
	 viewBox="0 0 1994.6 1088.1" enable-background="new 0 0 1994.6 1088.1" xml:space="preserve">
<path fill="#4B4B77" d="M453.4,22.8c24.2,15.1,41.3,33.6,51.4,55.2c15.1,34.6,31.9,72.2,50.2,113s36.9,82.1,55.2,123.9
	c18.3,41.8,36.1,82.6,52.9,122.2s32.2,75.9,45.5,108.8c13.4,32.9,24,60.8,31.9,83.9c7.9,23,11.9,38.3,11.9,45.5
	c0,12.4-1.7,24.2-4.9,36.1c-3.2,11.9-9.2,22.8-17.8,32.4c-8.7,9.6-20.8,17.6-36.1,23.3c-15.6,5.7-35.6,8.7-60.1,8.7
	c-26,0-47-3.5-63.3-10.4c-16.3-6.9-29.7-15.6-40.6-26.5c-10.9-10.9-19.8-22.3-27-34.1s-14.6-23.3-22.3-34.1s-16.3-19.5-26-26.5
	c-9.6-6.9-23-10.4-39.6-10.4h-69.3c-20.3,0-36.1,3.5-48.2,10.4c-11.9,6.9-21.5,15.6-29.2,26.5c-7.7,10.9-14.6,22.3-21,34.1
	c-6.4,11.9-14.8,23.3-25,34.1s-23.3,19.5-39.6,26.5c-16.3,6.9-38.1,10.4-65.5,10.4c-40.3,0-70-8.9-88.8-27
	C9.4,730.7,0,709.4,0,684.9c0-9.4,3.7-25.7,11.4-49.2c7.7-23.5,17.8-51.4,30.9-83.8c13.6-32.6,28.4-68.5,45-108.3
	c16.6-39.6,34.1-80.6,52.9-122.7c18.8-42.3,37.6-84.3,56.1-126.6c18.8-42.3,36.9-82.9,54.2-121.7c10.1-22.3,27-40.1,50.2-52.9
	C324.3,6.7,350.2,0,379.2,0C404.4,0,429.1,7.7,453.4,22.8L453.4,22.8z M1328.2,26.5c18.8,17.1,28.2,38.8,28.2,65.5
	c0,15.1-3.7,34.9-11.4,59.6c-7.7,24.5-17.3,52.2-29.2,83.4c-11.9,30.9-25.7,64.6-41.1,100.7c-15.6,36.1-31.2,72.7-47,110.3
	c-21.5,51.2-40.3,97.2-55.7,138c-15.6,40.8-31.4,75.4-47.5,103.9c-16.3,28.4-33.9,50.5-52.9,66c-19,15.6-42.8,23.3-70.7,23.3
	c-28.9,0-52.9-6.2-72-19c-19-12.6-36.4-31.7-51.9-57.4c-15.6-25.5-30.7-57.9-45.5-96.7c-14.8-38.8-32.2-85.1-52.4-138.5
	c-15.1-40.3-30.7-79.9-46.5-118.5c-15.8-38.6-30.2-74.2-43.3-106.6c-12.9-32.4-23.5-61.6-31.9-87.1c-8.2-25.5-12.4-45.5-12.4-60.1
	c0-33.1,11.1-56.9,33.6-71.5C701,7.4,728.9,0.2,762.1,0.2c30.2,0,53.9,3.7,70.7,11.4s31.7,17.6,43.8,29.7c8.7,8.7,17.3,21.3,26,37.8
	c8.7,16.6,16.8,34.9,24.2,54.7c7.7,19.8,15.1,39.8,22.8,60.1c7.7,20.3,14.6,38.8,21,55.7c6.4,17.1,12.9,30.7,19,41.1
	c6.2,10.4,11.6,15.6,16.8,15.6c5.7,0,11.6-5.2,17.8-15.6s12.4-24,19-40.6c6.4-16.6,13.1-34.9,20-54.7s14.1-39.6,21.5-58.9
	c7.4-19.3,15.6-37.3,23.7-53.4c8.2-16.3,16.8-28.7,25.5-37.3c7.9-7.9,15.6-14.6,23.3-20c7.7-5.4,15.8-9.9,25-13.6
	c8.9-3.7,19.3-6.2,30.9-8.2c11.6-1.7,25.5-2.7,42.3-2.7C1285,1.2,1309.4,9.6,1328.2,26.5L1328.2,26.5z M1695.6,22.8
	c24.2,15.1,41.3,33.6,51.4,55.2c15.1,34.6,31.9,72.2,50.2,113c18.3,40.8,36.9,82.1,55.2,123.9s36.1,82.6,52.9,122.2
	c16.8,39.6,32.2,75.9,45.5,108.8c13.4,32.9,24,60.8,31.9,83.9c7.9,23,11.9,38.3,11.9,45.5c0,12.4-1.7,24.2-4.9,36.1
	c-3.2,11.9-9.2,22.8-17.8,32.4c-8.7,9.6-20.8,17.6-36.1,23.3c-15.6,5.7-35.6,8.7-60.1,8.7c-26,0-47-3.5-63.3-10.4
	c-16.3-6.9-29.7-15.6-40.6-26.5c-10.9-10.9-19.8-22.3-27-34.1s-14.6-23.3-22.3-34.1c-7.7-10.9-16.3-19.5-26-26.5
	c-9.6-6.9-23-10.4-39.6-10.4h-69.3c-20.3,0-36.1,3.5-48.2,10.4c-11.9,6.9-21.5,15.6-29.2,26.5c-7.7,10.9-14.6,22.3-21,34.1
	s-14.8,23.3-25,34.1c-10.1,10.9-23.3,19.5-39.6,26.5c-16.3,6.9-38.1,10.4-65.5,10.4c-40.3,0-70-8.9-88.8-27
	c-18.8-18.1-28.2-39.3-28.2-63.8c0-9.4,3.7-25.7,11.4-49.2c7.7-23.5,17.8-51.4,30.9-83.8c12.9-32.4,27.7-68.5,44.3-108.1
	c16.6-39.6,34.1-80.6,52.9-122.7c18.8-42.3,37.6-84.3,56.1-126.6c18.8-42.3,36.9-82.9,54.2-121.7c10.1-22.3,27-40.1,50.2-52.9
	c23.5-12.9,49.5-19.5,78.4-19.5C1646.6,0,1671.3,7.7,1695.6,22.8L1695.6,22.8z"/>
<path fill="#E0C7C1" d="M376.7,1088.1c5.9,0,11.6-3.2,14.3-8.7c0-0.2,23.5-43.5,46.7-94.7c11.6-25.7,23.5-53.2,32.4-78.7
	c4.5-12.9,8.2-25,10.9-36.1c2.7-11.4,4.5-21.8,4.5-31.2c0-36.9-13.6-69.8-36.4-92.5c-19-19-44.8-30.7-72.7-30.7
	s-53.7,11.6-72.7,30.7c-22.5,22.5-36.4,55.4-36.4,92.5c0,9.6,1.7,20,4.5,31.2c4.7,19.8,12.9,42.3,22,65.5
	c27.9,69.5,68,143.7,68,144.2C365.1,1084.6,370.5,1088.1,376.7,1088.1z M1618.9,1088.1c5.9,0,11.6-3.2,14.3-8.7
	c0-0.2,23.5-43.5,46.7-94.7c11.6-25.7,23.5-53.2,32.4-78.7c4.5-12.9,8.2-25,10.9-36.1c2.7-11.4,4.5-21.8,4.5-31.2
	c0-36.9-13.6-69.8-36.4-92.5c-19-19-44.8-30.7-72.7-30.7c-27.9,0-53.7,11.6-72.7,30.7c-22.5,22.5-36.4,55.4-36.4,92.5
	c0,9.6,1.7,20,4.5,31.2c4.7,19.8,12.9,42.3,22,65.5c27.9,69.5,68,143.7,68,144.2C1607.2,1084.6,1612.7,1088.1,1618.9,1088.1
	L1618.9,1088.1z">
<animate  accumulate="none" additive="replace" attributeName="opacity" calcMode="linear" dur="2s" fill="remove" repeatCount="indefinite" restart="always" values="0.5;1;0.5">
		</animate>
</path>
</svg>
