<?xml version="1.0" encoding="utf-8"?>
<!-- Generator: Adobe Illustrator 21.1.0, SVG Export Plug-In . SVG Version: 6.00 Build 0)  -->
<svg version="1.1" id="Layer_1" xmlns="http://www.w3.org/2000/svg" xmlns:xlink="http://www.w3.org/1999/xlink" x="0px" y="0px"
	 viewBox="0 0 1766.7 2493.7" enable-background="new 0 0 1766.7 2493.7" xml:space="preserve">
<path fill="#264DE4" d="M882.3,2493.7l-721.5-200.3L0,490.1h1766.7l-160.9,1803L882.3,2493.7L882.3,2493.7z"/>
<path fill="#2965F1" d="M1468,2178.3l137.5-1540.8H883.3v1702.9L1468,2178.3L1468,2178.3z"/>
<path fill="#EBEBEB" d="M368.6,1306.3l19.8,221.2h494.9v-221.2H368.6z M328.8,858.7l20.1,221.2h534.5V858.7H328.8L328.8,858.7z
	 M883.3,1880.7l-1,0.3L636,1814.5l-15.7-176.4h-222l31,347.3l453.1,125.8l1-0.3v-230.2H883.3z"/>
<path d="M415.8,0h267.9v112H527.8v112h155.9v112H415.8V0z M737.2,0h267.9v97.4H849.3v19.5h155.9v224h-268V238.6h155.9v-19.5H737.2V0
	L737.2,0z M1058.7,0h267.9v97.4h-155.9v19.5h155.9v224h-267.9V238.6h155.9v-19.5h-155.8L1058.7,0L1058.7,0z"/>
<path fill="#FFFFFF" d="M1396.7,1306.3l39.9-447.7h-554v221.2h311.6l-20.1,226.5H882.6v221.2h272.3l-25.7,286.8l-246.7,66.6V2111
	l453.4-125.7l3.3-37.4l52-582.3L1396.7,1306.3L1396.7,1306.3z"/>
</svg>
