<?xml version="1.0" encoding="utf-8"?>
<!-- Generator: Adobe Illustrator 21.1.0, SVG Export Plug-In . SVG Version: 6.00 Build 0)  -->
<svg version="1.1" id="Layer_1" xmlns="http://www.w3.org/2000/svg" xmlns:xlink="http://www.w3.org/1999/xlink" x="0px" y="0px"
	 viewBox="0 0 469.3 180.5" enable-background="new 0 0 469.3 180.5" xml:space="preserve">
<path fill="#E24C32" d="M469.3,129.1c-0.7-8-7.8-5-7.8-5s-11.4,9-21.4,8s-7-23.5-7-23.5s2.3-20.5-3.6-22.2s-13.2,5.3-13.2,5.3
	s-9,10-13.4,22.8l-1,0.4c0,0,1.2-22.4-0.3-27.5c-2-2.5-12-2.4-14,2.2s-11,36-11,49c0,0-17,14.4-32,16.8s-19-7-19-7s40-11,38-43
	s-33-20.3-36-17.7s-21,13.4-26,43.7l-1,5.5c0,0-15.6,10.4-24,13.2c0,0,24-40.7-5.5-59c-13-8.2-24,8.7-24,8.7s40-44.4,31-82
	c-1.4-17.7-10.4-19.7-19.4-16.7c-12.3,4.8-17,12-17,12s-16,23.4-19.8,58.2s-9.2,76.8-9.2,76.8s-7.8,7.5-14.8,8s-4-21-4-21
	s5.5-32.7,5-38.2s-0.6-8.5-7-10.5s-13.7,6.3-13.7,6.3S159.5,121,158,125.3l-1,1.8l-1-1.2c0,0,13-38.5,0.6-39s-21,13.7-21,13.7
	s-15,24-15,26.7l-1-1.2c0,0,6-28,4-34.7s-8-5.5-8-5.5s-9-1-11,4.3s-10,41-11,52c0,0-21,15-34,15s-12-9-12-9s49-17,36-50
	c-6-9-13-11-23-11s-22,6-30,24c-4,9-5,17-6,23s-9,2-14-2s-7,0-7,0s-8,10,0,13s20.5,4,20.5,4c2,10,7,18,14,23c14.6,11,43-1,43-1
	l11.4-6c0,0,0.4,11,9,13s12,0,26.6-36c9-18,9.7-17,9.7-17h1c0,0-6.4,35-4,44.4s14,8,14,8s6,1,11-16s14.9-36.5,14.9-36.5h1
	c0,0-4,36,2.3,47.2s22.3,4,22.3,4s11.4-6,13.2-7.7c0,0,13.4,12,32.5,10c43-8,58-20,58-20s7.5,19,30,21c26,2,40-14,40-14
	s0,10.6,9,14.4s15-17.8,15-17.8l15.3-42h1c0,0,1,27.5,16,31.8s34.4-10,34.4-10s5-2,4-10v-2L469.3,129.1z M46.7,133.1
	c0.7-23.5,16-33.7,21.3-28.6s3.3,16-6.7,23C51.3,134.5,46.7,133.1,46.7,133.1z M246.2,42.4c0,0,14-36.3,17.3-18.6
	s-29.3,70.3-29.3,70.3C234.6,82.3,246.2,42.4,246.2,42.4z M262.9,143.6c-9.2,24.2-31.6,14.3-31.6,14.3s-2.6-8.6,4.7-32.8
	s24.3-14.7,24.3-14.7S272.1,119.4,262.9,143.6z M324.9,133c0,0-2.3-8,5.8-23s14.3-7,14.3-7s7,7-1,18s-19.3,11-19.3,11L324.9,133z"/>
<path fill="#E24C32" d="M410.7,171.1c0,3-2.3,5.3-5.2,5.4c-3,0-5.3-2.3-5.4-5.2c0-3,2.3-5.3,5.2-5.4c2.8,0,5.2,2.2,5.3,5v0.2H410.7z
	 M401.3,171.1c0,2.2,1.8,4,4,4s4-1.8,4-4s-1.8-4-4-4S401.3,168.9,401.3,171.1z M404.5,173.7h-1.2v-5c0.7-0.2,1.3-0.3,2-0.3
	c0.6,0,1.3,0,1.8,0.4c0.3,0.2,0.5,0.6,0.5,1c0,0.7-1,1.4-2,1.5c-0.3,0-0.7,0-1-0.2c0.7,0.2,1,0.7,1,1.3v1.3H404.5l-0.9-1.2
	c0-0.6-0.4-1-1-1H402l1.6,2.2H404.5z M404.5,170.7h0.6c0.6,0,1.2,0,1.2-0.6s-0.4-0.8-1-0.8h-0.8L404.5,170.7L404.5,170.7z"/>
</svg>
