<?xml version="1.0" encoding="utf-8"?>
<!-- Generator: Adobe Illustrator 21.1.0, SVG Export Plug-In . SVG Version: 6.00 Build 0)  -->
<svg version="1.1" id="Layer_1" xmlns="http://www.w3.org/2000/svg" xmlns:xlink="http://www.w3.org/1999/xlink" x="0px" y="0px"
	 viewBox="0 0 1860 2500" enable-background="new 0 0 1860 2500" xml:space="preserve">
<path fill="#FBA919" d="M125.7,605.8c0,0,42.7,164.6,48.8,219.5c6.1,54.9-109.7,176.8-109.7,237.8c0,61,24.4,170.7,158.5,225.6
	c134.2,54.9,152.4,195.1,152.4,280.5c0,85.4-48.8,250-48.8,250s-30.5,408.5,134.1,481.7c164.6,73.2,128,73.2,164.6,73.2
	c36.6,0,304.9,109.8,463.4,67.1c158.5-42.7,201.2-91.5,201.2-91.5s158.5,12.2,207.3-128.1c48.8-140.2,79.3-432.9,61-567
	c-18.3-134.2-42.7-310.9,67.1-371.9c109.8-61,225.6-134.1,207.3-195.1c-18.3-61-115.8-146.3-115.8-146.3s-24.4-152.4-6.1-189
	c18.3-36.6,128-128.1,67.1-195.1c-60.9-67.1-170.7-67.1-170.7-67.1L1467,502.1c0,0-237.8-213.4-548.8-201.2
	c-310.9,12.2-506.1,201.2-506.1,201.2s-103.6-36.6-195.1,0C125.6,538.7,107.4,502.1,125.7,605.8z"/>
<path fill="#E78724" d="M682.8,1513.6c0,0-120.7,184.6-209.3,315.6c-13.7,20.3,88.6,21.7,88.6,21.7L682.8,1513.6L682.8,1513.6z
	 M740.3,1130.8c0,0-36.4,90.8-56.3,138.9c-21.6,52.3-104.2,78.4-104.2,78.4s42.8-44.9,42.8-158.5c0-47.7,61.6-66.6,61.6-66.6
	L740.3,1130.8L740.3,1130.8z"/>
<path fill="#E78724" d="M703.5,1182.1c0,0-74.6,88.8-213,39.1c-138.5-49.7-152.7-227.3-152.7-277c0-49.7,262.8,49.7,298.3,71
	C671.6,1036.6,739,1121.8,703.5,1182.1L703.5,1182.1z M180.5,233.6c0,0,127.8-24.9,213,42.6c85.2,67.5,110.1,120.7,110.1,120.7
	L360,510.8c0,0-69.4-32.2-90.7-124.5C248,294,262.2,251.4,180.5,233.6L180.5,233.6z"/>
<path fill="#E78724" d="M666.2,925.7c-55-78.1-145.7-112.2-218.1-117.8c-123.5-9.7-182.1,34-182.1,34s202.2,8.6,260.5,85.1
	c108.5,142.5,266.8,154.1,292.1,122.8c-29.3,1.5-61.5-13-95.9-45.6C701.2,983.7,683.7,950.5,666.2,925.7z M324.9,1202
	c0,0-224.4-77.1-181.7-155.2c42.6-78.1,8.7-120.7,8.7-120.7S26.6,1019.6,58.5,1119c19.6,61,52.5,105.2,233.3,189.9
	c86.7,161,17.9,450.9,22,452.2c6.9,2.3,121.7-56.8,113.9-327.9C425.3,1349.9,418.6,1236.2,324.9,1202L324.9,1202z M618.9,372.6
	c-94.1,47.8-223,114.4-223,114.4l50.7,25.4c-4.8,7.8-7.2,12.5-7.2,12.5l52.1,23.7c0,0,127.1,92.1,205,151.3
	c-26-80-102.2-205.6-102.2-205.6S572.7,436.5,618.9,372.6L618.9,372.6z M931.4,2320.8c-289.2,0-387.1-146.8-387.1-146.8l45.2,110
	c17.1,47.6,199.3,195.8,341.5,195.8"/>
<path fill="#E78724" d="M576,2074.8c0,0,26.6,162.6,133.1,162.6c90.5,0,117.2-137.3,117.2-165.7L576,2074.8L576,2074.8z
	 M398.7,1829.6c9.5-26.1,42.6-131.4,53.2-227.3c12.8-114.8,8.1-282.7,8.1-282.7s-28.4,110.1-53.3,127.9
	c-24.8,17.7-71,138.5-71,138.5s-24.7,179.7-36.5,240.1C331.9,1832.6,359.3,1813.4,398.7,1829.6L398.7,1829.6z M141.5,1117.2
	c0,0,60.3-21.3,78.1-152.7c17.7-131.4-21.3-245-21.3-245s3.5,181.1-17.7,216.6c-21.3,35.5-39.1,46.2-63.9,92.3
	C91.7,1074.6,127.3,1103,141.5,1117.2L141.5,1117.2z"/>
<path fill="#FDC168" d="M213.5,264.7l-12.3-7.8C164.9,258.1,213.5,264.7,213.5,264.7z"/>
<path fill="#FBA919" d="M668,333.7c0,0-56.8-9.5-85.2-52.1C554.4,239,473.9,153.7,345.6,152.8c-128.3-1-255.2,34.1-255.2,34.1
	l110.8,70c11.7-0.4,32.2-0.2,66.1,0.9c139,4.6,160.4,142.1,160.4,142.1l490-67.5"/>
<path fill="#FFFFFF" d="M715.4,1093.3c0,0-66.3,66.3-168.1,45c-101.8-21.3-163.4-66.3-168.1-144.4c-4.7-78.1,21.3-108.9,21.3-108.9
	s113.6,35.5,168.1,82.9C623,1015.1,663.3,1090.9,715.4,1093.3L715.4,1093.3z"/>
<path fill="#C9C9C9" d="M635.1,1069.6c0,0-57.5,26.3-121.8,4.9c-84.1-28.1-89.7-115.5-89.7-115.5s-51.6,151.4,93.1,180.6
	c116,23.4,184.7-43.9,184.7-43.9L635.1,1069.6L635.1,1069.6z"/>
<path fill="#463014" d="M676,301.5C669.8,171.7,776.3,68.2,813.2,63.8c2,22-2.1,107.9,34.8,134.2C858.7,127.9,895,50.6,1038.4,0
	c-30.7,81.4-4.1,149.7,8.6,181.3c97.9-88.9,163.9-74.2,163.9-74.2s-68,117.4-41.4,194.4C972.9,286.1,677,322.4,676,301.5L676,301.5z
	 M259.3,499.4c-46.9-38.9-11.9-75-15.7-119.2c-2-23.5-3.9-45.7-11.6-58c-43.2-68.1-145-88.8-146-89l-47.8-9.4l31.6-37
	c4.1-4.8,134-128.7,335-63.8c140.6,45.3,244.7,199.1,248.6,205.3L583,361.5c-0.8-1.3-83.1-145.9-203.7-184.7
	c-97.5-31.5-187.4-1.5-225.9,18.1c40.9,16.3,94.4,46.1,126.7,97c15.2,24,17.8,54.3,20.3,83.6c3.3,38.8,6.3,75.4,34.9,99.1
	L259.3,499.4z M134.1,1067.3c0,0,59.1-73.3,76.6-215.8c6.9-56.2-5.3-166.9-24.9-209.5c3.6,104.7-23.1,209.5-23.1,209.5
	S144.8,1046,134.1,1067.3L134.1,1067.3z"/>
<path fill="#463014" d="M445.6,425.4c0-0.2-19-82.9-71.4-124.6c-74-58.9-164.4-27.6-165.3-27.3l-13.1-40.5
	c4.4-1.4,107.7-34,202.9,33c95.8,67.3,107.3,128.3,108.3,135L445.6,425.4L445.6,425.4z M319.7,1014.7c0,0-31-44.4-25.4-93.2
	c2.8-24.1,13.9-48.8,33.9-57.6c37.1-16.3,53.5,25.7,53.5,25.7S329.4,902.5,319.7,1014.7L319.7,1014.7z"/>
<path fill="#463014" d="M660,1082.4c1.3,2.4,2,3.8,2,3.8s-96.7,72.6-195.8-1.1c-53-39.5-48-137-31.8-178.4
	c42.3,9.6,78.1,26.8,108,47c-37.9-33.8-71-58.7-70.9-59.2l-43-12.2l-83.6-28.7c-1.1,6.4-31.6,149.4,56.5,246.8
	c39,43.2,222,139.9,308.8-25.5L660,1082.4L660,1082.4z"/>
<path fill="#463014" d="M650.9,1093c54.4,82.8,191.8,35.5,189.4-52.1c0,0-91.8,50.6-172.8-42.6c-47.3-54.4-199-204.5-404.7-154.7
	C404.8,874.9,592.9,1004.7,650.9,1093L650.9,1093z"/>
<path fill="#463014" d="M243.6,1326.8c13.1,7.6,59.3,55.4,59.3,126.9c0,35.9-3.6,216.1-21.3,326.1c26.7,17.4,45.3,21,71.9,38.7
	c13.3-127.5,22.9-312.3,18.4-386.9c-5.1-85-50.6-142.1-92.8-166.4c-13.2-7.6-27-15.1-40.9-22.6C165.8,1203.6,91,1163.2,91,1094.2
	c0-54,21-70.9,43.2-88.8l2.4-1.9c14.7-11.9,31.4-25.4,41.3-47.6c27-60.7,31.4-215.2,0-254.4c-15.7-19.5-57.6-85.3-45.5-129.4
	c4.6-16.9,15.2-29.4,32.5-38.2c18.3-9.4,43-14.1,73.4-14.1c59.7,0,126,18.2,160.2,29C520.6,587.4,668,699,710.3,732.3
	c1.2,0.9,1.9,1.5,2.1,1.6l27,18.8l-16.9-28.3c-1-1.8-108.1-177.9-299.6-242.4c-37.3-12.6-110.4-33.6-182.4-33.6
	c-42.8,0-79.2,7.5-107.9,22.2c-35.1,17.9-58.8,46.6-68.7,82.7c-24.2,88.7,54.6,187.4,57.3,190.6c9.2,16.4,13.1,135.5-8.1,183.1
	c-2.9,6.6-10.9,13-21,21.2c-3.2,2.6-6.7,5.2-10.5,8.1C51.6,978.9,6.3,1013,6.3,1091.7c0,107.6,109.1,166,196.8,212.9
	C217.4,1312.3,231.2,1319.6,243.6,1326.8z"/>
<path fill="#463014" d="M259.3,499.4c-46.9-38.9-11.9-75-15.7-119.2c-2-23.5-3.9-45.7-11.6-58c-43.2-68.1-145-88.8-146-89l-47.8-9.4
	l31.6-37c4.1-4.8,134-128.7,335-63.8c140.6,45.3,244.7,199.1,248.6,205.3L583,361.5c-0.8-1.3-83.1-145.9-203.7-184.7
	c-97.5-31.5-187.4-1.5-225.9,18.1c40.9,16.3,94.4,46.1,126.7,97c15.2,24,17.8,54.3,20.3,83.6c3.3,38.8,6.3,75.4,34.9,99.1
	L259.3,499.4z"/>
<path fill="#463014" d="M257.8,507.3l-3-2.5c-34.8-28.9-28.6-57.3-22.6-84.8c2.7-12.7,5.6-25.8,4.4-39.3c-1.9-22.6-3.7-44-10.5-54.8
	c-41.1-64.9-140.4-85.7-141.4-85.9L25,228.4l39.6-46.2c0.7-0.9,84.1-85.1,225.4-85.1c38.5,0,78,6.4,117.2,19.1
	c146.8,47.3,251.4,206.8,252.4,208.3l4.2,6.8l-83.4,39.2l-3.3-5.3c-9-15.3-88.1-145.7-199.9-181.8c-27.5-8.9-56.4-13.3-86-13.3
	c-53.6,0-97,14.6-120.2,24.4c38.6,17.4,85.5,46.7,115.2,93.5c16.1,25.5,18.7,56.6,21.3,86.7c3.1,37.4,6.1,72.6,32.3,94.4l9.9,8.2
	L257.8,507.3L257.8,507.3z"/>
<path fill="#463014" d="M445.6,425.4c0-0.2-19-82.9-71.4-124.6c-74-58.9-164.4-27.6-165.3-27.3l-13.1-40.5
	c4.4-1.4,107.7-34,202.9,33c95.8,67.3,107.3,128.3,108.3,135L445.6,425.4L445.6,425.4z"/>
<path fill="#463014" d="M440.5,435l-1.8-8.1c-0.2-0.8-18.8-80.7-68.9-120.6c-28.6-22.8-63.1-34.3-102.5-34.3
	c-30.7,0-53.6,7.3-56.1,8.2l-6.8,2.3l-17.6-54.1l6.7-2.2c3-1,30.4-9.5,69.2-9.5c51.2,0,99.5,15,140,43.4
	C501,329,513,392.8,514,399.9l0.9,5.6L440.5,435L440.5,435z M267.3,257.8c42.1,0,80.6,12.9,111.3,37.4
	c44.6,35.5,65.5,98.1,71.9,120.6l48.3-19.3c-4.4-17.1-23.6-68.2-104.2-124.8c-38.5-27.1-82.8-40.8-131.8-40.8
	c-26.8,0-47.7,4.3-58,6.9l8.7,26.9C223.7,262,243.1,257.8,267.3,257.8z M704.7,2198.4c-21,0-42.4-7.6-57.2-20.5
	c-11.4-9.8-49.8-45.1-66.7-88.3c-6.3-16.2-4.9-29.1,4.3-38.4c6.3-6.4,19.5-14,46.1-14l19,0c22.6,0,60.6,0,93.1,0h31.2
	c20.3,0,34.8,4.4,43.2,12.9c10.7,11,7.3,25,4.3,32.4c-5.2,12.9-26.8,55-63.4,94.1C745.2,2190.7,726.2,2198.4,704.7,2198.4
	L704.7,2198.4z M726.7,1097.9l-75.8-4.9c0,0,19.4,34.1,31.9,78.3c14.2,49.9-13,122.9-13,122.9S770.9,1179.8,726.7,1097.9z
	 M632.1,2398.4c-269.6-20.7-364.5-275.5-364.5-328.6l70.4,0l-35.2,0H338c0.4,22.9,72,240.9,299.5,258.4L632.1,2398.4L632.1,2398.4z"
	/>
<path fill="#FFFFFF" d="M556.3,1942c-4.2-24.3-4.7-47.4,0.5-70.1c-20.5-15.4-57.3-21.1-84.8-30.1c-22.6-14.3-138,14.6-221.7-86.7
	c-104.9-126.9-82.9-202.7-82.9-202.7c-26.9,29.9-53,18.5-94,157.9c-41.1,139.4,19.3,236.6,131.7,334.2
	c53.1,46.1,128.2,65.1,192.9,72.3c-21.6-21.7,37-23.9,77.4-39c-3.2-32.6,2.2-64.3,26.5-89.8c14.7-15.4,33.5-24.6,53.1-31.9
	c1.1-2.5,2-4.9,3.1-7.3C557.3,1946.5,556.8,1944.3,556.3,1942z"/>
<path fill="#C9C9C9" d="M474.8,2076.9c-2.3-6.9-4.1-13.8-5.8-20.9c-1.9-7.7-11.2-29.4,0.3-4.6c-2.9-6.4-4.9-12.9-6.3-19.5
	c-182.1-0.2-340.6-125.3-310-388.2c-23.8-31.7-57.2,63.8-57.2,63.8s-91.2,264.8,144.3,367.4c78.5,34.2,147.8,58.8,164.2,48.9
	c34.1,6.9,64.8-16.8,76.4-32.5C478.5,2086.5,476.5,2081.7,474.8,2076.9L474.8,2076.9z"/>
<path fill="#463014" d="M553.1,1903.8c0.3-22.2,4.8-43.7,15.5-65.1c0.7-1.5,1.6-2.9,2.4-4.3c-70.1-0.6-150.8-7.3-219.6-34.8
	c-75.6-30.2-170.1-133.6-186.3-255.1c0,0-142.3,109.8-100.5,344.8c39.2,220.7,223.9,292.6,434.5,304.8c0.1-1.4-23.7-50.6-16.2-80.7
	c-119.6,8.7-253.3-37.5-317.9-143.7c-59.1-97.2-42.5-263.2-18.2-287.5C206.2,1869.1,419.4,1907.1,553.1,1903.8z"/>
<path fill="#463014" d="M575.1,1770c-37.9,111.2-115.3,201.2-115.3,201.2s106.5-4.8,112.4-23.7c4.4-13.9,96.2-228.8,131.4-480.5
	C670.4,1521.4,578.4,1760.5,575.1,1770L575.1,1770z"/>
<path fill="#E78724" d="M1178.4,1513.6c0,0,120.7,184.6,209.3,315.6c13.7,20.3-88.6,21.7-88.6,21.7L1178.4,1513.6L1178.4,1513.6z
	 M1120.9,1130.8c0,0,36.4,90.8,56.3,138.9c21.7,52.3,104.2,78.4,104.2,78.4s-42.8-44.9-42.8-158.5c0-47.7-61.6-66.6-61.6-66.6
	L1120.9,1130.8L1120.9,1130.8z"/>
<path fill="#E78724" d="M1157.7,1182.1c0,0,74.6,88.8,213.1,39.1c138.5-49.7,152.7-227.3,152.7-277c0-49.7-262.8,49.7-298.3,71
	C1189.7,1036.6,1122.2,1121.8,1157.7,1182.1L1157.7,1182.1z M1680.7,233.6c0,0-127.8-24.9-213.1,42.6
	c-85.2,67.5-110.1,120.7-110.1,120.7l143.6,113.9c0,0,69.4-32.2,90.7-124.5C1613.3,294,1599.1,251.4,1680.7,233.6L1680.7,233.6z"/>
<path fill="#E78724" d="M1195,925.7c55-78.1,145.7-112.2,218.1-117.8c123.5-9.7,182.1,34,182.1,34s-202.2,8.6-260.5,85.1
	c-108.5,142.5-266.8,154.1-292.1,122.8c29.3,1.5,61.5-13,95.9-45.6C1160.1,983.7,1177.5,950.5,1195,925.7z M1536.4,1202
	c0,0,224.3-77.1,181.7-155.2c-42.6-78.1-8.7-120.7-8.7-120.7s125.3,93.5,93.4,192.9c-19.6,61-52.5,105.2-233.3,189.9
	c-86.7,161-17.9,450.9-22,452.2c-6.9,2.3-121.7-56.8-113.9-327.9C1436,1349.9,1442.6,1236.2,1536.4,1202z M1242.4,372.6
	c94,47.8,223,114.4,223,114.4l-50.7,25.4c4.8,7.8,7.2,12.5,7.2,12.5l-52.1,23.7c0,0-127.1,92.1-205,151.3
	c25.9-80,102.2-205.6,102.2-205.6S1288.5,436.5,1242.4,372.6z M929.8,2320.8c289.1,0,387.1-146.8,387.1-146.8l-45.2,110
	c-17.1,47.6-199.3,195.8-341.5,195.8"/>
<path fill="#E78724" d="M1285.2,2074.8c0,0-26.6,162.6-133.1,162.6c-90.5,0-117.2-137.3-117.2-165.7L1285.2,2074.8z M1462.5,1829.6
	c-9.5-26.1-42.6-131.4-53.3-227.3c-12.8-114.8-8.1-282.7-8.1-282.7s28.4,110.1,53.2,127.9c24.9,17.7,71,138.5,71,138.5
	s24.7,179.7,36.5,240.1C1529.4,1832.6,1502,1813.4,1462.5,1829.6L1462.5,1829.6z M1719.8,1117.2c0,0-60.4-21.3-78.1-152.7
	c-17.7-131.4,21.3-245,21.3-245s-3.6,181.1,17.7,216.6c21.3,35.5,39.1,46.2,63.9,92.3C1769.5,1074.6,1734,1103,1719.8,1117.2z"/>
<path fill="#FDC168" d="M1647.7,264.7l12.3-7.8C1696.4,258.1,1647.7,264.7,1647.7,264.7z"/>
<path fill="#FBA919" d="M1193.2,333.7c0,0,56.8-9.5,85.2-52.1c28.4-42.6,108.9-127.8,237.2-128.8c128.3-1,255.2,34.1,255.2,34.1
	l-110.8,70c-11.7-0.4-32.2-0.2-66.1,0.9c-139,4.6-160.4,142.1-160.4,142.1l-490-67.5"/>
<path fill="#FFFFFF" d="M1145.9,1093.3c0,0,66.3,66.3,168.1,45c101.8-21.3,163.4-66.3,168.1-144.4c4.7-78.1-21.3-108.9-21.3-108.9
	s-113.6,35.5-168.1,82.9C1238.2,1015.2,1198,1090.9,1145.9,1093.3z"/>
<path fill="#C9C9C9" d="M1226.1,1069.6c0,0,57.5,26.3,121.8,4.9c84.1-28.1,89.7-115.5,89.7-115.5s51.6,151.4-93.1,180.6
	c-116,23.4-184.7-43.9-184.7-43.9L1226.1,1069.6L1226.1,1069.6z"/>
<path fill="#463014" d="M1601.9,499.4c46.9-38.9,12-75,15.7-119.2c2-23.5,3.8-45.7,11.6-58c43.2-68.1,145-88.8,146-89l47.8-9.4
	l-31.6-37c-4.1-4.8-134-128.7-335-63.8c-140.6,45.3-244.7,199.1-248.5,205.3l70.5,33.2c0.9-1.3,83.1-145.9,203.8-184.7
	c97.5-31.5,187.4-1.5,225.8,18.1c-40.9,16.3-94.4,46.1-126.7,97c-15.2,24-17.8,54.3-20.2,83.6c-3.3,38.8-6.4,75.4-34.9,99.1
	L1601.9,499.4L1601.9,499.4z M1727.1,1067.3c0,0-59-73.3-76.6-215.8c-6.9-56.2,5.3-166.9,24.8-209.5
	c-3.6,104.7,23.1,209.5,23.1,209.5S1716.5,1046,1727.1,1067.3z"/>
<path fill="#463014" d="M1415.6,425.4c0-0.2,19-82.9,71.4-124.6c74-58.9,164.4-27.6,165.2-27.3l13.2-40.5
	c-4.4-1.4-107.7-34-202.9,33c-95.8,67.3-107.2,128.3-108.3,135L1415.6,425.4z M1541.6,1014.7c0,0,31-44.4,25.4-93.2
	c-2.7-24.1-13.9-48.8-33.9-57.6c-37-16.3-53.5,25.7-53.5,25.7S1531.8,902.5,1541.6,1014.7L1541.6,1014.7z"/>
<path fill="#463014" d="M1201.3,1082.4c-1.3,2.4-2,3.8-2,3.8s96.6,72.6,195.7-1.1c53.1-39.5,48.1-137,31.8-178.4
	c-42.2,9.6-78.1,26.8-108,47c37.9-33.8,71-58.7,70.9-59.2l43.1-12.2l83.6-28.7c1.1,6.4,31.6,149.4-56.5,246.8
	c-39,43.2-222,139.9-308.8-25.5L1201.3,1082.4L1201.3,1082.4z"/>
<path fill="#463014" d="M1210.3,1093c-54.4,82.8-191.7,35.5-189.4-52.1c0,0,91.7,50.6,172.8-42.6c47.3-54.4,199-204.5,404.7-154.7
	C1456.4,874.9,1268.4,1004.7,1210.3,1093L1210.3,1093z"/>
<path fill="#463014" d="M1617.7,1326.8c-13.1,7.6-59.3,55.4-59.3,126.9c0,35.9,3.5,216.1,21.3,326.1c-26.7,17.4-45.3,21-71.9,38.7
	c-13.3-127.5-22.9-312.3-18.4-386.9c5.1-85,50.6-142.1,92.8-166.4c13.2-7.6,27-15.1,41-22.6c72.3-39.1,147.1-79.5,147.1-148.5
	c0-54-21-70.9-43.2-88.8l-2.4-1.9c-14.7-11.9-31.5-25.4-41.3-47.6c-27-60.7-31.4-215.2,0-254.4c15.7-19.5,57.6-85.3,45.5-129.4
	c-4.6-16.9-15.2-29.4-32.5-38.2c-18.3-9.4-43-14.1-73.4-14.1c-59.7,0-126,18.2-160.2,29C1340.6,587.4,1193.2,699,1151,732.3
	c-1.2,0.9-1.9,1.5-2,1.6l-27.1,18.8l16.9-28.3c1.1-1.8,108.1-177.9,299.6-242.4c37.3-12.6,110.4-33.6,182.4-33.6
	c42.8,0,79.1,7.5,107.9,22.2c35.1,17.9,58.8,46.6,68.7,82.7c24.2,88.7-54.6,187.4-57.3,190.6c-9.2,16.4-13.1,135.5,8.1,183.1
	c2.9,6.6,10.9,13,21.1,21.2c3.2,2.6,6.7,5.2,10.5,8.1c29.9,22.6,75.2,56.7,75.2,135.4c0,107.6-109.1,166-196.7,212.9
	C1643.8,1312.3,1630.1,1319.6,1617.7,1326.8L1617.7,1326.8z"/>
<path fill="#463014" d="M1487.6,486.7c-17.4-29.4-61.7-86.1-164-136c-114.1-55.6-246.2-83.9-392.7-83.9v0h-0.6v0
	c-146.5,0.1-278.6,28.3-392.7,83.9c-102.3,49.9-146.6,106.6-164,136l-7.5,9.9l87.6,19.5l2.8-3.5l1.5-3.2c1.4-5.8,13.1-37,110.7-84.7
	c104.4-50.9,226.1-76.7,361.8-76.8c135.7,0,257.4,25.9,361.8,76.8c97.7,47.6,109.4,78.9,110.8,84.6l1.5,3.2l2.7,3.5l87.6-19.5
	L1487.6,486.7L1487.6,486.7z"/>
<path fill="#463014" d="M1601.9,499.4c46.9-38.9,12-75,15.7-119.2c2-23.5,3.8-45.7,11.6-58c43.2-68.1,145-88.8,146-89l47.8-9.4
	l-31.6-37c-4.1-4.8-134-128.7-335-63.8c-140.6,45.3-244.7,199.1-248.5,205.3l70.5,33.2c0.9-1.3,83.1-145.9,203.8-184.7
	c97.5-31.5,187.4-1.5,225.8,18.1c-40.9,16.3-94.4,46.1-126.7,97c-15.2,24-17.8,54.3-20.2,83.6c-3.3,38.8-6.4,75.4-34.9,99.1
	L1601.9,499.4L1601.9,499.4z"/>
<path fill="#463014" d="M1511.6,477.3l9.9-8.2c26.3-21.8,29.2-57,32.4-94.4c2.5-30.1,5.2-61.2,21.3-86.7
	c29.6-46.8,76.5-76,115.2-93.5c-23.1-9.8-66.6-24.4-120.2-24.4c-29.6,0-58.5,4.5-86,13.3c-111.9,36.1-191,166.5-199.9,181.8
	l-3.4,5.3l-83.4-39.2l4.2-6.8c1-1.6,105.6-161,252.4-208.3c39.2-12.7,78.7-19.1,117.2-19.1c141.2,0,224.6,84.2,225.4,85.1l39.6,46.2
	l-59.7,11.7c-1,0.2-100.3,21-141.4,85.9c-6.8,10.8-8.6,32.1-10.5,54.8c-1.1,13.5,1.7,26.6,4.5,39.3c6,27.5,12.1,56-22.7,84.8l-3,2.5
	L1511.6,477.3L1511.6,477.3z"/>
<path fill="#463014" d="M1415.6,425.4c0-0.2,19-82.9,71.4-124.6c74-58.9,164.4-27.6,165.2-27.3l13.2-40.5
	c-4.4-1.4-107.7-34-202.9,33c-95.8,67.3-107.2,128.3-108.3,135L1415.6,425.4z"/>
<path fill="#463014" d="M1346.5,405.4l0.8-5.6c1-7,13-70.8,111.2-139.8c40.4-28.4,88.8-43.4,139.9-43.4c38.8,0,66.2,8.5,69.3,9.5
	l6.7,2.2l-17.6,54.1l-6.8-2.3c-2.5-0.9-25.4-8.2-56.1-8.2c-39.4,0-73.8,11.6-102.4,34.3c-50.2,39.9-68.8,119.8-68.9,120.6l-1.8,8.1
	L1346.5,405.4L1346.5,405.4z M1647.7,264.7l8.7-26.9c-10.3-2.6-31.2-6.9-58-6.9c-48.9,0-93.2,13.7-131.8,40.8
	c-80.6,56.6-99.8,107.8-104.2,124.8l48.3,19.3c6.3-22.5,27.3-85.1,71.8-120.6c30.8-24.4,69.2-37.4,111.3-37.4
	C1618.1,257.8,1637.6,262,1647.7,264.7L1647.7,264.7z M1102.9,2176.6c-36.6-39.1-58.2-81.2-63.5-94.1c-3-7.4-6.4-21.4,4.3-32.4
	c8.4-8.5,22.9-12.9,43.1-12.9h31.2c32.5,0,70.5,0,93.1,0l19,0c26.6,0,39.7,7.6,46.1,14c9.2,9.3,10.6,22.2,4.3,38.4
	c-16.9,43.2-55.4,78.5-66.7,88.3c-14.9,12.8-36.2,20.5-57.2,20.5C1135.1,2198.4,1116,2190.7,1102.9,2176.6L1102.9,2176.6z
	 M1134.6,1097.9l75.7-4.9c0,0-19.3,34.1-31.9,78.3c-14.2,49.9,13,122.9,13,122.9S1090.4,1179.8,1134.6,1097.9z"/>
<path fill="#E78724" d="M930.6,827.4c-48.3,0-111.2-1.3-158.5-35.3c0,0,61.8,108.4,158.4,108.4l0.1-13.7l0.1,13.7
	c96.5,0,158.4-108.4,158.4-108.4C1041.9,826.1,978.9,827.4,930.6,827.4z"/>
<path fill="#463014" d="M1063.6,826.9c-48.4,29.3-91.7,39.5-132.9,40.4c-41.3-0.9-84.5-11.1-132.9-40.4c0,0,70.5,86.1,132.6,86.7
	v0.1c0.1,0,0.2,0,0.3,0c0.1,0,0.2,0,0.3,0v-0.1C993,912.9,1063.6,826.9,1063.6,826.9z M1229.1,2398.4l-5.4-70.2
	c227.4-17.5,299.1-235.4,299.4-258.4h70.4C1593.6,2122.9,1498.7,2377.7,1229.1,2398.4z"/>
<path fill="#FFFFFF" d="M1304.9,1942c4.2-24.3,4.7-47.4-0.5-70.1c20.5-15.4,57.3-21.1,84.8-30.1c22.6-14.3,138,14.6,221.8-86.7
	c104.9-126.9,82.8-202.7,82.8-202.7c26.9,29.9,53,18.5,94,157.9c41.1,139.4-19.3,236.6-131.8,334.2
	c-53.1,46.1-128.2,65.1-192.9,72.3c21.6-21.7-37-23.9-77.3-39c3.2-32.6-2.2-64.3-26.5-89.8c-14.6-15.4-33.5-24.6-53.1-31.9
	c-1.1-2.5-2-4.9-3.1-7.3C1303.9,1946.5,1304.5,1944.3,1304.9,1942L1304.9,1942z"/>
<path fill="#C9C9C9" d="M1386.4,2076.9c2.4-6.9,4.1-13.8,5.8-20.9c1.9-7.7,11.2-29.4-0.3-4.6c2.9-6.4,4.9-12.9,6.3-19.5
	c182.1-0.2,340.6-125.3,310-388.2c23.8-31.7,57.3,63.8,57.3,63.8s91.2,264.8-144.3,367.4c-78.5,34.2-147.8,58.8-164.2,48.9
	c-34.1,6.9-64.9-16.8-76.4-32.5C1382.7,2086.5,1384.7,2081.7,1386.4,2076.9L1386.4,2076.9z"/>
<path fill="#463014" d="M1308.2,1903.8c-0.3-22.2-4.8-43.7-15.5-65.1c-0.8-1.5-1.6-2.9-2.4-4.3c70.1-0.6,150.8-7.3,219.6-34.8
	c75.5-30.2,170.1-133.6,186.3-255.1c0,0,142.3,109.8,100.5,344.8c-39.3,220.7-223.9,292.6-434.5,304.8c-0.1-1.4,23.7-50.6,16.2-80.7
	c119.6,8.7,253.3-37.5,317.9-143.7c59.1-97.2,42.5-263.2,18.2-287.5C1655.1,1869.1,1441.8,1907.1,1308.2,1903.8L1308.2,1903.8z"/>
<path fill="#463014" d="M1393.2,1959.2c-25.2-27.2-71.4-59.6-178.1-59.6l-284.1-0.2h-0.7c-81.9,0.1-284.2,0.2-284.2,0.2
	c-106.6,0-152.9,32.4-178.1,59.6c-36.7,39.6-42.4,94.7-17.1,163.5c67.4,183.2,162.1,369.4,479.3,369.6v0c0.1,0,0.2,0,0.3,0
	c0.1,0,0.2,0,0.3,0v0c317.1-0.3,411.8-186.4,479.3-369.6C1435.6,2053.8,1429.8,1998.8,1393.2,1959.2L1393.2,1959.2z M1343.8,2109.8
	c-32.1,92-118.4,314.7-413.2,315.1c-294.8-0.4-381.1-223.1-413.2-315.1c-17.8-51-16.4-88.8,4.2-112.3c14.1-16,46.3-35.2,119.9-35.2
	l76.9,0c56.7-0.1,127.9-0.1,212.3-0.1c84.3,0,155.5,0.1,212.3,0.1l76.8,0c73.6,0,105.9,19.1,120,35.2
	C1360.2,2021,1361.6,2058.8,1343.8,2109.8L1343.8,2109.8z"/>
<path fill="#463014" d="M1286.1,1770c37.9,111.2,115.3,201.2,115.3,201.2s-106.5-4.8-112.4-23.7c-4.3-13.9-96.1-228.8-131.4-480.5
	C1190.8,1521.4,1282.8,1760.5,1286.1,1770L1286.1,1770z"/>
</svg>
