<?xml version="1.0" encoding="utf-8"?>
<!-- Generator: Adobe Illustrator 21.1.0, SVG Export Plug-In . SVG Version: 6.00 Build 0)  -->
<svg version="1.1" id="Layer_1" xmlns="http://www.w3.org/2000/svg" xmlns:xlink="http://www.w3.org/1999/xlink" x="0px" y="0px"
	 viewBox="0 0 1125 2498.4" enable-background="new 0 0 1125 2498.4" xml:space="preserve">
<path fill="#D34A47" d="M868,2423.1l24-399.4l66.2-113c0,0-150.6,61.6-402.8,61.6c-252.2,0-400.6-60.5-400.6-60.5l74.2,123.3
	l26.2,388c0,41.6,137.2,75.3,306.4,75.3C730.8,2498.4,868,2464.7,868,2423.1 M792.4,557.8L842.7,359l278.6-293.2l-73.4-62.5
	l-295,312.3l-58.4,237.6c-44-1.5-88-2.2-131.9-2.2C251.9,551,0,586.4,0,630c0,43.7,251.9,79.1,562.5,79.1
	c310.7,0,562.5-35.4,562.5-79.1C1125,597.9,988.4,570.2,792.4,557.8"/>
<path fill="#FFFFFF" d="M763.1,669.2c0,0-10.9,2.4-43,2.6c-32.1,0.1-54.8-0.2-63.9-8.5c-2.4-2.2-3.8-6.6-3.8-9.6
	c0-5.7,4.1-9,9.2-11.1l4.9,7.6c-2.1,0.7-3.3,1.6-3.3,2.5c0,4.3,32.8,7.3,57.9,6.9c25.1-0.3,55.4-2.4,55.4-6.6c0-1.3-2.3-2.5-6.3-3.4
	l4.8-7.6c6.5,2,12.2,5.9,12.2,12.7C787.2,666.2,772.6,667.9,763.1,669.2"/>
<path fill="#D34A47" d="M1120.8,66.4c7-8.1-3.6-28.8-23.7-46.2c-20.1-17.4-42.1-25-49.1-16.9c-7,8.1,3.6,28.8,23.8,46.2
	C1091.7,66.9,1113.8,74.5,1120.8,66.4 M854.6,1447.5c-6.6-63.5,139-155.5,101.6-158.5c-80.4,4.6-120.5,94.2-160.9,188.1
	c-14.8,34.4-65.6,181.2-98.8,163.1c-33.3-18.1,43.1-138.7,64.5-210.4c-24.7,18.1-115.3,88.5-138.7,22.6
	c-37.5,31.9-117.8,49.2-108.7-34.6c-20,35.4-64.8,84.8-118.6,64.2c-70.7-26.9,40.9-252,68.7-240.7c27.8,11.4-5.6,62.6-14.3,82.5
	c-19.2,43.8-41.4,98.9-26.6,110.2c25.4,19.3,94.5-73.1,96.1-75.1c12.9-17.1,49.8-128.8,79.4-116c29.7,12.8-74,160.4-35.3,189.7
	c7.8,5.9,39.8-3.6,59.3-24.7c12.6-13.6,8.3-43.8,50.3-143.9c42-100.1,79.4-224.8,108.2-215.3c28.8,9.5,5.1,73.5-5.3,97.4
	c-48.5,112-132.3,297-92.8,283c39.5-14,60.1-14.8,98.8-60.1s36.9-119.9,62.7-118.3c25.8,1.6,21.5,25.5,15.2,43.7
	c25.4-29.1,120.4-90.3,143.3-29.7c27.2,71.8-135.9,175.4-95.2,170.2c39.6-5.2,103.9-45.8,131.3-82.8l75.5-678.6
	c0,0-75.9,62.9-559.1,62.9C72,736.2,3.9,674.7,3.9,674.7l64.3,619.4c34.1-96.9,115.1-293,242.8-286.4c58.1,3,135.6,114.8,69.2,118.6
	c-28.1,1.6-31-55.8-64.2-64.2c-24-6.1-57.5,13.4-79.1,34.6c-43.1,42.2-135.8,208.6-123.6,291.6c15.6,105.8,146-36.8,168-79.1
	c15.5-29.8,26-118.1,60-108.9c34,9.3-3,100.4-27.6,181c-27.7,90.5-42.2,185.9-76.9,175c-34.7-11,21.8-127.8,19.8-148.3
	c-32.6,30.1-92.7,106.2-169.5,68.5l39.9,384.6c0,0,106.1,83.8,425.6,83.8s429.5-82.5,429.5-82.5l49.6-445.5
	C991.1,1456.4,862.8,1526.5,854.6,1447.5"/>
</svg>
