<?xml version="1.0" encoding="utf-8"?>
<!-- Generator: Adobe Illustrator 21.1.0, SVG Export Plug-In . SVG Version: 6.00 Build 0)  -->
<svg version="1.1"
	 id="svg2" xmlns:cc="http://creativecommons.org/ns#" xmlns:dc="http://purl.org/dc/elements/1.1/" xmlns:inkscape="http://www.inkscape.org/namespaces/inkscape" xmlns:rdf="http://www.w3.org/1999/02/22-rdf-syntax-ns#" xmlns:svg="http://www.w3.org/2000/svg"
	 xmlns="http://www.w3.org/2000/svg" xmlns:xlink="http://www.w3.org/1999/xlink" x="0px" y="0px" viewBox="0 0 471.6 498.2"
	 enable-background="new 0 0 471.6 498.2" xml:space="preserve">
<path id="path22" inkscape:connector-curvature="0" fill="#8A4182" d="M16.3,473.6c0.1,5,3.2,10.2,8.9,10.2c3.4,0,6-1.6,7.7-4.5
	c1.6-2.9,1.6-7.1,1.6-10.3v-41.1h-8.9v-13.1H59v13.1h-8.8V471c0,7.3-0.5,13.1-5.6,19c-4.6,5.3-12,8.3-19.1,8.3
	c-14.7,0-25.9-9.7-25.3-24.6h16.1"/>
<path id="path24" inkscape:connector-curvature="0" fill="#8A4182" d="M111,465.7c0-10.1-8.4-18.2-18.5-18.2
	c-10.4,0-18.5,8.6-18.5,18.9c0,10,8.4,18.2,18.2,18.2C102.8,484.6,111,476.1,111,465.7z M110.7,488.4c-4.5,6.8-11.7,9.9-19.7,9.9
	c-17.5,0-31.4-14.6-31.4-31.9c0-17.8,14.2-32.6,32.1-32.6c7.9,0,14.8,3.7,19,10.3v-8.7h21.9v13.1H125v35.1h7.7v13.1h-21.9
	L110.7,488.4"/>
<path id="path26" inkscape:connector-curvature="0" fill="#8A4182" d="M151.1,478.8c0.5,5.5,4.1,9.2,9.9,9.2c4.2,0,8.4-3,8.4-7.6
	c0-6.1-5.7-7.1-10.4-8.4c-10.7-2.8-22.4-6.1-22.4-19.5c0-11.7,9.9-18.5,20.7-18.5c5.5,0,10.4,1.1,13.9,5.5v-4.2h10.3V452H168
	c-0.2-4.4-3.6-7.2-7.9-7.2c-3.8,0-7.8,2.2-7.8,6.4c0,5.7,5.6,7,10.1,8c11,2.5,22.8,6,22.8,19.7c0,12.4-10.4,19.3-21.9,19.3
	c-6.2,0-11.8-1.9-15.8-6.6v5h-10.7v-17.8H151.1"/>
<path id="path28" inkscape:connector-curvature="0" fill="#8A4182" d="M196.8,448.5h-7.9v-13.1h20.6v9.2c3.9-6.4,9.9-10.7,17.7-10.7
	c8.5,0,15.6,5.2,19,12.8c3.3-7.8,11.6-12.8,20.1-12.8c6.6,0,13.2,2.8,17.7,7.8c4.8,5.6,4.8,11.7,4.8,18.7v23.2h7.9v13.1h-29.8v-13.1
	h7.9v-19.7c0-4,0-7.6-1.8-11.1c-2.3-3.3-6.1-5-10-5c-3.8,0-7.9,1.6-10.3,4.6c-2.9,3.7-2.9,7.1-2.9,11.6v19.7h7.9v13.1h-29.8v-13.1
	h7.9v-18.8c0-3.7,0-8.3-1.8-11.5c-1.9-3.7-6-5.6-10.1-5.6c-3.9,0-7.2,1.4-9.7,4.5c-3.1,3.8-3.3,7.8-3.3,12.5v18.9h7.9v13.1H189
	v-13.1h7.9L196.8,448.5"/>
<path id="path30" inkscape:connector-curvature="0" fill="#8A4182" d="M323.1,429.6h-14v-14.8h14V429.6z M323.1,483.5h7.9v13.1
	h-29.9v-13.1h8v-35.1h-7.9v-13.1h21.9V483.5"/>
<path id="path32" inkscape:connector-curvature="0" fill="#8A4182" d="M343.2,448.5h-7.9v-13.1h21.9v8.7
	c3.7-6.8,10.5-10.1,18.1-10.1c6.6,0,13.2,2.8,17.7,7.6c5,5.6,5.2,11,5.2,18v24h7.9v13.1h-29.8v-13.1h7.9v-19.8c0-3.8,0-7.7-2.4-11
	c-2.5-3.3-6.6-4.9-10.8-4.9c-4.2,0-8.6,1.7-11.1,5.2c-2.6,3.4-2.6,8.7-2.6,12.8v17.8h7.9v13.1h-29.8v-13.1h7.9L343.2,448.5"/>
<path id="path34" inkscape:connector-curvature="0" fill="#8A4182" d="M458.6,460.5c-2.4-8.8-10.2-14.4-19.3-14.4
	c-8.3,0-16.2,6.4-17.9,14.4H458.6z M469.3,478.6c-4.8,11.7-16.2,19.6-28.9,19.6c-17.9,0-32.2-14-32.2-32c0-18.1,13.6-32.7,31.9-32.7
	c8.5,0,17,3.8,22.9,9.9c6.1,6.4,8.6,14.2,8.6,22.9l-0.5,4.9h-49.5c1.8,8.5,9.6,14.7,18.3,14.7c6.1,0,11.3-2.3,14.8-7.3H469.3"/>
<path id="path36" inkscape:connector-curvature="0" fill="#8A4182" d="M228.2,156.1h29.2l7.3-10V67.9H221v78.2L228.2,156.1"/>
<path id="path38" inkscape:connector-curvature="0" fill="#8A4182" d="M209.4,191l9-27.8l-7.3-10L136.8,129l-13.5,41.6l74.4,24.2
	L209.4,191"/>
<path id="path40" inkscape:connector-curvature="0" fill="#8A4182" d="M236.7,219.6l-23.6-17.2l-11.7,3.8l-46,63.3l35.3,25.7
	l46-63.3V219.6"/>
<path id="path42" inkscape:connector-curvature="0" fill="#8A4182" d="M272.5,202.5l-23.6,17.2V232l46,63.3l35.4-25.7l-46-63.3
	L272.5,202.5"/>
<path id="path44" inkscape:connector-curvature="0" fill="#8A4182" d="M267.2,163.2l9,27.8l11.7,3.8l74.4-24.2L348.8,129l-74.4,24.2
	L267.2,163.2"/>
<path id="path46" inkscape:connector-curvature="0" fill="#8A4182" d="M242.8,0C138.9,0,54.3,84.5,54.3,188.4
	s84.5,188.5,188.5,188.5c103.9,0,188.4-84.6,188.4-188.5S346.7,0,242.8,0L242.8,0z M242.8,38.2c83,0,150.3,67.3,150.3,150.3
	s-67.3,150.3-150.3,150.3S92.5,271.5,92.5,188.5C92.5,105.4,159.8,38.2,242.8,38.2"/>
<path id="path48" inkscape:connector-curvature="0" fill="#8A4182" d="M356.9,230.3l-56.5-18.4l3.7-11.5l56.5,18.4L356.9,230.3"/>
<path id="path50" inkscape:connector-curvature="0" fill="#8A4182" d="M284.8,139.5l-9.8-7.1l35-48.1l9.8,7.1L284.8,139.5"/>
<path id="path52" inkscape:connector-curvature="0" fill="#8A4182" d="M201.3,139.1L166.4,91l9.8-7.1l34.9,48.1L201.3,139.1"/>
<path id="path54" inkscape:connector-curvature="0" fill="#8A4182" d="M128.4,229.6l-3.7-11.5l56.5-18.4l3.7,11.5L128.4,229.6"/>
<path id="path56" inkscape:connector-curvature="0" fill="#8A4182" d="M236.4,308.6h12.1v-59.5h-12.1V308.6z"/>
</svg>
