<?xml version="1.0" encoding="utf-8"?>
<!-- Generator: Adobe Illustrator 21.1.0, SVG Export Plug-In . SVG Version: 6.00 Build 0)  -->
<svg version="1.1" id="Layer_1" xmlns="http://www.w3.org/2000/svg" xmlns:xlink="http://www.w3.org/1999/xlink" x="0px" y="0px"
	 viewBox="0 0 296 295.9" enable-background="new 0 0 296 295.9" xml:space="preserve">
<path fill="#DD3735" d="M55.2,123.6c0.4,0.3,1.1,0.5,0.4,1.1c-0.5,0.7-1.1,1.3-1.5,2.1c-0.4,0.7-0.7,0.9-1.3,0.4
	C53.6,125.9,54.4,124.7,55.2,123.6L55.2,123.6z M256,228.5c0,0.3,0.1,0.5,0.1,0.8c0.2-0.4,0.2-0.6,0.3-0.8H256z M256,229.4
	L256,229.4L256,229.4z M235.6,268.4l-17.4-96.5c-0.3-0.1-0.7-0.3-1.4-0.5c0.2,0.4,0.3,0.7,0.4,1c0.5-0.1,0.7-0.1,0.9-0.2
	c0-0.1,0-0.2,0.1-0.3L235.6,268.4L235.6,268.4z M217.7,150.2c-0.1,0.3-0.1,0.6-0.1,0.9C217.6,150.8,217.6,150.5,217.7,150.2
	L217.7,150.2z M217.8,152.2c-0.1,0-0.1,0-0.2-0.1v0.1C217.7,152.3,217.7,152.3,217.8,152.2L217.8,152.2z M217.6,153v-0.7
	c-0.3,0.1-0.6,0.1-1,0.2C217.1,152.7,217.6,152.8,217.6,153L217.6,153z"/>
<path fill="#DD3A0A" d="M295.4,128.7c-0.2-3.9-0.3-7.8-0.7-11.7c-0.7-5.3-1.4-10.7-2.6-15.9c-0.9-4.3-2.4-8.4-3.9-12.5
	c-1.9-4.8-3.8-9.7-6.2-14.3c-3.9-7.4-9-14-13.7-20.9c-3.1-4.4-7.1-8-10.1-12.5c-1.7-2.6-4.2-4.8-6.7-6.8c-4-3.2-8.2-6.1-12.4-8.9
	c-3.2-2.2-6.4-4.3-9.8-6.2c-2.7-1.5-5.6-2.7-8.4-4c-3.2-1.5-6.3-3.3-9.9-4c-0.9-0.2-1.7-0.5-2.6-0.8c-2.3-0.8-4.5-1.7-6.8-2.4
	c-3.5-1.1-6.9-2.4-10.5-3.3c-3.5-0.9-7.1-1.5-10.7-2c-4-0.6-8.1-0.8-12.1-1.2c-2.6-0.3-5.1-0.6-7.7-0.7c-3.8-0.2-7.7-0.2-11.5-0.3
	c-1.9-0.1-3.9-0.3-5.8-0.2c-2.9,0.1-5.8,0.4-8.7,0.8c-2.8,0.3-5.6,0.8-8.3,1.2c-3.3,0.4-6.6,0.6-9.9,1c-3.1,0.4-6.3,1-9.4,1.5
	c-1.1,0.2-2.2,0.6-3.3,0.8c-2.4,0.5-4.9,0.7-7.3,1.5c-4.3,1.3-8.6,2.8-12.8,4.4c-3.9,1.6-7.7,3.3-11.4,5.3c-3.8,2.1-7.4,4.6-11,7
	c-3.5,2.3-6.8,4.7-10.1,7.3c-3.2,2.5-6.2,5.3-9.1,8.1c-1.6,1.6-2.9,3.5-4.4,5.3c-2.5,2.9-5,5.7-7.4,8.7c-2,2.5-3.8,5.1-5.7,7.7
	c-3.4,4.6-6.3,9.5-9,14.4c-1.1,2-2.1,4-3.1,6c-1.5,3-3.1,5.9-4.5,9c-1,2.1-1.8,4.4-2.4,6.7c-1.4,4.9-2.8,9.9-4.1,14.8
	c-1.2,4.4-1.5,9-1.6,13.5c-0.1,4,0.3,7.9,0.7,11.9c0.1,1-0.5,2.2,0.7,3c-0.4,1.1-0.1,1.7,0.5,1.9C1,143,2,143.7,1.6,144.7
	c-0.1,0.2,0.3,0.6,0.5,0.9c0,0.3-0.1,0.7,0,1c0.1,0.9,0.5,1.8,0.5,2.8c0,0.7,0.6,1.5,0.8,2.2c0.1,0.3,0,0.8-0.2,1
	c-0.6,0.7-0.5,1.3,0.4,1.7c0.5,1.3,0.3,1.9,0.2,2.5c0.2,0.9-0.1,1.2,0,1.4c0.8,1.6,1.1,3.4,1.2,5.2c0,0.4,0.2,0.8,0.4,1.3
	c0.1,0,0,1.9,0,1.9c0.5-0.3,0.9-0.4,1.4-0.6c0.3,1.3,0.6,2.5,1,3.6c0.5,0.8,0.5,1.2,0.3,1.3c0.4,1.8,0.6,3.5,1.3,5.2
	c0-1.9-0.2-3.8-0.5-5.6c1.4,0.5,2.6,1,3.4,1c0.1-0.3,0.2-0.7,0.3-0.9c-0.6-0.6-1.1-1.5-1.7-2.1c0.2,0.8,0,1.1,0,1.4
	c-0.4-0.2-0.9-0.4-1.4-0.6c0.4-0.5,0.8-1,1.4-1.6c0-0.9-0.5-1.7-1.9-1.6c0.6-0.2,1.2-0.5,1.9-0.7c1.1-0.6-0.1-1.7-0.1-3.1
	c0.1-1.7-0.9-3.4-1.2-5.2c-0.5-2.8-0.4-7-0.7-9.8c-0.6-0.5-1.1,0.8-1.2,0.9c0.3,2.4,0.6,4.8,0.8,7.2c-0.6-2-1-4.2-1.5-6.6
	c-0.1,0.7-0.2,1-0.2,1.4c-0.5,0.5-0.1,1.1,0.2,1.8c-0.7-0.3-1.5-0.2-1.5-0.2v2.8c-1-1-1.3-1.8-1.8-2.5c-0.2-0.8-0.3-1.6-0.5-2.4
	c0.2-0.5,0-0.8,0-1.1c-0.1-0.8-0.2-1.6-0.3-2.4c0.1-0.1-0.1-1.6-0.1-1.6c0.8,0.1,1.3,0.2,1.8,0.2c-1-1.3-0.3-2.1,0.1-2.9
	c0.2-0.4,0.9-0.5,1.1-0.9c0.8-1.5,2.1-2.7,2.1-4.6c0-0.9,0.3-1.9,0.4-2.8c0.2-1.7,0.4-3.4,0.5-5.1c0.2-2.2,0-4.4,0.5-6.5
	c0.8-3.5,1.8-7,2.9-10.5c0.8-2.5,1.7-4.9,2.7-7.4c1.5-3.9,2.9-7.8,4.8-11.5c2.7-5.4,5.8-10.6,8.8-15.9c1.9-3.3,3.9-6.4,6-9.6
	c2-3.1,4-6.3,6.3-9.2c3.2-4.1,6.7-7.9,10.6-11.3c4-3.6,7.8-7.3,12.1-10.6c5.6-4.3,11.5-8.1,17.8-11.4c5.1-2.7,10.4-4.8,15.7-6.8
	c3.4-1.3,7.1-1.9,10.6-3c4-1.3,8-1.9,12.2-2c2.7-0.1,5.3-0.4,8-0.7c2.4-0.2,4.8-0.4,7.4-0.7c-0.3,0.4-0.4,0.6-0.5,0.8
	c-1.1,1.6-2.3,3.2-3.4,4.8c-0.9,1.3-1.9,2.7-2.8,4c-1.6,2.1-3.3,4.2-4.8,6.4c-2.3,3.3-4.4,6.7-6.8,10c-2.4,3.2-5,6.2-7.5,9.3
	c-3.3,4.3-6.4,8.7-9.7,13c-3,4.1-6.2,8-9.1,12.1c-2.6,3.6-4.9,7.4-7.4,11.1c-3.7,5.5-7.4,10.9-11.1,16.4c-2.9,4.2-5.8,8.4-8.8,12.5
	c-0.2,0.3-0.5,0.4-0.8,0.6c-0.8,1.3-0.8,2-1.1,2.6c-0.8,1.5-1.6,3-2.5,4.4c-0.5,0.8-1.2,1.5-1.8,2.3c-0.1-1.2,1.6-1.8,0.8-3.3
	c-0.5,0.8-1,1.5-1.5,2.3l-1.2,2.4c0.4,0.3,1.1,0.5,0.4,1.1c-0.3,0.5-0.6,1.1-0.9,1.6c0.4-0.3,0.8-0.6,1.1-1c0,1.1-0.6,2-1.1,2.9
	c-0.4,0.8-1.4,1.4-2.1,2c0.1,0.1,0.8,0.4,0.9,0.5c0.9-0.3,1.2-0.8,1.3-0.5c0.3-0.4,0.6-0.7,0.7-1c0.4-1,1-1.8,2-2.2
	c0.4-0.2,0.7-0.5,1-0.8c3-3.1,6.1-6.1,8.8-9.4c4.2-5.1,8-10.4,12-15.6c1.7-2.2,3.7-4.4,5.5-6.5c0.3,2.3,0.1,4.5,0,6.6
	c-0.3,3.7-0.5,7.4-0.8,11.2c-0.1,1.5,0,3-0.1,4.5c0,0.4-0.3,0.7-0.3,1.1c0,1,0.3,2.1,0.3,3.1c-0.3,3.7-0.7,7.3-1,11
	c-0.1,0.8,0.3,1.6,0.5,2.3c-0.5,5.4,0.6,11.1-0.3,16.8c0.7-1.1,0.9-1.8,0.9-2.5c0.1-0.6,0-1.2,0-1.9v-1c0.1-1.8,0.5-3.7,0.3-5.5
	c-0.2-2-0.2-3.9,0.2-5.8c0.2-0.8-0.1-1.8,0.4-2.8v1.5c-0.1,5.7,0.1,11.4-0.7,17.1c-0.1,0.5,0.3,1.4-0.8,1.3
	c-0.9,1.8,0.2,3.1-0.8,4.1c-0.2,0.2,0.2,1.1,0.3,1.7c-0.4,1.2-0.4,1.2,0.2,1.3c0.1,2.2,0.3,4.2,0.4,6.3c1.6-3.8,0.8-7.7,1.5-11.6
	c0.1,1.6,0.2,3.2,0.1,4.9c0,2.6-0.1,5.1-0.2,7.7c0,0.5-0.1,1-0.2,1.5c-0.3,1.4-0.4,2.8-0.9,4.1c-0.4,1-0.2,2.5-0.2,3.7v3.8
	c0.4,1.7-0.1,2.6,0.2,3.6c-0.3,1-0.4,1.3-0.3,1.6l0.3,1.5c2-0.2,1.1,1.3,1.9,2.1c-0.6,0.8-0.4,1.1-0.4,1.5c0,0.9-0.1,1.7-0.2,2.6
	c0,2.3-0.1,4.6-0.1,6.8c0,0.3,0.1,0.6,0.1,0.9c0,0.2-0.1,2.8-0.1,2.8c0.2,0.3,0,0.6-0.3,0.9c-0.1,0-0.4-12.7-0.4-12.7H83
	c-0.2,6,0.3,11.4-0.8,17c-1.2,0.1-1.6,0.3-2.9,0.3c-3.1,0-6.2,0-9.3,0.1c-3.7,0-7.3,0.1-11,0.1c-1.8,0-3.7,0.2-5.5,0.2
	c-2.4,0-4.9-0.3-7.3-0.3c-3.7,0-7.3,0.3-11,0.4c-2.7,0.1-5.4,0.1-8.1,0.2c-1.8,0.1-3.6,0.2-5.4,0.4c-0.8,0.1-1.5,0.4-2.5,0.7
	c-0.3,0-1-0.1-1.6,0c-1,0.2-1.9,0.8-2.9,1c-1.5,0.3-1.9,0.7-1.7,2.2v1c-0.1,0.2,2.2-0.3,2.2-0.3c-0.2,0-0.3,0.6-0.6,1.1
	c0.8-0.3,1.3-0.5,1.8-0.7c1.5,0.7,2.8,0.3,4,0.6c3.9,1,7.9,1.4,11.9,1.8c2.6,0.2,5.1,0.3,7.7,0.4c3.7,0.2,7.4,0.4,11.1,0.4
	c3.1,0,6.1-0.3,9.2-0.3c4.3,0,8.6,0.2,12.9,0.3c0.9,0,1.9-0.1,2.9-0.1h7.3c6.5-0.2,13-0.3,19.5-0.5c3.7-0.1,7.5-0.3,11.2-0.4
	l11.4-0.3c4.4-0.1,8.8-0.1,13.1-0.2c3.3,0,6.5-0.1,9.8-0.2c3.7-0.1,7.5-0.4,11.2-0.6c2-0.1,4-0.3,6-0.5c2.4-0.2,4.9-0.5,7.3-0.6
	c3.6-0.2,7.3-0.3,10.9-0.5c4.5-0.3,9-0.7,13.6-0.8c4.2-0.2,8.5-0.1,12.7-0.2c3.7-0.1,7.4-0.3,11.2-0.4l6.3-0.3c0,0,4.2-0.1,6.3-0.3
	c3.6-0.2,7.2-0.6,10.8-0.7c2.3-0.1,4.6,0,6.9-0.1c3.7-0.1,7.5-0.3,11.2-0.3c1.4,0,2.9,0.2,4.7,0.3c-0.8,0.7-1.3,1.1-1.9,1.6
	c0.4,0.1,0.8,0.3,1.2,0.5c-0.5,0.3-1,0.5-1.6,0.5c-0.2,0.5-0.4,0.7-0.6,1.7h1.8c-0.7,0-1.3,0.9-2,1.5c-0.8-0.2-1.5,0-1.9,1.1
	c0.7,0.4,0.6,0.7,0.5,1.1c-1.2,0.4-2.1,0.8-1.6,2.1c-0.4,0.2-0.9,0.4-1.4,0.7c-0.5,0.8-1.4,1-1.2,2.1c0.4,0.1,0.8,0.3,1.1,0.4
	c-0.5,0.2-1,0.5-1.5,0.7c-1.8,1.1-1,1.6-0.6,2.1c-0.3,0.2-0.6,0.4-0.9,0.5c0.2,0.9,0.5,1.1,0.6,1.1c-0.5,0.4-1,0.8-1.5,1.2
	c-0.3,0.9-0.7,1.3-1.1,1.9c-0.4,0.6-0.6,1.4-1.1,2c-2.1,2.3-3.6,5-6.3,6.8c-1,0.7-1.9,1.6-2.8,2.5c-1.8,1.7-3.4,3.6-5.3,5.2
	c-2.5,2.1-5.1,4-7.8,5.9c-3.3,2.3-6.6,4.6-9.9,6.8c-1.8,1.2-3.8,2.1-5.7,3.2s-3.7,2.1-5.6,3.2c-1.2,0.8-2.3,1.9-3.6,2.5
	c-3.3,1.4-6.8,2.6-10.2,3.9c-3.3,1.4-5.7,2.6-8.2,3.5c-2.3,0.8-4.7,1.4-7.1,1.9c-0.8,0.2-1.7,0-2.6,0.1c-1.7,0.3-3.4,0.7-5.1,0.9
	c-4.4,0.6-8.8,1-13.2,1.6c-2.6,0.3-5.1,0.8-7.7,1.1c-1.8,0.1-3.7-0.1-5.5-0.1c-1.3,0-2.7,0.3-4,0.1c-2.1-0.3-4.2-0.8-6.3-1.2
	c-0.5-0.1-1.2-0.3-1.6-0.1c-0.8,0.4-1.5-0.2-2.3,0c-0.5,0.1-1-0.3-1.5-0.3c-0.4-0.1-0.9,0.1-1.4,0c-1.1-0.3-2.1-0.7-3.3-0.6
	c-1.2,0.1-2.4-0.5-3.7-0.8c-1.8-0.4-3.5-0.8-5.3-1.2c-0.7-0.2-1.4-0.5-2-0.9c-2.6,0-4.3-0.1-5.9-0.7c-1.4-0.5-2.7-1.2-4.2-1
	c-0.4,0.1-0.7-0.1-1.1-0.1c-0.3-0.4-0.6-1.2-0.9-1.2c-2,0.1-3.2-1.6-4.9-2.1c-0.9-0.3-1.6-1.3-2.5-1.6c-2.2-0.9-4-2.8-6.5-3.1
	c-0.8-0.1-1.6-0.5-2.5-0.8c0.3,0.4,0.5,0.7,0.8,1c-2.9-1.4-5.6-3-8.3-4.5c-0.4-0.1-0.7-0.5-1-0.7l-2.7-1.8c-1.5,0.3-2.1-0.3-2.5-0.5
	c-2.7-1.9-5.8-3.1-8.4-5.2c-1.1-0.9-2.4-1.5-3.2-2.6c-1.4-1.7-3.1-2.9-5-3.9c-1.5-0.8-2.9-1.7-4.3-2.6c-0.7-0.5-1.4-1.1-1.4-2.2
	c0-0.7-0.3-1.4-1.2-1c-0.4-0.6-0.8-1.3-1.3-1.5c-1.2-0.5-2-1.4-2.9-2.2s-1.6-1.9-2.7-2.3c-2-0.8-3.2-2.5-4.4-3.9
	c-2.8-3.3-5.3-6.9-7.9-10.4c-0.2-0.3-0.6-0.5-0.9-0.8c0.4,1.1,0.9,2,1.4,3c-1-0.4-1.7-1.1-2.3-1.8c-0.1,0.1,6.9,11.6,6.9,11.6
	c0.6,0.9,1.1,1.8,1.7,2.7c-1.2,0.1-2.4-0.5-3-1.6c-0.9-1.6-1.9-2.6-3.9-2.4c-0.2-0.7-0.4-1.5-0.5-2.2c-0.4,0-0.7,0-1.4-0.1
	c1.4,2.2,2.6,4.1,3.9,6.3c-0.5-0.3-0.8-0.5-1-0.6c1.8,1.9,3.1,4.3,5.4,5.5c0.5,2.3,3.1,3.4,3.7,5.6c-0.5-0.1-0.9-0.2-1.4-0.3
	c-0.8-1-1.7-2-2.6-3.1c0.2,0.7,0.5,1.3,0.9,1.8c1.2,1.5,2.3,3,3.7,4.3c0.5,0.5,1.2,0.7,1.2,1.6c0.8,0.4,1.1,0.5,1.4,0.5
	c0.2,0.6-0.1,1.5,1.1,1.3c0.8,1.5,1.6,1.5,2.7,1c1.3,1.3,2,1.4,2.9,0.6c0,0.5,0.1,1,0.1,1.4c0.4-0.2,0.3-0.5,0.3-1
	c0.5,0.4,0.8,0.6,1,0.8c1,1.4,1.9,2.7,3.3,3.8c1.9,1.6,3.6,3.3,5.4,4.8c3.5,2.9,7.4,5.3,11.3,7.5c4.8,2.7,9.4,5.6,14.3,8.2
	c5.9,3.1,12.2,5.2,18.7,6.7c2.4,0.5,4.7,1,7.1,1.6c2.1,0.6,4.2,1.5,6.3,2c3.2,0.7,6.5,1.3,9.7,1.9c0.7,0.1,1.4,0.2,2.2,0.3
	c0.9,0.2,2-0.2,2.2,0.1c0.5,0.8,0.9,0.4,1.5,0.3c0.7-0.2,1.5-0.2,2.3-0.2c2.8,0.1,5.5,0.7,8.3,0.5c0.6,0,1.5-0.5,2,0.5
	c0.9-0.4,1.4-0.4,1.8-0.5c0.1,0.9,0,0.9-0.2,1s-0.5,0.2-0.9,0.5c3.6,0.7,7,0.8,10,0c5.2,0.4,9.7-0.2,14-1.7c0.4,0.5,0.7,1.2,1.3,0.2
	c0.2-0.3,0.7-0.4,1.1-0.5c0.9-0.2,2-0.6,2.8-0.3c0.9,0.3,1.2-0.5,1.9-0.5c1.2,0,2.3-0.1,3.4-0.3c0.6-0.1,1.2-0.4,1.9-0.6
	c-0.7-0.3-1.4-0.5-2.2-0.5c1.2-0.6,2.3-1.1,3.4-1.6c-0.2,0.3-0.4,0.7-0.8,0.7h1.4c-0.3,0-0.7,0.9-1.2,1.5c3.6-0.9,6.9-1.7,10.1-2.5
	c-1.1-2.1,1.2-1.4,2-2.6c-1,0.3-2,0.6-3,0.8c3.4-1.7,6.9-3.2,10.3-4.7c-0.5,0.6-1.1,0.9-2,1.4c0.6,0.1,1,0.1,1.3,0.2
	c1.6,0.5,1.2-1,1.7-1.9c1.9,0,2.7-0.3,3.6-0.6c1-0.3,2-0.6,3-1c1.6-0.7,3.1-1.6,4.7-2.4c0.3-0.1,0.8,0,1.2,0
	c1.1-0.7,1.5-1.3,1.8-1.2c1.4,0.2,2.4-0.3,2.8-1.6c0.7-0.5,1.2-0.9,1.7-1.2c2.2-1.2,4.3-2.4,6.5-3.6c0.8,0,1.2,0,1.4-0.1
	c1.3-0.6,2.5-1.3,3.7-2c-0.3-0.1-0.7-0.3-1-0.5c1-0.2,1.3-0.3,1.9-0.5c2.4-2.8,5.7-4.7,8.2-6.9c1.1-0.1,1.1-0.4,1.1-0.6
	c0.4-0.5,0.8-1.1,1.3-1.5c2.2-2,4.6-3.7,6.6-5.8c2.9-2.9,5.7-5.9,8.3-9c2.4-2.8,4.8-5.6,6.8-8.7c2.8-4.3,5.2-8.7,7.7-13.2
	c1.8-3.2,3.4-6.4,5.2-9.6c0.2-0.3,0.6-0.7,0.9-0.7c2.7-0.3,5.4-0.5,8-0.8c0.6-0.1,1.3-0.5,1.9-0.8c-0.3-0.5-0.5-1.1-0.8-1.6
	c-0.4-0.6-1-1.1-1.4-1.7c-0.4-0.5-0.7-1.1-1-1.7c-0.3-0.5-0.6-0.9-0.9-1.4c-0.6-1.1-1.2-2.2-1.7-3.4c-0.1-0.3-0.3-0.8-0.2-1.1
	c1.8-3.9,2.5-8.1,4.2-12c1.7-4,2.2-8.5,3-12.8c0.7-4.1,1.1-8.2,1.6-12.3c0.3-2.9,0.7-5.7,0.8-8.6c0.6-4.6,0.4-8.9,0.3-13.2
	C295.8,136.4,295.6,132.5,295.4,128.7L295.4,128.7z M44.7,251.9c-0.7-0.8-1.3-1.7-2-2.5l0.3-0.3c1.1,1.2,2.2,2.4,3.3,3.7
	C45.7,252.5,45,252.3,44.7,251.9z M46.3,252.8c0.3-0.1,0.6-0.1,0.9-0.2c0.3,0.5,0.5,1.1,0.8,1.7C46.6,254.2,45.9,253.6,46.3,252.8
	L46.3,252.8z M150.2,294.1v-0.3c1.9-0.2,3.7-0.4,5.6-0.6v0.3C153.9,293.8,152.1,294,150.2,294.1L150.2,294.1z M175.4,291.5
	c-1.4,0.3-2.9,0.5-4.3,0.7c-0.5,0.1-1.1,0.6-1.3-0.3c-0.2,0.1-0.4,0.1-0.6,0.2c0.5,1.5,1.7,0.3,2.7,0.9c-2.2,0.3-4.3,0.5-6.4,0.8
	v-0.2c0.6-0.1,1.3-0.2,1.9-0.3V293c-1-0.1-2-0.2-3-0.2c-0.3,0-0.7,0.4-1,0.5c-0.4,0.1-0.8,0.2-1.3,0.2c-1.7,0.1-3.4,0.1-5,0.2
	c-0.1,0-0.3-0.1-0.4-0.1v-0.3c6.7-0.9,13.3-1.8,20-2.7c0.1,0.2,0.1,0.4,0.2,0.6C176.3,291.2,175.9,291.4,175.4,291.5L175.4,291.5z
	 M176.9,290.5c2.3-0.3,4.4-0.5,6.6-0.8C178.9,291,177.4,291.2,176.9,290.5L176.9,290.5z M89.8,88.5c3.2-4.4,6.5-8.8,9.7-13.3
	c1-1.3,1.8-2.7,2.8-4c0.3-0.4,0.7-0.6,1.2-1l-0.1-0.2c0.4-0.5,0.8-0.9,1-1.3c0.5-0.8,0.8-1.7,1.2-2.6c0.1-0.2,0.4-0.4,0.4-0.4
	c1.4,0.7,1.4-0.8,1.9-1.3c0.9-1,1.8-2.1,2.6-3.1c0.6-0.8,1.2-1.5,1.7-2.4c0.1-0.3-0.2-0.8-0.3-1.2h-0.3c0.3-0.2,0.6-0.5,0.9-0.7
	c0.1,0,0.1,0,0.2-0.1c0.6-0.9,1.2-1.8,1.8-2.6c1.2-1.6,2.5-3.2,3.9-4.6c-0.2,0.5-0.4,1-0.6,1.4c0.1,0,0.1,0.1,0.2,0.1
	c1.2-1.6,2.5-3.1,3.7-4.7c-0.1-0.1-0.2-0.2-0.3-0.2c-0.5,0.5-0.9,1-1.4,1.5c-0.1-0.1-0.2-0.2-0.3-0.2c1-1.3,2-2.6,3-4.1
	c0.2,0.3,0.4,0.7,0.8,1.5c0.4-1,0.8-1.7,1.1-2.4c-0.3,0.3-0.7,0.6-1,0.9l-0.3-0.3l1.8-2.7c1.9-2.7,3.8-5.5,5.7-8.2
	c0.7-1,1.6-1.8,2.2-2.8c1.9-3.8,4.9-6.8,7.2-10.3c0.5-0.7,1.2-1.3,1.8-1.9c0.5-0.6,0.9-0.4,1.3,0.1c2.7,3.4,5.4,6.9,8.1,10.3
	c2,2.5,4,4.9,5.9,7.5c2.3,3.2,4.5,6.4,6.8,9.6c2.6,3.7,5.2,7.4,7.7,11.2c3.8,5.6,7.4,11.2,11.2,16.8c2.8,4.1,5.6,8.1,8.3,12.2h-5.1
	c-4.7-0.1-9.5-0.5-14.2-0.3c-6.4,0.3-12.9,1-19.3,1.5c-8.1,0.7-16.3,0.8-24.4,0.8c-2.9,0-5.8,0.4-8.7,0.6c-3.5,0.2-6.9,0.4-10.4,0.5
	c-4.1,0.2-8.1,0.3-12.2,0.4C94.7,88.6,92.3,88.5,89.8,88.5L89.8,88.5z M204.5,134.5v0.9c-0.1,0-0.2,0.1-0.4,0.1
	c-0.4-1.4-0.8-2.9-1.3-4.3c-1-2.9-2.1-5.8-3.9-8.4c-2-2.8-3.8-5.7-5.8-8.6c-0.5-0.7-1.2-1.3-1.8-1.9c-2.1-2.3-4.2-4.7-6.9-6.4
	c-4-2.5-8.2-4.6-12.5-6.4c-1.2-0.5-2.4-1.1-3.5-1.8h2.4l17.1-0.3c3.7-0.1,7.3-0.1,11-0.3c0.9,0,1.4,0.3,1.9,1.1
	c0.9,1.5,1.8,3,2.8,4.5c0.1,0.2,0.3,0.5,0.3,0.8c0,2.2,0,4.5,0.1,6.7c0.1,2.3,0.3,4.5,0.4,6.8c0,2.3-0.2,4.7-0.1,7.1
	C204.3,127.5,204.4,131,204.5,134.5L204.5,134.5z M96.9,101c4.7-0.2,9.2-0.5,13.8-0.7c3.6-0.2,7.3-0.3,10.9-0.5
	c1.5-0.1,2.9-0.2,4.4,0c-1.6,0.8-3.2,1.6-4.6,2.6c-1.8,1.2-3.5,2.8-5.3,4.1c-1.8,1.3-3.4,2.9-4.9,4.6c-1.9,2.3-4,4.3-6,6.5
	c-1.4,1.6-3,3.1-4.2,4.8c-1.7,2.2-3.2,4.6-4.8,7.1C96.7,120,97.3,110.6,96.9,101L96.9,101z M162.2,197.3c-3.2,0.8-6.5,1.7-9.8,2.1
	c-2.8,0.4-5.7,0.3-8.6,0.3c-2.6,0-5.1-0.1-7.7-0.3c-2.9-0.3-5.8-0.6-8.6-1.9c-2.4-1.1-4.9-2.1-7.3-3.3s-4.8-2.6-6.6-4.8
	c-1.3-1.6-3.1-2.9-4.7-4.3c0.3,1.2,1,2.2,2.1,2.9c-0.5,0.6-1.2,0.3-2.2-1.3c-0.3,0.2-0.6,0.3-0.8,0.4c0.3-0.7,0.6-1.4,0.9-2
	c-0.4-0.8-0.9-1.7-1.3-2.5c-0.8-1.3-1.6-2.7-2.3-4c-0.2-0.3-0.2-0.6-0.4-0.9c-0.5-0.6-1-1.2-1.4-1.8c-0.8-1.2-1.5-2.5-2.5-3.7
	c0,0.3,0.1,0.6,0.1,1c-0.1,0-0.2,0.1-0.2,0.1l-2.1-5.1c-0.1,0-0.1,0-0.2,0.1l1.8,6.6c-0.1,0-0.2,0.1-0.3,0.1
	c-0.3-0.4-0.6-0.8-0.8-1.3c-0.2-0.8-0.8-0.8-1.3-0.5c-0.3,0.2-0.5,0.9-0.4,1.2c0.7,1.7,1.5,3.4,2.3,5.1c0.2,0.6,0.4,1.1,0.7,1.7
	c0.1,0.2,0.4,0.4,0.4,0.7c0.4,0.8,0.7,1.6,1.2,2.3c0.9,1.2,1.9,2.4,2.8,3.6c0.9,1.2,1.7,2.5,2.5,3.7c0.1,0.2,0.4,0.2,0.5,0.3
	c0.5,1.5,2.2,2.6,3.4,2c0.3,2.3,2.8,3.1,3.8,5.3c-1-0.4-1.9-0.8-2.9-1.3c-0.1,0.1-0.1,0.2-0.2,0.4c1.2,0.6,2.4,1.2,3.5,1.9
	c1,0.6,2,1.2,2.9,1.9c1.2,1.1,2.6,1.7,4.3,2.1c-0.1-0.3-0.2-0.4-0.2-0.4c2.8,1.3,5.7,2.7,7.9,3.8c-10.4,0.2-21.5,0.4-33,0.6
	c0-1.9-0.1-3.7-0.1-5.6c0-0.8,0.2-1.5,0.1-2.3c-0.3-4.6-0.3-9.2-0.9-13.7c-0.6-4.8-0.6-9.5-0.5-14.3c0.1-2.6-0.1-5.3-0.2-7.9
	c0-3.5,0-6.9,0.1-10.4c0-0.5,0.2-0.9,0.4-1.4h0.3c0.1,0.2,0,0.5,0.2,0.6c0.3,0.3,0.8,0.8,1,0.7c0.6-0.4,1.5-0.8,1.7-1.4
	c0.5-1.2,0.7-2.5,0.7-3.7c0-0.9,0.4-1.5,0.8-2.1c0.2-0.3,0.3-0.6,0.5-1c-0.4-0.3-0.8-0.5-1.3-0.9c0.4-1.1,0.3-2.4,1.8-3
	c0.2-0.1,0.2-0.6,0.3-0.9c0.1-0.8,0.2-1.7,0.3-2.5c0.2,0.3,0.3,0.4,0.5,0.6c0.1-0.1,0.1-0.2,0.2-0.3c0-0.4-0.1-1.2,0-1.2
	c1.2-0.2,0.7-1.5,1.3-2.1c0.1-0.1-0.1-0.4-0.1-0.6c0-0.2,0-0.5,0.1-0.5c1.4-0.3,1.2-1.8,2.1-2.5c0.3-0.2,0.4-0.5,0.8-1
	c0.8,1.4-0.6,2.1-0.7,3.1c1.7-1,2.2-3.4,1.2-4.1c0.4-0.3,0.8-0.7,1.1-1.1c1.1-1.2,2.3-2.3,3.3-3.5c0.7-0.9,1.1-2,1.8-2.9
	c0.4-0.5,1.2-0.9,1.8-1.2c1.8-1,3.5-2.1,4.6-3.8c0.2-0.2,0.5-0.4,0.8-0.6s0.9-0.2,1-0.5c0.1-0.2-0.2-0.7-0.4-1
	c0.4-0.2,0.8-0.6,1.6-1c-0.3,0.6-0.4,1-0.6,1.4l0.5,0.5c0.9-0.7,2.3-1.5,3.2-2.1c0-0.1-0.5-0.5-0.5-0.5c-0.6,0.3-1.5,0.8-2.4,1.2
	c0.2-0.3,0.2-0.5,0.3-0.6c1.4-0.9,2.8-1.8,4.3-2.5c3.5-1.6,7-3.2,10.5-4.7c0.6-0.3,1.4-0.1,2.1-0.1c0.3,0,0.5,0,0.8-0.1
	c1.6-0.5,3.2-1,4.8-1.4c0.7-0.2,1.5-0.3,2.2-0.3c3,0.1,6,0.1,9,0.3c1.3,0.1,2.5,0.4,3.7,0.8c1.5,0.5,3,1.2,4.5,1.9
	c1.7,0.9,3.3,1.9,4.9,3c2.9,1.9,5.6,4,8.5,5.7c2.8,1.7,5,4,6.8,6.6c2.2,3.1,4.7,5.9,5.7,9.7l1.5,6.6c0.3,1.2,1,2.4,0.7,3.8
	c-0.5,2.5-0.9,5.1-1.3,7.6c-0.2,1-0.4,2-0.3,3c0.2,3.1-1,5.8-2.2,8.6c-0.4,0.9-1,1.8-1.5,2.8c0.2,0.2,0.5,0.3,0.8,0.4l0.9-1.8
	c0.1,0,0.1,0,0.2,0.1c-0.5,1.4-0.9,2.9-1.4,4.3c-1.2,3.1-2.4,6.3-3.9,9.3c-0.8,1.7-2.2,3.1-3.2,4.7c-1,1.4-1.8,2.9-2.8,4.2
	c-0.9,1.1-1.8,2.2-3,3c-2.7,2-5.5,4-8.4,5.6C166.3,196.2,164.2,196.8,162.2,197.3L162.2,197.3z M108.9,191.9l-0.1,0.1
	c-0.2-0.1-0.5-0.2-0.7-0.4l-2.4-3.6c-0.2-0.3-0.3-0.6-0.2-1C106.6,188.8,107.7,190.4,108.9,191.9L108.9,191.9z M171.1,205.7
	c4.5-1.9,8.2-4.6,11.6-7.7c0.5-0.5,1-1,1.6-1.4c4.2-2.6,7.3-6.2,10.1-10.2c3.2-4.6,5.3-9.8,7.9-14.7c0.2-0.4,0.4-0.7,0.6-1.1
	c-0.2,11.4,1.1,22.6,2.6,33.9C194.2,204.9,182.7,205.3,171.1,205.7L171.1,205.7z M272.4,202.7c-0.1,0.2-0.3,0.4-0.4,0.6
	c-0.1-0.2-0.1-0.5-0.2-0.9c-0.6,1.6-1.9,0.8-2.8,0.8c-5.4,0.1-10.9,0.1-16.3,0.1c-5.2,0-10.5,0-15.7,0.1c-1.7,0-3.5,0.4-5.2,0.5
	c-4.1,0.2-8.2,0.3-12.3,0.4c-0.3,0-0.6-0.5-1.1-0.9c-0.2,0.3-0.4,0.6-0.6,0.9c-0.1-0.2-0.3-0.4-0.5-0.7c-0.1,0.3-0.2,0.6-0.3,0.8
	h-0.3c-0.2-1.4-0.6-2.7-0.6-4.1c0-3,0.3-6,0.4-9c0.1-1.4,0-2.7,0-4c0.4,0.3,0.7,0.5,1.1,0.8c0.2-0.4,0.4-0.7,0.6-1
	c0,0-0.2-0.1-0.4-0.3c0.2-0.1,0.4-0.3,0.4-0.4c0.1-0.3,0.3-0.6,0.3-0.8c0-0.7-0.2-1.3-0.3-1.9c0.1,0,0.2,0,0.3-0.1l0.6,3h0.3
	c-0.4-0.7,0.9-1.3-0.2-2.1c-0.1-0.1,0.1-0.7,0.1-1c-0.3-0.6-0.5-1.2-0.8-2c0.1-0.1,0.4-0.2,0.7-0.3c-0.4-0.2-0.7-0.4-1-0.5
	c1-0.9,1-1.4,0.1-2.4c0.2-0.1,0.4-0.1,0.4-0.2c0-0.9,0-1.8-0.2-2.7c-0.2-1,0.3-2.2-1.2-2.8c0.1,0.3,0.2,0.6,0.4,0.8
	c0,0-0.3,0.1-0.6,0.3c-1.3-1.2-0.5-2.8-0.8-4.6c0.7,0.2,1.2,0.4,1.7,0.6c-0.2-0.7-0.7-1.5-1-2.4h-0.4v-6.6c0,0.1,0.7,0.1,1.1,0.2
	c0-0.1,0.1-0.2,0.1-0.3c-0.3-0.4-0.7-0.8-1.1-1.3l0.2-0.2c-0.8-1-0.4-2.4-0.4-2.7v-7c1,1-0.5,2.3,1,2.9v-1h-0.1
	c-0.1-1.5-0.1-3-0.2-4.5H217c-0.1,0.2-0.1,0.3-0.2,0.5h-0.2l0.6-23.9c1,1.3,2.1,2.5,2.8,3.8c2.3,4.2,5.3,7.8,8.1,11.6
	c2.4,3.3,4.6,6.9,6.8,10.3c2.7,4.1,5.3,8.2,8,12.3c2,3.1,4.1,6.2,6.2,9.2c1.9,2.7,3.9,5.3,5.9,7.9c1.7,2.3,3.5,4.6,5.2,6.9
	c2,2.8,4,5.6,6,8.3c1,1.4,2.1,2.8,3.2,4.2c0.6,0.8,1.5,1.4,2.1,1.9c-0.1,0-0.2,0-0.4-0.1c0.3,0.4,0.5,0.7,0.7,0.9
	C272.9,201.2,273,201.8,272.4,202.7L272.4,202.7z M277.5,177.6v-0.7C277.5,177.1,277.6,177.4,277.5,177.6L277.5,177.6z M280.9,133.5
	c-0.1,0-0.7-0.6-0.8-0.7c-0.1,0.3,0,0.6-0.2,1c-0.1-0.3-0.8-0.2-0.8-0.5c-0.1,1.4,0.6,2.8,0.5,4.2c0.3-0.2,1.5-0.3,1.8-0.6
	c0.1,0.1,0.3,0.2,0.4,0.2c-2,1.5-1.5,3-0.6,4.7c0.2,0.4,0.8,1.2,0.2,2c-0.2,0.2,0.1,0.8,0.2,1.3h0.3v0.2l-0.9,0.3
	c-0.2-0.3-1.4-0.9-1.4-1.4v5.1c1,0.3,1,1.7,1.4,2.4c0.2-0.2,0.3-0.5,0.4-0.8l0.1,0.1c-0.1,0.6-0.2,1.2-0.4,1.8
	c-0.2,0.9-0.4,1.7-0.5,2.6c0,0.1,0.2,0.3,0.2,0.4c-1.1,2.5-0.5,5.3-0.9,7.9c-0.3,1.9,0,3.9-0.2,5.9c-0.2,1.7-0.6,3.5-1,5.2
	c-0.1,0.3-0.3,0.4-0.8,0.6c0.2-1.2,0.1-2-0.1-3.1c-0.1,0-1.4-0.7-1.5-0.7c0,1.4,0.8,3.3,1.1,4.9c-0.3-0.1-1.5-0.8-1.6-0.8
	c-0.2,1.2-0.2,2.8-0.3,4.1c-0.1,1-1,1.9-1.1,3c0,0.6,0.7,1,0.6,2h0.8c0-2,0.9-3.8,0.9-5.9h0.3c0.1,0.2,0.4,0.4,0.3,0.5
	c-0.2,1.1-0.6,2.3-0.5,3.4c0,0.6,0.5,1.2,0.3,1.9c-0.2,0.6-0.3,1.2-0.4,2.1c-0.1-0.5-0.2-0.7-0.2-1c-0.1,0-1-0.1-1.1-0.1
	c-0.1,0.6,0.7,1.2,0.6,1.7c-0.1,0.1-0.2,0.1-0.4,0.2l-3.3-4.8c-2.6-3.8-5.2-7.6-7.8-11.5c-0.7-1-1.3-2-1.8-3
	c-3.1-5.3-6.5-10.4-10.3-15.3c-2.9-3.7-5.2-7.7-7.9-11.6c-2.5-3.7-5-7.3-7.5-11c-0.9-1.2-2-2.3-2.8-3.6c-2.6-4.1-4.9-8.3-7.5-12.4
	c-2.2-3.4-4.6-6.7-6.9-10c-0.8-1.1-1.6-2.3-2.4-3.5c-0.1-0.2-0.2-0.4-0.2-0.7c-0.2-2.2-0.4-4.4-0.5-6.5c0-2,0.2-4,0.2-6.1v-1.8
	c0-0.5,0.1-0.9,0.1-1.4c0.1-0.1,0.2-0.3,0.3-0.4c-2.9,0-5.9-0.1-8.8,0c-1.9,0.1-2.9-0.7-4.2-2.1c-3.8-4.3-6.6-9.2-9.9-13.8
	c-3.1-4.4-6.3-8.7-9.5-13c-2.6-3.5-5.2-6.9-7.8-10.4c-2.9-4-5.7-8-8.7-12c-3.6-4.8-7.3-9.6-11-14.4c-1.7-2.2-3.6-4.3-5.5-6.6
	c1.3,0.2,2.5,0.4,3.7,0.5l4.8,0.3c3.6,0.3,7.2,0.5,10.8,1c3,0.4,6,1,9.1,1.5c6.6,1.1,13.1,2.9,19.4,5c3.7,1.2,7.3,2.8,10.9,4.3
	c8.1,3.3,15.8,7.3,23.4,11.5c2.4,1.3,3.8,3.4,5.6,5.3c2.6,2.7,5.2,5.4,7.7,8.2c2.9,3.3,5.6,6.7,8.4,10.1c2.5,3,5.1,6,7.6,9
	c0.8,0.9,1.4,2,2.1,3c1.6,2.4,3.4,4.7,4.8,7.3c1,1.9,1.6,4.1,2.3,6.2c1,3.1,2,6.1,3,9.2c0.7,2.3,1.3,4.7,1.8,7.1
	c0.4,1.6,0.3,3.3,0.8,4.9c0.6,2.1,0,4.4,0.6,6.5c0.1,0.2,0.2,0.5,0.3,0.7c0.4,0.4,0.7,0.8,0.1,1.4c-0.1,0.1-0.1,0.5,0,0.8
	c0.2-0.2,0.3-0.4,0.5-0.7c0,0.2,0.1,0.3,0.1,0.4c0,0.4-0.1,0.8,0,1.2c0,0.2,0.2,0.5,0.3,0.7c0.2-0.2,0.4-0.3,0.8-0.6
	c0.9,3.4,1,6.8,1,10.3c0,3.3,0.6,6.6-0.8,9.8C281.3,135.5,280.6,134.5,280.9,133.5L280.9,133.5z"/>
<path fill="#DD3735" d="M217.1,172.4c0.1,0,0.2,0.1,0.2,0.1L217.1,172.4C217.2,172.3,217.2,172.3,217.1,172.4L217.1,172.4z
	 M232.8,271.3c-1.1,0.8-2.2,1.5-3.6,1.8c-0.1-0.1-0.1-0.2-0.2-0.3c1.1-0.7,2.3-1.4,3.4-2.1C232.5,270.9,232.7,271.1,232.8,271.3
	L232.8,271.3z M45.5,135.7c1.1-1.4,2.2-2.8,3.4-4.2c0.1,0.1,0.9,0.3,1,0.4c-1.1,1.4-2.6,3.3-3.7,4.8C46,136.5,45.7,135.8,45.5,135.7
	L45.5,135.7z M17.1,184.8c-0.8-1.7-1.6-3.5-2.4-5.2c0.3-0.2,0.6-0.3,0.9-0.4c1.1,1.6,1.6,3.5,2.4,5.2
	C18,184.3,17.2,184.7,17.1,184.8L17.1,184.8z M42.6,136.7c-0.6,0.9-1.2,1.9-1.8,2.8c-0.1-0.1-1.2,0.4-1.3,0.3
	c0.6-0.9,2.1-2.5,2.7-3.4C42.3,136.5,42.4,136.6,42.6,136.7L42.6,136.7z M222.2,275.4c0.1,0,0.1-0.1,0.2-0.1
	c0.7,0.1,1.5,0.2,2.3,0.2C223.3,276.4,222.5,276.3,222.2,275.4L222.2,275.4z M42.8,140.9c0.1-0.3,0.3-0.6,0.5-0.9
	c0.2,0,0.5-0.1,0.5-0.1c0.4-0.7,0.4-1.2,0.8-1.8c-0.1-0.1-0.2-0.1-0.3-0.2c-0.6,0.4-1.2,0.9-1.8,1.3c0.2,0.2,0.2,0.3,0.2,0.5
	c-0.8-0.1-1.1,0.3-1.5,1.4c-0.1,0.3-0.6,0.4-1.1,0.8c-0.1,0.2-0.2,0.7-0.4,1.2l0.1,0.1c-0.2,0.2-0.5,0.3-0.5,0.3
	c-0.6,0.6-1.3,1.1-1.9,1.7c-0.1,0.3-0.2,0.6-0.2,0.9c0.7-0.7,1.9-2,2.8-2.8l0.1,0.1c0.4-0.6,0.7-1.2,1.1-1.8
	c0.1,0.1,0.1,0.2,0.2,0.3c-0.3,0.8-0.6,1.7-0.9,2.5c-0.2,0.1-0.5,0.3-0.5,0.2c-0.4,0.3-0.7,0.7-1.1,1l-1.8,1.2c-1,0.9-2,1.7-3.1,2.6
	c-0.7,1.1-1.4,2.1-2.2,3.4c1.2-0.3,1.5,0.2,1.4,1.2c1.4,0.2,1.5-0.9,1.9-1.7c0.1-0.2,0.2-0.6,0.4-0.7c0.9-0.8,1.9-1.5,2.9-2.3
	c0.2-0.2,0.2-0.6,0.2-0.9c0-0.1-0.5-0.1-0.8-0.2c0.9-1,2.2-2.7,3.1-3.8c0.5-0.3,1-0.7,1-1c-0.1-1.1,0.6-1.4,1.4-1.8
	C42.9,141.3,42.8,141,42.8,140.9L42.8,140.9z"/>
<path fill="#DD3735" d="M44.8,139.8c-0.4,0.7-0.8,1.3-1.2,2l-0.6-0.3c-0.4,2.3-1.8,4.3-3.2,4.7c0.4,0.2,0.8,0.4,1.1,0.3
	c0.3-0.1,0.5-0.6,0.7-0.9l2.7-3.9l0.9-1.5L44.8,139.8L44.8,139.8z M11.5,183.7c0.5,0,1,0.1,1.6,0.1c0-0.4,0.5-0.3,0.5-0.7h0.3
	c0,0.5,0.1,0.9,0.1,1.4h-2.1C11.8,184.4,11.4,183.8,11.5,183.7L11.5,183.7z M10.7,179.1c-0.3-0.3-0.8-0.6-0.8-0.9
	c-0.1-0.4,0.2-0.9,0.5-1.4c0.2,0.7,0.3,1.3,0.5,2C10.8,178.9,10.7,179,10.7,179.1L10.7,179.1z M13.2,172.7c0.4,1,0.8,2.1,1.2,3.1
	c-0.3,0.1-0.6,0.2-0.8,0.4c-0.4-1-0.9-2.1-1.3-3.1C12.6,173,12.9,172.8,13.2,172.7L13.2,172.7z M235.6,268.4
	c0.5-0.2,1.1-0.3,1.9-0.5c-0.9,0.7-1.6,1.2-2.2,1.8c-0.1-0.1-0.2-0.2-0.3-0.2C235.2,269.1,235.4,268.8,235.6,268.4L235.6,268.4z
	 M112.8,57c0.6-0.4,1.1-0.7,1.7-1.1l0.2,0.2c-0.6,0.8-1.1,1.6-1.8,2.6c-0.1-0.7-0.1-1.1-0.2-1.6C112.6,57.1,112.7,57.1,112.8,57
	L112.8,57z M142.1,107.6c0.9-0.4,1.8-0.8,2.9-1.3c-0.1,0.6-0.1,1-0.1,1.4c-0.3-0.1-0.7-0.2-1-0.2c-0.6,0.1-1.7,0.9-2.2,1
	C141.6,108.5,142.1,107.7,142.1,107.6L142.1,107.6z M217.1,192.5c0.2,1,2.1,1.5,0.2,2.5c0.3,0.2,0.6,0.3,0.9,0.5
	c0,0.2-0.1,0.3-0.2,0.4c-0.2,0.1-0.6,0.3-0.8,0.2c-0.1,0-0.3-0.4-0.3-0.6C216.9,194.6,217,193.7,217.1,192.5L217.1,192.5z"/>
</svg>
