<?xml version="1.0" encoding="utf-8"?>
<!-- Generator: Adobe Illustrator 21.1.0, SVG Export Plug-In . SVG Version: 6.00 Build 0)  -->
<svg version="1.1" id="Layer_1" xmlns="http://www.w3.org/2000/svg" xmlns:xlink="http://www.w3.org/1999/xlink" x="0px" y="0px"
	 viewBox="0 0 367 423.8" enable-background="new 0 0 367 423.8" xml:space="preserve">
<g>
	<polygon fill="#673AB8" points="183.5,0 367,106 367,317.9 183.5,423.8 0,317.9 0,106 	"/>
	<path fill="#FFFFFF" d="M50,316.1c24.4,31.2,101.9,7.4,175.1-49.8s115-126.7,90.6-157.9c-24.4-31.2-101.9-7.4-175.1,49.8
		S25.6,284.9,50,316.1z M60.4,308c-8.1-10.4-4.6-30.7,10.9-56.3c16.2-27,43.8-56.7,77.5-83s69.3-45.9,99.3-55.1
		c28.6-8.8,49.1-7.3,57.2,3.1c8.1,10.4,4.6,30.7-10.9,56.3c-16.2,27-43.8,56.7-77.5,83s-69.3,45.9-99.3,55.1
		C89.1,319.8,68.5,318.3,60.4,308z"/>
	<path fill="#FFFFFF" d="M315.8,316.1c24.4-31.2-17.4-100.7-90.6-157.9S74.4,77.2,50,108.5s17.4,100.7,90.6,157.9
		S291.4,347.3,315.8,316.1z M305.3,308c-8.1,10.4-28.7,11.8-57.2,3.1c-30.1-9.2-65.6-28.8-99.3-55.1s-61.3-56.1-77.5-83
		c-15.4-25.6-18.9-45.9-10.9-56.3c8.1-10.4,28.7-11.8,57.2-3.1c30.1,9.2,65.6,28.8,99.3,55.1s61.3,56.1,77.5,83
		C309.9,277.3,313.4,297.6,305.3,308z"/>
	<path fill="#FFFFFF" d="M182.9,240.4c15.5,0,28.1-12.6,28.1-28.1s-12.6-28.1-28.1-28.1s-28.1,12.6-28.1,28.1
		S167.4,240.4,182.9,240.4L182.9,240.4z"/>
</g>
</svg>
