<?xml version="1.0" encoding="utf-8"?>
<!-- Generator: Adobe Illustrator 21.1.0, SVG Export Plug-In . SVG Version: 6.00 Build 0)  -->
<svg version="1.1" id="Layer_1" xmlns="http://www.w3.org/2000/svg" xmlns:xlink="http://www.w3.org/1999/xlink" x="0px" y="0px"
	 viewBox="0 0 2484.6 2233.8" enable-background="new 0 0 2484.6 2233.8" xml:space="preserve">
<path fill="#FFFFFF" d="M0,1112.9c0,187.6,183.2,362.8,472.1,461.5c-57.7,290.4-10.3,524.5,147.8,615.6
	c162.5,93.7,404.7,28.9,634.5-172.1c224,192.8,450.5,268.7,608.5,177.2c162.4-94,211.8-343.9,152.5-643.4
	c300.9-99.5,469.2-248.8,469.2-438.9c0-183.3-183.6-341.8-468.5-439.9c63.8-311.8,9.7-540.2-154.9-635.2
	c-158.8-91.6-387.8-11.8-615.2,186.1C1009.4,13.9,782.6-50.2,618.1,45c-158.6,91.8-203.9,330.1-146,625.9
	C193,768.2,0,930.4,0,1112.9z"/>
<path fill="#53C1DE" d="M1955.7,770.4c-23.5-8.1-47.2-15.5-71-22.4c4-16.1,7.6-32.2,11-48.4c53.8-261,18.6-471.3-101.4-540.5
	c-115.1-66.4-303.4,2.8-493.5,168.3c-18.7,16.3-37.1,33.2-54.9,50.4c-12-11.5-24.2-22.7-36.6-33.8
	c-199.3-176.9-399-251.5-518.9-182.1c-115,66.6-149.1,264.2-100.7,511.6c4.8,24.5,10.3,48.9,16.3,73.1c-28.3,8-55.6,16.6-81.7,25.7
	c-233.6,81.4-382.8,209.1-382.8,341.5c0,136.8,160.1,273.9,403.5,357.1c19.7,6.7,39.6,12.9,59.7,18.7c-6.5,26.1-12.3,52.4-17.3,78.8
	c-46.2,243.1-10.1,436,104.6,502.2c118.5,68.3,317.3-1.9,510.9-171.1c15.3-13.4,30.7-27.6,46-42.4c19.4,18.7,39.3,36.8,59.6,54.4
	c187.5,161.4,372.7,226.5,487.3,160.2c118.4-68.5,156.8-275.8,106.9-528.1c-3.8-19.3-8.3-38.9-13.2-59c14-4.1,27.7-8.4,41-12.8
	c253-83.8,417.5-219.3,417.5-357.9C2348,980.9,2194,852.4,1955.7,770.4L1955.7,770.4z"/>
<path fill="#FFFFFF" d="M1900.8,1382.2c-12.1,4-24.4,7.9-37.1,11.6c-27.9-88.4-65.6-182.4-111.7-279.5
	c44-94.8,80.2-187.6,107.4-275.5c22.6,6.5,44.5,13.4,65.6,20.7c204.2,70.3,328.7,174.2,328.7,254.3
	C2253.7,1199.1,2119.2,1309.8,1900.8,1382.2L1900.8,1382.2z M1810.2,1561.8c22.1,111.5,25.2,212.4,10.6,291.2
	c-13.1,70.8-39.6,118.1-72.2,137c-69.5,40.3-218.3-12.1-378.6-150.1c-18.4-15.8-36.9-32.7-55.5-50.6c62.2-68,124.3-147.1,185-234.9
	c106.7-9.5,207.5-24.9,298.8-46.1C1802.7,1526.6,1806.8,1544.4,1810.2,1561.8L1810.2,1561.8z M893.7,1983
	c-67.9,24-122,24.7-154.7,5.8c-69.6-40.1-98.5-195.1-59.1-403c4.7-24.6,10.1-49,16.1-73.3c90.4,20,190.4,34.4,297.4,43
	c61,85.9,125,164.9,189.4,234c-13.7,13.2-27.7,26.2-42,38.7C1055.1,1903.2,969.3,1956.3,893.7,1983L893.7,1983z M575.5,1381.7
	c-107.6-36.8-196.4-84.6-257.4-136.7c-54.7-46.9-82.4-93.4-82.4-131.2c0-80.3,119.8-182.8,319.6-252.5c25.1-8.7,50.4-16.7,75.9-23.9
	c27.6,89.8,63.8,183.7,107.5,278.7c-44.3,96.4-81,191.8-108.9,282.6C611.6,1393.5,593.5,1387.8,575.5,1381.7z M682.1,655.4
	c-41.5-211.9-13.9-371.8,55.4-411.9c73.8-42.7,237.1,18.2,409.1,171c11,9.8,22,20,33.1,30.6c-64.1,68.8-127.4,147.2-188,232.6
	c-103.8,9.6-203.1,25.1-294.4,45.8C691.7,700.9,686.6,678.2,682.1,655.4L682.1,655.4z M1633.9,890.5
	c-21.6-37.3-43.9-74.1-67.1-110.3c70.4,8.9,137.9,20.7,201.2,35.2c-19,60.9-42.7,124.7-70.6,190
	C1677,966.6,1655.9,928.3,1633.9,890.5L1633.9,890.5z M1245.8,512.4c43.5,47.1,87,99.7,129.8,156.8c-86.9-4.1-173.9-4.1-260.8-0.1
	C1157.7,612.6,1201.6,560,1245.8,512.4L1245.8,512.4z M855.2,891.1c-21.6,37.5-42.4,75.6-62.3,114.1
	c-27.4-65.1-50.9-129.1-70.1-190.9c63-14.1,130.1-25.6,200-34.3C899.4,816.5,876.8,853.5,855.2,891.1z M924.8,1454.4
	c-72.3-8.1-140.4-19-203.4-32.7c19.5-62.9,43.5-128.3,71.5-194.8c20,38.5,40.8,76.6,62.6,114.2
	C877.7,1379.4,900.8,1417.2,924.8,1454.4z M1248.4,1721.8c-44.7-48.2-89.2-101.5-132.8-158.9c42.2,1.7,85.3,2.5,129.1,2.5
	c45,0,89.4-1,133.2-3C1335,1620.9,1291.6,1674.3,1248.4,1721.8z M1698.3,1223.5c29.5,67.2,54.4,132.3,74.1,194.1
	c-64,14.6-133.1,26.4-205.8,35.1c23.3-37,45.9-74.4,67.7-112.3C1656.5,1301.9,1677.8,1262.9,1698.3,1223.5L1698.3,1223.5z
	 M1552.7,1293.3c-33.4,58.1-68.7,115-105.9,170.8c-65.5,4.7-133.1,7.1-202.1,7.1c-68.7,0-135.5-2.1-199.8-6.3
	c-38.1-55.6-74.1-112.7-107.8-171.1c-33.6-58-65-117.4-94.1-177.8c29-60.5,60.3-119.8,93.9-177.9v0c33.5-58.1,69.2-114.9,107-170.3
	c65.6-5,132.9-7.6,200.9-7.6c68.3,0,135.7,2.6,201.3,7.6c37.4,55.3,72.9,111.9,106.3,169.7c33.6,58,65.3,117,95.1,177
	C1618,1175.4,1586.4,1234.9,1552.7,1293.3L1552.7,1293.3z M1747.1,240.7c73.9,42.6,102.6,214.5,56.2,439.8
	c-3,14.7-6.4,29.3-9.9,43.9c-91.5-21.1-190.9-36.8-295-46.6c-60.6-86.3-123.5-164.8-186.5-232.8c16.5-15.9,33.4-31.4,50.7-46.5
	C1525.5,256.7,1677.7,200.7,1747.1,240.7L1747.1,240.7z"/>
<path fill="#53C1DE" d="M1244.7,916.8c108.8,0,197,88.2,197,197c0,108.8-88.2,197-197,197c-108.8,0-197-88.2-197-197
	C1047.7,1005,1135.9,916.8,1244.7,916.8"/>
</svg>
