<?xml version="1.0" encoding="utf-8"?>
<!-- Generator: Adobe Illustrator 21.1.0, SVG Export Plug-In . SVG Version: 6.00 Build 0)  -->
<svg version="1.1" id="Layer_1" xmlns="http://www.w3.org/2000/svg" xmlns:xlink="http://www.w3.org/1999/xlink" x="0px" y="0px"
	 viewBox="0 0 2488.8 2481.9" enable-background="new 0 0 2488.8 2481.9" xml:space="preserve">
<linearGradient id="SVGID_1_" gradientUnits="userSpaceOnUse" x1="1128.2782" y1="-3.7536" x2="1128.0133" y2="-4.2217" gradientTransform="matrix(1981.5812 0 0 1980.0968 -2233588.25 10140.1973)">
	<stop  offset="0" style="stop-color:#FB7655"/>
	<stop  offset="0" style="stop-color:#FB7655"/>
	<stop  offset="0.41" style="stop-color:#E42B1E"/>
	<stop  offset="0.99" style="stop-color:#990000"/>
	<stop  offset="1" style="stop-color:#990000"/>
</linearGradient>
<path fill="url(#SVGID_1_)" d="M1928.2,1638.2L507.2,2482l1839.9-124.9l141.7-1855.2L1928.2,1638.2L1928.2,1638.2z"/>
<linearGradient id="SVGID_2_" gradientUnits="userSpaceOnUse" x1="1127.251" y1="-4.9651" x2="1126.1019" y2="-5.3811" gradientTransform="matrix(588.89 0 0 1091.4792 -661378.6875 7348.2217)">
	<stop  offset="0" style="stop-color:#871101"/>
	<stop  offset="0" style="stop-color:#871101"/>
	<stop  offset="0.99" style="stop-color:#911209"/>
	<stop  offset="1" style="stop-color:#911209"/>
</linearGradient>
<path fill="url(#SVGID_2_)" d="M2350.1,2355.8L2192,1264.3l-430.8,568.8L2350.1,2355.8L2350.1,2355.8z"/>
<linearGradient id="SVGID_3_" gradientUnits="userSpaceOnUse" x1="1128.1443" y1="-9.8091" x2="1127.7764" y2="-11.9241" gradientTransform="matrix(1838.8894 0 0 214.6868 -2072625.875 4841.5156)">
	<stop  offset="0" style="stop-color:#871101"/>
	<stop  offset="0" style="stop-color:#871101"/>
	<stop  offset="0.99" style="stop-color:#911209"/>
	<stop  offset="1" style="stop-color:#911209"/>
</linearGradient>
<path fill="url(#SVGID_3_)" d="M2352.3,2355.8l-1158.5-90.9l-680.3,214.7L2352.3,2355.8L2352.3,2355.8z"/>
<linearGradient id="SVGID_4_" gradientUnits="userSpaceOnUse" x1="1126.729" y1="-5.7395" x2="1126.8937" y2="-5.0205" gradientTransform="matrix(636.8931 0 0 948.1528 -717119.875 7042.3721)">
	<stop  offset="0" style="stop-color:#FFFFFF"/>
	<stop  offset="0" style="stop-color:#FFFFFF"/>
	<stop  offset="0.23" style="stop-color:#E57252"/>
	<stop  offset="0.46" style="stop-color:#DE3B20"/>
	<stop  offset="0.99" style="stop-color:#A60003"/>
	<stop  offset="1" style="stop-color:#A60003"/>
</linearGradient>
<path fill="url(#SVGID_4_)" d="M515,2479.8l289.4-948.2l-636.9,136.2L515,2479.8L515,2479.8z"/>
<linearGradient id="SVGID_5_" gradientUnits="userSpaceOnUse" x1="1127.3649" y1="-5.4834" x2="1127.4025" y2="-4.8166" gradientTransform="matrix(1028.4187 0 0 1043.1245 -1158195.625 6683.5435)">
	<stop  offset="0" style="stop-color:#FFFFFF"/>
	<stop  offset="0" style="stop-color:#FFFFFF"/>
	<stop  offset="0.23" style="stop-color:#E4714E"/>
	<stop  offset="0.56" style="stop-color:#BE1A0D"/>
	<stop  offset="0.99" style="stop-color:#A80D00"/>
	<stop  offset="1" style="stop-color:#A80D00"/>
</linearGradient>
<path fill="url(#SVGID_5_)" d="M1761.1,1836.3L1494.8,793.1l-762.1,714.4L1761.1,1836.3L1761.1,1836.3z"/>
<linearGradient id="SVGID_6_" gradientUnits="userSpaceOnUse" x1="1127.145" y1="-6.493" x2="1127.2705" y2="-5.7242" gradientTransform="matrix(921.017 0 0 648.5522 -1036271.75 4531.6992)">
	<stop  offset="0" style="stop-color:#FFFFFF"/>
	<stop  offset="0" style="stop-color:#FFFFFF"/>
	<stop  offset="0.18" style="stop-color:#E46342"/>
	<stop  offset="0.4" style="stop-color:#C82410"/>
	<stop  offset="0.99" style="stop-color:#A80D00"/>
	<stop  offset="1" style="stop-color:#A80D00"/>
</linearGradient>
<path fill="url(#SVGID_6_)" d="M2428.4,807.8L1708,219.5L1507.4,868L2428.4,807.8L2428.4,807.8z"/>
<linearGradient id="SVGID_7_" gradientUnits="userSpaceOnUse" x1="1126.5037" y1="-10.6565" x2="1127.2252" y2="-11.7072" gradientTransform="matrix(691.0189 0 0 237.2921 -776940.8125 2673.7141)">
	<stop  offset="0" style="stop-color:#FFFFFF"/>
	<stop  offset="0" style="stop-color:#FFFFFF"/>
	<stop  offset="0.54" style="stop-color:#C81F11"/>
	<stop  offset="0.99" style="stop-color:#BF0905"/>
	<stop  offset="1" style="stop-color:#BF0905"/>
</linearGradient>
<path fill="url(#SVGID_7_)" d="M2091.5,9.7l-423.7,234.2L1400.5,6.5L2091.5,9.7L2091.5,9.7z"/>
<linearGradient id="SVGID_8_" gradientUnits="userSpaceOnUse" x1="1121.921" y1="-6.2105" x2="1122.1522" y2="-5.6313" gradientTransform="matrix(177.4931 0 0 709.3571 -199084.1875 5831.9355)">
	<stop  offset="0" style="stop-color:#FFFFFF"/>
	<stop  offset="0" style="stop-color:#FFFFFF"/>
	<stop  offset="0.31" style="stop-color:#DE4024"/>
	<stop  offset="0.99" style="stop-color:#BF190B"/>
	<stop  offset="1" style="stop-color:#BF190B"/>
</linearGradient>
<path fill="url(#SVGID_8_)" d="M0,1985.9l177.5-323.7L33.9,1276.5L0,1985.9z"/>
<path fill="#FFFFFF" d="M24.4,1264.3l144.5,409.8l627.7-140.8l716.6-666l202.2-642.4L1397,0L855.6,202.6
	C685,361.3,354,675.2,342.1,681.1C330.2,687.1,123.5,1077.9,24.4,1264.3L24.4,1264.3z"/>
<linearGradient id="SVGID_9_" gradientUnits="userSpaceOnUse" x1="1127.063" y1="-3.8911" x2="1128.3121" y2="-5.1774" gradientTransform="matrix(1544.4149 0 0 1542.2134 -1740886 7949.2593)">
	<stop  offset="0" style="stop-color:#BD0012"/>
	<stop  offset="0" style="stop-color:#BD0012"/>
	<stop  offset="7.000000e-02" style="stop-color:#FFFFFF"/>
	<stop  offset="0.17" style="stop-color:#FFFFFF"/>
	<stop  offset="0.27" style="stop-color:#C82F1C"/>
	<stop  offset="0.33" style="stop-color:#820C01"/>
	<stop  offset="0.46" style="stop-color:#A31601"/>
	<stop  offset="0.72" style="stop-color:#B31301"/>
	<stop  offset="0.99" style="stop-color:#E82609"/>
	<stop  offset="1" style="stop-color:#E82609"/>
</linearGradient>
<path fill="url(#SVGID_9_)" d="M531.6,528.2c369.7-366.5,846.3-583.1,1029.2-398.6c182.8,184.5-11.1,633-380.7,999.4
	c-369.8,366.5-840.4,595-1023.2,410.4C-26,1355,161.9,894.6,531.6,528.2L531.6,528.2z"/>
<linearGradient id="SVGID_10_" gradientUnits="userSpaceOnUse" x1="1127.6788" y1="-5.1541" x2="1127.2106" y2="-5.3049" gradientTransform="matrix(1240.8304 0 0 951.1702 -1398013.75 7050.8809)">
	<stop  offset="0" style="stop-color:#8C0C01"/>
	<stop  offset="0" style="stop-color:#8C0C01"/>
	<stop  offset="0.54" style="stop-color:#990C00"/>
	<stop  offset="0.99" style="stop-color:#A80D0E"/>
	<stop  offset="1" style="stop-color:#A80D0E"/>
</linearGradient>
<path fill="url(#SVGID_10_)" d="M515,2479.4l287.2-951.2l953.7,306.4C1411,2158,1027.5,2431.3,515,2479.4L515,2479.4z"/>
<linearGradient id="SVGID_11_" gradientUnits="userSpaceOnUse" x1="1127.5645" y1="-5.0386" x2="1127.0022" y2="-5.4873" gradientTransform="matrix(917.9897 0 0 1031.1821 -1032850 6646.7905)">
	<stop  offset="0" style="stop-color:#7E110B"/>
	<stop  offset="0" style="stop-color:#7E110B"/>
	<stop  offset="0.99" style="stop-color:#9E0C00"/>
	<stop  offset="1" style="stop-color:#9E0C00"/>
</linearGradient>
<path fill="url(#SVGID_11_)" d="M1514.4,865.4l244.8,969.8c288-302.9,546.6-628.5,673.2-1031.2L1514.4,865.4L1514.4,865.4z"/>
<linearGradient id="SVGID_12_" gradientUnits="userSpaceOnUse" x1="1127.4796" y1="-5.4099" x2="1127.1492" y2="-5.7542" gradientTransform="matrix(778.269 0 0 798.665 -875050.0625 4922.9106)">
	<stop  offset="0" style="stop-color:#79130D"/>
	<stop  offset="0" style="stop-color:#79130D"/>
	<stop  offset="0.99" style="stop-color:#9E120B"/>
	<stop  offset="1" style="stop-color:#9E120B"/>
</linearGradient>
<path fill="url(#SVGID_12_)" d="M2429.9,808.8c98-295.7,120.6-719.9-341.4-798.7l-379.1,209.4L2429.9,808.8z"/>
<path fill="#9E1209" d="M0,1981.6c13.6,488,365.7,495.3,515.7,499.6l-346.5-809.1L0,1981.6z"/>
<radialGradient id="SVGID_13_" cx="1127.0793" cy="-7.214" r="0.6957" gradientTransform="matrix(909.2308 0 0 475.1044 -1022968.5 4424.6616)" gradientUnits="userSpaceOnUse">
	<stop  offset="0" style="stop-color:#A80D00"/>
	<stop  offset="0" style="stop-color:#A80D00"/>
	<stop  offset="0.99" style="stop-color:#7E0E08"/>
	<stop  offset="1" style="stop-color:#7E0E08"/>
</radialGradient>
<path fill="url(#SVGID_13_)" d="M1515.8,866.9c221.3,136,667.4,409.3,676.5,414.3c14.1,7.9,192.3-300.6,232.8-475L1515.8,866.9z"/>
<radialGradient id="SVGID_14_" cx="1126.95" cy="-5.911" r="0.8839" gradientTransform="matrix(951.4143 0 0 740.6335 -1071265.5 6208.7139)" gradientUnits="userSpaceOnUse">
	<stop  offset="0" style="stop-color:#A30C00"/>
	<stop  offset="0" style="stop-color:#A30C00"/>
	<stop  offset="0.99" style="stop-color:#800E08"/>
	<stop  offset="1" style="stop-color:#800E08"/>
</radialGradient>
<path fill="url(#SVGID_14_)" d="M801.8,1528.2l383.9,740.6c227-123.1,404.7-273.1,567.5-433.7L801.8,1528.2L801.8,1528.2z"/>
<linearGradient id="SVGID_15_" gradientUnits="userSpaceOnUse" x1="1125.6876" y1="-5.1511" x2="1125.153" y2="-6.0483" gradientTransform="matrix(391.9162 0 0 792.3398 -440840.1875 6560.353)">
	<stop  offset="0" style="stop-color:#8B2114"/>
	<stop  offset="0" style="stop-color:#8B2114"/>
	<stop  offset="0.43" style="stop-color:#9E100A"/>
	<stop  offset="0.99" style="stop-color:#B3100C"/>
	<stop  offset="1" style="stop-color:#B3100C"/>
</linearGradient>
<path fill="url(#SVGID_15_)" d="M167.7,1673.1l-54.4,647.7c102.6,140.2,243.8,152.4,391.9,141.5
	C398.1,2195.5,184,1662.3,167.7,1673.1z"/>
<linearGradient id="SVGID_16_" gradientUnits="userSpaceOnUse" x1="1126.8296" y1="-9.0371" x2="1127.4457" y2="-8.3863" gradientTransform="matrix(762.6236 0 0 318.554 -857404.25 3001.9297)">
	<stop  offset="0" style="stop-color:#B31000"/>
	<stop  offset="0" style="stop-color:#B31000"/>
	<stop  offset="0.44" style="stop-color:#910F08"/>
	<stop  offset="0.99" style="stop-color:#791C12"/>
	<stop  offset="1" style="stop-color:#791C12"/>
</linearGradient>
<path fill="url(#SVGID_16_)" d="M1707.1,221.2l762.6,107C2429,155.8,2304.1,44.5,2091,9.7L1707.1,221.2L1707.1,221.2z"/>
</svg>
