<?xml version="1.0" encoding="utf-8"?>
<!-- Generator: Adobe Illustrator 21.1.0, SVG Export Plug-In . SVG Version: 6.00 Build 0)  -->
<svg version="1.1" id="Layer_1" xmlns="http://www.w3.org/2000/svg" xmlns:xlink="http://www.w3.org/1999/xlink" x="0px" y="0px"
	 viewBox="0 0 508.5 58.6" enable-background="new 0 0 508.5 58.6" xml:space="preserve">
<g>
	<path d="M31.1,13.4c-1.1-1.5-2.5-2.6-4.2-3.3C25.1,9.3,23.3,9,21.4,9c-1.2,0-2.3,0.1-3.3,0.4c-1.1,0.3-2,0.7-2.9,1.3
		c-0.9,0.6-1.6,1.3-2.1,2.2c-0.5,0.9-0.8,2-0.8,3.3c0,1.9,0.7,3.3,2,4.3c1.3,1,2.9,1.9,4.9,2.6c1.9,0.7,4.1,1.4,6.4,2.1
		c2.3,0.7,4.4,1.6,6.4,2.8c1.9,1.2,3.6,2.8,4.9,4.8c1.3,2,2,4.6,2,8c0,3-0.6,5.6-1.7,7.8c-1.1,2.2-2.6,4.1-4.5,5.6
		c-1.9,1.5-4,2.6-6.5,3.3c-2.5,0.7-5.1,1.1-7.8,1.1c-3.5,0-6.8-0.6-10-1.7c-3.2-1.2-6-3.1-8.3-5.8l7.5-7.2c1.2,1.8,2.8,3.3,4.8,4.3
		c2,1,4.1,1.5,6.3,1.5c1.2,0,2.3-0.2,3.5-0.5c1.2-0.3,2.2-0.8,3.2-1.4s1.7-1.4,2.3-2.4c0.6-1,0.9-2.1,0.9-3.3c0-2-0.7-3.6-2-4.7
		c-1.3-1.1-2.9-2-4.9-2.8c-1.9-0.8-4.1-1.5-6.4-2.2c-2.3-0.7-4.4-1.6-6.4-2.8c-1.9-1.2-3.6-2.8-4.9-4.7c-1.3-2-2-4.6-2-7.9
		c0-2.9,0.6-5.4,1.8-7.5c1.2-2.1,2.7-3.8,4.6-5.2c1.9-1.4,4.1-2.4,6.6-3.1c2.5-0.7,5-1,7.6-1c2.9,0,5.8,0.4,8.5,1.3
		c2.8,0.9,5.2,2.4,7.4,4.4L31.1,13.4z"/>
	<path d="M70,1.4H80v55.8H70V1.4z"/>
	<path d="M113.4,1.4h13.2l27,41.4h0.2V1.4h9.9v55.8h-12.6l-27.6-42.8h-0.2v42.8h-9.9V1.4z"/>
	<path d="M194.4,29.5c0-4.5,0.7-8.5,2.2-12.2c1.5-3.6,3.5-6.8,6.1-9.3c2.6-2.6,5.7-4.6,9.3-5.9c3.6-1.4,7.5-2.1,11.9-2.1
		c4.4-0.1,8.4,0.6,12,1.9c3.6,1.3,6.7,3.3,9.4,5.9c2.6,2.6,4.7,5.7,6.1,9.3c1.5,3.6,2.2,7.7,2.2,12.1c0,4.4-0.7,8.3-2.2,11.9
		c-1.5,3.6-3.5,6.6-6.1,9.2c-2.6,2.6-5.8,4.6-9.4,6s-7.6,2.2-12,2.2c-4.3,0-8.3-0.7-11.9-2.1c-3.6-1.4-6.7-3.4-9.3-5.9
		c-2.6-2.5-4.6-5.6-6.1-9.2C195.2,37.9,194.4,33.9,194.4,29.5z M204.8,28.9c0,3,0.5,5.8,1.4,8.3c0.9,2.5,2.2,4.7,3.9,6.5
		c1.7,1.8,3.7,3.3,6,4.3c2.3,1.1,4.9,1.6,7.8,1.6c2.9,0,5.5-0.5,7.9-1.6c2.4-1.1,4.4-2.5,6.1-4.3c1.7-1.8,3-4,3.9-6.5
		c0.9-2.5,1.4-5.3,1.4-8.3c0-2.8-0.5-5.4-1.4-7.8c-0.9-2.4-2.2-4.5-3.9-6.3c-1.7-1.8-3.7-3.2-6.1-4.3c-2.4-1-5-1.5-7.9-1.5
		c-2.9,0-5.5,0.5-7.8,1.5c-2.3,1-4.3,2.4-6,4.3c-1.7,1.8-3,3.9-3.9,6.3C205.3,23.5,204.8,26.1,204.8,28.9z"/>
	<path d="M284.3,1.4h13.2l27,41.4h0.2V1.4h9.9v55.8H322l-27.6-42.8h-0.2v42.8h-9.9V1.4z"/>
	<path d="M367.4,51.7c0-1.7,0.6-3.1,1.9-4.3c1.2-1.2,2.7-1.8,4.5-1.8c1.7,0,3.2,0.6,4.4,1.7c1.3,1.2,1.9,2.6,1.9,4.3
		c0,1.7-0.6,3.1-1.9,4.3c-1.2,1.2-2.7,1.8-4.5,1.8c-0.8,0-1.6-0.2-2.4-0.5c-0.8-0.3-1.4-0.7-2-1.3c-0.6-0.5-1-1.2-1.4-1.9
		C367.6,53.3,367.4,52.5,367.4,51.7z"/>
	<path d="M440.2,41.8c0,2.2-0.4,4.3-1.1,6.4s-1.8,3.8-3.2,5.4c-1.4,1.5-3.1,2.8-5.2,3.7c-2.1,0.9-4.5,1.4-7.3,1.4
		c-4.4,0-8-1-10.8-3.1c-2.8-2-4.7-5.3-5.6-9.8l9.3-2.2c0.3,1.8,1.1,3.3,2.2,4.4s2.6,1.7,4.4,1.7c2.8,0,4.8-1,5.8-2.9
		c1-1.9,1.5-4.6,1.5-7.9V1.4h9.9V41.8z"/>
	<path d="M500.9,13.4c-1.1-1.5-2.5-2.6-4.2-3.3c-1.8-0.7-3.6-1.1-5.6-1.1c-1.2,0-2.3,0.1-3.3,0.4c-1.1,0.3-2,0.7-2.9,1.3
		c-0.9,0.6-1.6,1.3-2.1,2.2c-0.5,0.9-0.8,2-0.8,3.3c0,1.9,0.7,3.3,2,4.3c1.3,1,2.9,1.9,4.9,2.6c1.9,0.7,4.1,1.4,6.4,2.1
		c2.3,0.7,4.4,1.6,6.4,2.8c1.9,1.2,3.6,2.8,4.9,4.8c1.3,2,2,4.6,2,8c0,3-0.6,5.6-1.7,7.8c-1.1,2.2-2.6,4.1-4.5,5.6
		c-1.9,1.5-4,2.6-6.5,3.3c-2.5,0.7-5.1,1.1-7.8,1.1c-3.5,0-6.8-0.6-10-1.7c-3.2-1.2-6-3.1-8.3-5.8l7.5-7.2c1.2,1.8,2.8,3.3,4.8,4.3
		c2,1,4.1,1.5,6.3,1.5c1.2,0,2.3-0.2,3.5-0.5c1.2-0.3,2.2-0.8,3.2-1.4s1.7-1.4,2.3-2.4c0.6-1,0.9-2.1,0.9-3.3c0-2-0.7-3.6-2-4.7
		c-1.3-1.1-2.9-2-4.9-2.8c-1.9-0.8-4.1-1.5-6.4-2.2c-2.3-0.7-4.4-1.6-6.4-2.8c-1.9-1.2-3.6-2.8-4.9-4.7c-1.3-2-2-4.6-2-7.9
		c0-2.9,0.6-5.4,1.8-7.5c1.2-2.1,2.7-3.8,4.6-5.2c1.9-1.4,4.1-2.4,6.6-3.1c2.5-0.7,5-1,7.6-1c2.9,0,5.8,0.4,8.5,1.3
		c2.8,0.9,5.2,2.4,7.4,4.4L500.9,13.4z"/>
</g>
</svg>
