<?xml version="1.0" encoding="utf-8"?>
<!-- Generator: Adobe Illustrator 21.1.0, SVG Export Plug-In . SVG Version: 6.00 Build 0)  -->
<svg version="1.1" id="Layer_1" xmlns="http://www.w3.org/2000/svg" xmlns:xlink="http://www.w3.org/1999/xlink" x="0px" y="0px"
	 viewBox="0 0 412 393.2" enable-background="new 0 0 412 393.2" xml:space="preserve">
<path d="M208.8,392.1c45.1-161.1,43.8-161.8,76.3-276.7l7.8,4.5c4.3,2.5,7.7,0.4,7.7-4.5V60.7C309.3,30.4,316.1,7,318.1,0h35.3
	L412,54.3l-38.5,33.3l29.1,31.5l-191.8,273C209.8,393.7,208.5,393.3,208.8,392.1z M229.8,44.9c1.7,0,3.1,1,3.1,2.1v28.1
	c0,1.2-1.4,2.1-3.1,2.1h-47.4c-1.7,0-3.2-1-3.2-2.1V47c0-1.2,1.4-2.1,3.2-2.1H229.8L229.8,44.9z"/>
<path d="M288.3,13.8l-52.1,30.1c0.6,0.9,1,2,1,3.1v28.1c0,1.5-0.6,2.8-1.5,3.8l52.7,30.4c3.6,2.1,6.5,0.4,6.5-3.8v-88
	C294.8,13.4,291.9,11.7,288.3,13.8z M175,75.1V47c0-1.2,0.4-2.2,1-3.1l-52.1-30.1c-3.6-2.1-6.5-0.4-6.5,3.8v88
	c0,4.1,2.9,5.8,6.5,3.8L176.6,79C175.6,77.9,175,76.5,175,75.1L175,75.1z"/>
<path d="M201.2,392.1h1.9C158,231,159.3,230.3,126.8,115.4l-7.8,4.5c-4.3,2.5-7.7,0.4-7.7-4.5V60.7C102.7,30.4,95.9,7,93.9,0H58.6
	L0,54.3l38.5,33.3L9.4,119L201.2,392.1z"/>
<circle cx="204.6" cy="121.6" r="14.2"/>
<circle cx="204.6" cy="206.2" r="14.2"/>
<circle cx="204.6" cy="290.9" r="14.2"/>
</svg>
