<?xml version="1.0" encoding="utf-8"?>
<!-- Generator: Adobe Illustrator 21.1.0, SVG Export Plug-In . SVG Version: 6.00 Build 0)  -->
<svg version="1.1" id="Layer_1" xmlns="http://www.w3.org/2000/svg" xmlns:xlink="http://www.w3.org/1999/xlink" x="0px" y="0px"
	 viewBox="0 0 2209.6 2500" enable-background="new 0 0 2209.6 2500" xml:space="preserve">
<path fill="#FFFFFF" d="M1104.8,0l1104.8,625v1250l-1104.8,625L0,1875V625L1104.8,0z"/>
<path fill="#8ED6FB" d="M2012.3,1831.9l-871,492.7v-383.8l542.7-298.5L2012.3,1831.9z M2071.9,1777.9V747.5l-318.7,184v662.3
	L2071.9,1777.9L2071.9,1777.9z M193.7,1831.9l871,492.7v-383.8l-542.7-298.5L193.7,1831.9L193.7,1831.9z M134.2,1777.9V747.5
	l318.8,184v662.3L134.2,1777.9L134.2,1777.9z M171.5,680.8l893.3-505.4v371L492.5,861.2l-4.4,2.5L171.5,680.8z M2034.6,680.8
	l-893.3-505.4v371l572.3,314.8l4.4,2.5L2034.6,680.8z"/>
<path fill="#1C78C0" d="M1064.8,1853.5l-535.4-294.4V975.8l535.4,309.2V1853.5 M1141.2,1853.5l535.4-294.4V975.8L1141.2,1285V1853.5
	 M565.6,908.3l537.5-295.6l537.5,295.6l-537.5,310.4L565.6,908.3"/>
</svg>
