<?xml version="1.0" encoding="utf-8"?>
<!-- Generator: Adobe Illustrator 21.1.0, SVG Export Plug-In . SVG Version: 6.00 Build 0)  -->
<svg version="1.1" id="Layer_1" xmlns="http://www.w3.org/2000/svg" xmlns:xlink="http://www.w3.org/1999/xlink" x="0px" y="0px"
	 viewBox="0 0 2500.1 2500" enable-background="new 0 0 2500.1 2500" xml:space="preserve">
<path fill="#00749A" d="M177.7,1250c0,424.5,246.7,791.3,604.4,965.1L270.5,813.6C209.2,950.9,177.6,1099.6,177.7,1250L177.7,1250z
	 M1973.9,1195.9c0-132.5-47.6-224.3-88.4-295.7c-54.4-88.3-105.3-163.1-105.3-251.5c0-98.6,74.7-190.3,180-190.3
	c4.8,0,9.3,0.6,13.9,0.9c-190.8-174.8-445-281.5-724.1-281.5c-374.6,0-704.2,192.2-896,483.3c25.2,0.8,48.9,1.3,69,1.3
	c112.2,0,285.8-13.6,285.8-13.6c57.8-3.4,64.6,81.5,6.9,88.3c0,0-58.1,6.8-122.8,10.2l390.5,1161.5l234.7-703.8L1051,747.3
	c-57.7-3.4-112.4-10.2-112.4-10.2c-57.8-3.4-51-91.7,6.8-88.3c0,0,177.1,13.6,282.5,13.6c112.1,0,285.8-13.6,285.8-13.6
	c57.8-3.4,64.6,81.5,6.9,88.3c0,0-58.2,6.8-122.7,10.2L1785.4,1900l106.9-357.4C1938.6,1394.2,1973.9,1287.7,1973.9,1195.9
	L1973.9,1195.9z"/>
<path fill="#00749A" d="M1268.8,1343.8l-321.7,934.9c98.4,29,200.4,43.7,302.9,43.7c124.9,0,244.6-21.6,356.1-60.8
	c-3-4.7-5.5-9.6-7.6-14.8L1268.8,1343.8z M2190.9,735.5c4.6,34.2,7.2,70.8,7.2,110.3c0,108.8-20.3,231.1-81.5,384.1l-327.6,947
	c318.8-185.9,533.2-531.3,533.2-926.9C2322.6,1070.1,2277.4,893.2,2190.9,735.5L2190.9,735.5z"/>
<path fill="#00749A" d="M1250,0C560.8,0,0,560.7,0,1250s560.8,1250,1250,1250s1250.1-560.7,1250.1-1250.1
	C2500.1,560.7,1939.2,0,1250,0z M1250,2442.7C592.4,2442.7,57.3,1907.6,57.3,1250S592.4,57.3,1250,57.3s1192.6,535,1192.6,1192.6
	C2442.6,1907.6,1907.6,2442.7,1250,2442.7L1250,2442.7z"/>
</svg>
