<?xml version="1.0" encoding="utf-8"?>
<!-- Generator: Adobe Illustrator 21.1.0, SVG Export Plug-In . SVG Version: 6.00 Build 0)  -->
<svg version="1.1" id="Layer_1" xmlns="http://www.w3.org/2000/svg" xmlns:xlink="http://www.w3.org/1999/xlink" x="0px" y="0px"
	 viewBox="0 0 1154.8 518" enable-background="new 0 0 1154.8 518" xml:space="preserve">
<path fill="#2C8EBB" d="M718.6,257.8c-8,27.6-20.8,47.6-35.2,63.6V181c0-9.6-8.4-17.6-21.6-17.6c-5.6,0-10.4,2.8-10.4,6.8
	c0,2.8,1.6,5.2,1.6,12.8v64.4c-4.8,28-16.8,54-32.8,54c-11.6,0-18.4-11.6-18.4-33.2c0-33.6,4.4-51.2,11.6-80.8c1.6-6,13.2-22-6.4-22
	c-21.2,0-18.4,8-21.2,14.8c0,0-13.4,47.6-13.4,90c0,34.8,14.6,57.6,41.4,57.6c17.2,0,29.6-11.6,39.2-27.6V351
	c-26.4,23.2-49.6,43.6-49.6,84c0,25.6,16,46,38.4,46c20.4,0,41.6-14.8,41.6-56.8V355c21.6-18.8,44.8-42.4,58.4-88.8
	c0.4-1.6,0.4-3.6,0.4-4c0-7.6-7.6-16.4-14-16.4C724.2,245.8,721,249.4,718.6,257.8L718.6,257.8z M641.8,455.8
	c-6.4,0-10.4-9.6-10.4-22c0-24,8.8-39.2,21.6-52.4v42.8C653,431.8,654.6,455.8,641.8,455.8L641.8,455.8z"/>
<path fill="#2C8EBB" d="M833.4,301c-9.6,0-13.6-9.6-13.6-18.4v-66c0-9.6-8.4-17.6-21.6-17.6c-5.6,0-10.4,2.8-10.4,6.8
	c0,2.8,1.6,5.2,1.6,12.8v61.6C785,291.4,777.8,301,767,301c-14,0-22.8-12-22.8-32.8c0-57.6,35.6-83.6,66-83.6c4,0,8,0.8,11.6,0.8
	c4,0,5.2-2.4,5.2-9.2c0-10.4-7.6-16.8-18.4-16.8c-48.8,0-95.2,40.8-95.2,107.6c0,34,16.4,60.4,47.6,60.4c15.2,0,26.4-7.2,34.4-16.4
	c6,9.6,16.8,16.4,30.8,16.4c34.4,0,50.4-36,57.2-62.4c0.4-1.6,0.4-2.4,0.4-2.8c0-7.6-7.6-16.4-14-16.4c-4,0-8,3.6-9.6,12
	C856.6,275.4,849.4,301,833.4,301L833.4,301z"/>
<path fill="#2C8EBB" d="M949,327.4c34.4,0,50-36,57.2-62.4c0-0.8,0.4-1.6,0.4-2.8c0-7.6-7.6-16.4-14-16.4c-4,0-8,3.6-9.6,12
	c-3.6,17.6-10.4,43.2-28.8,43.2c-10.8,0-16-10.4-16-21.6c0-40,18-87.2,18-92c1.6-9.2-14.4-22.4-19.2-22.4h-20.8c-4,0-8,0-21.2-1.6
	c-4.4-16.4-15.6-21.2-25.2-21.2c-10.4,0-20,7.2-20,18.4c0,11.6,7.2,20,17.2,25.6c-0.4,20.4-2,53.6-6.4,69.6
	c-3.6,13.6,17.2,28,22.4,11.2c7.2-23.2,9.6-58,10-73.6h34.8c-12.8,34.4-20,62.8-20,88.4C907.8,317,930.2,327.4,949,327.4L949,327.4z
	"/>
<path fill="#2C8EBB" d="M984.6,309.8c0,14.8,11.2,17.6,19.2,17.6c11.6,0,11.2-9.6,11.2-17.2v-58.4c2.8-31.6,27.6-66,39.2-66
	c7.6,0,8.4,10.4,8.4,22.8v81.2c0,20.4,12.4,37.6,33.6,37.6c34.4,0,51.4-36,58.2-62.4c0.4-1.6,0.4-2.4,0.4-2.8
	c0-7.6-7.6-16.4-14-16.4c-4,0-8,3.6-9.6,12c-3.6,17.6-11.8,43.2-27.8,43.2c-10.4,0-10.4-14.8-10.4-18.4v-82.8
	c0-18.4-6.4-40.4-33.2-40.4c-19.6,0-34,17.2-44.8,39.6v-18c0-9.6-8.4-17.6-21.6-17.6c-5.6,0-10.4,2.8-10.4,6.8
	c0,2.8,1.6,5.2,1.6,12.8L984.6,309.8L984.6,309.8z M259,0c143,0,259,116,259,259S402,518,259,518S0,402,0,259S116,0,259,0z"/>
<path fill="#FFFFFF" d="M435.2,337.5c-1.8-14.2-13.8-24-29.2-23.8c-23,0.3-42.3,12.2-55.1,20.1c-5,3.1-9.3,5.4-13,7.1
	c0.8-11.6,0.1-26.8-5.9-43.5c-7.3-20-17.1-32.3-24.1-39.4c8.1-11.8,19.2-29,24.4-55.6c4.5-22.7,3.1-58-7.2-77.8
	c-2.1-4-5.6-6.9-10-8.1c-1.8-0.5-5.2-1.5-11.9,0.4C293.1,96,289.6,93.8,286.9,92c-5.6-3.6-12.2-4.4-18.4-2.1
	c-8.3,3-15.4,11-22.1,25.2c-1,2.1-1.9,4.1-2.7,6.1c-12.7,0.9-32.7,5.5-49.6,23.8c-2.1,2.3-6.2,4-10.5,5.6h0.1
	c-8.8,3.1-12.8,10.3-17.7,23.3c-6.8,18.2,0.2,36.1,7.1,47.7c-9.4,8.4-21.9,21.8-28.5,37.5c-8.2,19.4-9.1,38.4-8.8,48.7
	c-7,7.4-17.8,21.3-19,36.9c-1.6,21.8,6.3,36.6,9.8,42c1,1.6,2.1,2.9,3.3,4.2c-0.4,2.7-0.5,5.6,0.1,8.6c1.3,7,5.7,12.7,12.4,16.3
	c13.2,7,31.6,10,45.8,2.9c5.1,5.4,14.4,10.6,31.3,10.6h1c4.3,0,58.9-2.9,74.8-6.8c7.1-1.7,12-4.7,15.2-7.4c10.2-3.2,38.4-12.8,65-30
	c18.8-12.2,25.3-14.8,39.3-18.2C428.4,363.6,436.9,351.2,435.2,337.5L435.2,337.5z M411.4,352.2c-16,3.8-24.1,7.3-43.9,20.2
	c-30.9,20-64.7,29.3-64.7,29.3s-2.8,4.2-10.9,6.1c-14,3.4-66.7,6.3-71.5,6.4c-12.9,0.1-20.8-3.3-23-8.6c-6.7-16,9.6-23,9.6-23
	s-3.6-2.2-5.7-4.2c-1.9-1.9-3.9-5.7-4.5-4.3c-2.5,6.1-3.8,21-10.5,27.7c-9.2,9.3-26.6,6.2-36.9,0.8c-11.3-6,0.8-20.1,0.8-20.1
	s-6.1,3.6-11-3.8c-4.4-6.8-8.5-18.4-7.4-32.7c1.2-16.3,19.4-32.1,19.4-32.1s-3.2-24.1,7.3-48.8c9.5-22.5,35.1-40.6,35.1-40.6
	s-21.5-23.8-13.5-45.2c5.2-14,7.3-13.9,9-14.5c6-2.3,11.8-4.8,16.1-9.5c21.5-23.2,48.9-18.8,48.9-18.8s13-39.5,25-31.8
	c3.7,2.4,17,32,17,32s14.2-8.3,15.8-5.2c8.6,16.7,9.6,48.6,5.8,68c-6.4,32-22.4,49.2-28.8,60c-1.5,2.5,17.2,10.4,29,43.1
	c10.9,29.9,1.2,55,2.9,57.8c0.3,0.5,0.4,0.7,0.4,0.7s12.5,1,37.6-14.5c13.4-8.3,29.3-17.6,47.4-17.8
	C423.7,328.5,424.6,349,411.4,352.2L411.4,352.2z"/>
</svg>
