<svg version="1" xmlns="http://www.w3.org/2000/svg" width="666.667" height="666.667" viewBox="0 0 500.000000 500.000000"><path d="M89.5 135.4c-8 1.6-16.1 4.3-22.5 7.6-12.2 6.2-29 20.5-29 24.7.1 2.3.8 3.2 11.2 13 10.8 10.2 11.8 10.4 19.6 2.9 13.3-12.7 30-15.9 44.8-8.6 10.9 5.4 16.8 14.9 16.7 27.1-.1 10.8-6.4 19.8-17.7 25-7.8 3.6-16 4.9-31.8 4.9-10.2 0-13 .3-14.2 1.6-1.3 1.2-1.6 4.1-1.6 15 0 18.1-.7 17.4 18.4 17.4 15.5 0 21.2.8 29.6 3.9 17.9 6.8 26.7 24.5 19.6 39.6-2.8 6.1-10.9 13.8-17.3 16.7-5.9 2.5-17.1 3.4-24.4 1.9-7.4-1.6-20.8-8.2-27.4-13.6-8-6.5-9.1-6.3-20.7 4.8-11.9 11.2-12.3 13-5.6 20.3 8.8 9.6 22.3 17.5 37.4 22 12.8 3.8 34.6 4.5 48.8 1.5 27.3-5.6 46.9-22.8 53.2-46.6 2.1-7.7 1.8-23.1-.6-30.7-2.4-7.8-8.3-17.2-14.8-23.5-4.9-4.9-18.8-14.3-20.9-14.3-2.7 0-1.1-1.9 4.6-5.3 11.2-6.9 21.1-19.8 25.1-32.6 2.5-7.8 2.7-22.1.5-30.6-4-15-15.8-29.1-30.6-36.4-15.4-7.6-35.5-10.6-50.4-7.7zm290 .1c-16.2 2.9-33 12-46.2 25-10 9.8-10 10.2 2.5 22.7 11.3 11.3 12.9 11.8 18.3 6.2 5.1-5.4 16.4-13.1 22.7-15.4 6.5-2.5 17.2-2.9 24.2-1 14 3.8 23.1 14.7 23.1 27.9.1 12.7-3.7 20.3-22.3 44.9-20.7 27.3-52.2 68-66.9 86.5-12.5 15.6-12.9 16.2-12.9 20.9 0 3.5.6 5.4 2 6.8 2 2 3.3 2 69.4 2h67.5l2-2.6c1.9-2.4 2.1-4 2.1-15.5 0-11.6-.2-13.1-2-14.9-1.9-1.9-3.3-2-38.5-2-20.1 0-36.5-.2-36.5-.5s7.6-10.2 16.9-21.9c28.2-35.6 44.1-57.3 52.4-71.7 7.5-13 10.4-32.1 7.3-46.9-5.8-27.8-28.4-47-59.7-51-10.5-1.3-16.5-1.2-25.4.5zm-151.6 22.1c-12.9 10.8-23.8 20.4-24.3 21.2-.8 1.4-.3 11 1.1 19.5.9 6.2 2.7 6.4 19.8 2.8 8-1.7 15-3.1 15.6-3.1.5 0 .9 30.8.9 80.3 0 76.6.1 80.5 1.8 82 1.6 1.4 4.4 1.7 18.5 1.7 16 0 16.6-.1 18.1-2.2 1.4-2 1.6-14.1 1.6-110.4 0-103.4-.1-108.2-1.8-109.7-1.5-1.4-4.2-1.7-14.9-1.7h-13l-23.4 19.6z"/></svg>