<?xml version="1.0" standalone="no"?>
<!DOCTYPE svg PUBLIC "-//W3C//DTD SVG 20010904//EN"
 "http://www.w3.org/TR/2001/REC-SVG-20010904/DTD/svg10.dtd">
<svg version="1.0" xmlns="http://www.w3.org/2000/svg"
 width="700.000000pt" height="700.000000pt" viewBox="0 0 700.000000 700.000000"
 preserveAspectRatio="xMidYMid meet">
<metadata>
Created by potrace 1.11, written by Peter Selinger 2001-2013
</metadata>
<g transform="translate(0.000000,700.000000) scale(0.100000,-0.100000)"
fill="#000000" stroke="none">
<path d="M1843 6615 c-18 -7 -49 -29 -69 -47 -20 -18 -42 -37 -48 -43 -68 -61
-136 -115 -146 -115 -6 0 -25 -10 -42 -21 -41 -29 -54 -69 -59 -173 -2 -33 -8
-50 -18 -54 -33 -11 -72 -45 -87 -74 -10 -20 -17 -67 -19 -146 -11 -328 -16
-436 -18 -439 -2 -1 -165 -5 -363 -8 -197 -3 -375 -10 -396 -16 -41 -11 -97
-68 -99 -102 -1 -12 -2 -35 -4 -52 -1 -16 -6 -91 -10 -165 -3 -74 -8 -151 -10
-170 -2 -19 -6 -93 -10 -165 -3 -71 -8 -157 -10 -190 -2 -33 -7 -116 -11 -185
-3 -69 -8 -152 -10 -185 -2 -33 -6 -105 -9 -160 -3 -55 -7 -136 -10 -180 -9
-140 -15 -248 -20 -335 -6 -109 -15 -277 -20 -360 -2 -36 -6 -112 -9 -170 -4
-58 -8 -139 -11 -180 -3 -41 -7 -120 -10 -175 -3 -55 -7 -136 -10 -180 -3 -44
-7 -123 -10 -175 -3 -52 -8 -131 -10 -175 -3 -44 -7 -125 -10 -180 -9 -166
-15 -256 -20 -345 -3 -47 -8 -123 -10 -170 -2 -47 -7 -129 -10 -183 -15 -247
-15 -279 5 -318 13 -25 34 -44 63 -58 61 -30 119 -17 164 35 18 20 31 39 30
43 -1 3 9 24 22 46 l24 40 17 -50 c56 -162 165 -328 295 -448 84 -78 225 -153
332 -178 26 -6 57 -13 68 -15 52 -12 259 -5 315 11 8 2 31 7 50 10 19 3 49 10
66 16 17 5 40 11 50 13 91 19 365 139 643 283 479 248 598 303 773 357 145 45
244 63 338 61 243 -6 414 -68 1005 -365 226 -113 448 -222 495 -242 159 -68
319 -116 472 -143 49 -9 197 -9 258 0 338 47 624 339 725 738 l22 90 18 -52
c29 -89 94 -132 178 -116 66 13 105 70 102 150 -2 44 -12 218 -20 345 -2 25
-6 95 -9 155 -4 61 -9 144 -11 185 -3 41 -7 113 -10 160 -13 219 -16 260 -20
330 -3 41 -7 116 -10 165 -3 50 -7 126 -10 170 -3 44 -7 121 -10 170 -3 50 -8
124 -10 165 -10 148 -15 237 -20 330 -3 52 -8 124 -10 160 -2 36 -7 112 -10
170 -3 58 -8 130 -10 160 -7 88 -17 272 -17 312 0 23 10 51 26 75 36 53 36
120 -1 164 -46 54 -71 59 -288 59 l-195 0 -1 48 c0 26 -2 67 -4 92 -2 25 -6
97 -10 160 -14 241 -16 220 21 281 51 81 50 131 -2 188 -27 31 -46 42 -77 46
l-43 7 3 74 c2 50 10 90 24 120 38 81 2 177 -76 201 -17 5 -189 9 -385 9 -339
-1 -356 -2 -382 -21 -19 -14 -49 -71 -102 -190 -41 -93 -77 -183 -80 -199 -7
-41 3 -79 29 -109 29 -35 25 -83 -13 -162 -16 -33 -78 -164 -137 -290 -59
-127 -138 -288 -175 -360 -222 -426 -223 -429 -201 -488 6 -14 21 -36 34 -49
25 -23 25 -26 32 -242 5 -187 4 -218 -8 -213 -84 32 -410 107 -532 122 -27 4
-57 8 -65 10 -8 2 -37 7 -65 10 -27 3 -63 8 -80 10 -168 23 -541 23 -676 0
-13 -2 -51 -7 -84 -10 -33 -3 -69 -8 -80 -10 -11 -3 -38 -7 -60 -10 -22 -3
-47 -7 -55 -10 -8 -2 -32 -6 -52 -9 -20 -3 -78 -15 -127 -26 -50 -11 -94 -20
-99 -20 -4 0 -7 267 -7 593 l1 592 -70 210 -70 210 -2 315 -1 315 -48 110
c-43 100 -47 118 -50 200 -1 50 -6 99 -11 110 -10 24 -164 268 -174 275 -3 3
-39 45 -80 95 -99 119 -100 119 -140 144 -40 24 -72 26 -117 6z"/>
</g>
</svg>
