<?xml version="1.0" standalone="no"?>
<!DOCTYPE svg PUBLIC "-//W3C//DTD SVG 20010904//EN"
 "http://www.w3.org/TR/2001/REC-SVG-20010904/DTD/svg10.dtd">
<svg version="1.0" xmlns="http://www.w3.org/2000/svg"
 width="700.000000pt" height="700.000000pt" viewBox="0 0 700.000000 700.000000"
 preserveAspectRatio="xMidYMid meet">
<metadata>
Created by potrace 1.11, written by Peter Selinger 2001-2013
</metadata>
<g transform="translate(0.000000,700.000000) scale(0.100000,-0.100000)"
fill="#000000" stroke="none">
<path d="M3380 5340 c0 -5 5 -10 11 -10 5 0 7 5 4 10 -3 6 -8 10 -11 10 -2 0
-4 -4 -4 -10z"/>
<path d="M3382 5254 c-1 -38 -5 -109 -9 -159 -3 -49 -7 -135 -7 -190 -1 -55
-5 -106 -9 -112 -4 -7 -4 -21 2 -31 6 -11 6 -24 0 -35 -6 -9 -7 -23 -3 -29 12
-18 8 -78 -5 -91 -8 -8 -11 -8 -11 2 0 7 -4 9 -10 6 -5 -3 -18 -1 -28 4 -13 7
-22 7 -30 -1 -16 -16 -28 -3 -26 29 1 15 3 30 4 33 7 18 0 124 -8 129 -6 4
-13 68 -16 151 -3 79 -10 148 -16 154 -13 13 -11 35 -16 -209 -4 -168 -8 -212
-20 -218 -10 -6 -14 -29 -14 -92 0 -72 -3 -86 -18 -94 -18 -10 -19 -4 -18 115
1 69 -2 132 -6 142 -9 24 -10 14 -13 -142 l-2 -140 -29 -14 -30 -14 -1 -151
c-1 -84 -2 -227 -2 -319 -1 -136 -4 -168 -15 -168 -7 0 -18 -6 -24 -13 -7 -8
-12 -195 -16 -531 -3 -286 -9 -522 -13 -526 -5 -3 -41 -19 -80 -34 l-73 -28
-1 -106 c-2 -260 -1 -257 -29 -259 -53 -4 -55 1 -55 92 l0 85 -115 0 -115 0
-55 -50 c-30 -27 -56 -48 -57 -46 -2 1 -3 208 -3 459 -1 417 -2 457 -17 466
-15 8 -18 33 -21 193 -2 146 -6 184 -18 191 -8 4 -14 15 -14 22 0 8 -7 15 -15
15 -10 0 -15 10 -15 30 0 17 -8 38 -18 48 -10 10 -22 25 -26 33 -15 30 -67
111 -77 119 -3 3 -19 31 -34 63 -16 31 -34 56 -40 54 -5 -2 -16 -21 -24 -43
-8 -21 -18 -41 -22 -44 -3 -3 -9 -15 -13 -26 -6 -19 -14 -31 -55 -80 -5 -6
-12 -25 -16 -42 -3 -18 -13 -35 -20 -39 -8 -5 -16 -22 -19 -38 -3 -16 -12 -35
-21 -41 -8 -6 -15 -20 -15 -32 0 -11 -6 -22 -13 -25 -8 -3 -13 -41 -15 -128
-2 -68 -6 -149 -9 -179 -3 -30 -6 -278 -7 -551 -1 -336 -4 -500 -12 -510 -6
-8 -10 -37 -9 -65 l1 -51 -85 -6 c-47 -4 -105 -9 -128 -12 l-43 -6 -1 98 c0
54 -2 139 -4 188 -1 50 -6 205 -9 345 -4 140 -10 258 -12 262 -5 8 -320 228
-331 231 -4 1 -9 -18 -10 -43 0 -25 -2 -55 -2 -68 -1 -19 -6 -23 -28 -20 -28
3 -28 3 -29 86 -1 46 -4 85 -7 88 -2 2 -76 -45 -163 -107 -87 -61 -164 -114
-171 -117 -11 -7 -17 -88 -29 -407 -9 -257 -12 -325 -19 -500 -4 -93 -9 -201
-10 -240 -2 -38 -4 -79 -4 -91 -1 -17 -14 -25 -73 -42 -72 -21 -149 -41 -178
-47 -50 -11 -459 -131 -465 -137 -3 -2 1559 -4 3470 -4 1911 0 3475 4 3475 8
0 4 -6 8 -13 8 -8 0 -94 24 -193 54 -173 52 -328 95 -559 153 -93 24 -110 31
-111 48 -1 11 -5 70 -8 130 -4 61 -9 135 -11 165 -2 30 -6 107 -10 170 -3 63
-8 142 -10 175 -2 33 -7 103 -10 155 -10 177 -16 265 -20 325 -2 33 -7 114
-11 180 -4 66 -8 136 -9 155 -2 19 -3 54 -4 78 -1 23 -4 41 -8 41 -5 -1 -20
-1 -35 0 -21 1 -28 6 -28 22 0 11 -4 17 -10 14 -11 -7 -11 -7 -14 88 -1 38 -6
71 -11 75 -6 4 -10 85 -10 189 0 100 -3 192 -6 205 l-5 23 -5 -25 c-3 -14 -5
-143 -5 -288 l1 -262 -22 0 c-15 0 -23 6 -24 18 0 9 -2 37 -4 62 -2 25 -4 116
-5 203 0 86 -4 157 -8 157 -11 0 -13 -31 -11 -257 0 -195 0 -201 -20 -208 -11
-3 -20 -11 -18 -17 2 -9 -22 -26 -61 -45 -4 -1 -9 -98 -18 -343 -3 -102 -8
-212 -9 -245 -1 -33 -6 -159 -10 -280 -4 -121 -9 -247 -10 -280 -2 -33 -4 -86
-4 -117 -1 -58 -1 -58 -31 -58 -29 0 -30 2 -31 45 -1 25 -2 51 -3 58 -1 9 -50
12 -207 13 -113 0 -210 3 -215 6 -5 4 -9 377 -9 925 l1 918 -39 52 c-36 48
-42 52 -73 48 -18 -2 -35 -1 -38 3 -4 7 -19 320 -17 361 1 25 -18 60 -53 98
-21 23 -37 30 -35 16 4 -26 -5 -23 -36 11 -23 25 -35 48 -35 66 0 16 -3 35 -6
44 -12 32 -24 15 -24 -33 0 -34 -4 -51 -15 -55 -8 -3 -15 -18 -15 -33 l0 -28
-29 31 c-20 21 -31 44 -33 69 -5 61 -28 57 -28 -4 0 -39 -4 -51 -15 -51 -9 0
-15 -10 -15 -26 l0 -26 -27 33 c-16 18 -28 46 -29 62 -1 15 -9 36 -18 45 -15
15 -16 13 -17 -23 -1 -22 -1 -46 0 -52 1 -7 -5 -13 -14 -13 -16 0 -17 -11 -15
-247 1 -106 -1 -123 -15 -123 -13 0 -16 -13 -14 -79 2 -88 -3 -101 -32 -96
-42 8 -48 -3 -48 -83 0 -127 0 -132 -13 -130 -10 2 -14 -142 -16 -692 -1 -382
-5 -738 -10 -790 l-7 -95 -55 0 -55 0 -2 55 c-1 30 -2 75 -2 100 l-1 46 -127
0 c-130 -1 -147 -6 -137 -38 3 -10 1 -18 -4 -18 -5 0 -9 10 -9 23 -1 12 -1 63
-2 113 l-1 90 -76 13 c-46 8 -77 18 -81 27 -3 8 -9 11 -14 8 -5 -3 -9 30 -10
73 0 107 -9 580 -13 733 -2 82 -7 125 -15 128 -6 2 -11 27 -11 62 l0 59 -52
15 c-29 8 -65 18 -81 21 -15 4 -30 12 -34 17 -5 9 -10 257 -12 579 l-1 86 -39
15 -40 16 -1 188 c0 103 -3 190 -5 193 -3 2 -5 -36 -5 -85 l0 -89 -30 0 c-16
-1 -30 2 -31 5 -1 3 -2 70 -4 150 -3 186 -14 360 -24 378 -5 8 -9 -15 -9 -54z
m98 -596 c0 -88 0 -89 -22 -83 -36 11 -43 28 -41 101 0 38 2 72 2 75 1 3 15 4
31 1 l30 -4 0 -90z m506 -2204 c1 -9 0 -13 -4 -10 -3 4 -7 14 -8 22 -1 9 0 13
4 10 3 -4 7 -14 8 -22z"/>
<path d="M3205 5260 c-3 -5 -1 -10 4 -10 6 0 11 5 11 10 0 6 -2 10 -4 10 -3 0
-8 -4 -11 -10z"/>
<path d="M3200 5180 c0 -5 5 -10 11 -10 5 0 7 5 4 10 -3 6 -8 10 -11 10 -2 0
-4 -4 -4 -10z"/>
<path d="M3200 5145 c0 -8 4 -15 10 -15 5 0 7 7 4 15 -4 8 -8 15 -10 15 -2 0
-4 -7 -4 -15z"/>
<path d="M2092 4160 c3 -78 16 -78 14 0 0 33 -4 60 -9 60 -4 0 -6 -27 -5 -60z"/>
</g>
</svg>
