<?xml version="1.0" standalone="no"?>
<!DOCTYPE svg PUBLIC "-//W3C//DTD SVG 20010904//EN"
 "http://www.w3.org/TR/2001/REC-SVG-20010904/DTD/svg10.dtd">
<svg version="1.0" xmlns="http://www.w3.org/2000/svg"
 width="500.000000pt" height="500.000000pt" viewBox="0 0 500.000000 500.000000"
 preserveAspectRatio="xMidYMid meet">
<metadata>
Created by potrace 1.11, written by Peter Selinger 2001-2013
</metadata>
<g transform="translate(0.000000,500.000000) scale(0.100000,-0.100000)"
fill="#000000" stroke="none">
<path d="M895 3646 c-80 -16 -161 -43 -225 -76 -122 -62 -290 -205 -290 -247
1 -23 8 -32 112 -130 108 -102 118 -104 196 -29 133 127 300 159 448 86 109
-54 168 -149 167 -271 -1 -108 -64 -198 -177 -250 -78 -36 -160 -49 -318 -49
-102 0 -130 -3 -142 -16 -13 -12 -16 -41 -16 -150 0 -181 -7 -174 184 -174
155 0 212 -8 296 -39 179 -68 267 -245 196 -396 -28 -61 -109 -138 -173 -167
-59 -25 -171 -34 -244 -19 -74 16 -208 82 -274 136 -80 65 -91 63 -207 -48
-119 -112 -123 -130 -56 -203 88 -96 223 -175 374 -220 128 -38 346 -45 488
-15 273 56 469 228 532 466 21 77 18 231 -6 307 -24 78 -83 172 -148 235 -49
49 -188 143 -209 143 -27 0 -11 19 46 53 112 69 211 198 251 326 25 78 27 221
5 306 -40 150 -158 291 -306 364 -154 76 -355 106 -504 77z"/>
<path d="M3795 3645 c-162 -29 -330 -120 -462 -250 -100 -98 -100 -102 25
-227 113 -113 129 -118 183 -62 51 54 164 131 227 154 65 25 172 29 242 10
140 -38 231 -147 231 -279 1 -127 -37 -203 -223 -449 -207 -273 -522 -680
-669 -865 -125 -156 -129 -162 -129 -209 0 -35 6 -54 20 -68 20 -20 33 -20
694 -20 l675 0 20 26 c19 24 21 40 21 155 0 116 -2 131 -20 149 -19 19 -33 20
-385 20 -201 0 -365 2 -365 5 0 3 76 102 169 219 282 356 441 573 524 717 75
130 104 321 73 469 -58 278 -284 470 -597 510 -105 13 -165 12 -254 -5z"/>
<path d="M2279 3424 c-129 -108 -238 -204 -243 -212 -8 -14 -3 -110 11 -195 9
-62 27 -64 198 -28 80 17 150 31 156 31 5 0 9 -308 9 -803 0 -766 1 -805 18
-820 16 -14 44 -17 185 -17 160 0 166 1 181 22 14 20 16 141 16 1104 0 1034
-1 1082 -18 1097 -15 14 -42 17 -149 17 l-130 0 -234 -196z"/>
</g>
</svg>
